<?xml version="1.0" encoding="UTF-8"?>
<svg width="24px" height="24px" viewBox="0 0 24 24" version="1.1" xmlns="http://www.w3.org/2000/svg" xmlns:xlink="http://www.w3.org/1999/xlink">
    <!-- Generator: Sketch 60 (88103) - https://sketch.com -->
    <title>Icones/FranceTransfert/Ajout</title>
    <desc>Created with Sketch.</desc>
    <defs>
        <path d="M13,8 L8,8 L8,13 C8,13.55 7.55,14 7,14 C6.45,14 6,13.55 6,13 L6,8 L1,8 C0.45,8 0,7.55 0,7 C0,6.45 0.45,6 1,6 L6,6 L6,1 C6,0.45 6.45,0 7,0 C7.55,0 8,0.45 8,1 L8,6 L13,6 C13.55,6 14,6.45 14,7 C14,7.55 13.55,8 13,8 Z" id="path-1"></path>
    </defs>
    <g id="Icones/FranceTransfert/Ajout" stroke="none" stroke-width="1" fill="none" fill-rule="evenodd">
        <g id="Colors/Icones" transform="translate(5.000000, 5.000000)">
            <mask id="mask-2" fill="white">
                <use xlink:href="#path-1"></use>
            </mask>
            <use id="Mask" fill="#000000" fill-rule="nonzero" xlink:href="#path-1"></use>
            <g id="Colors/FranceTransfert/Neutres/Gris-medium-1" mask="url(#mask-2)" fill="#000">
                <g transform="translate(-5.000000, -5.000000)" id="Colors/France-transfert/Neutres/Gris-medium-1">
                    <rect x="0" y="0" width="24" height="24"></rect>
                </g>
            </g>
        </g>
    </g>
</svg>