<?xml version="1.0" encoding="UTF-8"?>
<svg width="24px" height="24px" viewBox="0 0 24 24" version="1.1" xmlns="http://www.w3.org/2000/svg" xmlns:xlink="http://www.w3.org/1999/xlink">
    <!-- Generator: Sketch 60 (88103) - https://sketch.com -->
    <title>Icones/FranceTransfert/Calendrier</title>
    <desc>Created with Sketch.</desc>
    <defs>
        <path d="M6.36363636,11.4545455 C6.7150903,11.4545455 7,11.1696357 7,10.8181818 C7,10.4667279 6.7150903,10.1818182 6.36363636,10.1818182 C6.01218243,10.1818182 5.72727273,10.4667279 5.72727273,10.8181818 C5.72727273,11.1696357 6.01218243,11.4545455 6.36363636,11.4545455 Z M9.54545455,11.4545455 C9.89690848,11.4545455 10.1818182,11.1696357 10.1818182,10.8181818 C10.1818182,10.4667279 9.89690848,10.1818182 9.54545455,10.1818182 C9.19400061,10.1818182 8.90909091,10.4667279 8.90909091,10.8181818 C8.90909091,11.1696357 9.19400061,11.4545455 9.54545455,11.4545455 Z M9.54545455,8.90909091 C9.89690848,8.90909091 10.1818182,8.6241812 10.1818182,8.27272727 C10.1818182,7.92127334 9.89690848,7.63636364 9.54545455,7.63636364 C9.19400061,7.63636364 8.90909091,7.92127334 8.90909091,8.27272727 C8.90909091,8.6241812 9.19400061,8.90909091 9.54545455,8.90909091 Z M6.36363636,8.90909091 C6.7150903,8.90909091 7,8.6241812 7,8.27272727 C7,7.92127334 6.7150903,7.63636364 6.36363636,7.63636364 C6.01218243,7.63636364 5.72727273,7.92127334 5.72727273,8.27272727 C5.72727273,8.6241812 6.01218243,8.90909091 6.36363636,8.90909091 Z M10.8181818,1.27272727 L10.1818182,1.27272727 L10.1818182,0.636363636 C10.1818182,0.284909705 9.89690848,0 9.54545455,0 C9.19400061,0 8.90909091,0.284909705 8.90909091,0.636363636 L8.90909091,1.27272727 L3.81818182,1.27272727 L3.81818182,0.636363636 C3.81818182,0.284909705 3.53327211,0 3.18181818,0 C2.83036425,0 2.54545455,0.284909705 2.54545455,0.636363636 L2.54545455,1.27272727 L1.90909091,1.27272727 C0.854729114,1.27272727 0,2.12745639 0,3.18181818 L0,12.0909091 C0,13.1452709 0.854729114,14 1.90909091,14 L10.8181818,14 C11.8725436,14 12.7272727,13.1452709 12.7272727,12.0909091 L12.7272727,3.18181818 C12.7272727,2.12745639 11.8725436,1.27272727 10.8181818,1.27272727 Z M11.4545455,12.0909091 C11.4545455,12.442363 11.1696357,12.7272727 10.8181818,12.7272727 L1.90909091,12.7272727 C1.55763698,12.7272727 1.27272727,12.442363 1.27272727,12.0909091 L1.27272727,6.36363636 L11.4545455,6.36363636 L11.4545455,12.0909091 Z M11.4545455,5.09090909 L1.27272727,5.09090909 L1.27272727,3.18181818 C1.27272727,2.83036425 1.55763698,2.54545455 1.90909091,2.54545455 L2.54545455,2.54545455 L2.54545455,3.18181818 C2.54545455,3.53327211 2.83036425,3.81818182 3.18181818,3.81818182 C3.53327211,3.81818182 3.81818182,3.53327211 3.81818182,3.18181818 L3.81818182,2.54545455 L8.90909091,2.54545455 L8.90909091,3.18181818 C8.90909091,3.53327211 9.19400061,3.81818182 9.54545455,3.81818182 C9.89690848,3.81818182 10.1818182,3.53327211 10.1818182,3.18181818 L10.1818182,2.54545455 L10.8181818,2.54545455 C11.1696357,2.54545455 11.4545455,2.83036425 11.4545455,3.18181818 L11.4545455,5.09090909 Z M3.18181818,8.90909091 C3.53327211,8.90909091 3.81818182,8.6241812 3.81818182,8.27272727 C3.81818182,7.92127334 3.53327211,7.63636364 3.18181818,7.63636364 C2.83036425,7.63636364 2.54545455,7.92127334 2.54545455,8.27272727 C2.54545455,8.6241812 2.83036425,8.90909091 3.18181818,8.90909091 Z M3.18181818,11.4545455 C3.53327211,11.4545455 3.81818182,11.1696357 3.81818182,10.8181818 C3.81818182,10.4667279 3.53327211,10.1818182 3.18181818,10.1818182 C2.83036425,10.1818182 2.54545455,10.4667279 2.54545455,10.8181818 C2.54545455,11.1696357 2.83036425,11.4545455 3.18181818,11.4545455 Z" id="path-1"></path>
    </defs>
    <g id="Icones/FranceTransfert/Calendrier" stroke="none" stroke-width="1" fill="none" fill-rule="evenodd">
        <g id="Colors/Icones" transform="translate(6.000000, 5.000000)">
            <mask id="mask-2" fill="white">
                <use xlink:href="#path-1"></use>
            </mask>
            <use id="Mask" fill="#000000" fill-rule="nonzero" xlink:href="#path-1"></use>
            <g id="Colors/FranceTransfert/Neutres/Gris-medium-1" mask="url(#mask-2)" fill="#414856">
                <g transform="translate(-6.000000, -5.000000)" id="Colors/France-transfert/Neutres/Gris-medium-1">
                    <rect x="0" y="0" width="24" height="24"></rect>
                </g>
            </g>
        </g>
    </g>
</svg>