<?xml version="1.0" encoding="UTF-8"?>
<svg width="24px" height="24px" viewBox="0 0 24 24" version="1.1" xmlns="http://www.w3.org/2000/svg" xmlns:xlink="http://www.w3.org/1999/xlink">
    <!-- Generator: Sketch 60 (88103) - https://sketch.com -->
    <title>Icones/FranceTransfert/en-cours</title>
    <desc>Created with Sketch.</desc>
    <defs>
        <path d="M7.8077869,3.52261021 L4.47514622,0.189969526 C4.41175692,0.129288385 4.33700914,0.0817216162 4.25519194,0.0499986174 C4.09291809,-0.0166662058 3.9109044,-0.0166662058 3.74863055,0.0499986174 C3.66681335,0.0817216162 3.59206557,0.129288385 3.52867627,0.189969526 L0.196035589,3.52261021 C0.0269650157,3.69168078 -0.0390645594,3.93810651 0.0228195654,4.16906121 C0.0847036902,4.4000159 0.265099844,4.58041206 0.496054542,4.64229618 C0.72700924,4.70418031 0.973434969,4.63815073 1.14250554,4.46908016 L3.33538311,2.26953731 L3.33538311,7.32848586 C3.33538311,7.69659919 3.63379792,7.995014 4.00191125,7.995014 C4.37002457,7.995014 4.66843938,7.69659919 4.66843938,7.32848586 L4.66843938,2.26953731 L6.86131695,4.46908016 C6.98646867,4.59526237 7.15683051,4.66623807 7.33455193,4.66623807 C7.51227335,4.66623807 7.68263518,4.59526237 7.8077869,4.46908016 C7.93396911,4.34392844 8.00494481,4.1735666 8.00494481,3.99584518 C8.00494481,3.81812376 7.93396911,3.64776193 7.8077869,3.52261021 Z" id="path-1"></path>
        <path d="M0,20 C5.5228475,20 10,15.5228475 10,10 C10,4.4771525 5.5228475,0 0,0" id="path-3"></path>
    </defs>
    <g id="Icones/FranceTransfert/en-cours" stroke="none" stroke-width="1" fill="none" fill-rule="evenodd">
        <circle id="Oval" stroke="#D9D9D9" cx="12" cy="12" r="10"></circle>
        <g id="Colors/Icones" transform="translate(8.000000, 8.000000)">
            <mask id="mask-2" fill="white">
                <use xlink:href="#path-1"></use>
            </mask>
            <use id="Mask" fill="#000000" fill-rule="nonzero" xlink:href="#path-1"></use>
            <g id="Colors/FranceTransfert/Neutres/Gris-medium-1" mask="url(#mask-2)" fill="#414856">
                <g transform="translate(-8.000000, -8.000000)" id="Colors/France-transfert/Neutres/Gris-medium-1">
                    <rect x="0" y="0" width="24" height="24"></rect>
                </g>
            </g>
        </g>
        <g id="Colors/Icones/Contours" transform="translate(12.000000, 2.000000)">
            <mask id="mask-4" fill="white">
                <use xlink:href="#path-3"></use>
            </mask>
            <use stroke="#0269CC" stroke-width="2" stroke-linecap="round" stroke-linejoin="round" xlink:href="#path-3"></use>
        </g>
    </g>
</svg>