<?xml version="1.0" encoding="UTF-8"?>
<svg width="24px" height="24px" viewBox="0 0 24 24" version="1.1" xmlns="http://www.w3.org/2000/svg" xmlns:xlink="http://www.w3.org/1999/xlink">
    <!-- Generator: Sketch 60 (88103) - https://sketch.com -->
    <title>Icones/FranceTransfert/Erreur</title>
    <desc>Created with Sketch.</desc>
    <defs>
        <path d="M10,0 C4.47,0 0,4.47 0,10 C0,15.53 4.47,20 10,20 C15.53,20 20,15.53 20,10 C20,4.47 15.53,0 10,0 Z M14.3,14.3 C13.91,14.69 13.28,14.69 12.89,14.3 L10,11.41 L7.11,14.3 C6.72,14.69 6.09,14.69 5.7,14.3 C5.31,13.91 5.31,13.28 5.7,12.89 L8.59,10 L5.7,7.11 C5.31,6.72 5.31,6.09 5.7,5.7 C6.09,5.31 6.72,5.31 7.11,5.7 L10,8.59 L12.89,5.7 C13.28,5.31 13.91,5.31 14.3,5.7 C14.69,6.09 14.69,6.72 14.3,7.11 L11.41,10 L14.3,12.89 C14.68,13.27 14.68,13.91 14.3,14.3 Z" id="path-1"></path>
    </defs>
    <g id="Icones/FranceTransfert/Erreur" stroke="none" stroke-width="1" fill="none" fill-rule="evenodd">
        <g id="Colors/Icones" transform="translate(2.000000, 2.000000)">
            <mask id="mask-2" fill="white">
                <use xlink:href="#path-1"></use>
            </mask>
            <use id="Mask" fill="#000000" fill-rule="nonzero" xlink:href="#path-1"></use>
            <g id="Colors/FranceTransfert/Neutres/Gris-medium-1" mask="url(#mask-2)" fill="#414856">
                <g transform="translate(-2.000000, -2.000000)" id="Colors/France-transfert/Neutres/Gris-medium-1">
                    <rect x="0" y="0" width="24" height="24"></rect>
                </g>
            </g>
        </g>
    </g>
</svg>