<?xml version="1.0" encoding="UTF-8"?>
<svg width="23px" height="23px" viewBox="0 0 23 23" version="1.1" xmlns="http://www.w3.org/2000/svg" xmlns:xlink="http://www.w3.org/1999/xlink">
    <!-- Generator: Sketch 60 (88103) - https://sketch.com -->
    <title>Icones/FranceTransfert/Cercle/Ajout/Inactif</title>
    <desc>Created with Sketch.</desc>
    <defs>
        <path d="M8.66666667,5.33333333 L5.33333333,5.33333333 L5.33333333,8.66666667 C5.33333333,9.03333333 5.03333333,9.33333333 4.66666667,9.33333333 C4.3,9.33333333 4,9.03333333 4,8.66666667 L4,5.33333333 L0.666666667,5.33333333 C0.3,5.33333333 0,5.03333333 0,4.66666667 C0,4.3 0.3,4 0.666666667,4 L4,4 L4,0.666666667 C4,0.3 4.3,0 4.66666667,0 C5.03333333,0 5.33333333,0.3 5.33333333,0.666666667 L5.33333333,4 L8.66666667,4 C9.03333333,4 9.33333333,4.3 9.33333333,4.66666667 C9.33333333,5.03333333 9.03333333,5.33333333 8.66666667,5.33333333 Z" id="path-1"></path>
    </defs>
    <g id="Icones/FranceTransfert/Cercle/Ajout/Inactif" stroke="none" stroke-width="1" fill="none" fill-rule="evenodd" opacity="0.5">
        <g>
            <circle id="Oval" stroke="#0269CC" stroke-width="2" cx="11.5" cy="11.5" r="11.5"></circle>
            <g id="Icones/FranceTransfert/Ajout" transform="translate(4.000000, 4.000000)">
                <g id="Colors/Icones" transform="translate(3.333333, 3.333333)">
                    <mask id="mask-2" fill="white">
                        <use xlink:href="#path-1"></use>
                    </mask>
                    <use id="Mask" fill="#000000" fill-rule="nonzero" xlink:href="#path-1"></use>
                    <g id="Colors/FranceTransfert/Primaire/Bleu-2" mask="url(#mask-2)" fill="#0269CC">
                        <g transform="translate(-3.333333, -3.333333)" id="Colors/France-transfert/Secondaire/Bleu-2">
                            <rect x="0" y="0" width="16" height="16"></rect>
                        </g>
                    </g>
                </g>
            </g>
        </g>
    </g>
</svg>