<svg xmlns="http://www.w3.org/2000/svg" viewBox="0 0 162.9 157.97"><defs><style>.cls-1,.cls-2{fill:#e1001d;}.cls-1{opacity:0.1;}.cls-3{fill:#fff;}</style></defs><title>illustration-envoi-echec</title><g id="Calque_2" data-name="Calque 2"><circle class="cls-1" cx="81.31" cy="77.79" r="74.27"/><path class="cls-2" d="M95.85,122.56l-29.79-.24a18.83,18.83,0,0,1-16.24-9.55L35.13,86.85A18.84,18.84,0,0,1,35.28,68l15.1-25.68A18.83,18.83,0,0,1,66.77,33l29.79.23a18.86,18.86,0,0,1,16.25,9.56L127.5,68.74a18.84,18.84,0,0,1-.15,18.84l-15.1,25.68A18.84,18.84,0,0,1,95.85,122.56Z"/><path class="cls-3" d="M93.33,114.79l-24.62-.19a15.59,15.59,0,0,1-13.43-7.9L43.14,85.28a15.57,15.57,0,0,1,.12-15.58L55.74,48.47A15.61,15.61,0,0,1,69.3,40.79l24.62.2a15.58,15.58,0,0,1,13.43,7.89l12.14,21.43a15.58,15.58,0,0,1-.12,15.57l-12.49,21.23A15.55,15.55,0,0,1,93.33,114.79Z"/><rect class="cls-2" x="74.02" y="53.41" width="15" height="50" rx="4.19" transform="translate(-31.57 80.61) rotate(-45)"/><rect class="cls-2" x="74.02" y="53.41" width="15" height="50" rx="4.19" transform="translate(79.32 -34.67) rotate(45)"/></g></svg>