<svg xmlns="http://www.w3.org/2000/svg" viewBox="0 0 162.9 157.97"><defs><style>.cls-1,.cls-3{fill:#40a02b;}.cls-1{opacity:0.1;}.cls-2{fill:#fff;}.cls-4,.cls-5{fill:none;stroke:#40a02b;stroke-linecap:round;stroke-linejoin:round;stroke-width:3px;}.cls-5{stroke-dasharray:3.06 7.15;}</style></defs><title>illustration-envoi-reussi</title><g id="Calque_2" data-name="Calque 2"><circle class="cls-1" cx="81.31" cy="77.79" r="74.27"/><polygon class="cls-2" points="138.26 30.76 100.24 72.43 129.83 83.94 138.26 30.76"/><path class="cls-3" d="M129.83,85.2a1.2,1.2,0,0,1-.45-.09L99.79,73.6a1.24,1.24,0,0,1-.47-2l38-41.67a1.25,1.25,0,0,1,2.16,1l-8.43,53.18a1.26,1.26,0,0,1-1.24,1.06ZM102.4,71.93l26.44,10.28,7.53-47.51Z"/><polygon class="cls-2" points="138.26 30.76 63.47 56.71 86.6 66.62 138.26 30.76"/><path class="cls-3" d="M86.6,67.87a1.16,1.16,0,0,1-.49-.1L63,57.86a1.26,1.26,0,0,1,.08-2.34l74.79-25.94A1.25,1.25,0,0,1,139,31.79L87.32,67.65A1.27,1.27,0,0,1,86.6,67.87Zm-19.66-11,19.52,8.36L130,34.94Z"/><polygon class="cls-2" points="86.6 66.62 92.9 89.86 100.24 72.43 86.6 66.62"/><path class="cls-3" d="M92.9,91.11h-.08a1.26,1.26,0,0,1-1.13-.92L85.39,67a1.25,1.25,0,1,1,2.42-.66L93.16,86l5.93-14.07a1.25,1.25,0,0,1,2.31,1L94.06,90.35A1.26,1.26,0,0,1,92.9,91.11Z"/><path class="cls-3" d="M92.9,89.86,106,75.47Z"/><path class="cls-3" d="M92.9,91.11a1.23,1.23,0,0,1-.84-.32A1.26,1.26,0,0,1,92,89l13.1-14.39a1.26,1.26,0,0,1,1.86,1.69L93.83,90.7A1.23,1.23,0,0,1,92.9,91.11Z"/><path class="cls-4" d="M19.44,142s.54,0,1.49-.13"/><path class="cls-5" d="M28,140.77c10.86-2.33,28.5-8.84,30.81-26.68,1-11,0-23-6.82-23.32s-15,34.76,6.82,33.44c15.45-.93,24.19-12,28-18.4"/><path class="cls-4" d="M88.47,102.67c.41-.87.61-1.37.61-1.37"/></g></svg>