<svg id="_ÎÓÈ_1" data-name="—ÎÓÈ_1" xmlns="http://www.w3.org/2000/svg" xmlns:xlink="http://www.w3.org/1999/xlink" viewBox="0 0 600 400"><defs><style>.cls-1{opacity:0.4;}.cls-2,.cls-74{fill:#fff;}.cls-3{fill:url(#Dégradé_sans_nom_10);}.cls-4{fill:url(#Dégradé_sans_nom_10-2);}.cls-5{fill:url(#Dégradé_sans_nom_10-3);}.cls-6{fill:url(#Dégradé_sans_nom_10-4);}.cls-7{fill:url(#Dégradé_sans_nom_10-5);}.cls-8{fill:url(#Dégradé_sans_nom_10-6);}.cls-9{fill:url(#Dégradé_sans_nom_10-7);}.cls-10{fill:url(#Dégradé_sans_nom_10-8);}.cls-11{fill:url(#Dégradé_sans_nom_10-9);}.cls-12{fill:url(#Dégradé_sans_nom_10-10);}.cls-13{fill:url(#Dégradé_sans_nom_10-11);}.cls-14{fill:url(#Dégradé_sans_nom_10-12);}.cls-15{fill:url(#Dégradé_sans_nom_10-13);}.cls-16{fill:url(#Dégradé_sans_nom_10-14);}.cls-17{fill:url(#Dégradé_sans_nom_10-15);}.cls-18{fill:url(#Dégradé_sans_nom_10-16);}.cls-19{fill:url(#Dégradé_sans_nom_10-17);}.cls-20{fill:url(#Dégradé_sans_nom_10-18);}.cls-21{fill:url(#Dégradé_sans_nom_10-19);}.cls-22{fill:url(#Dégradé_sans_nom_10-20);}.cls-23{fill:url(#Dégradé_sans_nom_10-21);}.cls-24{fill:url(#Dégradé_sans_nom_10-22);}.cls-25{fill:url(#Dégradé_sans_nom_10-23);}.cls-26{fill:url(#Dégradé_sans_nom_10-24);}.cls-27{fill:url(#Dégradé_sans_nom_10-25);}.cls-28{fill:url(#Dégradé_sans_nom_10-26);}.cls-29{fill:url(#Dégradé_sans_nom_10-27);}.cls-30{fill:url(#Dégradé_sans_nom_10-28);}.cls-31{fill:url(#Dégradé_sans_nom_10-29);}.cls-32{fill:url(#Dégradé_sans_nom_10-30);}.cls-33{fill:url(#Dégradé_sans_nom_10-31);}.cls-34{fill:url(#Dégradé_sans_nom_10-32);}.cls-35{fill:url(#Dégradé_sans_nom_10-33);}.cls-36{fill:url(#Dégradé_sans_nom_10-34);}.cls-37{fill:url(#Dégradé_sans_nom_10-35);}.cls-38{fill:url(#Dégradé_sans_nom_10-36);}.cls-39{fill:url(#Dégradé_sans_nom_10-37);}.cls-40{fill:url(#Dégradé_sans_nom_10-38);}.cls-41{fill:url(#Dégradé_sans_nom_10-39);}.cls-42{fill:url(#Dégradé_sans_nom_10-40);}.cls-43{fill:url(#Dégradé_sans_nom_10-41);}.cls-44{fill:url(#Dégradé_sans_nom_10-42);}.cls-45{fill:url(#Dégradé_sans_nom_10-43);}.cls-46{fill:url(#Dégradé_sans_nom_10-44);}.cls-47{fill:url(#Dégradé_sans_nom_10-45);}.cls-48{fill:url(#Dégradé_sans_nom_10-46);}.cls-49{fill:url(#Dégradé_sans_nom_10-47);}.cls-50{fill:url(#Dégradé_sans_nom_10-48);}.cls-51{fill:url(#Dégradé_sans_nom_10-49);}.cls-52{fill:url(#Dégradé_sans_nom_10-50);}.cls-53{fill:url(#Dégradé_sans_nom_10-51);}.cls-54{fill:url(#Dégradé_sans_nom_10-52);}.cls-55{fill:url(#Dégradé_sans_nom_10-53);}.cls-56{fill:url(#Dégradé_sans_nom_10-54);}.cls-57{fill:url(#Dégradé_sans_nom_10-55);}.cls-58{fill:url(#Dégradé_sans_nom_10-56);}.cls-59{fill:url(#Dégradé_sans_nom_10-57);}.cls-60{fill:url(#Dégradé_sans_nom_10-58);}.cls-61{fill:url(#Dégradé_sans_nom_10-59);}.cls-62{fill:url(#Dégradé_sans_nom_10-60);}.cls-63{fill:url(#Dégradé_sans_nom_10-61);}.cls-64{fill:url(#Dégradé_sans_nom_10-62);}.cls-65{fill:url(#Dégradé_sans_nom_10-63);}.cls-66{fill:url(#Dégradé_sans_nom_10-64);}.cls-67{fill:url(#Dégradé_sans_nom_10-65);}.cls-68{fill:url(#Dégradé_sans_nom_10-66);}.cls-69{fill:url(#Dégradé_sans_nom_10-67);}.cls-70{fill:url(#Dégradé_sans_nom_10-68);}.cls-71{fill:url(#Dégradé_sans_nom_10-69);}.cls-72{fill:url(#Dégradé_sans_nom_10-70);}.cls-73{fill:url(#Dégradé_sans_nom_10-71);}.cls-74,.cls-90{opacity:0.5;}.cls-75{fill:#7dc3ea;}.cls-76{fill:url(#_ÂÁ_Ï_ÌÌ_È_ËÂÌÚ_3);}.cls-77{fill:url(#_ÂÁ_Ï_ÌÌ_È_ËÂÌÚ_10);}.cls-78{fill:url(#_ÂÁ_Ï_ÌÌ_È_ËÂÌÚ_13);}.cls-79{fill:#396caa;}.cls-80{fill:url(#_ÂÁ_Ï_ÌÌ_È_ËÂÌÚ_13-2);}.cls-81{fill:#d4ecff;}.cls-82{fill:#5793ce;}.cls-83{fill:url(#_ÂÁ_Ï_ÌÌ_È_ËÂÌÚ_45);}.cls-84,.cls-90{fill:#173d7a;}.cls-85{fill:#274f89;}.cls-86{fill:url(#_ÂÁ_Ï_ÌÌ_È_ËÂÌÚ_59);}.cls-87{fill:url(#_ÂÁ_Ï_ÌÌ_È_ËÂÌÚ_70);}.cls-88{fill:url(#_ÂÁ_Ï_ÌÌ_È_ËÂÌÚ_59-2);}.cls-89{fill:#ff2c9c;}.cls-91{fill:url(#_ÂÁ_Ï_ÌÌ_È_ËÂÌÚ_13-3);}.cls-92{fill:url(#_ÂÁ_Ï_ÌÌ_È_ËÂÌÚ_13-4);}.cls-93{fill:url(#_ÂÁ_Ï_ÌÌ_È_ËÂÌÚ_13-5);}.cls-94{fill:url(#_ÂÁ_Ï_ÌÌ_È_ËÂÌÚ_13-6);}.cls-95{fill:url(#_ÂÁ_Ï_ÌÌ_È_ËÂÌÚ_13-7);}.cls-96{fill:url(#_ÂÁ_Ï_ÌÌ_È_ËÂÌÚ_10-2);}.cls-97{fill:url(#_ÂÁ_Ï_ÌÌ_È_ËÂÌÚ_70-2);}</style><linearGradient id="Dégradé_sans_nom_10" x1="532.61" y1="-133.91" x2="536.32" y2="109.91" gradientUnits="userSpaceOnUse"><stop offset="0.64" stop-color="#fff" stop-opacity="0"/><stop offset="1" stop-color="#fff"/></linearGradient><linearGradient id="Dégradé_sans_nom_10-2" x1="472.27" y1="-132.99" x2="475.98" y2="110.83" xlink:href="#Dégradé_sans_nom_10"/><linearGradient id="Dégradé_sans_nom_10-3" x1="502.18" y1="-133.45" x2="505.88" y2="110.37" xlink:href="#Dégradé_sans_nom_10"/><linearGradient id="Dégradé_sans_nom_10-4" x1="532.08" y1="-133.9" x2="535.79" y2="109.92" xlink:href="#Dégradé_sans_nom_10"/><linearGradient id="Dégradé_sans_nom_10-5" x1="411.93" y1="-132.07" x2="415.64" y2="111.75" xlink:href="#Dégradé_sans_nom_10"/><linearGradient id="Dégradé_sans_nom_10-6" x1="441.84" y1="-132.53" x2="445.54" y2="111.29" xlink:href="#Dégradé_sans_nom_10"/><linearGradient id="Dégradé_sans_nom_10-7" x1="471.74" y1="-132.98" x2="475.45" y2="110.84" xlink:href="#Dégradé_sans_nom_10"/><linearGradient id="Dégradé_sans_nom_10-8" x1="501.65" y1="-133.44" x2="505.35" y2="110.38" xlink:href="#Dégradé_sans_nom_10"/><linearGradient id="Dégradé_sans_nom_10-9" x1="531.55" y1="-133.89" x2="535.26" y2="109.93" xlink:href="#Dégradé_sans_nom_10"/><linearGradient id="Dégradé_sans_nom_10-10" x1="351.59" y1="-131.16" x2="355.3" y2="112.66" xlink:href="#Dégradé_sans_nom_10"/><linearGradient id="Dégradé_sans_nom_10-11" x1="381.5" y1="-131.61" x2="385.2" y2="112.21" xlink:href="#Dégradé_sans_nom_10"/><linearGradient id="Dégradé_sans_nom_10-12" x1="411.4" y1="-132.07" x2="415.11" y2="111.75" xlink:href="#Dégradé_sans_nom_10"/><linearGradient id="Dégradé_sans_nom_10-13" x1="441.31" y1="-132.52" x2="445.01" y2="111.3" xlink:href="#Dégradé_sans_nom_10"/><linearGradient id="Dégradé_sans_nom_10-14" x1="471.21" y1="-132.97" x2="474.92" y2="110.85" xlink:href="#Dégradé_sans_nom_10"/><linearGradient id="Dégradé_sans_nom_10-15" x1="501.12" y1="-133.43" x2="504.82" y2="110.39" xlink:href="#Dégradé_sans_nom_10"/><linearGradient id="Dégradé_sans_nom_10-16" x1="531.03" y1="-133.88" x2="534.73" y2="109.94" xlink:href="#Dégradé_sans_nom_10"/><linearGradient id="Dégradé_sans_nom_10-17" x1="291.25" y1="-130.24" x2="294.95" y2="113.58" xlink:href="#Dégradé_sans_nom_10"/><linearGradient id="Dégradé_sans_nom_10-18" x1="321.16" y1="-130.69" x2="324.86" y2="113.13" xlink:href="#Dégradé_sans_nom_10"/><linearGradient id="Dégradé_sans_nom_10-19" x1="351.06" y1="-131.15" x2="354.77" y2="112.67" xlink:href="#Dégradé_sans_nom_10"/><linearGradient id="Dégradé_sans_nom_10-20" x1="380.97" y1="-131.6" x2="384.67" y2="112.22" xlink:href="#Dégradé_sans_nom_10"/><linearGradient id="Dégradé_sans_nom_10-21" x1="410.87" y1="-132.06" x2="414.58" y2="111.76" xlink:href="#Dégradé_sans_nom_10"/><linearGradient id="Dégradé_sans_nom_10-22" x1="440.78" y1="-132.51" x2="444.48" y2="111.31" xlink:href="#Dégradé_sans_nom_10"/><linearGradient id="Dégradé_sans_nom_10-23" x1="470.68" y1="-132.97" x2="474.39" y2="110.85" xlink:href="#Dégradé_sans_nom_10"/><linearGradient id="Dégradé_sans_nom_10-24" x1="230.91" y1="-129.32" x2="234.61" y2="114.5" xlink:href="#Dégradé_sans_nom_10"/><linearGradient id="Dégradé_sans_nom_10-25" x1="260.81" y1="-129.78" x2="264.52" y2="114.04" xlink:href="#Dégradé_sans_nom_10"/><linearGradient id="Dégradé_sans_nom_10-26" x1="290.72" y1="-130.23" x2="294.43" y2="113.59" xlink:href="#Dégradé_sans_nom_10"/><linearGradient id="Dégradé_sans_nom_10-27" x1="320.63" y1="-130.69" x2="324.33" y2="113.13" xlink:href="#Dégradé_sans_nom_10"/><linearGradient id="Dégradé_sans_nom_10-28" x1="350.53" y1="-131.14" x2="354.24" y2="112.68" xlink:href="#Dégradé_sans_nom_10"/><linearGradient id="Dégradé_sans_nom_10-29" x1="380.44" y1="-131.59" x2="384.14" y2="112.22" xlink:href="#Dégradé_sans_nom_10"/><linearGradient id="Dégradé_sans_nom_10-30" x1="410.34" y1="-132.05" x2="414.05" y2="111.77" xlink:href="#Dégradé_sans_nom_10"/><linearGradient id="Dégradé_sans_nom_10-31" x1="230.38" y1="-129.31" x2="234.09" y2="114.51" xlink:href="#Dégradé_sans_nom_10"/><linearGradient id="Dégradé_sans_nom_10-32" x1="260.29" y1="-129.77" x2="263.99" y2="114.05" xlink:href="#Dégradé_sans_nom_10"/><linearGradient id="Dégradé_sans_nom_10-33" x1="290.19" y1="-130.22" x2="293.9" y2="113.6" xlink:href="#Dégradé_sans_nom_10"/><linearGradient id="Dégradé_sans_nom_10-34" x1="320.1" y1="-130.68" x2="323.8" y2="113.14" xlink:href="#Dégradé_sans_nom_10"/><linearGradient id="Dégradé_sans_nom_10-35" x1="350" y1="-131.13" x2="353.71" y2="112.69" xlink:href="#Dégradé_sans_nom_10"/><linearGradient id="Dégradé_sans_nom_10-36" x1="229.85" y1="-129.31" x2="233.56" y2="114.51" xlink:href="#Dégradé_sans_nom_10"/><linearGradient id="Dégradé_sans_nom_10-37" x1="259.76" y1="-129.76" x2="263.46" y2="114.06" xlink:href="#Dégradé_sans_nom_10"/><linearGradient id="Dégradé_sans_nom_10-38" x1="289.66" y1="-130.22" x2="293.37" y2="113.6" xlink:href="#Dégradé_sans_nom_10"/><linearGradient id="Dégradé_sans_nom_10-39" x1="229.32" y1="-129.3" x2="233.03" y2="114.52" xlink:href="#Dégradé_sans_nom_10"/><linearGradient id="Dégradé_sans_nom_10-40" x1="592.27" y1="-129.04" x2="595.98" y2="114.78" xlink:href="#Dégradé_sans_nom_10"/><linearGradient id="Dégradé_sans_nom_10-41" x1="622.18" y1="-129.49" x2="625.89" y2="114.33" xlink:href="#Dégradé_sans_nom_10"/><linearGradient id="Dégradé_sans_nom_10-42" x1="591.75" y1="-129.03" x2="595.45" y2="114.79" xlink:href="#Dégradé_sans_nom_10"/><linearGradient id="Dégradé_sans_nom_10-43" x1="621.65" y1="-129.49" x2="625.36" y2="114.33" xlink:href="#Dégradé_sans_nom_10"/><linearGradient id="Dégradé_sans_nom_10-44" x1="591.22" y1="-129.02" x2="594.92" y2="114.8" xlink:href="#Dégradé_sans_nom_10"/><linearGradient id="Dégradé_sans_nom_10-45" x1="621.12" y1="-129.48" x2="624.83" y2="114.34" xlink:href="#Dégradé_sans_nom_10"/><linearGradient id="Dégradé_sans_nom_10-46" x1="590.69" y1="-129.02" x2="594.39" y2="114.8" xlink:href="#Dégradé_sans_nom_10"/><linearGradient id="Dégradé_sans_nom_10-47" x1="172.54" y1="-134.41" x2="176.25" y2="109.41" xlink:href="#Dégradé_sans_nom_10"/><linearGradient id="Dégradé_sans_nom_10-48" x1="112.2" y1="-133.49" x2="115.91" y2="110.33" xlink:href="#Dégradé_sans_nom_10"/><linearGradient id="Dégradé_sans_nom_10-49" x1="142.11" y1="-133.94" x2="145.81" y2="109.88" xlink:href="#Dégradé_sans_nom_10"/><linearGradient id="Dégradé_sans_nom_10-50" x1="172.02" y1="-134.4" x2="175.72" y2="109.42" xlink:href="#Dégradé_sans_nom_10"/><linearGradient id="Dégradé_sans_nom_10-51" x1="51.86" y1="-132.57" x2="55.57" y2="111.25" xlink:href="#Dégradé_sans_nom_10"/><linearGradient id="Dégradé_sans_nom_10-52" x1="81.77" y1="-133.03" x2="85.47" y2="110.79" xlink:href="#Dégradé_sans_nom_10"/><linearGradient id="Dégradé_sans_nom_10-53" x1="111.67" y1="-133.48" x2="115.38" y2="110.34" xlink:href="#Dégradé_sans_nom_10"/><linearGradient id="Dégradé_sans_nom_10-54" x1="141.58" y1="-133.94" x2="145.29" y2="109.88" xlink:href="#Dégradé_sans_nom_10"/><linearGradient id="Dégradé_sans_nom_10-55" x1="171.49" y1="-134.39" x2="175.19" y2="109.43" xlink:href="#Dégradé_sans_nom_10"/><linearGradient id="Dégradé_sans_nom_10-56" x1="-8.48" y1="-131.65" x2="-4.77" y2="112.17" xlink:href="#Dégradé_sans_nom_10"/><linearGradient id="Dégradé_sans_nom_10-57" x1="21.43" y1="-132.11" x2="25.13" y2="111.71" xlink:href="#Dégradé_sans_nom_10"/><linearGradient id="Dégradé_sans_nom_10-58" x1="51.33" y1="-132.56" x2="55.04" y2="111.26" xlink:href="#Dégradé_sans_nom_10"/><linearGradient id="Dégradé_sans_nom_10-59" x1="81.24" y1="-133.02" x2="84.95" y2="110.8" xlink:href="#Dégradé_sans_nom_10"/><linearGradient id="Dégradé_sans_nom_10-60" x1="111.15" y1="-133.47" x2="114.85" y2="110.35" xlink:href="#Dégradé_sans_nom_10"/><linearGradient id="Dégradé_sans_nom_10-61" x1="141.05" y1="-133.93" x2="144.76" y2="109.89" xlink:href="#Dégradé_sans_nom_10"/><linearGradient id="Dégradé_sans_nom_10-62" x1="170.96" y1="-134.38" x2="174.66" y2="109.44" xlink:href="#Dégradé_sans_nom_10"/><linearGradient id="Dégradé_sans_nom_10-63" x1="-9.01" y1="-131.65" x2="-5.3" y2="112.17" xlink:href="#Dégradé_sans_nom_10"/><linearGradient id="Dégradé_sans_nom_10-64" x1="20.9" y1="-132.1" x2="24.61" y2="111.72" xlink:href="#Dégradé_sans_nom_10"/><linearGradient id="Dégradé_sans_nom_10-65" x1="50.81" y1="-132.56" x2="54.51" y2="111.26" xlink:href="#Dégradé_sans_nom_10"/><linearGradient id="Dégradé_sans_nom_10-66" x1="80.71" y1="-133.01" x2="84.42" y2="110.81" xlink:href="#Dégradé_sans_nom_10"/><linearGradient id="Dégradé_sans_nom_10-67" x1="110.62" y1="-133.46" x2="114.32" y2="110.36" xlink:href="#Dégradé_sans_nom_10"/><linearGradient id="Dégradé_sans_nom_10-68" x1="-9.53" y1="-131.64" x2="-5.83" y2="112.18" xlink:href="#Dégradé_sans_nom_10"/><linearGradient id="Dégradé_sans_nom_10-69" x1="20.37" y1="-132.09" x2="24.08" y2="111.73" xlink:href="#Dégradé_sans_nom_10"/><linearGradient id="Dégradé_sans_nom_10-70" x1="50.28" y1="-132.55" x2="53.98" y2="111.27" xlink:href="#Dégradé_sans_nom_10"/><linearGradient id="Dégradé_sans_nom_10-71" x1="-10.06" y1="-131.63" x2="-6.36" y2="112.19" xlink:href="#Dégradé_sans_nom_10"/><radialGradient id="_ÂÁ_Ï_ÌÌ_È_ËÂÌÚ_3" cx="538.19" cy="174.52" r="33.67" gradientUnits="userSpaceOnUse"><stop offset="0" stop-color="#274f89"/><stop offset="1" stop-color="#173d7a"/></radialGradient><linearGradient id="_ÂÁ_Ï_ÌÌ_È_ËÂÌÚ_10" x1="517.74" y1="162.31" x2="577.32" y2="162.31" gradientUnits="userSpaceOnUse"><stop offset="0" stop-color="#d4ecff"/><stop offset="0.24" stop-color="#d0eafe"/><stop offset="0.46" stop-color="#c5e2f9"/><stop offset="0.67" stop-color="#b2d6f2"/><stop offset="0.88" stop-color="#98c4e7"/><stop offset="1" stop-color="#86b8e0"/></linearGradient><radialGradient id="_ÂÁ_Ï_ÌÌ_È_ËÂÌÚ_13" cx="489.79" cy="139.68" r="60.86" gradientUnits="userSpaceOnUse"><stop offset="0" stop-color="#699dd1"/><stop offset="0.27" stop-color="#6396cc"/><stop offset="0.64" stop-color="#5184bd"/><stop offset="1" stop-color="#396caa"/></radialGradient><radialGradient id="_ÂÁ_Ï_ÌÌ_È_ËÂÌÚ_13-2" cx="195.4" cy="265.82" r="39.39" xlink:href="#_ÂÁ_Ï_ÌÌ_È_ËÂÌÚ_13"/><linearGradient id="_ÂÁ_Ï_ÌÌ_È_ËÂÌÚ_45" x1="202.83" y1="253.19" x2="264.54" y2="289.98" gradientUnits="userSpaceOnUse"><stop offset="0" stop-color="#d4ecff"/><stop offset="0.2" stop-color="#d0eafe"/><stop offset="0.39" stop-color="#c5e2f9"/><stop offset="0.57" stop-color="#b2d6f2"/><stop offset="0.74" stop-color="#98c4e7"/><stop offset="0.84" stop-color="#86b8e0"/></linearGradient><radialGradient id="_ÂÁ_Ï_ÌÌ_È_ËÂÌÚ_59" cx="507.96" cy="233.65" r="201.69" gradientUnits="userSpaceOnUse"><stop offset="0" stop-color="#86b8e0"/><stop offset="0.12" stop-color="#98c4e7"/><stop offset="0.33" stop-color="#b2d6f2"/><stop offset="0.54" stop-color="#c5e2f9"/><stop offset="0.76" stop-color="#d0eafe"/><stop offset="1" stop-color="#d4ecff"/></radialGradient><radialGradient id="_ÂÁ_Ï_ÌÌ_È_ËÂÌÚ_70" cx="491.99" cy="188.07" r="138.79" gradientUnits="userSpaceOnUse"><stop offset="0" stop-color="#173d7a"/><stop offset="1" stop-color="#274f89"/></radialGradient><radialGradient id="_ÂÁ_Ï_ÌÌ_È_ËÂÌÚ_59-2" cx="513.45" cy="249.17" r="273.72" xlink:href="#_ÂÁ_Ï_ÌÌ_È_ËÂÌÚ_59"/><radialGradient id="_ÂÁ_Ï_ÌÌ_È_ËÂÌÚ_13-3" cx="318.14" cy="201.78" r="12.73" xlink:href="#_ÂÁ_Ï_ÌÌ_È_ËÂÌÚ_13"/><radialGradient id="_ÂÁ_Ï_ÌÌ_È_ËÂÌÚ_13-4" cx="311.02" cy="188.12" r="20.13" xlink:href="#_ÂÁ_Ï_ÌÌ_È_ËÂÌÚ_13"/><radialGradient id="_ÂÁ_Ï_ÌÌ_È_ËÂÌÚ_13-5" cx="360.95" cy="226.53" r="12.73" xlink:href="#_ÂÁ_Ï_ÌÌ_È_ËÂÌÚ_13"/><radialGradient id="_ÂÁ_Ï_ÌÌ_È_ËÂÌÚ_13-6" cx="353.83" cy="212.86" r="20.13" xlink:href="#_ÂÁ_Ï_ÌÌ_È_ËÂÌÚ_13"/><radialGradient id="_ÂÁ_Ï_ÌÌ_È_ËÂÌÚ_13-7" cx="372.86" cy="142.27" r="72.45" xlink:href="#_ÂÁ_Ï_ÌÌ_È_ËÂÌÚ_13"/><linearGradient id="_ÂÁ_Ï_ÌÌ_È_ËÂÌÚ_10-2" x1="275.99" y1="148.21" x2="422.32" y2="148.21" xlink:href="#_ÂÁ_Ï_ÌÌ_È_ËÂÌÚ_10"/><radialGradient id="_ÂÁ_Ï_ÌÌ_È_ËÂÌÚ_70-2" cx="417.44" cy="202.87" r="146.5" xlink:href="#_ÂÁ_Ï_ÌÌ_È_ËÂÌÚ_70"/></defs><title>illustration-transfert-fichiers</title><g class="cls-1"><path class="cls-2" d="M535.72,155.16l-31.29-18.07L535.72,119,567,137.09Zm-29.07-18.07,29.07,16.79,29.07-16.79-29.07-16.78Z"/><path class="cls-2" d="M475.36,155.16l-.27-.16-31-17.91L475.36,119l.28.16,31,17.9Zm-29.07-18.07,29.07,16.79,29.07-16.79-29.07-16.78Z"/><path class="cls-2" d="M505.54,172.58l-31.28-18.06,31.28-18.06,31.29,18.06Zm-29.07-18.06,29.07,16.78,29.07-16.78-29.07-16.79Z"/><path class="cls-2" d="M535.72,190l-.28-.16-31-17.9,31.29-18.06.27.16,31,17.9Zm-29.07-18.06,29.07,16.78,29.07-16.78-29.07-16.78Z"/><path class="cls-2" d="M415,155.16l-.28-.16-31-17.91L415,119l.28.16,31,17.9Zm-29.07-18.07L415,153.88l29.07-16.79L415,120.31Z"/><path class="cls-2" d="M445.19,172.58l-.28-.16-31-17.9,31.29-18.07.27.16,31,17.91Zm-29.07-18.06,29.07,16.78,29.07-16.78-29.07-16.79Z"/><path class="cls-2" d="M475.37,190l-.28-.16-31-17.9,31.28-18.06,31.29,18.06ZM446.3,171.94l29.07,16.78,29.06-16.78-29.07-16.78Z"/><path class="cls-2" d="M505.54,207.43l-31.28-18.07,31.28-18.06.28.16,31,17.9Zm-29.07-18.07,29.07,16.79,29.07-16.79-29.07-16.78Z"/><path class="cls-2" d="M535.72,224.85l-31.28-18.06,31.28-18.07.28.16,31,17.91Zm-29.07-18.06,29.07,16.78,29.07-16.78L535.72,190Z"/><path class="cls-2" d="M354.66,155.16l-.28-.16-31-17.91L354.65,119l31.29,18.06Zm-29.07-18.07,29.07,16.79,29.07-16.79-29.08-16.78Z"/><path class="cls-2" d="M384.83,172.58l-31.28-18.06,31.28-18.07.28.16,31,17.91Zm-29.07-18.06,29.07,16.78,29.07-16.78-29.07-16.79Z"/><path class="cls-2" d="M415,190l-.27-.16-31-17.9L415,153.88l.28.16,31,17.9Zm-29.07-18.06L415,188.72l29.07-16.78L415,155.16Z"/><path class="cls-2" d="M445.19,207.43l-.28-.17-31-17.9,31.29-18.06.27.16,31,17.9Zm-29.07-18.07,29.07,16.79,29.07-16.79-29.07-16.78Z"/><path class="cls-2" d="M475.37,224.85l-31.29-18.06,31.29-18.07,31.28,18.07ZM446.3,206.79l29.07,16.78,29.07-16.78L475.37,190Z"/><path class="cls-2" d="M505.54,242.27l-.27-.16-31-17.9,31.28-18.06,31.29,18.06Zm-29.07-18.06L505.54,241l29.07-16.78-29.07-16.78Z"/><path class="cls-2" d="M535.72,259.69l-31.28-18.06,31.28-18.06.28.16,31,17.9Zm-29.07-18.06,29.07,16.79,29.07-16.79-29.07-16.78Z"/><path class="cls-2" d="M294.3,155.16,294,155l-31-17.91L294.3,119l.28.16,31,17.9Zm-29.07-18.07,29.07,16.79,29.07-16.79L294.3,120.31Z"/><path class="cls-2" d="M324.48,172.58l-.28-.16-31-17.9,31.29-18.07.27.16,31,17.91Zm-29.07-18.06,29.07,16.78,29.07-16.78-29.07-16.79Z"/><path class="cls-2" d="M354.66,190l-.28-.16-31-17.9,31.29-18.06,31.28,18.06Zm-29.07-18.06,29.07,16.78,29.07-16.78-29.07-16.78Z"/><path class="cls-2" d="M384.83,207.42l-.27-.16-31-17.9,31.28-18.06.28.16,31,17.9Zm-29.07-18.06,29.07,16.78,29.07-16.78-29.07-16.78Z"/><path class="cls-2" d="M415,224.85l-31.28-18.07L415,188.72l.28.16,31,17.91Zm-29.07-18.07L415,223.57l29.07-16.78L415,190Z"/><path class="cls-2" d="M445.19,242.27,413.9,224.21l31.29-18.06,31.28,18.06Zm-29.07-18.06L445.19,241l29.07-16.78-29.07-16.78Z"/><path class="cls-2" d="M475.37,259.69l-.28-.16-31-17.9,31.29-18.06.27.16,31,17.9ZM446.3,241.63l29.07,16.78,29.07-16.78-29.07-16.78Z"/><path class="cls-2" d="M505.54,277.12l-.27-.16-31-17.91L505.54,241l31.29,18.07Zm-29.07-18.07,29.07,16.79,29.07-16.78-29.07-16.79Z"/><path class="cls-2" d="M535.72,294.54l-.27-.16-31-17.9,31.28-18.06.28.16,31,17.9Zm-29.07-18.06,29.07,16.78,29.07-16.78-29.07-16.79Z"/><path class="cls-2" d="M234,155.15l-.28-.16-31-17.9L234,119l31.28,18.06Zm-29.07-18.06L234,153.88,263,137.09,234,120.31Z"/><path class="cls-2" d="M264.12,172.58l-.27-.16-31-17.91,31.28-18.06.28.16,31,17.91Zm-29.07-18.07,29.07,16.79,29.07-16.78-29.07-16.79Z"/><path class="cls-2" d="M294.3,190,263,171.94l31.28-18.06.28.16,31,17.9Zm-29.07-18.06,29.07,16.78,29.07-16.78L294.3,155.16Z"/><path class="cls-2" d="M324.48,207.42l-.28-.16-31-17.9,31.29-18.06.28.16,31,17.9Zm-29.07-18.06,29.07,16.78,29.07-16.78-29.07-16.78Z"/><path class="cls-2" d="M354.66,224.85l-.28-.16-31-17.91,31.29-18.06.27.16,31,17.9Zm-29.07-18.07,29.07,16.79,29.07-16.79L354.66,190Z"/><path class="cls-2" d="M384.84,242.27l-.28-.16-31-17.9,31.28-18.07,31.29,18.07Zm-29.07-18.06L384.84,241l29.06-16.78-29.07-16.79Z"/><path class="cls-2" d="M415,259.69l-.27-.16-31-17.9L415,223.57l31.29,18.06Zm-29.07-18.06L415,258.41l29.07-16.78L415,224.85Z"/><path class="cls-2" d="M445.19,277.12l-31.28-18.07L445.19,241l.28.16,31,17.9Zm-29.07-18.07,29.07,16.79,29.07-16.79-29.07-16.78Z"/><path class="cls-2" d="M475.37,294.54l-.28-.16-31-17.9,31.29-18.07.27.16,31,17.91ZM446.3,276.48l29.07,16.78,29.07-16.78-29.07-16.79Z"/><path class="cls-2" d="M505.55,312l-.28-.16-31-17.9,31.28-18.06.28.16,31,17.9ZM476.48,293.9l29.07,16.78,29.06-16.78-29.07-16.78Z"/><path class="cls-2" d="M535.72,329.39l-.27-.17-31-17.9,31.28-18.06L567,311.32Zm-29.07-18.07,29.07,16.79,29.07-16.79-29.07-16.78Z"/><path class="cls-2" d="M234,190l-.28-.16-31-17.9L234,153.88l.27.16,31,17.9Zm-29.07-18.06L234,188.72,263,171.94,234,155.15Z"/><path class="cls-2" d="M264.13,207.42l-.28-.16-31-17.9,31.28-18.06,31.29,18.06Zm-29.07-18.06,29.07,16.78,29.06-16.78-29.07-16.78Z"/><path class="cls-2" d="M294.3,224.85,263,206.78l31.28-18.06.28.16,31,17.9Zm-29.07-18.07,29.07,16.79,29.07-16.79L294.3,190Z"/><path class="cls-2" d="M324.48,242.27l-.28-.16-31-17.9,31.28-18.07.28.17,31,17.9Zm-29.07-18.06L324.48,241l29.07-16.78-29.07-16.79Z"/><path class="cls-2" d="M354.66,259.69l-.28-.16-31-17.9,31.29-18.06.27.16,31,17.9Zm-29.07-18.06,29.07,16.78,29.07-16.78-29.07-16.78Z"/><path class="cls-2" d="M384.84,277.12l-.28-.16-31-17.91L384.84,241l.27.16,31,17.9Zm-29.07-18.07,29.07,16.79,29.07-16.79-29.07-16.78Z"/><path class="cls-2" d="M415,294.54l-31.28-18.06L415,258.41l31.29,18.07Zm-29.07-18.06L415,293.26l29.07-16.78L415,259.69Z"/><path class="cls-2" d="M445.19,312,413.91,293.9l31.28-18.06.28.16,31,17.9ZM416.12,293.9l29.07,16.78,29.07-16.78-29.07-16.78Z"/><path class="cls-2" d="M475.37,329.39l-.28-.17-31-17.9,31.29-18.06.27.16,31,17.9ZM446.3,311.32l29.07,16.79,29.07-16.79-29.07-16.78Z"/><path class="cls-2" d="M505.55,346.81l-.28-.16-31-17.9,31.29-18.07.27.16,31,17.91Zm-29.07-18.06,29.07,16.78,29.07-16.78L505.55,312Z"/><path class="cls-2" d="M535.72,364.23l-.27-.16-31-17.9,31.28-18.06.28.16,31,17.9Zm-29.07-18.06L535.72,363l29.07-16.78-29.07-16.78Z"/><path class="cls-2" d="M234,224.85l-.28-.16-31-17.91L234,188.72l.27.16,31,17.9Zm-29.07-18.07L234,223.57,263,206.78,234,190Z"/><path class="cls-2" d="M264.13,242.27l-.28-.16-31-17.9,31.29-18.07,31.28,18.07Zm-29.07-18.06L264.13,241l29.07-16.78-29.07-16.79Z"/><path class="cls-2" d="M294.3,259.69l-.27-.16-31-17.9,31.28-18.06.28.16,31,17.9Zm-29.07-18.06,29.07,16.78,29.07-16.78L294.3,224.85Z"/><path class="cls-2" d="M324.48,277.12,293.2,259.05,324.48,241l.28.16,31,17.9Zm-29.07-18.07,29.07,16.79,29.07-16.79-29.07-16.78Z"/><path class="cls-2" d="M354.66,294.54l-.28-.16-31-17.9,31.29-18.07.28.16,31,17.91Zm-29.07-18.06,29.07,16.78,29.07-16.78-29.07-16.79Z"/><path class="cls-2" d="M384.84,312,353.55,293.9l31.29-18.06,31.28,18.06ZM355.77,293.9l29.07,16.78,29.07-16.78-29.07-16.78Z"/><path class="cls-2" d="M415,329.38l-.27-.16-31-17.9L415,293.26l31.29,18.06Zm-29.07-18.06L415,328.1l29.07-16.78L415,294.54Z"/><path class="cls-2" d="M445.19,346.81l-.27-.16-31-17.91,31.28-18.06.28.16,31,17.91Zm-29.07-18.07,29.07,16.79,29.07-16.78L445.19,312Z"/><path class="cls-2" d="M475.37,364.23l-31.29-18.06,31.29-18.06.28.16,31,17.9ZM446.3,346.17,475.37,363l29.07-16.78-29.07-16.78Z"/><path class="cls-2" d="M234,259.69l-.28-.16-31-17.9L234,223.57l.28.16,31,17.9Zm-29.07-18.06L234,258.41,263,241.63,234,224.85Z"/><path class="cls-2" d="M264.13,277.11l-.28-.16-31-17.9L264.13,241l.27.16,31,17.9Zm-29.07-18.06,29.07,16.79,29.07-16.79-29.07-16.78Z"/><path class="cls-2" d="M294.31,294.54l-.28-.16-31-17.91,31.28-18.06,31.29,18.07Zm-29.07-18.07,29.07,16.79,29.06-16.78L294.3,259.69Z"/><path class="cls-2" d="M324.48,312,293.2,293.9l31.28-18.06.28.16,31,17.9ZM295.41,293.9l29.07,16.78,29.07-16.78-29.07-16.78Z"/><path class="cls-2" d="M354.66,329.38l-.28-.16-31-17.9,31.28-18.06,31.28,18.06Zm-29.07-18.06,29.07,16.78,29.07-16.78-29.07-16.78Z"/><path class="cls-2" d="M384.84,346.81l-31.29-18.07,31.29-18.06.27.16,31,17.9Zm-29.07-18.07,29.07,16.79,29.07-16.79L384.84,312Z"/><path class="cls-2" d="M415,364.23l-.28-.16-31-17.9L415,328.1l.28.16,31,17.91Zm-29.08-18.06L415,363l29.06-16.78L415,329.38Z"/><path class="cls-2" d="M234,294.54l-.28-.16-31-17.91L234,258.41l.28.16,31,17.9Zm-29.07-18.07L234,293.26,263,276.47,234,259.69Z"/><path class="cls-2" d="M264.13,312l-.28-.16-31-17.9,31.29-18.06.27.16,31,17.9ZM235.06,293.9l29.07,16.78L293.2,293.9l-29.07-16.79Z"/><path class="cls-2" d="M294.31,329.38l-.28-.16-31-17.9,31.29-18.06,31.28,18.06Zm-29.07-18.06,29.07,16.78,29.07-16.78-29.07-16.78Z"/><path class="cls-2" d="M324.48,346.81l-.27-.16-31-17.91,31.28-18.06.28.16,31,17.9Zm-29.07-18.07,29.07,16.79,29.07-16.79L324.48,312Z"/><path class="cls-2" d="M354.66,364.23l-31.28-18.06,31.28-18.07,31.28,18.07Zm-29.07-18.06L354.66,363l29.07-16.78-29.07-16.79Z"/><path class="cls-2" d="M234,329.38l-31.28-18.06L234,293.26l.28.16,31,17.9Zm-29.07-18.06L234,328.1,263,311.32,234,294.54Z"/><path class="cls-2" d="M264.13,346.81l-.28-.16-31-17.91,31.29-18.06.27.16,31,17.9Zm-29.07-18.07,29.07,16.79,29.07-16.79L264.13,312Z"/><path class="cls-2" d="M294.31,364.23l-.28-.16-31-17.9,31.29-18.07.27.16,31,17.91Zm-29.07-18.06L294.31,363l29.07-16.78-29.07-16.79Z"/><path class="cls-2" d="M234,364.23l-31.28-18.06L234,328.1l.28.16,31,17.91Zm-29.07-18.06L234,363,263,346.17,234,329.38Z"/></g><g class="cls-1"><path class="cls-2" d="M536.82,399.06,505.54,381l31.28-18.06L568.11,381ZM507.75,381l29.07,16.78L565.89,381l-29.07-16.78Z"/><path class="cls-2" d="M476.47,399.06l-.28-.16-31-17.9,31.29-18.06.28.16,31,17.9ZM447.4,381l29.07,16.78L505.54,381l-29.07-16.78Z"/><path class="cls-2" d="M506.65,416.49l-31.29-18.07,31.29-18.06,31.28,18.06Zm-29.07-18.07,29.07,16.79,29.07-16.79-29.07-16.78Z"/><path class="cls-2" d="M536.82,433.91l-.27-.16-31-17.9,31.28-18.07.28.16,31,17.91Zm-29.07-18.06,29.07,16.78,29.07-16.78-29.07-16.79Z"/><path class="cls-2" d="M416.12,399.06l-.28-.16-31-17.9,31.28-18.06.28.16,31,17.9ZM387,381l29.08,16.78L445.18,381l-29.07-16.78Z"/><path class="cls-2" d="M446.29,416.49l-.27-.16-31-17.91,31.28-18.06.28.16,31,17.9Zm-29.07-18.07,29.07,16.79,29.07-16.79-29.07-16.78Z"/><path class="cls-2" d="M476.47,433.91l-.28-.16-31-17.9,31.28-18.07,31.28,18.07ZM447.4,415.85l29.07,16.78,29.07-16.78-29.07-16.79Z"/><path class="cls-2" d="M355.76,399.06l-.28-.16-31-17.9,31.28-18.06L387,381ZM326.69,381l29.07,16.78L384.83,381l-29.07-16.78Z"/><path class="cls-2" d="M385.94,416.49l-31.29-18.07,31.29-18.06.27.16,31,17.9Zm-29.07-18.07,29.07,16.79L415,398.42l-29.07-16.78Z"/><path class="cls-2" d="M416.12,433.91l-.28-.16-31-17.9,31.29-18.07.27.16,31,17.91Zm-29.07-18.06,29.07,16.78,29.07-16.78-29.07-16.79Z"/><path class="cls-2" d="M295.41,399.06l-.28-.16-31-17.9,31.29-18.06.27.16,31,17.9ZM266.34,381l29.07,16.78L324.48,381l-29.07-16.78Z"/><path class="cls-2" d="M325.58,416.48l-.27-.16-31-17.9,31.28-18.06.28.16,31,17.9Zm-29.07-18.06,29.07,16.79,29.07-16.79-29.07-16.78Z"/><path class="cls-2" d="M355.76,433.91l-.27-.16-31-17.91,31.28-18.06,31.29,18.07Zm-29.07-18.07,29.07,16.79,29.07-16.78-29.07-16.79Z"/><path class="cls-2" d="M235.05,399.06l-.27-.16-31-17.9,31.28-18.06L266.34,381ZM206,381l29.07,16.78L264.12,381l-29.07-16.78Z"/><path class="cls-2" d="M265.23,416.48l-.28-.16-31-17.9,31.29-18.06.27.16,31,17.9Zm-29.07-18.06,29.07,16.78,29.07-16.78-29.07-16.78Z"/><path class="cls-2" d="M295.41,433.91l-31.29-18.07,31.29-18.06.27.16,31,17.9Zm-29.07-18.07,29.07,16.79,29.07-16.79-29.07-16.78Z"/><path class="cls-2" d="M235.05,433.91l-.27-.16-31-17.91,31.28-18.06.28.16,31,17.9ZM206,415.84l29.07,16.79,29.07-16.79-29.07-16.78Z"/></g><g class="cls-1"><path class="cls-2" d="M596.42,399.06l-.28-.16-31-17.9,31.29-18.06L627.7,381ZM567.35,381l29.07,16.78L625.49,381l-29.07-16.78Z"/><path class="cls-2" d="M626.6,416.49l-.28-.16-31-17.91,31.28-18.06.28.16,31,17.9Zm-29.07-18.07,29.07,16.79,29.06-16.79-29.07-16.78Z"/><path class="cls-2" d="M596.42,433.91l-.28-.16-31-17.9,31.29-18.07.27.16,31,17.91Zm-29.07-18.06,29.07,16.78,29.07-16.78-29.07-16.79Z"/></g><g class="cls-1"><path class="cls-2" d="M595.31,156.13,595,156l-31-17.82,31.28-18,31.29,18Zm-29.07-18,29.07,16.71,29.07-16.71-29.07-16.7Z"/><path class="cls-2" d="M625.49,173.47l-.28-.16-31-17.81,31.28-18,.28.16,31,17.82Zm-29.07-18,29.07,16.7,29.07-16.7-29.07-16.71Z"/><path class="cls-2" d="M595.31,190.81l-.27-.15-31-17.82,31.28-18,.28.16,31,17.82Zm-29.07-18,29.07,16.7,29.07-16.7-29.07-16.71Z"/><path class="cls-2" d="M625.49,208.16l-.27-.16-31-17.82,31.28-18,31.29,18Zm-29.07-18,29.07,16.7,29.07-16.7-29.07-16.71Z"/><path class="cls-2" d="M595.31,225.5l-.27-.16-31-17.82,31.28-18,.28.16,31,17.82Zm-29.07-18,29.07,16.7,29.07-16.7-29.07-16.71Z"/><path class="cls-2" d="M625.49,242.84l-.27-.16-31-17.82,31.28-18,31.29,18Zm-29.07-18,29.07,16.71,29.07-16.71-29.07-16.7Z"/><path class="cls-2" d="M595.32,260.18,595,260,564,242.2l31.28-18,.28.16,31,17.82Zm-29.07-18,29.07,16.71,29.07-16.71-29.08-16.7Z"/><path class="cls-2" d="M625.49,277.52l-.27-.16-31-17.82,31.28-18,.28.15,31,17.82Zm-29.07-18,29.07,16.71,29.07-16.71-29.07-16.7Z"/><path class="cls-2" d="M595.32,294.86l-.28-.16-31-17.81,31.29-18,.27.16,31,17.82Zm-29.07-18,29.07,16.7,29.07-16.7-29.07-16.71Z"/><path class="cls-2" d="M625.49,312.2l-.27-.15-31-17.82,31.28-18,.28.16,31,17.82Zm-29.07-18,29.07,16.7,29.07-16.7-29.07-16.71Z"/><path class="cls-2" d="M595.32,329.55l-31.29-18,31.29-18,.27.16,31,17.82Zm-29.07-18,29.07,16.7,29.07-16.7-29.07-16.71Z"/><path class="cls-2" d="M625.5,346.89l-.28-.16-31-17.82,31.28-18,.28.16,31,17.82Zm-29.07-18,29.07,16.7,29.06-16.7L625.49,312.2Z"/><path class="cls-2" d="M595.32,364.23l-31.29-18,31.29-18,.27.16,31,17.82Zm-29.07-18L595.32,363l29.07-16.71-29.07-16.7Z"/></g><g class="cls-1"><path class="cls-3" d="M534.61,15.79,503.33-2.27l31.28-18.07.28.16,31,17.91ZM505.54-2.27l29.07,16.78L563.68-2.27,534.61-19.06Z"/><path class="cls-4" d="M474.26,15.79l-.28-.16L443-2.27l31.29-18.07.27.16,31,17.91ZM445.19-2.27l29.07,16.78L503.33-2.27,474.26-19.06Z"/><path class="cls-5" d="M504.43,33.21l-.27-.16-31-17.9L504.43-2.91l31.29,18.06ZM475.36,15.15l29.07,16.78L533.5,15.15,504.43-1.64Z"/><path class="cls-6" d="M534.61,50.63l-.27-.16-31-17.9,31.28-18.06.28.16,31,17.9ZM505.54,32.57l29.07,16.78,29.07-16.78L534.61,15.79Z"/><path class="cls-7" d="M413.9,15.79l-.27-.16-31-17.91L413.9-20.34,445.19-2.27ZM384.83-2.28,413.9,14.51,443-2.27,413.9-19.06Z"/><path class="cls-8" d="M444.08,33.21,412.8,15.15,444.08-2.91l.28.16,31,17.9ZM415,15.15l29.07,16.78,29.07-16.78L444.08-1.64Z"/><path class="cls-9" d="M474.26,50.63l-.28-.16-31-17.9,31.29-18.06.27.16,31,17.9ZM445.19,32.57l29.07,16.78,29.07-16.78L474.26,15.79Z"/><path class="cls-10" d="M504.44,68.06l-.28-.16L473.15,50l31.28-18.06.28.16,31,17.9ZM475.37,50l29.07,16.79L533.5,50,504.43,33.21Z"/><path class="cls-11" d="M534.61,85.48l-.27-.16-31-17.9,31.28-18.07L565.9,67.42ZM505.54,67.42,534.61,84.2l29.07-16.78L534.61,50.63Z"/><path class="cls-12" d="M353.55,15.79l-.28-.16-31-17.91,31.29-18.06.27.16,31,17.9ZM324.48-2.28l29.07,16.79L382.62-2.28,353.55-19.06Z"/><path class="cls-13" d="M383.73,33.21l-.28-.16-31-17.9L383.73-2.92l.27.16,31,17.91ZM354.66,15.15l29.07,16.78L412.8,15.15,383.73-1.64Z"/><path class="cls-14" d="M413.9,50.63,382.62,32.57,413.9,14.51l31.29,18.06ZM384.83,32.57,413.9,49.35,443,32.57,413.9,15.79Z"/><path class="cls-15" d="M444.08,68.06,412.8,50l31.28-18.06.28.16,31,17.9ZM415,50l29.07,16.79L473.15,50,444.08,33.21Z"/><path class="cls-16" d="M474.26,85.48l-.28-.16-31-17.9,31.29-18.07.27.16,31,17.91ZM445.19,67.42,474.26,84.2l29.07-16.78L474.26,50.63Z"/><path class="cls-17" d="M504.44,102.9l-.28-.16-31-17.9,31.29-18.06.27.16,31,17.9ZM475.37,84.84l29.07,16.78,29.07-16.78L504.44,68.06Z"/><path class="cls-18" d="M534.61,120.32l-.27-.16-31-17.9L534.61,84.2l.28.16,31,17.9Zm-29.07-18.06,29.07,16.79,29.07-16.79L534.61,85.48Z"/><path class="cls-19" d="M293.19,15.79l-.27-.16-31-17.91,31.28-18.06.28.16,31,17.9ZM264.12-2.28l29.07,16.79L322.26-2.28,293.19-19.06Z"/><path class="cls-20" d="M323.37,33.21,292.09,15.15,323.37-2.92l.28.16,31,17.91ZM294.3,15.15l29.07,16.78,29.07-16.78L323.37-1.64Z"/><path class="cls-21" d="M353.55,50.63l-.28-.16-31-17.9,31.29-18.06.28.16,31,17.9ZM324.48,32.57l29.07,16.78,29.07-16.78L353.55,15.79Z"/><path class="cls-22" d="M383.73,68.06,352.44,50l31.29-18.06L415,50ZM354.66,50l29.07,16.79L412.8,50,383.73,33.21Z"/><path class="cls-23" d="M413.9,85.48l-.27-.16-31-17.9L413.9,49.35l31.29,18.07ZM384.83,67.42,413.9,84.2,443,67.42,413.9,50.63Z"/><path class="cls-24" d="M444.08,102.9l-.27-.16-31-17.9,31.28-18.06.28.16,31,17.9ZM415,84.84l29.07,16.78,29.07-16.78L444.08,68.06Z"/><path class="cls-25" d="M474.26,120.32,443,102.26,474.26,84.2l.28.16,31,17.9Zm-29.07-18.06,29.07,16.79,29.07-16.79L474.26,85.48Z"/><path class="cls-26" d="M232.84,15.79l-.28-.16-31-17.91,31.29-18.06.28.16,31,17.9ZM203.77-2.28l29.07,16.79L261.91-2.28,232.84-19.06Z"/><path class="cls-27" d="M263,33.21l-.28-.16-31-17.9L263-2.92l.27.16,31,17.91ZM234,15.15,263,31.93l29.07-16.78L263-1.64Z"/><path class="cls-28" d="M293.2,50.63l-.28-.16-31-17.9,31.28-18.06,31.29,18.06ZM264.13,32.57,293.2,49.35l29.06-16.78L293.19,15.79Z"/><path class="cls-29" d="M323.37,68.06,292.09,50l31.28-18.06.28.16,31,17.9ZM294.3,50l29.07,16.79L352.44,50,323.37,33.21Z"/><path class="cls-30" d="M353.55,85.48l-.28-.16-31-17.9,31.28-18.07,31.28,18.07ZM324.48,67.42,353.55,84.2l29.07-16.78L353.55,50.63Z"/><path class="cls-31" d="M383.73,102.9,352.44,84.84l31.29-18.06.27.16,31,17.9ZM354.66,84.84l29.07,16.78L412.8,84.84,383.73,68.06Z"/><path class="cls-32" d="M413.91,120.32l-.28-.16-31-17.9L413.9,84.2l.28.16,31,17.9Zm-29.07-18.06L413.91,119,443,102.26,413.9,85.48Z"/><path class="cls-33" d="M232.84,50.63l-.28-.16-31-17.9,31.28-18.06.28.16,31,17.9ZM203.77,32.57l29.07,16.78,29.07-16.78L232.84,15.79Z"/><path class="cls-34" d="M263,68.05l-.28-.16-31-17.9L263,31.93l.27.16,31,17.9ZM234,50,263,66.77,292.09,50,263,33.21Z"/><path class="cls-35" d="M293.2,85.48l-.28-.16-31-17.91L293.2,49.35l31.28,18.07ZM264.13,67.41,293.2,84.2l29.07-16.78L293.2,50.63Z"/><path class="cls-36" d="M323.37,102.9l-.27-.16-31-17.9,31.28-18.06.28.16,31,17.9ZM294.3,84.84l29.07,16.78,29.07-16.78L323.37,68.06Z"/><path class="cls-37" d="M353.55,120.32l-31.28-18.06L353.55,84.2l31.29,18.06Zm-29.07-18.06L353.55,119l29.07-16.78L353.55,85.48Z"/><path class="cls-38" d="M232.84,85.48,201.56,67.41l31.28-18.06.28.16,31,17.9ZM203.77,67.41,232.84,84.2l29.07-16.79L232.84,50.63Z"/><path class="cls-39" d="M263,102.9l-.28-.16-31-17.9L263,66.77l.28.16,31,17.91ZM234,84.84,263,101.62l29.07-16.78L263,68.05Z"/><path class="cls-40" d="M293.2,120.32l-.28-.16-31-17.9L293.2,84.2l.27.16,31,17.9Zm-29.07-18.06L293.2,119l29.07-16.78L293.2,85.48Z"/><path class="cls-41" d="M232.84,120.32l-31.28-18.06L232.84,84.2l.28.16,31,17.9Zm-29.07-18.06L232.84,119l29.07-16.78L232.84,85.48Z"/></g><g class="cls-1"><path class="cls-42" d="M594.21,16.07l-.28-.16L562.92-2l31.29-18.07.27.16L625.49-2ZM565.14-2l29.07,16.78L623.28-2,594.21-18.78Z"/><path class="cls-43" d="M624.38,33.49l-.27-.16-31-17.9L624.38-2.63l.28.16,31,17.9ZM595.31,15.43l29.07,16.78,29.07-16.78L624.38-1.35Z"/><path class="cls-44" d="M594.21,50.91l-.28-.16-31-17.9,31.29-18.06.27.16,31,17.9ZM565.14,32.85l29.07,16.79,29.07-16.79L594.21,16.07Z"/><path class="cls-45" d="M624.38,68.34l-.27-.16-31-17.91,31.28-18.06.28.16,31,17.9ZM595.31,50.27l29.07,16.79,29.07-16.79L624.38,33.49Z"/><path class="cls-46" d="M594.21,85.76,562.92,67.7l31.29-18.06.27.16,31,17.9ZM565.14,67.7l29.07,16.78L623.28,67.7,594.21,50.91Z"/><path class="cls-47" d="M624.39,103.18l-.28-.16-31-17.9,31.28-18.06.28.16,31,17.9ZM595.32,85.12l29.07,16.78,29.07-16.78L624.38,68.34Z"/><path class="cls-48" d="M594.21,120.61l-31.29-18.07,31.29-18.06.27.16,31,17.9Zm-29.07-18.07,29.07,16.79,29.07-16.79L594.21,85.76Z"/></g><g class="cls-1"><path class="cls-2" d="M176.76,398.28l-31.29-18.06,31.29-18.06L208,380.22Zm-29.07-18.06L176.76,397l29.07-16.79-29.07-16.78Z"/><path class="cls-2" d="M116.4,398.28l-.27-.16-31-17.9,31.28-18.06.28.16,31,17.9ZM87.33,380.22,116.4,397l29.07-16.78L116.4,363.44Z"/><path class="cls-2" d="M146.58,415.71,115.3,397.64l31.28-18.06,31.28,18.06Zm-29.07-18.07,29.07,16.79,29.07-16.79-29.07-16.78Z"/><path class="cls-2" d="M176.76,433.13l-.28-.16-31-17.9L176.76,397l.27.16,31,17.9Zm-29.07-18.06,29.07,16.78,29.07-16.78-29.07-16.79Z"/><path class="cls-2" d="M56.05,398.28l-.28-.16-31-17.9,31.29-18.06.27.16,31,17.9ZM27,380.22,56.05,397l29.07-16.78L56.05,363.44Z"/><path class="cls-2" d="M86.23,415.71l-.28-.16-31-17.91,31.29-18.06.27.16,31,17.9ZM57.16,397.64l29.07,16.79,29.07-16.79L86.23,380.86Z"/><path class="cls-2" d="M116.4,433.13l-.27-.16-31-17.9L116.4,397l31.29,18.07ZM87.33,415.07l29.07,16.78,29.07-16.78L116.4,398.28Z"/><path class="cls-2" d="M-4.31,398.28l-.27-.16-31-17.9,31.28-18.06L27,380.22Zm-29.07-18.06L-4.31,397l29.07-16.78L-4.31,363.44Z"/><path class="cls-2" d="M25.87,415.71-5.41,397.64l31.28-18.06.28.16,31,17.9ZM-3.2,397.64l29.07,16.79,29.07-16.79L25.87,380.86Z"/><path class="cls-2" d="M56.05,433.13l-.28-.16-31-17.9L56.05,397l.28.16,31,17.91ZM27,415.07l29.07,16.78,29.07-16.78L56.05,398.28Z"/><path class="cls-2" d="M-4.3,433.13l-.28-.16-31-17.9L-4.31,397,27,415.07Zm-29.07-18.06L-4.3,431.85l29.06-16.78L-4.31,398.28Z"/></g><g class="cls-1"><path class="cls-2" d="M175.65,155.35l-31.28-18,31.28-18,31.29,18Zm-29.07-18,29.07,16.7,29.07-16.7-29.07-16.71Z"/><path class="cls-2" d="M115.3,155.35l-.28-.16L84,137.37l31.29-18,.27.16,31,17.82Zm-29.07-18,29.07,16.71,29.07-16.7L115.3,120.67Z"/><path class="cls-2" d="M145.48,172.69l-31.29-18,31.29-18,31.28,18Zm-29.07-18,29.07,16.7,29.06-16.7L145.48,138Z"/><path class="cls-2" d="M175.65,190l-.27-.16-31-17.82,31.28-18,.28.16,31,17.82Zm-29.07-18,29.07,16.7,29.07-16.7-29.07-16.71Z"/><path class="cls-2" d="M54.94,155.35l-.27-.16-31-17.82,31.28-18,.28.16,31,17.81Zm-29.07-18,29.07,16.71L84,137.37l-29.07-16.7Z"/><path class="cls-2" d="M85.12,172.69l-.27-.16-31-17.81,31.28-18,.28.16,31,17.82Zm-29.07-18,29.07,16.7,29.07-16.7L85.12,138Z"/><path class="cls-2" d="M115.3,190l-.28-.16L84,172.06l31.29-18,31.28,18Zm-29.07-18,29.07,16.7,29.07-16.7L115.3,155.35Z"/><path class="cls-2" d="M145.48,207.38l-31.29-18,31.29-18,.27.16,31,17.82Zm-29.07-18,29.07,16.7,29.07-16.7-29.07-16.71Z"/><path class="cls-2" d="M175.65,224.72l-31.28-18,31.28-18,.28.16,31,17.82Zm-29.07-18,29.07,16.71,29.07-16.71L175.65,190Z"/><path class="cls-2" d="M-5.41,155.35l-.28-.16-31-17.82,31.29-18,31.28,18Zm-29.07-18,29.07,16.71,29.07-16.71-29.07-16.7Z"/><path class="cls-2" d="M24.77,172.69l-31.29-18,31.29-18,.27.16,31,17.82Zm-29.07-18,29.07,16.71,29.07-16.7L24.77,138Z"/><path class="cls-2" d="M54.94,190l-.27-.16-31-17.82,31.28-18,.28.16,31,17.82Zm-29.07-18,29.07,16.7L84,172.06,54.94,155.35Z"/><path class="cls-2" d="M85.12,207.38l-.27-.16-31-17.82,31.28-18,.28.16,31,17.82Zm-29.07-18,29.07,16.7,29.07-16.7L85.12,172.69Z"/><path class="cls-2" d="M115.3,224.72,84,206.74l31.28-18,31.28,18Zm-29.07-18,29.07,16.7,29.07-16.7L115.3,190Z"/><path class="cls-2" d="M145.48,242.06l-.28-.16-31-17.82,31.29-18,31.28,18Zm-29.07-18,29.07,16.71,29.07-16.71-29.07-16.7Z"/><path class="cls-2" d="M175.65,259.4l-31.28-18,31.28-18,.28.16,31,17.81Zm-29.07-18,29.07,16.71,29.07-16.71-29.07-16.7Z"/><path class="cls-2" d="M-5.41,190l-.28-.16-31-17.81,31.28-18,31.28,18Zm-29.07-18,29.07,16.7,29.07-16.7L-5.41,155.35Z"/><path class="cls-2" d="M24.77,207.38l-.28-.16-31-17.82,31.29-18,.27.16,31,17.82Zm-29.07-18,29.07,16.7,29.07-16.7L24.77,172.69Z"/><path class="cls-2" d="M55,224.72l-31.29-18,31.28-18,.28.16,31,17.82Zm-29.07-18L55,223.44,84,206.74,54.94,190Z"/><path class="cls-2" d="M85.12,242.06l-31.28-18,31.28-18,31.29,18Zm-29.07-18,29.07,16.71,29.07-16.71-29.07-16.7Z"/><path class="cls-2" d="M115.3,259.4l-.28-.16L84,241.42l31.28-18,.28.16,31,17.82Zm-29.07-18,29.07,16.71,29.07-16.71-29.07-16.7Z"/><path class="cls-2" d="M145.48,276.74l-.28-.16-31-17.82,31.29-18,31.28,18Zm-29.07-18,29.07,16.71,29.07-16.7-29.07-16.71Z"/><path class="cls-2" d="M175.66,294.08l-.28-.16-31-17.81,31.28-18,.28.16,31,17.82Zm-29.07-18,29.07,16.7,29.07-16.7L175.65,259.4Z"/><path class="cls-2" d="M-5.41,224.72l-.28-.16-31-17.82,31.28-18,.28.16,31,17.82Zm-29.07-18,29.07,16.7,29.07-16.7L-5.41,190Z"/><path class="cls-2" d="M24.77,242.06l-.28-.16-31-17.82,31.29-18,31.28,18Zm-29.07-18,29.07,16.71,29.07-16.71-29.07-16.7Z"/><path class="cls-2" d="M55,259.4l-.28-.16-31-17.82,31.29-18,31.28,18Zm-29.07-18L55,258.13,84,241.42,55,224.72Z"/><path class="cls-2" d="M85.12,276.74l-31.28-18,31.28-18,.28.16,31,17.81Zm-29.07-18,29.07,16.71,29.07-16.71-29.07-16.7Z"/><path class="cls-2" d="M115.3,294.08l-.28-.16L84,276.11l31.28-18,.28.16,31,17.82Zm-29.07-18,29.07,16.7,29.07-16.7L115.3,259.4Z"/><path class="cls-2" d="M145.48,311.43l-.28-.16-31-17.82,31.29-18,.27.16,31,17.82Zm-29.07-18,29.07,16.7,29.07-16.7-29.07-16.71Z"/><path class="cls-2" d="M175.66,328.77l-.28-.16-31-17.82,31.29-18,31.28,18Zm-29.07-18,29.07,16.7,29.07-16.7-29.07-16.71Z"/><path class="cls-2" d="M-5.41,259.4l-.27-.16-31-17.82,31.28-18,.28.16,31,17.82Zm-29.07-18,29.07,16.71,29.07-16.71-29.07-16.7Z"/><path class="cls-2" d="M24.77,276.74l-.28-.16-31-17.82,31.29-18,.28.15,31,17.82Zm-29.07-18,29.07,16.71,29.07-16.71-29.07-16.7Z"/><path class="cls-2" d="M55,294.08l-31.29-18,31.29-18,31.28,18Zm-29.07-18L55,292.81,84,276.11,55,259.4Z"/><path class="cls-2" d="M85.12,311.43l-31.28-18,31.28-18,.28.16,31,17.82Zm-29.07-18,29.07,16.7,29.07-16.7L85.12,276.74Z"/><path class="cls-2" d="M115.3,328.77l-.27-.16L84,310.79l31.28-18,.28.16,31,17.82Zm-29.07-18,29.07,16.7,29.07-16.7L115.3,294.08Z"/><path class="cls-2" d="M145.48,346.11l-.28-.16-31-17.82,31.29-18,.28.16,31,17.82Zm-29.07-18,29.07,16.7,29.07-16.7-29.07-16.7Z"/><path class="cls-2" d="M175.66,363.45l-.28-.16-31-17.82,31.29-18,.27.16,31,17.82Zm-29.07-18,29.07,16.71,29.07-16.71-29.07-16.7Z"/><path class="cls-2" d="M-5.41,294.08l-.27-.16-31-17.82,31.28-18,.28.16,31,17.81Zm-29.07-18,29.07,16.71L23.66,276.1-5.41,259.4Z"/><path class="cls-2" d="M24.77,311.42l-31.28-18,31.28-18,31.28,18Zm-29.07-18,29.07,16.7,29.07-16.7L24.77,276.74Z"/><path class="cls-2" d="M55,328.77l-.28-.16-31-17.82,31.29-18,31.28,18Zm-29.07-18L55,327.49,84,310.79,55,294.08Z"/><path class="cls-2" d="M85.13,346.11l-.28-.16-31-17.82,31.28-18,.28.16,31,17.82Zm-29.07-18,29.07,16.7,29.06-16.7-29.07-16.7Z"/><path class="cls-2" d="M115.3,363.45,84,345.47l31.28-18,.28.16,31,17.82Zm-29.07-18,29.07,16.71,29.07-16.71-29.07-16.7Z"/><path class="cls-2" d="M-5.41,328.77l-.27-.16-31-17.82,31.28-18,31.29,18Zm-29.07-18,29.07,16.7,29.07-16.7L-5.41,294.08Z"/><path class="cls-2" d="M24.77,346.11l-31.28-18,31.28-18,.28.16,31,17.82Zm-29.07-18,29.07,16.7,29.07-16.7L24.77,311.42Z"/><path class="cls-2" d="M55,363.45l-.28-.16-31-17.82,31.29-18,.27.16,31,17.82Zm-29.07-18L55,362.18,84,345.47,55,328.77Z"/><path class="cls-2" d="M-5.41,363.45l-31.28-18,31.28-18,31.29,18Zm-29.07-18,29.07,16.71,29.07-16.71-29.07-16.7Z"/></g><g class="cls-1"><path class="cls-49" d="M174.55,15.29,143.26-2.77l31.28-18.06.28.16,31,17.9ZM145.47-2.77,174.55,14,203.61-2.77,174.54-19.56Z"/><path class="cls-50" d="M114.19,15.29l-.28-.16-31-17.9,31.28-18.07.28.16,31,17.91ZM85.12-2.77,114.19,14,143.26-2.77,114.19-19.56Z"/><path class="cls-51" d="M144.37,32.71l-.28-.16-31-17.9L144.37-3.41l31.28,18.06ZM115.3,14.65l29.07,16.78,29.07-16.78L144.37-2.13Z"/><path class="cls-52" d="M174.55,50.14l-.28-.17-31-17.9L174.55,14l.27.16,31,17.9ZM145.48,32.07l29.07,16.79,29.07-16.79L174.55,15.29Z"/><path class="cls-53" d="M53.84,15.29l-.28-.16-31-17.9L53.84-20.84,85.12-2.77ZM24.77-2.77,53.84,14,82.91-2.77,53.84-19.56Z"/><path class="cls-54" d="M84,32.71,52.73,14.65,84-3.41l.28.16,31,17.9ZM54.94,14.65,84,31.43l29.07-16.78L84-2.13Z"/><path class="cls-55" d="M114.19,50.14l-.27-.17-31-17.9L114.19,14l.28.16,31,17.9ZM85.12,32.07l29.07,16.79,29.07-16.79L114.19,15.29Z"/><path class="cls-56" d="M144.37,67.56l-.28-.16-31-17.9,31.29-18.07.27.16,31,17.91ZM115.3,49.5l29.07,16.78L173.44,49.5,144.37,32.71Z"/><path class="cls-57" d="M174.55,85l-.28-.16-31-17.9,31.29-18.06,31.28,18.06ZM145.48,66.92,174.55,83.7l29.07-16.78L174.55,50.14Z"/><path class="cls-58" d="M-6.52,15.29l-.27-.16-31-17.9L-6.52-20.84l.28.16,31,17.91ZM-35.59-2.77-6.52,14,22.55-2.77-6.52-19.56Z"/><path class="cls-59" d="M23.66,32.71l-.28-.16-31-17.9L23.66-3.41l.28.16,31,17.9ZM-5.41,14.65,23.66,31.43,52.73,14.65,23.66-2.13Z"/><path class="cls-60" d="M53.84,50.13,22.55,32.07,53.84,14,85.12,32.07ZM24.77,32.07,53.84,48.85,82.91,32.07,53.84,15.29Z"/><path class="cls-61" d="M84,67.56,52.73,49.49,84,31.43l.28.16,31,17.91ZM54.94,49.49,84,66.28,113.08,49.5,84,32.71Z"/><path class="cls-62" d="M114.19,85l-.27-.16-31-17.9,31.28-18.06.28.16,31,17.9ZM85.12,66.92,114.19,83.7l29.07-16.78L114.19,50.14Z"/><path class="cls-63" d="M144.37,102.4l-.28-.16-31-17.9,31.28-18.06.28.16,31,17.9ZM115.3,84.34l29.07,16.78,29.07-16.78L144.37,67.56Z"/><path class="cls-64" d="M174.55,119.83l-.28-.16-31-17.91L174.55,83.7l.27.16,31,17.9Zm-29.07-18.07,29.07,16.79,29.07-16.79L174.55,85Z"/><path class="cls-65" d="M-6.52,50.13-6.79,50l-31-17.9L-6.52,14l.28.16,31,17.9ZM-35.59,32.07-6.52,48.85,22.55,32.07-6.52,15.29Z"/><path class="cls-66" d="M23.66,67.56-7.62,49.49,23.66,31.43,54.94,49.49ZM-5.41,49.49,23.66,66.28,52.73,49.49,23.66,32.71Z"/><path class="cls-67" d="M53.84,85l-.28-.16-31-17.9L53.84,48.85,85.12,66.92ZM24.77,66.92,53.84,83.7,82.91,66.92,53.84,50.13Z"/><path class="cls-68" d="M84,102.4l-.28-.16-31-17.9L84,66.28l.28.16,31,17.9ZM55,84.34,84,101.12l29.07-16.78L84,67.56Z"/><path class="cls-69" d="M114.19,119.83,82.91,101.76,114.19,83.7l.28.16,31,17.9ZM85.12,101.76l29.07,16.79,29.07-16.79L114.19,85Z"/><path class="cls-70" d="M-6.52,85l-.27-.16-31-17.9L-6.52,48.85,24.77,66.92ZM-35.59,66.92-6.52,83.7,22.55,66.92-6.52,50.13Z"/><path class="cls-71" d="M23.66,102.4-7.62,84.34,23.66,66.28l.28.16,31,17.9ZM-5.41,84.34l29.07,16.78L52.73,84.34,23.66,67.56Z"/><path class="cls-72" d="M53.84,119.83l-.28-.16-31-17.91L53.84,83.7l.27.16,31,17.9ZM24.77,101.76l29.07,16.79,29.07-16.79L53.84,85Z"/><path class="cls-73" d="M-6.52,119.83-37.8,101.76-6.52,83.7l31.29,18.06Zm-29.06-18.07,29.06,16.79,29.07-16.79L-6.52,85Z"/></g><path class="cls-2" d="M443.07,323a6.61,6.61,0,0,1-3,5.21c-1.66,1-3,.19-3-1.73a6.64,6.64,0,0,1,3-5.21C441.73,320.29,443.07,321.07,443.07,323Z"/><path class="cls-2" d="M452.82,317.35a6.63,6.63,0,0,1-3,5.21c-1.67,1-3,.19-3-1.73a6.63,6.63,0,0,1,3-5.21C451.48,314.66,452.82,315.44,452.82,317.35Z"/><path class="cls-2" d="M462.57,311.72a6.63,6.63,0,0,1-3,5.21c-1.67,1-3,.19-3-1.73a6.63,6.63,0,0,1,3-5.21C461.23,309,462.57,309.81,462.57,311.72Z"/><path class="cls-2" d="M472.33,306.09a6.67,6.67,0,0,1-3,5.22c-1.66.95-3,.18-3-1.74a6.65,6.65,0,0,1,3-5.21C471,303.4,472.33,304.18,472.33,306.09Z"/><polygon class="cls-2" points="193.59 249.79 188.32 252.83 188.32 246.74 193.59 243.7 193.59 249.79"/><polygon class="cls-2" points="202.14 244.85 196.87 247.9 196.87 241.81 202.14 238.77 202.14 244.85"/><polygon class="cls-2" points="210.68 239.92 205.41 242.97 205.41 236.88 210.68 233.83 210.68 239.92"/><polygon class="cls-2" points="219.23 234.99 213.96 238.03 213.96 231.94 219.23 228.9 219.23 234.99"/><polygon class="cls-2" points="283.87 320.04 277.86 323.51 277.86 316.56 283.87 313.09 283.87 320.04"/><polygon class="cls-2" points="292.22 315.15 286.21 318.63 286.21 311.68 292.22 308.21 292.22 315.15"/><polygon class="cls-2" points="283.93 329.05 277.91 332.52 277.91 325.57 283.93 322.1 283.93 329.05"/><polygon class="cls-2" points="292.22 324.26 286.21 327.73 286.21 320.78 292.22 317.31 292.22 324.26"/><path class="cls-74" d="M348.57,329a9.8,9.8,0,0,0-2.49,2.15c-.12-4.92-3.65-6.89-8-4.38a14.6,14.6,0,0,0-3.85,3.36c-1.93-3.39-5.94-4.17-10.59-1.49-6.53,3.77-11.83,12.95-11.83,20.49a14.2,14.2,0,0,0,.12,1.77,4.42,4.42,0,0,0-3.31.66,12.52,12.52,0,0,0-5.66,9.81c0,3.61,2.53,5.07,5.66,3.27l39.94-23.07a12,12,0,0,0,5.45-9.42C354,328.7,351.58,327.29,348.57,329Z"/><polygon class="cls-75" points="540.33 221.42 517.74 208.38 540.33 195.33 562.92 208.38 540.33 221.42"/><path class="cls-2" d="M540.33,213.34a1.76,1.76,0,0,1-.86-.23l-22.59-13a1.72,1.72,0,0,1,0-3l22.59-13a1.71,1.71,0,0,1,1.72,0l22.59,13a1.72,1.72,0,0,1,0,3l-22.59,13A1.76,1.76,0,0,1,540.33,213.34Zm-19.16-14.76,19.16,11.06,19.15-11.06-19.15-11.06Z"/><polygon class="cls-76" points="562.92 188.39 540.33 201.43 540.33 175.35 562.92 162.31 562.92 188.39"/><polygon class="cls-77" points="540.33 175.35 517.74 162.31 540.33 149.26 562.92 162.31 540.33 175.35"/><polygon class="cls-78" points="540.33 201.43 517.74 188.39 517.74 162.31 540.33 175.35 540.33 201.43"/><polygon class="cls-2" points="532.19 187.34 525.88 183.69 525.88 176.4 532.19 180.04 532.19 187.34"/><path class="cls-75" d="M225.87,320.73l-31.16-18c-1.92-1.1-1.68-3,.53-4.31l30.09-17.37a8.31,8.31,0,0,1,7.47-.31l31.16,18c1.91,1.11,1.67,3-.54,4.31l-30.09,17.37C231.12,321.7,227.78,321.84,225.87,320.73Z"/><path class="cls-2" d="M229.13,313.41a8.42,8.42,0,0,1-4.14-1l-31.17-18a4,4,0,0,1-2.18-3.41,4.78,4.78,0,0,1,2.72-4l30.09-17.37a10,10,0,0,1,9.23-.31l31.16,18a4,4,0,0,1,2.18,3.41,4.77,4.77,0,0,1-2.71,4l-30.09,17.37A10.42,10.42,0,0,1,229.13,313.41Zm-2.38-4.06a6.58,6.58,0,0,0,5.7-.3l30.09-17.38c.75-.44.94-.83.94-.9a1,1,0,0,0-.41-.34l-31.16-18a6.53,6.53,0,0,0-5.69.31l-30.09,17.37c-.76.44-.94.83-.95.9a1.11,1.11,0,0,0,.41.34Z"/><path class="cls-79" d="M265.24,279.74h0V269H241.13l-8.33-4.82a8.34,8.34,0,0,0-7.47.31L217.56,269H193.42V280a2.19,2.19,0,0,0,1.29,2l31.16,18a8.29,8.29,0,0,0,7.46-.31l30.09-17.37C264.7,281.58,265.31,280.63,265.24,279.74Z"/><path class="cls-80" d="M229.33,263.42a8.72,8.72,0,0,0-4,1.05L217.56,269H193.42V280a2.19,2.19,0,0,0,1.29,2l31.16,18a6.78,6.78,0,0,0,3.46.74Z"/><path class="cls-81" d="M196.16,269h-2.74V280a2.19,2.19,0,0,0,1.29,2l1.45.83Z"/><path class="cls-82" d="M226.35,300.23a8.5,8.5,0,0,0,6-.06V287.61h-6Z"/><path class="cls-83" d="M225.87,289l-31.16-18c-1.92-1.11-1.68-3,.53-4.31l30.09-17.37a8.28,8.28,0,0,1,7.47-.31L264,267c1.91,1.1,1.67,3-.54,4.31l-30.09,17.37C231.12,290,227.78,290.09,225.87,289Z"/><path class="cls-2" d="M263.42,269.18l-30.09,17.38c-2.21,1.27-5.55,1.41-7.46.3l-31.16-18a2.78,2.78,0,0,1-1-.85c-.66,1.06-.36,2.21,1,3l31.16,18c1.91,1.11,5.25,1,7.46-.31l30.09-17.37c1.72-1,2.24-2.38,1.49-3.46A4.12,4.12,0,0,1,263.42,269.18Z"/><path class="cls-81" d="M253.78,282.58a2.8,2.8,0,0,1-1.26,2.18c-.7.4-1.26.08-1.26-.73a2.77,2.77,0,0,1,1.26-2.18C253.21,281.45,253.78,281.78,253.78,282.58Z"/><path class="cls-81" d="M257.83,280.24a2.8,2.8,0,0,1-1.26,2.18c-.7.4-1.26.08-1.26-.73a2.79,2.79,0,0,1,1.26-2.18C257.26,279.11,257.83,279.44,257.83,280.24Z"/><path class="cls-81" d="M261.88,277.9a2.78,2.78,0,0,1-1.26,2.18c-.7.4-1.26.08-1.26-.72a2.76,2.76,0,0,1,1.26-2.18C261.31,276.77,261.88,277.1,261.88,277.9Z"/><path class="cls-82" d="M227.71,277.83l-14.58-8.42c-.9-.52-.78-1.42.25-2l14.08-8.13a3.89,3.89,0,0,1,3.49-.15l14.59,8.42c.89.52.78,1.42-.25,2l-14.09,8.13A3.89,3.89,0,0,1,227.71,277.83Z"/><path class="cls-81" d="M229.11,270.78l-2-1.17c-.12-.07-.11-.2,0-.28l1.94-1.12a.53.53,0,0,1,.49,0l2,1.16c.13.07.11.2,0,.28l-1.95,1.13A.54.54,0,0,1,229.11,270.78Z"/><path class="cls-79" d="M213.13,269.41l0,0a1.53,1.53,0,0,1,.21-.14l14.08-8.13A3.86,3.86,0,0,1,231,261l14.55,8.4c.82-.59.86-1.4,0-1.88L231,259.11a3.89,3.89,0,0,0-3.49.15l-14.08,8.13C212.35,268,212.23,268.89,213.13,269.41Z"/><path class="cls-2" d="M278.92,172.34a11,11,0,0,0-1.71,1.25c-.24-7.67-5.78-10.72-12.6-6.78-5.55,3.2-10.26,10.07-11.94,16.8a7.48,7.48,0,0,0-4.71,1.17c-5,2.87-9,9.85-9,15.59s4,8.07,9,5.2l31-17.88a14.68,14.68,0,0,0,6.64-11.51C285.56,171.94,282.59,170.22,278.92,172.34Z"/><path class="cls-2" d="M538.33,63.72a11,11,0,0,0-2.85,2.45c-.13-5.62-4.17-7.87-9.13-5A16.6,16.6,0,0,0,522,65c-2.21-3.87-6.79-4.76-12.1-1.7-7.47,4.31-13.52,14.8-13.52,23.42a16,16,0,0,0,.13,2,5.1,5.1,0,0,0-3.78.77,14.3,14.3,0,0,0-6.47,11.2c0,4.13,2.9,5.8,6.47,3.74l45.65-26.36a13.73,13.73,0,0,0,6.22-10.77C544.55,63.34,541.77,61.73,538.33,63.72Z"/><path class="cls-2" d="M506.84,257.25a1.57,1.57,0,0,1-.7-.17,1.52,1.52,0,0,1-.64-2,17,17,0,0,1,6.2-6.82,8,8,0,0,1,4.36-1.21h.19c1.92,0,4.27-1.46,6.33-3.94a14.68,14.68,0,0,1,3.94-3.42,8.06,8.06,0,0,1,4.37-1.21c1.92.13,4.39-1.37,6.51-3.93a15.2,15.2,0,0,1,3.94-3.42,7.94,7.94,0,0,1,4.37-1.2c1.91.12,4.39-1.38,6.52-3.94a15,15,0,0,1,3.94-3.42c2.23-1.28,4.44-1.56,6.25-.77a1.52,1.52,0,0,1-1.21,2.78,4.07,4.07,0,0,0-3.52.62,12.06,12.06,0,0,0-3.13,2.73c-2.77,3.34-6.08,5.15-9,5a5,5,0,0,0-2.7.8,11.87,11.87,0,0,0-3.12,2.73c-2.78,3.34-6,5.15-9,5a5,5,0,0,0-2.7.81,12.06,12.06,0,0,0-3.13,2.73c-2.77,3.34-6.08,5.15-9,5a5,5,0,0,0-2.7.81,13.94,13.94,0,0,0-5,5.59A1.52,1.52,0,0,1,506.84,257.25Z"/><path class="cls-75" d="M382.83,333.11,258.59,261.37c-3.51-2-3.07-5.57,1-7.91l84.61-48.83c4.05-2.34,10.19-2.6,13.71-.57l124.24,71.73c3.52,2,3.08,5.58-1,7.92l-84.6,48.83C392.49,334.88,386.35,335.14,382.83,333.11Z"/><path class="cls-2" d="M388.8,322.22a13.61,13.61,0,0,1-6.69-1.57L257.86,248.91a5.47,5.47,0,0,1-3.1-4.7c0-2.14,1.49-4.24,4.09-5.74l84.6-48.82c4.53-2.62,11.19-2.87,15.17-.57l124.24,71.73a5.48,5.48,0,0,1,3.1,4.7c0,2.15-1.49,4.24-4.09,5.74l-84.6,48.83A17.38,17.38,0,0,1,388.8,322.22Zm-5.24-4.1c3.06,1.77,8.67,1.51,12.26-.56l84.6-48.83c1.65-1,2.63-2.16,2.63-3.22a2.82,2.82,0,0,0-1.65-2.18L357.16,191.6c-3.05-1.76-8.67-1.5-12.26.57L260.3,241c-1.64.95-2.63,2.15-2.63,3.21a2.79,2.79,0,0,0,1.65,2.18Z"/><path class="cls-84" d="M513,125.22,388.7,53.49a5,5,0,0,0-4.21-.52h0l-.22.09-.06,0-4.49,1.71,4,2-.06.22-21.95,99.83c-1,4.61,1,10,4.53,12l121.26,70L487.1,244l4.91-1.9a6.88,6.88,0,0,0,3.51-5l22-99.84C518.49,132.63,516.46,127.25,513,125.22Z"/><path class="cls-79" d="M513,125.22,388.7,53.49a5,5,0,0,0-4.21-.52h0l-.22.09-.06,0-4.49,1.71,4,2-.06.22-15.05,68.43,60.79,47.36,87.43-42.6A9.64,9.64,0,0,0,513,125.22Z"/><path class="cls-85" d="M508.26,139.38l9.46-4a11.87,11.87,0,0,0-3.83-9.47l-15,6.3Z"/><path class="cls-86" d="M482.79,243.49,358.54,171.76c-3.51-2-5.54-7.41-4.53-12L376,59.9c1-4.61,4.68-6.7,8.19-4.67L508.41,127c3.51,2,5.54,7.41,4.53,12l-22,99.84C490,243.43,486.3,245.52,482.79,243.49Z"/><path class="cls-2" d="M509.6,126.52,385.36,54.79a4.93,4.93,0,0,0-4.9-.21,5.06,5.06,0,0,1,3.7.65L508.41,127c3.51,2,5.54,7.41,4.53,12l-22,99.84a7,7,0,0,1-3.3,4.88c2.1-.46,3.85-2.36,4.5-5.32l21.95-99.83C515.14,133.94,513.11,128.55,509.6,126.52Z"/><path class="cls-2" d="M480.09,236.64,363.24,169.21c-3.21-1.86-5.07-6.78-4.14-11l20.23-92c.93-4.22,4.29-6.14,7.5-4.28l116.85,67.43c3.22,1.86,5.08,6.78,4.15,11l-20.24,92C486.67,236.58,483.31,238.5,480.09,236.64Z"/><path class="cls-87" d="M480.09,236.64,363.24,169.21c-3.21-1.86-5.07-6.78-4.14-11l20.23-92c.93-4.22,4.29-6.14,7.5-4.28l116.85,67.43c3.22,1.86,5.08,6.78,4.15,11l-20.24,92C486.67,236.58,483.31,238.5,480.09,236.64Z"/><path class="cls-82" d="M481.11,236.22,364.26,168.79c-3.21-1.85-5.07-6.78-4.14-11l20.23-92a6.48,6.48,0,0,1,2.95-4.44c-1.86.48-3.39,2.22-4,4.86l-20.23,92c-.93,4.22.93,9.14,4.14,11l116.85,67.43a4.48,4.48,0,0,0,4.56.16A4.63,4.63,0,0,1,481.11,236.22Z"/><path class="cls-84" d="M484.5,246.61l-17-2.24L357.89,181.08c-3.52-2-9.66-1.78-13.71.57l-77.69,44.83-10.27-1.36V231h0a4,4,0,0,0,2.36,3.6l124.24,71.73c3.52,2,9.66,1.78,13.72-.56l84.6-48.83c2.28-1.32,3.42-3,3.35-4.61h0Z"/><path class="cls-79" d="M402.13,206.62l-7.79-4.5H308.71l-42.22,24.36-10.27-1.36V231h0a4,4,0,0,0,2.36,3.6l124.24,71.73a12.84,12.84,0,0,0,7.08,1.33Z"/><path class="cls-82" d="M260.78,225.73l-4.56-.61V231h0a4,4,0,0,0,2.36,3.6l2.19,1.27Z"/><path class="cls-85" d="M384.09,306.86a15.89,15.89,0,0,0,11.65-.72v-13H384.09Z"/><path class="cls-88" d="M382.83,300.46,258.59,228.73c-3.51-2-3.07-5.57,1-7.92L344.18,172c4.05-2.35,10.19-2.6,13.71-.57l124.24,71.73c3.52,2,3.08,5.57-1,7.92l-84.6,48.83C392.49,302.24,386.35,302.49,382.83,300.46Z"/><path class="cls-2" d="M481.15,248.94l-84.6,48.83c-4.06,2.34-10.2,2.59-13.72.57L258.59,226.6a4.57,4.57,0,0,1-2.18-2.39c-.55,1.67.15,3.35,2.18,4.52l124.24,71.73c3.52,2,9.66,1.78,13.72-.56l84.6-48.83c2.73-1.58,3.81-3.69,3.17-5.53A6.62,6.62,0,0,1,481.15,248.94Z"/><path class="cls-82" d="M311.43,205l-5.62-3.24c-.45-.26-.39-.72.13-1l6.63-3.83a2,2,0,0,1,1.76-.07l5.63,3.24c.45.26.39.72-.13,1l-6.64,3.83A2,2,0,0,1,311.43,205Z"/><path class="cls-82" d="M320.11,210l-5.62-3.25c-.45-.26-.39-.72.13-1l6.63-3.83a2,2,0,0,1,1.77-.07l5.62,3.25c.45.26.39.71-.13,1l-6.63,3.83A2,2,0,0,1,320.11,210Z"/><path class="cls-82" d="M328.8,215l-5.63-3.25c-.45-.26-.39-.71.13-1l6.64-3.84a2,2,0,0,1,1.76-.07l5.62,3.25c.45.26.39.71-.13,1l-6.63,3.83A1.93,1.93,0,0,1,328.8,215Z"/><path class="cls-82" d="M340.8,210.87l-5.62-3.25c-.45-.26-.39-.71.13-1l5.57-3.22a2,2,0,0,1,1.76-.07l5.62,3.24c.45.26.39.72-.13,1l-5.57,3.22A2,2,0,0,1,340.8,210.87Z"/><path class="cls-82" d="M349.48,215.88l-5.62-3.24c-.45-.27-.39-.72.13-1l5.57-3.22a2,2,0,0,1,1.76-.07l5.62,3.25c.45.26.4.71-.13,1l-5.57,3.22A2,2,0,0,1,349.48,215.88Z"/><path class="cls-82" d="M358.16,220.89l-5.62-3.24c-.45-.26-.39-.72.13-1l5.57-3.22a2,2,0,0,1,1.76-.07l5.62,3.25c.45.26.4.71-.12,1l-5.57,3.22A2,2,0,0,1,358.16,220.89Z"/><path class="cls-82" d="M366.85,225.91l-5.63-3.25c-.45-.26-.39-.72.13-1l5.57-3.21a2,2,0,0,1,1.76-.08l5.62,3.25c.46.26.4.72-.12,1l-5.57,3.21A2,2,0,0,1,366.85,225.91Z"/><path class="cls-82" d="M375.53,230.92l-5.62-3.25c-.46-.26-.4-.71.12-1l5.57-3.22a2,2,0,0,1,1.76-.07l5.63,3.24c.45.26.39.72-.13,1l-5.57,3.21A1.93,1.93,0,0,1,375.53,230.92Z"/><path class="cls-82" d="M384.21,235.93l-5.62-3.25c-.45-.26-.4-.71.12-1l5.57-3.22a2,2,0,0,1,1.76-.07l5.63,3.24c.45.26.39.72-.13,1L386,235.86A2,2,0,0,1,384.21,235.93Z"/><path class="cls-82" d="M392.89,240.94l-5.62-3.24c-.45-.26-.4-.72.13-1l5.57-3.22a2,2,0,0,1,1.76-.07l5.62,3.25c.45.26.39.71-.13,1l-5.57,3.22A2,2,0,0,1,392.89,240.94Z"/><path class="cls-82" d="M401.57,246,396,242.71c-.45-.26-.39-.72.13-1l5.57-3.21a1.93,1.93,0,0,1,1.76-.08l5.62,3.25c.45.26.39.71-.13,1l-5.57,3.21A2,2,0,0,1,401.57,246Z"/><path class="cls-82" d="M410.25,251l-5.62-3.25c-.45-.26-.39-.72.13-1l5.57-3.21a2,2,0,0,1,1.76-.08l5.62,3.25c.45.26.4.72-.13,1L412,250.89A2,2,0,0,1,410.25,251Z"/><path class="cls-82" d="M418.93,256l-5.62-3.25c-.45-.26-.39-.71.13-1L419,248.5a2,2,0,0,1,1.76-.07l5.62,3.24c.45.26.4.72-.12,1l-5.57,3.22A2,2,0,0,1,418.93,256Z"/><path class="cls-82" d="M353.59,208.5,348,205.25c-.45-.26-.39-.72.13-1l5.57-3.21a2,2,0,0,1,1.76-.08l5.62,3.25c.45.26.4.72-.13,1l-5.57,3.21A2,2,0,0,1,353.59,208.5Z"/><path class="cls-82" d="M344.78,203.41l-5.62-3.25c-.45-.26-.39-.71.13-1l5.57-3.22a2,2,0,0,1,1.76-.07l5.62,3.24c.45.26.39.72-.13,1l-5.57,3.22A2,2,0,0,1,344.78,203.41Z"/><path class="cls-82" d="M336,198.31l-12.11-7c-.45-.26-.39-.71.13-1l5.57-3.22a2,2,0,0,1,1.76-.07l12.1,7c.46.26.4.71-.12,1l-5.57,3.22A2,2,0,0,1,336,198.31Z"/><path class="cls-82" d="M342.13,192.12l-9.83-5.68c-.45-.26-.39-.71.13-1l5.57-3.22a2,2,0,0,1,1.76-.07l9.82,5.67c.45.26.4.72-.12,1L343.89,192A2,2,0,0,1,342.13,192.12Z"/><path class="cls-82" d="M362.28,213.51l-5.63-3.25c-.45-.26-.39-.71.13-1l5.57-3.22a2,2,0,0,1,1.76-.07l5.62,3.24c.45.26.4.72-.12,1L364,213.43A1.93,1.93,0,0,1,362.28,213.51Z"/><path class="cls-82" d="M371,218.52l-5.63-3.25c-.45-.26-.39-.71.13-1L371,211a2,2,0,0,1,1.76-.07l5.62,3.24c.46.27.4.72-.12,1l-5.57,3.22A2,2,0,0,1,371,218.52Z"/><path class="cls-82" d="M379.64,223.53,374,220.29c-.46-.26-.4-.72.12-1l5.57-3.22a2,2,0,0,1,1.76-.07l5.63,3.25c.45.26.39.71-.13,1l-5.57,3.22A2,2,0,0,1,379.64,223.53Z"/><path class="cls-82" d="M388.32,228.54l-5.62-3.24c-.45-.26-.4-.72.12-1l5.57-3.21a2,2,0,0,1,1.76-.08l5.63,3.25c.45.26.39.71-.13,1l-5.57,3.21A1.93,1.93,0,0,1,388.32,228.54Z"/><path class="cls-82" d="M397,233.56l-5.62-3.25c-.45-.26-.4-.71.13-1l5.57-3.21a1.93,1.93,0,0,1,1.76-.07l5.62,3.24c.45.26.39.72-.13,1l-5.57,3.21A2,2,0,0,1,397,233.56Z"/><path class="cls-82" d="M405.68,238.57l-5.62-3.25c-.45-.26-.39-.71.13-1l5.57-3.22a2,2,0,0,1,1.76-.07l5.62,3.24c.45.26.39.72-.13,1l-5.57,3.22A2,2,0,0,1,405.68,238.57Z"/><path class="cls-82" d="M414.36,243.58l-5.62-3.24c-.45-.27-.39-.72.13-1l5.57-3.22a2,2,0,0,1,1.76-.07l5.62,3.25c.45.26.4.71-.13,1l-5.57,3.22A2,2,0,0,1,414.36,243.58Z"/><path class="cls-82" d="M423,248.59l-5.62-3.24c-.45-.26-.39-.72.13-1l5.57-3.22a2,2,0,0,1,1.76-.07l5.62,3.25c.45.26.4.71-.12,1l-5.57,3.22A2,2,0,0,1,423,248.59Z"/><path class="cls-82" d="M431.73,253.61l-5.63-3.25c-.45-.26-.39-.72.13-1l5.57-3.21a2,2,0,0,1,1.76-.08l5.62,3.25c.45.26.4.72-.12,1l-5.57,3.21A2,2,0,0,1,431.73,253.61Z"/><path class="cls-82" d="M447.16,262.52l-12.27-7.09c-.45-.26-.39-.71.13-1l5.57-3.22a2,2,0,0,1,1.76-.07l12.27,7.08c.45.26.39.72-.13,1l-5.57,3.21A2,2,0,0,1,447.16,262.52Z"/><path class="cls-82" d="M464.06,252.76l-10.35-6c-.45-.26-.4-.72.12-1l5.57-3.21a2,2,0,0,1,1.77-.07l10.35,6c.45.26.39.72-.13,1l-5.57,3.21A1.93,1.93,0,0,1,464.06,252.76Z"/><path class="cls-82" d="M377.48,212.53l-5.62-3.25c-.45-.26-.4-.71.12-1l5.57-3.21a2,2,0,0,1,1.76-.07l5.63,3.24c.45.26.39.72-.13,1l-5.57,3.21A1.93,1.93,0,0,1,377.48,212.53Z"/><path class="cls-82" d="M368.58,207.39,363,204.14c-.45-.26-.4-.71.13-1l5.57-3.22a2,2,0,0,1,1.76-.07l5.62,3.24c.45.27.39.72-.13,1l-5.57,3.22A2,2,0,0,1,368.58,207.39Z"/><path class="cls-82" d="M359.68,202.25,354.06,199c-.45-.26-.39-.72.13-1l5.57-3.21a1.93,1.93,0,0,1,1.76-.08l5.62,3.25c.45.26.4.71-.13,1l-5.57,3.22A2,2,0,0,1,359.68,202.25Z"/><path class="cls-82" d="M350.79,197.12l-5.63-3.25c-.45-.26-.39-.71.13-1l5.57-3.21a1.93,1.93,0,0,1,1.76-.07l5.62,3.24c.45.26.4.72-.12,1L352.55,197A2,2,0,0,1,350.79,197.12Z"/><path class="cls-82" d="M386.16,217.54l-5.62-3.25c-.45-.26-.4-.71.12-1l5.57-3.22A2,2,0,0,1,388,210l5.62,3.24c.45.26.39.72-.13,1l-5.57,3.22A2,2,0,0,1,386.16,217.54Z"/><path class="cls-82" d="M394.84,222.55l-5.62-3.24c-.45-.26-.4-.72.13-1l5.57-3.22a2,2,0,0,1,1.76-.07l5.62,3.25c.45.26.39.71-.13,1l-5.57,3.22A2,2,0,0,1,394.84,222.55Z"/><path class="cls-82" d="M403.52,227.56l-5.62-3.24c-.45-.26-.39-.72.13-1l5.57-3.21a1.93,1.93,0,0,1,1.76-.08l5.62,3.25c.45.26.39.71-.13,1l-5.57,3.22A2,2,0,0,1,403.52,227.56Z"/><path class="cls-82" d="M412.2,232.58l-5.62-3.25c-.45-.26-.39-.72.13-1l5.57-3.21A2,2,0,0,1,414,225l5.62,3.25c.45.26.4.72-.13,1L414,232.5A2,2,0,0,1,412.2,232.58Z"/><path class="cls-82" d="M420.88,237.59l-5.62-3.25c-.45-.26-.39-.71.13-1l5.57-3.22a2,2,0,0,1,1.76-.07l5.62,3.24c.45.26.4.72-.12,1l-5.57,3.22A2,2,0,0,1,420.88,237.59Z"/><path class="cls-82" d="M429.57,242.6l-5.63-3.25c-.45-.26-.39-.71.13-1l5.57-3.22a2,2,0,0,1,1.76-.07l5.62,3.24c.45.27.4.72-.12,1l-5.57,3.22A2,2,0,0,1,429.57,242.6Z"/><path class="cls-82" d="M438.25,247.61l-5.62-3.24c-.46-.26-.4-.72.12-1l5.57-3.22a2,2,0,0,1,1.76-.07l5.62,3.25c.46.26.4.71-.12,1L440,247.54A2,2,0,0,1,438.25,247.61Z"/><path class="cls-82" d="M446.93,252.62l-5.62-3.24c-.45-.26-.4-.72.12-1l5.57-3.21a2,2,0,0,1,1.76-.08l5.63,3.25c.45.26.39.71-.13,1l-5.57,3.21A1.93,1.93,0,0,1,446.93,252.62Z"/><path class="cls-82" d="M455.61,257.64,450,254.39c-.45-.26-.4-.71.13-1l5.57-3.21a2,2,0,0,1,1.76-.07l5.62,3.24c.45.26.39.72-.13,1l-5.57,3.21A2,2,0,0,1,455.61,257.64Z"/><path class="cls-82" d="M372.91,200.13l-5.62-3.25c-.46-.26-.4-.71.12-1l5.57-3.22a2,2,0,0,1,1.76-.07l5.62,3.24c.46.26.4.72-.12,1l-5.57,3.22A2,2,0,0,1,372.91,200.13Z"/><path class="cls-82" d="M364.27,195.14l-5.62-3.24c-.45-.26-.4-.72.12-1l5.57-3.22a2,2,0,0,1,1.76-.07l5.63,3.25c.45.26.39.71-.13,1L366,195.07A2,2,0,0,1,364.27,195.14Z"/><path class="cls-82" d="M355.63,190.16,350,186.91c-.45-.26-.4-.72.13-1l5.57-3.21a2,2,0,0,1,1.76-.08l5.62,3.25c.45.26.39.72-.13,1l-5.57,3.21A2,2,0,0,1,355.63,190.16Z"/><path class="cls-82" d="M347,185.17l-5.62-3.25c-.45-.26-.39-.71.13-1l5.57-3.22a2,2,0,0,1,1.76-.07l5.62,3.24c.45.26.39.72-.13,1l-5.57,3.22A2,2,0,0,1,347,185.17Z"/><path class="cls-82" d="M355.87,180l-5.62-3.25c-.45-.26-.39-.71.13-1l1.84-1.07a2,2,0,0,1,1.76-.07l5.62,3.25c.45.26.4.71-.12,1L357.64,180A2,2,0,0,1,355.87,180Z"/><path class="cls-82" d="M367.15,186.55l-5.62-3.25c-.46-.26-.4-.71.12-1l1.84-1.07a2,2,0,0,1,1.76-.07l5.63,3.25c.45.26.39.71-.13,1l-1.84,1.07A2,2,0,0,1,367.15,186.55Z"/><path class="cls-82" d="M375.75,191.51l-5.62-3.24c-.45-.26-.4-.72.12-1l1.85-1.06a2,2,0,0,1,1.76-.07l5.62,3.24c.45.26.39.72-.13,1l-1.84,1.06A1.93,1.93,0,0,1,375.75,191.51Z"/><path class="cls-82" d="M384.35,196.48l-5.62-3.24c-.45-.27-.39-.72.13-1l1.84-1.06a1.93,1.93,0,0,1,1.76-.08l5.62,3.25c.45.26.4.71-.13,1l-1.84,1.07A2,2,0,0,1,384.35,196.48Z"/><path class="cls-82" d="M393,201.45l-5.62-3.25c-.45-.26-.39-.71.13-1l1.84-1.07a2,2,0,0,1,1.76-.07l5.62,3.24c.45.27.4.72-.12,1l-1.84,1.06A2,2,0,0,1,393,201.45Z"/><path class="cls-82" d="M441,229.17l-5.62-3.24c-.45-.26-.4-.72.12-1l1.84-1.06a2,2,0,0,1,1.77-.07l5.62,3.24c.45.26.39.72-.13,1l-1.84,1.06A1.93,1.93,0,0,1,441,229.17Z"/><path class="cls-82" d="M449.58,234.14,444,230.9c-.45-.27-.4-.72.13-1l1.84-1.06a1.93,1.93,0,0,1,1.76-.08l5.62,3.25c.45.26.39.71-.13,1l-1.84,1.07A2,2,0,0,1,449.58,234.14Z"/><path class="cls-82" d="M458.18,239.11l-5.62-3.25c-.45-.26-.39-.71.13-1l1.84-1.07a2,2,0,0,1,1.76-.07l5.62,3.24c.45.27.4.72-.12,1L459.94,239A1.93,1.93,0,0,1,458.18,239.11Z"/><path class="cls-82" d="M466.79,244.07l-5.63-3.24c-.45-.26-.39-.72.13-1l1.84-1.06a1.93,1.93,0,0,1,1.76-.07l5.62,3.24c.46.26.4.72-.12,1L468.55,244A2,2,0,0,1,466.79,244.07Z"/><path class="cls-82" d="M381.59,205.14,376,201.9c-.45-.26-.4-.72.12-1l5.57-3.22a2,2,0,0,1,1.76-.07l5.63,3.25c.45.26.39.71-.13,1l-5.57,3.22A2,2,0,0,1,381.59,205.14Z"/><path class="cls-82" d="M390.27,210.15l-5.62-3.24c-.45-.26-.4-.72.12-1l5.57-3.21a2,2,0,0,1,1.77-.08l5.62,3.25c.45.26.39.71-.13,1L392,210.08A2,2,0,0,1,390.27,210.15Z"/><path class="cls-82" d="M399,215.17l-5.62-3.25c-.45-.26-.4-.71.13-1l5.57-3.21a1.93,1.93,0,0,1,1.76-.07l5.62,3.24c.45.26.39.72-.13,1l-5.57,3.21A2,2,0,0,1,399,215.17Z"/><path class="cls-82" d="M407.63,220.18,402,216.93c-.45-.26-.39-.71.13-1l5.57-3.22a2,2,0,0,1,1.76-.07l5.62,3.24c.45.26.39.72-.13,1l-5.57,3.22A2,2,0,0,1,407.63,220.18Z"/><path class="cls-82" d="M416.31,225.19,410.69,222c-.45-.27-.39-.72.13-1l5.57-3.22a2,2,0,0,1,1.76-.07l5.62,3.25c.45.26.4.71-.13,1l-5.57,3.22A2,2,0,0,1,416.31,225.19Z"/><path class="cls-82" d="M425,230.2,419.37,227c-.45-.26-.39-.72.13-1l5.57-3.22a2,2,0,0,1,1.76-.07l5.62,3.25c.45.26.4.71-.12,1l-5.57,3.22A2,2,0,0,1,425,230.2Z"/><path class="cls-82" d="M433.68,235.22,428.05,232c-.45-.26-.39-.72.13-1l5.57-3.21a2,2,0,0,1,1.76-.08l5.62,3.25c.45.26.4.72-.12,1l-5.57,3.21A2,2,0,0,1,433.68,235.22Z"/><path class="cls-82" d="M442.36,240.23,436.74,237c-.46-.26-.4-.71.12-1l5.57-3.22a2,2,0,0,1,1.76-.07l5.62,3.24c.46.26.4.72-.12,1l-5.57,3.21A1.93,1.93,0,0,1,442.36,240.23Z"/><path class="cls-82" d="M451,245.24,445.42,242c-.45-.26-.4-.71.12-1l5.57-3.22a2,2,0,0,1,1.76-.07l5.63,3.24c.45.26.39.72-.13,1l-5.57,3.22A2,2,0,0,1,451,245.24Z"/><path class="cls-82" d="M332,205.76,315.4,196.2c-.45-.26-.4-.71.13-1L321.1,192a2,2,0,0,1,1.76-.07l16.55,9.56c.45.26.4.71-.12,1l-5.57,3.22A2,2,0,0,1,332,205.76Z"/><path class="cls-82" d="M438.61,267.34l-16.56-9.56c-.45-.26-.39-.72.13-1l5.57-3.21a1.93,1.93,0,0,1,1.76-.08L446.07,263c.45.26.39.72-.13,1l-5.57,3.21A2,2,0,0,1,438.61,267.34Z"/><path class="cls-82" d="M403.89,258.36l-5.62-3.24c-.45-.26-.4-.72.12-1l6.64-3.83a2,2,0,0,1,1.76-.07l5.62,3.24c.45.26.4.72-.12,1l-6.64,3.83A2,2,0,0,1,403.89,258.36Z"/><path class="cls-82" d="M340.85,222l-9-5.2c-.46-.26-.4-.71.12-1l6.64-3.83a2,2,0,0,1,1.76-.08l9,5.19c.45.27.39.72-.13,1l-6.63,3.83A2,2,0,0,1,340.85,222Z"/><path class="cls-82" d="M395.53,253.53l-9-5.19c-.45-.26-.39-.71.13-1l6.64-3.83a2,2,0,0,1,1.76-.08l9,5.19c.45.26.39.72-.13,1l-6.63,3.83A1.93,1.93,0,0,1,395.53,253.53Z"/><path class="cls-82" d="M353.37,229.2l-9-5.19c-.45-.26-.39-.72.13-1l6.63-3.83a1.93,1.93,0,0,1,1.76-.07l9,5.19c.46.26.4.71-.12,1l-6.64,3.83A2,2,0,0,1,353.37,229.2Z"/><path class="cls-82" d="M353,219.12l39.09,22.57c.49.28.49.73,0,1l-6.76,3.91a2,2,0,0,1-1.76,0L344.44,224Z"/><path class="cls-82" d="M428.15,267.45l6.26,3.62c.37.21.33.58-.1.83l-2.71,1.57a1.65,1.65,0,0,1-1.45.06l-6.26-3.62c-.37-.21-.32-.59.11-.83l2.71-1.57A1.6,1.6,0,0,1,428.15,267.45Z"/><path class="cls-82" d="M419.4,262.4l6.26,3.61c.37.22.32.59-.1.84l-2.72,1.56a1.57,1.57,0,0,1-1.44.06l-6.26-3.61c-.37-.22-.33-.59.1-.84l2.72-1.56A1.57,1.57,0,0,1,419.4,262.4Z"/><path class="cls-82" d="M410.72,257.39,417,261c.37.21.32.59-.1.83l-2.72,1.57a1.6,1.6,0,0,1-1.44.06l-6.26-3.61c-.37-.22-.33-.59.1-.84l2.71-1.56A1.59,1.59,0,0,1,410.72,257.39Z"/><path class="cls-82" d="M424.19,259.63l6.27,3.61c.37.22.32.59-.11.84l-2.71,1.57a1.65,1.65,0,0,1-1.45.06l-6.26-3.62c-.37-.21-.32-.59.11-.83l2.71-1.57A1.6,1.6,0,0,1,424.19,259.63Z"/><polygon class="cls-81" points="406.74 108.31 392.62 100.16 393.23 97.12 407.35 105.27 406.74 108.31"/><polygon class="cls-2" points="405.21 115.37 391.09 107.22 391.69 104.18 405.81 112.33 405.21 115.37"/><polygon class="cls-81" points="474.51 213.37 460.39 205.21 461 202.17 475.12 210.32 474.51 213.37"/><polygon class="cls-81" points="402.15 129.5 388.03 121.35 388.63 118.31 402.75 126.46 402.15 129.5"/><polygon class="cls-81" points="462.32 169.24 410.09 139.08 410.76 135.69 462.99 165.84 462.32 169.24"/><polygon class="cls-81" points="443.61 174.97 407.15 153.92 407.82 150.52 444.29 171.57 443.61 174.97"/><polygon class="cls-2" points="440.16 164.71 408.62 146.5 409.29 143.1 440.83 161.32 440.16 164.71"/><path class="cls-89" d="M433.47,135.58a2,2,0,0,1-2.84.87,2.47,2.47,0,0,1-1-3.1,2,2,0,0,1,2.83-.87A2.47,2.47,0,0,1,433.47,135.58Z"/><path class="cls-2" d="M440.26,139.5a2,2,0,0,1-2.83.87,2.47,2.47,0,0,1-1-3.1,2,2,0,0,1,2.84-.87A2.47,2.47,0,0,1,440.26,139.5Z"/><path class="cls-81" d="M447.05,143.42a2,2,0,0,1-2.83.87,2.46,2.46,0,0,1-1-3.09,2,2,0,0,1,2.84-.88A2.47,2.47,0,0,1,447.05,143.42Z"/><path class="cls-89" d="M453.85,147.34a2,2,0,0,1-2.84.88,2.47,2.47,0,0,1-1-3.1,2,2,0,0,1,2.83-.88A2.47,2.47,0,0,1,453.85,147.34Z"/><polygon class="cls-89" points="460.85 176.66 445.08 167.55 445.75 164.16 461.52 173.26 460.85 176.66"/><path class="cls-2" d="M353.05,268.83,311.9,245.07c-1-.58-.88-1.59.28-2.26l21.7-12.53a4.35,4.35,0,0,1,3.93-.16L379,253.88c1,.58.88,1.59-.28,2.26L357,268.67A4.38,4.38,0,0,1,353.05,268.83Z"/><polygon class="cls-90" points="385.27 291.27 273.79 226.98 306.28 208.22 417.76 272.51 385.27 291.27"/><path class="cls-2" d="M385.27,276.47a1.76,1.76,0,0,1-.86-.23L272.93,212a1.71,1.71,0,0,1,0-3l32.49-18.76a1.69,1.69,0,0,1,1.71,0l111.49,64.29a1.71,1.71,0,0,1,0,3l-32.49,18.76A1.76,1.76,0,0,1,385.27,276.47Zm-108-66,108,62.3L414.32,256l-108-62.31Z"/><path class="cls-79" d="M325.8,223.66a1.38,1.38,0,0,1-1.38-1.38V178.76a1.38,1.38,0,0,1,2.75,0v43.52A1.37,1.37,0,0,1,325.8,223.66Z"/><path class="cls-91" d="M319,173.83v29.4h0a3.39,3.39,0,0,0,2,2.78,10.61,10.61,0,0,0,9.63,0,3.39,3.39,0,0,0,2-2.78v-29.4Z"/><path class="cls-79" d="M319,178.67v10a17.7,17.7,0,0,0,13.63,0v-10A17.61,17.61,0,0,0,319,178.67Z"/><path class="cls-92" d="M336.83,132.86H314.76V179h0c0,1.63,1.08,3.26,3.23,4.5a17.24,17.24,0,0,0,15.61,0c2.16-1.24,3.23-2.87,3.23-4.5h0Z"/><path class="cls-81" d="M323.89,198.76c0,1.35-.95,1.9-2.13,1.22a4.68,4.68,0,0,1-2.12-3.67c0-1.35.95-1.9,2.12-1.22A4.66,4.66,0,0,1,323.89,198.76Z"/><path class="cls-79" d="M368.6,248.4a1.37,1.37,0,0,1-1.37-1.38V203.51a1.38,1.38,0,1,1,2.75,0V247A1.38,1.38,0,0,1,368.6,248.4Z"/><path class="cls-93" d="M361.79,198.57V228h0a3.4,3.4,0,0,0,2,2.79,10.68,10.68,0,0,0,9.63,0,3.4,3.4,0,0,0,2-2.79v-29.4Z"/><path class="cls-79" d="M361.79,203.41v10a17.61,17.61,0,0,0,13.63,0v-10A17.7,17.7,0,0,0,361.79,203.41Z"/><path class="cls-94" d="M379.64,157.6H357.57v46.11h0c0,1.63,1.07,3.26,3.23,4.51a17.24,17.24,0,0,0,15.61,0c2.15-1.25,3.23-2.88,3.23-4.51h0Z"/><path class="cls-81" d="M366.69,223.5c0,1.36-.95,1.9-2.12,1.23a4.69,4.69,0,0,1-2.12-3.67c0-1.36.95-1.9,2.12-1.23A4.69,4.69,0,0,1,366.69,223.5Z"/><path class="cls-82" d="M283.49,99.48l29.3-16.86s-1.1,16.83-1.1,16.86-16.84,5.22-16.84,5.22Z"/><path class="cls-95" d="M440.47,196.52c0-11.83-8.31-26.22-18.56-32.14a18.4,18.4,0,0,0-6.34-2.35c-2.95-15.53-13.76-32-26.64-39.45a26,26,0,0,0-10.9-3.69c-1.76-18.82-14.85-40.21-30.74-49.39-8.3-4.79-15.83-5.36-21.39-2.42v0l-.27.16-.42.24L307.93,77.67l5.74,4.53c-5.15,2.25-8.41,8-8.41,16.58,0,15.76,11.06,34.92,24.71,42.8l84.24,60.15,2.6,17.53L435,208.54l.05,0,.11-.06h0C438.44,206.47,440.47,202.35,440.47,196.52Z"/><path class="cls-82" d="M306.11,91.84l39.66-23.17c-7.7-4-14.65-4.35-19.87-1.59v0l-.27.16-.42.24L307.93,77.67l5.74,4.53C310.07,83.78,307.4,87.08,306.11,91.84Z"/><path class="cls-82" d="M379.35,160l28.94-17c-5-8.59-11.79-16.09-19.36-20.45-1-.58-2-1.09-3-1.53l-36.81,21.53Z"/><path class="cls-81" d="M316.08,79.56,329,87,352.6,73.1a48.2,48.2,0,0,0-5.31-3.6A33.4,33.4,0,0,0,339,66Z"/><path class="cls-81" d="M405.1,138,382,151.64l8,9,21-12.38A67.15,67.15,0,0,0,405.1,138Z"/><path class="cls-96" d="M403.77,175.07a18.4,18.4,0,0,0-6.34-2.35c-3-15.53-13.76-32-26.64-39.46a26.24,26.24,0,0,0-10.91-3.69c-1.75-18.82-14.84-40.21-30.73-49.38-17.09-9.87-30.95-1.87-30.95,17.86,0,.67,0,1.35.05,2-12.49-5.8-22.26.73-22.26,15.53,0,15.76,11.06,34.92,24.71,42.8l103.07,59.51c10.25,5.91,18.55,1.12,18.55-10.71S414,181,403.77,175.07Z"/><path class="cls-2" d="M298.25,100.08c0-.68-.05-1.36-.05-2V98c-6.9-2.69-12.83-1.52-16.56,2.79C285.69,97.43,291.57,97,298.25,100.08Z"/><path class="cls-2" d="M405.28,173.6a18.4,18.4,0,0,0-6.34-2.35c-3-15.53-13.76-32-26.64-39.46a26.1,26.1,0,0,0-10.91-3.69c-1.76-18.82-14.84-40.21-30.73-49.38-10.65-6.15-20-5.36-25.61.88,5.67-4.85,14.36-5,24.1.59,15.89,9.17,29,30.56,30.73,49.38a26.24,26.24,0,0,1,10.91,3.69c12.88,7.44,23.68,23.93,26.64,39.46a18.4,18.4,0,0,1,6.34,2.35c10.25,5.91,18.55,20.3,18.55,32.14,0,4.27-1.09,7.6-2.95,9.87,2.78-2.14,4.46-6,4.46-11.34C423.83,193.9,415.53,179.51,405.28,173.6Z"/><path class="cls-97" d="M296.07,104.78l7.75,3.59-.39-8.53c0-.6-.05-1.2-.05-1.79,0-7.61,2.3-13.13,6.48-15.54s10.1-1.64,16.7,2.16c14.18,8.19,26.55,28.13,28.17,45.38l.4,4.35,4.36.34a21,21,0,0,1,8.71,3c11.26,6.5,21.42,21.62,24.14,35.94l.68,3.58,3.61.57a13.42,13.42,0,0,1,4.55,1.71c8.65,5,16,17.66,16,27.66,0,3.73-1,6.48-2.84,7.52s-4.7.57-7.94-1.3l-103.07-59.5c-12-6.93-22.12-24.47-22.12-38.32,0-5.43,1.6-9.57,4.4-11.35a7.47,7.47,0,0,1,4.11-1.1A15.44,15.44,0,0,1,296.07,104.78Z"/><polygon class="cls-82" points="347.51 169.37 350.23 168.01 347.56 165.98 347.51 169.37"/><polygon class="cls-82" points="339.35 132.64 341.99 131.31 342.04 132.69 339.35 132.64"/><polygon class="cls-82" points="355.27 160.79 358.02 159.4 352.72 154.36 355.27 160.79"/><path class="cls-82" d="M349.44,167.92l-12.87-7.58a2.72,2.72,0,0,1-1.18-2.17l0-14.9,15.24,9-.05,14.9C350.62,168,350.09,168.3,349.44,167.92Z"/><path class="cls-82" d="M342,131.33l-13.9,8.94c-.59.38-.12,1.8.78,2.32L343,151l14.2,8.36c.89.53,1.38-.32.79-1.39l-13.8-25.27C343.63,131.57,342.56,130.94,342,131.33Z"/><path class="cls-81" d="M346.68,169.31l-12.88-7.58a2.74,2.74,0,0,1-1.17-2.17l0-14.9,15.24,9-.05,14.9C347.86,169.35,347.33,169.69,346.68,169.31Z"/><path class="cls-81" d="M339.2,132.72l-13.9,8.94c-.59.38-.12,1.8.78,2.32l14.2,8.37,14.2,8.36c.89.53,1.38-.32.79-1.39l-13.81-25.27C340.87,133,339.8,132.33,339.2,132.72Z"/></svg>