<?xml version="1.0" encoding="UTF-8"?>
<svg width="24px" height="24px" viewBox="0 0 24 24" version="1.1" xmlns="http://www.w3.org/2000/svg" xmlns:xlink="http://www.w3.org/1999/xlink">
    <!-- Generator: Sketch 60 (88103) - https://sketch.com -->
    <title>Icones/FranceTransfert/Dossier-verrouiller</title>
    <desc>Created with Sketch.</desc>
    <defs>
        <path d="M3,2 L7.56,2 C7.98991591,1.99889024 8.37242788,2.27268828 8.51,2.68 L9.05,4.32 C9.18757212,4.72731172 9.57008409,5.00110976 10,5 L17,5 C17.5522847,5 18,5.44771525 18,6 C18,6.55228475 18.4477153,7 19,7 C19.5522847,7 20,6.55228475 20,6 C20,4.34314575 18.6568542,3 17,3 L10.72,3 L10.4,2 C9.97480834,0.797346223 8.83559393,-0.00491744862 7.56,-2.24797957e-05 L3,-2.24797957e-05 C1.34314575,-2.24797957e-05 0,1.34314575 0,3 L0,16 C0,17.6568542 1.34314575,19 3,19 L9,19 C9.55228475,19 10,18.5522847 10,18 C10,17.4477153 9.55228475,17 9,17 L3,17 C2.44771525,17 2,16.5522847 2,16 L2,3 C2,2.44771525 2.44771525,2 3,2 Z M20,13.18 L20,12 C20,10.3431458 18.6568542,9 17,9 C15.3431458,9 14,10.3431458 14,12 L14,13.18 C12.8042713,13.6027483 12.0035644,14.7317451 12,16 L12,18 C12,19.6568542 13.3431458,21 15,21 L19,21 C20.6568542,21 22,19.6568542 22,18 L22,16 C21.9964356,14.7317451 21.1957287,13.6027483 20,13.18 Z M16,12 C16,11.4477153 16.4477153,11 17,11 C17.5522847,11 18,11.4477153 18,12 L18,13 L16,13 L16,12 Z M20,18 C20,18.5522847 19.5522847,19 19,19 L15,19 C14.4477153,19 14,18.5522847 14,18 L14,16 C14,15.4477153 14.4477153,15 15,15 L19,15 C19.5522847,15 20,15.4477153 20,16 L20,18 Z" id="path-1"></path>
    </defs>
    <g id="Icones/FranceTransfert/Dossier-verrouiller" stroke="none" stroke-width="1" fill="none" fill-rule="evenodd">
        <g id="Colors/Icones" transform="translate(1.000000, 2.000000)">
            <mask id="mask-2" fill="white">
                <use xlink:href="#path-1"></use>
            </mask>
            <use id="Mask" fill="#000000" fill-rule="nonzero" xlink:href="#path-1"></use>
            <g id="Colors/FranceTransfert/Neutres/Gris-medium-1" mask="url(#mask-2)" fill="#414856">
                <g transform="translate(-1.000000, -2.000000)" id="Colors/France-transfert/Neutres/Gris-medium-1">
                    <rect x="0" y="0" width="24" height="24"></rect>
                </g>
            </g>
        </g>
    </g>
</svg>