<?xml version="1.0" encoding="UTF-8"?>
<svg width="24px" height="24px" viewBox="0 0 24 24" version="1.1" xmlns="http://www.w3.org/2000/svg" xmlns:xlink="http://www.w3.org/1999/xlink">
    <!-- Generator: Sketch 60 (88103) - https://sketch.com -->
    <title>Icones/FranceTransfert/Dossier</title>
    <desc>Created with Sketch.</desc>
    <defs>
        <path d="M17,3.5 L10.72,3.5 L10.4,2.5 C9.97480834,1.29734622 8.83559393,0.495082551 7.56,0.49997752 L3,0.49997752 C1.34314575,0.49997752 0,1.84314575 0,3.5 L0,16.5 C0,18.1568542 1.34314575,19.5 3,19.5 L17,19.5 C18.6568542,19.5 20,18.1568542 20,16.5 L20,6.5 C20,4.84314575 18.6568542,3.5 17,3.5 Z M18,16.4999966 C18,17.0522847 17.5522847,17.4999966 17,17.4999966 L3,17.4999966 C2.44771525,17.4999966 2,17.0522847 2,16.4999966 L2,3.49999664 C2,2.94771525 2.44771525,2.49999664 3,2.49999664 L7.56,2.49999664 C7.98991591,2.49889024 8.37242788,2.77268828 8.51,3.18 L9.05,4.82 C9.18757212,5.22731172 9.57008409,5.50110976 10,5.49999664 L17,5.49999664 C17.5522847,5.49999664 18,5.94771525 18,6.49999664 L18,16.4999966 Z" id="path-1"></path>
    </defs>
    <g id="Icones/FranceTransfert/Dossier" stroke="none" stroke-width="1" fill="none" fill-rule="evenodd">
        <g id="Colors/Icones" transform="translate(2.000000, 2.000000)">
            <mask id="mask-2" fill="white">
                <use xlink:href="#path-1"></use>
            </mask>
            <use id="Mask" fill="#000000" fill-rule="nonzero" xlink:href="#path-1"></use>
            <g id="Colors/FranceTransfert/Neutres/Gris-medium-1" mask="url(#mask-2)" fill="#414856">
                <g transform="translate(-2.000000, -2.000000)" id="Colors/France-transfert/Neutres/Gris-medium-1">
                    <rect x="0" y="0" width="24" height="24"></rect>
                </g>
            </g>
        </g>
    </g>
</svg>