<?xml version="1.0" encoding="UTF-8"?>
<svg width="15px" height="14px" viewBox="0 0 15 14" version="1.1" xmlns="http://www.w3.org/2000/svg" xmlns:xlink="http://www.w3.org/1999/xlink">
    <!-- Generator: Sketch 60 (88103) - https://sketch.com -->
    <title>Icones/FranceTransfert/Curseur/Drag&amp;Drop</title>
    <desc>Created with Sketch.</desc>
    <defs>
        <path d="M13,2 C14.1051424,2 15,2.89485763 15,4 C15,5.713809 14.6972784,7.412297 14.1051833,9.0188207 L13.1107443,11.716514 C13.0374527,11.9538787 13,12.2021609 13,12.451 L13,13.5 C13,13.7761424 12.7761424,14 12.5,14 L4.5,14 C4.22385763,14 4,13.7761424 4,13.5 L4,12.454 C4,12.3102695 3.93725784,12.1718597 3.82979278,12.0773278 L0.8752242,9.4927048 C0.31885974,9.0071277 0,8.3039756 0,7.565 L0,7.56 C0,6.1458576 1.14585763,5 2.56,5 L3,5 L3,2.345 C3,1.22057587 3.77414442,0.22067111 4.85654157,0.03435727 C5.50563887,-0.07824124 6.1368026,0.09282756 6.6251502,0.47589116 C7.012232,0.17260424 7.4915103,0 8,0 C8.6618873,0 9.2693387,0.29042571 9.6873468,0.77024178 C10.0094431,0.59522197 10.372309,0.5 10.75,0.5 C11.7249127,0.5 12.557765,1.12435301 12.8647424,2.00493375 C12.9096228,2.00165848 12.9547041,2 13,2 Z" id="path-1"></path>
        <filter x="-33.3%" y="-35.7%" width="193.3%" height="200.0%" filterUnits="objectBoundingBox" id="filter-2">
            <feOffset dx="2" dy="2" in="SourceAlpha" result="shadowOffsetOuter1"></feOffset>
            <feGaussianBlur stdDeviation="2" in="shadowOffsetOuter1" result="shadowBlurOuter1"></feGaussianBlur>
            <feColorMatrix values="0 0 0 0 0   0 0 0 0 0   0 0 0 0 0  0 0 0 0.3 0" type="matrix" in="shadowBlurOuter1"></feColorMatrix>
        </filter>
    </defs>
    <g id="Icones/FranceTransfert/Curseur/Drag&amp;Drop" stroke="none" stroke-width="1" fill="none" fill-rule="evenodd">
        <g fill-rule="nonzero" id="Group">
            <g>
                <g id="Shape">
                    <use fill="black" fill-opacity="1" filter="url(#filter-2)" xlink:href="#path-1"></use>
                    <use fill="#000000" xlink:href="#path-1"></use>
                </g>
                <path d="M12,13 L12,12.451 C12,12.1021537 12.0524545,11.7544218 12.1638167,11.3961793 L13.1668491,8.6730913 C13.718146,7.1772648 14,5.5958588 14,4 C14,3.44714237 13.5528576,3 13,3 C12.8889953,3 12.7762045,3.02196797 12.6576572,3.06587438 C12.3482165,3.18048203 12.0145737,2.96919271 11.9858923,2.64045906 C11.9296525,1.99586522 11.3958428,1.5 10.75,1.5 C10.4328131,1.5 10.1346595,1.62167639 9.9020338,1.83864453 C9.6578976,2.06634856 9.2634491,1.99541277 9.113942,1.69691774 C8.9008538,1.2714813 8.4755133,1 8,1 C7.6140924,1 7.2580009,1.18061784 7.0191579,1.48663543 C6.8190134,1.74307059 6.4311632,1.74313131 6.2309384,1.48675882 C5.94447095,1.11995918 5.49830488,0.93796528 5.0268182,1.01975336 C4.44162723,1.12048295 4,1.69089999 4,2.345 L4,5.5 C4,5.7761424 3.77614237,6 3.5,6 L2.56,6 C1.69814237,6 1,6.6981424 1,7.56 L1,7.565 C1,8.0154911 1.194241,8.443833 1.53320722,8.7396722 L4.48923558,11.3255743 C4.81330842,11.6106384 5,12.0224816 5,12.454 L5,13 L12,13 Z" id="Path" fill="#FFFFFF"></path>
            </g>
        </g>
    </g>
</svg>