<svg id="_ÎÓÈ_1" data-name=" ÎÓÈ 1" xmlns="http://www.w3.org/2000/svg" xmlns:xlink="http://www.w3.org/1999/xlink" viewBox="499 100 998 200"><defs><style>.cls-1,.cls-2{fill:#fff;}.cls-18,.cls-2{opacity:0.5;isolation:isolate;}.cls-3{fill:#7dc3ea;}.cls-4{fill:url(#Dégradé_sans_nom_221);}.cls-5{fill:url(#Dégradé_sans_nom_222);}.cls-6{fill:url(#Dégradé_sans_nom_223);}.cls-7{fill:#396caa;}.cls-8{fill:url(#Dégradé_sans_nom_224);}.cls-9{fill:#d4ecff;}.cls-10{fill:#5793ce;}.cls-11{fill:url(#Dégradé_sans_nom_225);}.cls-12,.cls-18{fill:#173d7a;}.cls-13{fill:#274f89;}.cls-14{fill:url(#Dégradé_sans_nom_226);}.cls-15{fill:url(#Dégradé_sans_nom_227);}.cls-16{fill:url(#Dégradé_sans_nom_228);}.cls-17{fill:#ff2c9c;}.cls-19{fill:url(#Dégradé_sans_nom_229);}.cls-20{fill:url(#Dégradé_sans_nom_230);}.cls-21{fill:url(#Dégradé_sans_nom_231);}.cls-22{fill:url(#Dégradé_sans_nom_232);}.cls-23{fill:url(#Dégradé_sans_nom_233);}.cls-24{fill:url(#Dégradé_sans_nom_234);}.cls-25{fill:url(#Dégradé_sans_nom_235);}</style><radialGradient id="Dégradé_sans_nom_221" cx="1135.65" cy="227.48" r="33.67" gradientTransform="matrix(1, 0, 0, -1, 0, 402)" gradientUnits="userSpaceOnUse"><stop offset="0" stop-color="#274f89"/><stop offset="1" stop-color="#173d7a"/></radialGradient><linearGradient id="Dégradé_sans_nom_222" x1="1115.2" y1="239.69" x2="1174.77" y2="239.69" gradientTransform="matrix(1, 0, 0, -1, 0, 402)" gradientUnits="userSpaceOnUse"><stop offset="0" stop-color="#d4ecff"/><stop offset="0.24" stop-color="#d0eafe"/><stop offset="0.46" stop-color="#c5e2f9"/><stop offset="0.67" stop-color="#b2d6f2"/><stop offset="0.88" stop-color="#98c4e7"/><stop offset="1" stop-color="#86b8e0"/></linearGradient><radialGradient id="Dégradé_sans_nom_223" cx="1087.24" cy="262.32" r="60.86" gradientTransform="matrix(1, 0, 0, -1, 0, 402)" gradientUnits="userSpaceOnUse"><stop offset="0" stop-color="#699dd1"/><stop offset="0.27" stop-color="#6396cc"/><stop offset="0.64" stop-color="#5184bd"/><stop offset="1" stop-color="#396caa"/></radialGradient><radialGradient id="Dégradé_sans_nom_224" cx="792.86" cy="136.18" r="39.39" xlink:href="#Dégradé_sans_nom_223"/><linearGradient id="Dégradé_sans_nom_225" x1="800.28" y1="148.8" x2="861.98" y2="112.01" gradientTransform="matrix(1, 0, 0, -1, 0, 402)" gradientUnits="userSpaceOnUse"><stop offset="0" stop-color="#d4ecff"/><stop offset="0.2" stop-color="#d0eafe"/><stop offset="0.39" stop-color="#c5e2f9"/><stop offset="0.57" stop-color="#b2d6f2"/><stop offset="0.74" stop-color="#98c4e7"/><stop offset="0.84" stop-color="#86b8e0"/></linearGradient><radialGradient id="Dégradé_sans_nom_226" cx="1105.42" cy="168.35" r="201.69" gradientTransform="matrix(1, 0, 0, -1, 0, 402)" gradientUnits="userSpaceOnUse"><stop offset="0" stop-color="#86b8e0"/><stop offset="0.12" stop-color="#98c4e7"/><stop offset="0.33" stop-color="#b2d6f2"/><stop offset="0.54" stop-color="#c5e2f9"/><stop offset="0.76" stop-color="#d0eafe"/><stop offset="1" stop-color="#d4ecff"/></radialGradient><radialGradient id="Dégradé_sans_nom_227" cx="1089.45" cy="213.93" r="138.79" gradientTransform="matrix(1, 0, 0, -1, 0, 402)" gradientUnits="userSpaceOnUse"><stop offset="0" stop-color="#173d7a"/><stop offset="1" stop-color="#274f89"/></radialGradient><radialGradient id="Dégradé_sans_nom_228" cx="1110.91" cy="152.83" r="273.72" xlink:href="#Dégradé_sans_nom_226"/><radialGradient id="Dégradé_sans_nom_229" cx="915.6" cy="200.22" r="12.73" xlink:href="#Dégradé_sans_nom_223"/><radialGradient id="Dégradé_sans_nom_230" cx="908.48" cy="213.88" r="20.13" xlink:href="#Dégradé_sans_nom_223"/><radialGradient id="Dégradé_sans_nom_231" cx="958.4" cy="175.47" r="12.73" xlink:href="#Dégradé_sans_nom_223"/><radialGradient id="Dégradé_sans_nom_232" cx="951.28" cy="189.14" r="20.13" xlink:href="#Dégradé_sans_nom_223"/><radialGradient id="Dégradé_sans_nom_233" cx="970.32" cy="259.74" r="72.45" xlink:href="#Dégradé_sans_nom_223"/><linearGradient id="Dégradé_sans_nom_234" x1="873.4" y1="253.81" x2="1019.73" y2="253.81" xlink:href="#Dégradé_sans_nom_222"/><radialGradient id="Dégradé_sans_nom_235" cx="1014.9" cy="199.13" r="146.5" xlink:href="#Dégradé_sans_nom_227"/></defs><title>Fond-ordinateur-illiustration</title><path class="cls-1" d="M1040.53,323a6.64,6.64,0,0,1-3,5.21c-1.66,1-3,.19-3-1.73a6.64,6.64,0,0,1,3-5.21C1039.18,320.29,1040.53,321.07,1040.53,323Z"/><path class="cls-1" d="M1050.28,317.35a6.64,6.64,0,0,1-3,5.21c-1.66,1-3,.19-3-1.73a6.64,6.64,0,0,1,3-5.21C1048.93,314.66,1050.28,315.44,1050.28,317.35Z"/><path class="cls-1" d="M1060,311.72a6.62,6.62,0,0,1-3,5.21c-1.66,1-3,.19-3-1.73a6.64,6.64,0,0,1,3-5.21C1058.69,309,1060,309.81,1060,311.72Z"/><path class="cls-1" d="M1069.78,306.09a6.66,6.66,0,0,1-3,5.22c-1.67.95-3,.18-3-1.74a6.62,6.62,0,0,1,3-5.21C1068.44,303.4,1069.78,304.18,1069.78,306.09Z"/><polygon class="cls-1" points="791.05 249.79 785.78 252.83 785.78 246.74 791.05 243.7 791.05 249.79"/><polygon class="cls-1" points="799.6 244.85 794.33 247.9 794.33 241.81 799.6 238.77 799.6 244.85"/><polygon class="cls-1" points="808.14 239.92 802.87 242.97 802.87 236.88 808.14 233.83 808.14 239.92"/><polygon class="cls-1" points="816.68 234.99 811.41 238.03 811.41 231.94 816.68 228.9 816.68 234.99"/><polygon class="cls-1" points="881.33 320.04 875.32 323.51 875.32 316.56 881.33 313.09 881.33 320.04"/><polygon class="cls-1" points="889.68 315.15 883.66 318.63 883.66 311.68 889.68 308.21 889.68 315.15"/><polygon class="cls-1" points="881.38 329.05 875.37 332.52 875.37 325.57 881.38 322.1 881.38 329.05"/><polygon class="cls-1" points="889.68 324.26 883.66 327.73 883.66 320.78 889.68 317.31 889.68 324.26"/><path class="cls-2" d="M946,329a9.68,9.68,0,0,0-2.49,2.15c-.12-4.92-3.65-6.89-8-4.38a14.53,14.53,0,0,0-3.84,3.36c-1.94-3.39-5.94-4.17-10.59-1.49-6.53,3.77-11.83,12.95-11.83,20.49a13.16,13.16,0,0,0,.12,1.77,4.43,4.43,0,0,0-3.32.66,12.55,12.55,0,0,0-5.66,9.81c0,3.61,2.54,5.07,5.66,3.27l40-23.05a12,12,0,0,0,5.44-9.42C951.47,328.7,949,327.29,946,329Z"/><polygon class="cls-3" points="1137.79 221.42 1115.2 208.38 1137.79 195.33 1160.38 208.38 1137.79 221.42"/><path class="cls-1" d="M1137.79,213.34a1.73,1.73,0,0,1-.86-.23l-22.59-13a1.72,1.72,0,0,1-.66-2.34,1.68,1.68,0,0,1,.66-.66l22.59-13a1.69,1.69,0,0,1,1.71,0l22.59,13a1.72,1.72,0,0,1,.66,2.34,1.68,1.68,0,0,1-.66.66l-22.59,13A1.69,1.69,0,0,1,1137.79,213.34Zm-19.16-14.76,19.16,11.06,19.15-11.06-19.15-11.06Z"/><polygon class="cls-4" points="1160.38 188.39 1137.79 201.43 1137.79 175.35 1160.38 162.31 1160.38 188.39"/><polygon class="cls-5" points="1137.79 175.35 1115.2 162.31 1137.79 149.26 1160.38 162.31 1137.79 175.35"/><polygon class="cls-6" points="1137.79 201.43 1115.2 188.39 1115.2 162.31 1137.79 175.35 1137.79 201.43"/><polygon class="cls-1" points="1129.65 187.34 1123.33 183.69 1123.33 176.4 1129.65 180.04 1129.65 187.34"/><path class="cls-3" d="M823.33,320.73l-31.17-18c-1.91-1.1-1.67-3,.54-4.31l30.09-17.37a8.28,8.28,0,0,1,7.46-.31l31.17,18c1.91,1.11,1.67,3-.54,4.31l-30.09,17.37C828.58,321.7,825.24,321.84,823.33,320.73Z"/><path class="cls-1" d="M826.59,313.41a8.43,8.43,0,0,1-4.15-1l-31.16-18A4,4,0,0,1,789.1,291a4.81,4.81,0,0,1,2.71-4l30.1-17.37a10,10,0,0,1,9.23-.31l31.16,18a4,4,0,0,1,2.18,3.41,4.76,4.76,0,0,1-2.71,4l-30.1,17.37A10.26,10.26,0,0,1,826.59,313.41Zm-2.38-4.06a6.57,6.57,0,0,0,5.69-.3L860,291.67c.75-.44.93-.83.94-.9a1,1,0,0,0-.41-.34l-31.16-18a6.54,6.54,0,0,0-5.69.31l-30.1,17.37c-.75.44-.93.83-.94.9a1,1,0,0,0,.41.34Z"/><path class="cls-7" d="M862.7,279.74h0V269H838.59l-8.34-4.82a8.2,8.2,0,0,0-7.46.31L815,269H790.88v11a2.16,2.16,0,0,0,1.28,2l31.17,18a8.28,8.28,0,0,0,7.46-.31l30.09-17.37C862.16,281.58,862.77,280.63,862.7,279.74Z"/><path class="cls-8" d="M826.79,263.42a8.61,8.61,0,0,0-4,1.05L815,269H790.88v11a2.16,2.16,0,0,0,1.28,2l31.17,18a6.81,6.81,0,0,0,3.46.74Z"/><path class="cls-9" d="M793.61,269h-2.73v11a2.16,2.16,0,0,0,1.28,2l1.45.83Z"/><path class="cls-10" d="M823.81,300.23a8.49,8.49,0,0,0,6-.06V287.61h-6Z"/><path class="cls-11" d="M823.33,289l-31.17-18c-1.91-1.11-1.67-3,.54-4.31l30.09-17.37c2.21-1.28,5.55-1.42,7.46-.31l31.17,18c1.91,1.1,1.67,3-.54,4.31l-30.09,17.37A8.23,8.23,0,0,1,823.33,289Z"/><path class="cls-1" d="M860.88,269.18l-30.09,17.38c-2.21,1.27-5.55,1.41-7.46.3l-31.17-18a2.77,2.77,0,0,1-.95-.85c-.66,1.06-.36,2.21.95,3l31.17,18a8.17,8.17,0,0,0,7.46-.31l30.09-17.37c1.72-1,2.24-2.38,1.49-3.46A4.26,4.26,0,0,1,860.88,269.18Z"/><path class="cls-9" d="M851.24,282.58a2.8,2.8,0,0,1-1.26,2.18c-.7.4-1.26.08-1.26-.73a2.76,2.76,0,0,1,1.26-2.18C850.67,281.45,851.24,281.78,851.24,282.58Z"/><path class="cls-9" d="M855.29,280.24a2.8,2.8,0,0,1-1.26,2.18c-.7.4-1.26.08-1.26-.73a2.8,2.8,0,0,1,1.26-2.18C854.72,279.11,855.29,279.44,855.29,280.24Z"/><path class="cls-9" d="M859.34,277.9a2.78,2.78,0,0,1-1.26,2.18c-.7.4-1.26.08-1.26-.72a2.73,2.73,0,0,1,1.26-2.18C858.77,276.77,859.34,277.1,859.34,277.9Z"/><path class="cls-10" d="M825.17,277.83l-14.58-8.42c-.9-.52-.79-1.42.25-2l14.08-8.13a3.9,3.9,0,0,1,3.49-.15l14.59,8.4c.9.52.79,1.42-.25,2l-14.08,8.13A3.89,3.89,0,0,1,825.17,277.83Z"/><path class="cls-9" d="M826.57,270.78l-2-1.17c-.13-.07-.11-.2,0-.28l1.95-1.12a.51.51,0,0,1,.48,0l2,1.16c.13.07.11.2,0,.28l-2,1.13A.54.54,0,0,1,826.57,270.78Z"/><path class="cls-7" d="M810.59,269.41h0l.21-.14,14.08-8.13a3.87,3.87,0,0,1,3.49-.15l14.54,8.4c.83-.59.87-1.4,0-1.88l-14.58-8.42a3.9,3.9,0,0,0-3.49.15l-14.08,8.13C809.8,268,809.69,268.89,810.59,269.41Z"/><path class="cls-1" d="M876.37,172.34a10.48,10.48,0,0,0-1.7,1.25c-.24-7.67-5.78-10.72-12.6-6.78-5.55,3.2-10.26,10.07-11.94,16.8a7.49,7.49,0,0,0-4.72,1.17c-5,2.87-9,9.85-9,15.59s4,8.07,9,5.2l31-17.88A14.69,14.69,0,0,0,883,176.18C883,171.94,880,170.22,876.37,172.34Z"/><path class="cls-1" d="M1135.79,63.72a11,11,0,0,0-2.85,2.45c-.13-5.62-4.17-7.87-9.14-5a16.76,16.76,0,0,0-4.39,3.83c-2.21-3.87-6.79-4.76-12.1-1.7-7.47,4.31-13.52,14.8-13.52,23.42a14.82,14.82,0,0,0,.13,2,5.1,5.1,0,0,0-3.78.77,14.3,14.3,0,0,0-6.47,11.2c0,4.13,2.89,5.8,6.47,3.74l45.65-26.36A13.73,13.73,0,0,0,1142,67.31C1142,63.34,1139.23,61.73,1135.79,63.72Z"/><path class="cls-1" d="M1104.3,257.25a1.57,1.57,0,0,1-.7-.17,1.51,1.51,0,0,1-.64-2,17,17,0,0,1,6.19-6.82,8.12,8.12,0,0,1,4.37-1.21h.19c1.92,0,4.27-1.46,6.33-3.94a14.49,14.49,0,0,1,3.94-3.42,8.12,8.12,0,0,1,4.37-1.21c1.91.13,4.38-1.37,6.51-3.93a15,15,0,0,1,3.94-3.42,7.94,7.94,0,0,1,4.37-1.2c1.91.12,4.39-1.38,6.51-3.94a15.07,15.07,0,0,1,4-3.42,6.94,6.94,0,0,1,6.25-.77,1.52,1.52,0,0,1-1.22,2.78,4.05,4.05,0,0,0-3.52.62,11.8,11.8,0,0,0-3.12,2.73c-2.77,3.34-6.08,5.15-9,5a5,5,0,0,0-2.7.8,12.19,12.19,0,0,0-3.13,2.73c-2.77,3.34-6,5.15-9,5a5.06,5.06,0,0,0-2.7.81,12,12,0,0,0-3.12,2.73c-2.77,3.34-6.09,5.15-9,5a5.06,5.06,0,0,0-2.7.81,14,14,0,0,0-5,5.59A1.52,1.52,0,0,1,1104.3,257.25Z"/><path class="cls-3" d="M980.29,333.11,856.05,261.37c-3.52-2-3.08-5.57,1-7.91l84.6-48.83c4.06-2.34,10.2-2.6,13.72-.57l124.24,71.73c3.51,2,3.07,5.58-1,7.92L994,332.54C990,334.88,983.81,335.14,980.29,333.11Z"/><path class="cls-1" d="M986.26,322.22a13.58,13.58,0,0,1-6.7-1.57L855.32,248.91a5.48,5.48,0,0,1-3.1-4.7c0-2.14,1.49-4.24,4.09-5.74l84.6-48.82c4.52-2.62,11.19-2.87,15.16-.57l124.25,71.73a5.49,5.49,0,0,1,3.1,4.7c0,2.15-1.49,4.24-4.09,5.74l-84.6,48.83A17.39,17.39,0,0,1,986.26,322.22Zm-5.24-4.1c3.05,1.77,8.67,1.51,12.26-.56l84.6-48.83c1.64-1,2.63-2.16,2.63-3.22a2.82,2.82,0,0,0-1.65-2.18L954.62,191.6c-3.06-1.76-8.67-1.5-12.26.57L857.76,241c-1.65.95-2.63,2.15-2.63,3.21a2.8,2.8,0,0,0,1.65,2.18Z"/><path class="cls-12" d="M1110.41,125.22,986.16,53.49A5,5,0,0,0,982,53h0l-.23.09h0l-4.49,1.71,4,2-.06.22-21.95,99.83c-1,4.61,1,10,4.53,12l121.25,70-.43,5.14,4.91-1.9a6.89,6.89,0,0,0,3.51-5l22-99.84C1116,132.63,1113.92,127.25,1110.41,125.22Z"/><path class="cls-7" d="M1110.41,125.22,986.16,53.49A5,5,0,0,0,982,53h0l-.23.09h0l-4.49,1.71,4,2-.06.22-15,68.43L1027,172.81l87.43-42.6A9.63,9.63,0,0,0,1110.41,125.22Z"/><path class="cls-13" d="M1105.72,139.38l9.46-4a11.86,11.86,0,0,0-3.83-9.47l-15,6.3Z"/><path class="cls-14" d="M1080.24,243.49,956,171.76c-3.51-2-5.54-7.41-4.53-12L973.42,59.9c1-4.61,4.69-6.7,8.2-4.67L1105.86,127c3.52,2,5.55,7.41,4.53,12l-22,99.84C1087.43,243.43,1083.76,245.52,1080.24,243.49Z"/><path class="cls-1" d="M1107.06,126.52,982.81,54.79a4.89,4.89,0,0,0-4.89-.21,5.06,5.06,0,0,1,3.7.65L1105.86,127c3.52,2,5.55,7.41,4.53,12l-22,99.84a7,7,0,0,1-3.3,4.88c2.09-.46,3.84-2.36,4.49-5.32l22-99.83C1112.6,133.94,1110.57,128.55,1107.06,126.52Z"/><path class="cls-1" d="M1077.55,236.64,960.7,169.21c-3.21-1.86-5.07-6.78-4.14-11l20.23-92c.93-4.22,4.29-6.14,7.5-4.28l116.85,67.43c3.22,1.86,5.07,6.78,4.15,11l-20.24,92C1084.13,236.58,1080.77,238.5,1077.55,236.64Z"/><path class="cls-15" d="M1077.55,236.64,960.7,169.21c-3.21-1.86-5.07-6.78-4.14-11l20.23-92c.93-4.22,4.29-6.14,7.5-4.28l116.85,67.43c3.22,1.86,5.07,6.78,4.15,11l-20.24,92C1084.13,236.58,1080.77,238.5,1077.55,236.64Z"/><path class="cls-10" d="M1078.57,236.22,961.72,168.79c-3.22-1.85-5.07-6.78-4.15-11l20.24-92a6.49,6.49,0,0,1,2.94-4.44c-1.85.48-3.38,2.22-4,4.86l-20.23,92c-.93,4.22.93,9.14,4.14,11l116.85,67.43a4.49,4.49,0,0,0,4.56.16A4.62,4.62,0,0,1,1078.57,236.22Z"/><path class="cls-12" d="M1082,246.61l-17-2.24L955.35,181.08c-3.52-2-9.66-1.78-13.72.57L864,226.48l-10.27-1.36V231h0c-.07,1.35.7,2.64,2.36,3.6l124.24,71.73c3.52,2,9.66,1.78,13.71-.56l84.61-48.83c2.28-1.32,3.42-3,3.35-4.61h0Z"/><path class="cls-7" d="M999.59,206.62l-7.79-4.5H906.17L864,226.48l-10.27-1.36V231h0c-.07,1.35.7,2.64,2.36,3.6l124.24,71.73a12.84,12.84,0,0,0,7.08,1.33Z"/><path class="cls-10" d="M858.24,225.73l-4.56-.61V231h0c-.07,1.35.7,2.64,2.36,3.6l2.19,1.27Z"/><path class="cls-13" d="M981.54,306.86a15.87,15.87,0,0,0,11.65-.72v-13H981.54Z"/><path class="cls-16" d="M980.29,300.46,856.05,228.73c-3.52-2-3.08-5.57,1-7.92L941.63,172c4.06-2.35,10.2-2.6,13.72-.57l124.24,71.73c3.51,2,3.07,5.57-1,7.92L994,299.9C990,302.24,983.81,302.49,980.29,300.46Z"/><path class="cls-1" d="M1078.61,248.94,994,297.77c-4,2.34-10.19,2.59-13.71.57L856.05,226.6a4.68,4.68,0,0,1-2.19-2.39c-.55,1.67.15,3.35,2.19,4.52l124.24,71.73c3.52,2,9.66,1.78,13.71-.56l84.61-48.83c2.72-1.58,3.81-3.69,3.16-5.53A6.6,6.6,0,0,1,1078.61,248.94Z"/><path class="cls-10" d="M908.89,205l-5.62-3.24c-.45-.26-.4-.72.13-1l6.63-3.83a2,2,0,0,1,1.76-.07l5.62,3.24c.45.26.4.72-.12,1l-6.64,3.83A2,2,0,0,1,908.89,205Z"/><path class="cls-10" d="M917.57,210,912,206.75c-.45-.26-.39-.72.13-1l6.63-3.83a2,2,0,0,1,1.76-.07l5.62,3.25c.46.26.4.71-.12,1l-6.64,3.83A2,2,0,0,1,917.57,210Z"/><path class="cls-10" d="M926.25,215l-5.62-3.25c-.45-.26-.39-.71.13-1l6.63-3.84a2,2,0,0,1,1.76-.07l5.63,3.25c.45.26.39.71-.13,1L928,214.93A1.93,1.93,0,0,1,926.25,215Z"/><path class="cls-10" d="M938.26,210.87l-5.62-3.25c-.45-.26-.4-.71.12-1l5.57-3.22a2,2,0,0,1,1.77-.07l5.62,3.24c.45.26.39.72-.13,1L940,210.8A2,2,0,0,1,938.26,210.87Z"/><path class="cls-10" d="M946.94,215.88l-5.62-3.24c-.45-.27-.39-.72.13-1L947,208.4a2,2,0,0,1,1.76-.07l5.62,3.25c.45.26.39.71-.13,1l-5.57,3.22A2,2,0,0,1,946.94,215.88Z"/><path class="cls-10" d="M955.62,220.89,950,217.65c-.45-.26-.39-.72.13-1l5.57-3.22a2,2,0,0,1,1.76-.07l5.62,3.25c.45.26.39.71-.13,1l-5.57,3.22A2,2,0,0,1,955.62,220.89Z"/><path class="cls-10" d="M964.3,225.91l-5.62-3.25c-.45-.26-.39-.72.13-1l5.57-3.21a2,2,0,0,1,1.76-.08l5.62,3.25c.45.26.4.72-.13,1l-5.57,3.21A2,2,0,0,1,964.3,225.91Z"/><path class="cls-10" d="M973,230.92l-5.63-3.25c-.45-.26-.39-.71.13-1l5.57-3.22a2,2,0,0,1,1.76-.07l5.62,3.24c.45.26.4.72-.12,1l-5.57,3.21A1.92,1.92,0,0,1,973,230.92Z"/><path class="cls-10" d="M981.67,235.93l-5.62-3.25c-.46-.26-.4-.71.12-1l5.57-3.22a2,2,0,0,1,1.76-.07l5.62,3.24c.46.26.4.72-.12,1l-5.57,3.22A2,2,0,0,1,981.67,235.93Z"/><path class="cls-10" d="M990.35,240.94l-5.62-3.24c-.45-.26-.4-.72.12-1l5.57-3.22a2,2,0,0,1,1.76-.07l5.63,3.25c.45.26.39.71-.13,1l-5.57,3.22A2,2,0,0,1,990.35,240.94Z"/><path class="cls-10" d="M999,246l-5.62-3.24c-.45-.26-.4-.72.12-1l5.57-3.21a2,2,0,0,1,1.77-.08l5.62,3.25c.45.26.39.71-.13,1l-5.57,3.21A2,2,0,0,1,999,246Z"/><path class="cls-10" d="M1007.71,251l-5.62-3.25c-.45-.26-.4-.72.13-1l5.57-3.21a2,2,0,0,1,1.76-.08l5.62,3.25c.45.26.39.72-.13,1l-5.57,3.21A2,2,0,0,1,1007.71,251Z"/><path class="cls-10" d="M1016.39,256l-5.62-3.25c-.45-.26-.39-.71.13-1l5.57-3.22a2,2,0,0,1,1.76-.07l5.62,3.24c.45.26.39.72-.13,1l-5.57,3.22A2,2,0,0,1,1016.39,256Z"/><path class="cls-10" d="M951.05,208.5l-5.62-3.25c-.45-.26-.39-.72.13-1l5.57-3.21a2,2,0,0,1,1.76-.08l5.62,3.25c.45.26.39.72-.13,1l-5.57,3.21A2,2,0,0,1,951.05,208.5Z"/><path class="cls-10" d="M942.24,203.41l-5.62-3.25c-.45-.26-.4-.71.13-1l5.57-3.22a2,2,0,0,1,1.76-.07l5.62,3.24c.45.26.39.72-.13,1L944,203.34A2,2,0,0,1,942.24,203.41Z"/><path class="cls-10" d="M933.42,198.31l-12.11-7c-.45-.26-.4-.71.12-1l5.57-3.22a2,2,0,0,1,1.77-.07l12.1,7c.45.26.4.71-.12,1l-5.57,3.22A2,2,0,0,1,933.42,198.31Z"/><path class="cls-10" d="M939.58,192.12l-9.82-5.68c-.45-.26-.4-.71.12-1l5.58-3.22a2,2,0,0,1,1.76-.07l9.82,5.67c.45.26.4.72-.13,1L941.34,192A2,2,0,0,1,939.58,192.12Z"/><path class="cls-10" d="M959.73,213.51l-5.62-3.25c-.45-.26-.39-.71.13-1l5.57-3.22a2,2,0,0,1,1.76-.07l5.62,3.24c.45.26.39.72-.13,1l-5.57,3.21A1.92,1.92,0,0,1,959.73,213.51Z"/><path class="cls-10" d="M968.41,218.52l-5.62-3.25c-.45-.26-.39-.71.13-1l5.57-3.22a2,2,0,0,1,1.76-.07l5.62,3.24c.45.27.4.72-.12,1l-5.57,3.22A2,2,0,0,1,968.41,218.52Z"/><path class="cls-10" d="M977.1,223.53l-5.63-3.24c-.45-.26-.39-.72.13-1l5.57-3.22a2,2,0,0,1,1.76-.07l5.62,3.25c.45.26.4.71-.12,1l-5.57,3.22A2,2,0,0,1,977.1,223.53Z"/><path class="cls-10" d="M985.78,228.54l-5.62-3.24c-.46-.26-.4-.72.12-1l5.57-3.21a2,2,0,0,1,1.76-.08l5.62,3.25c.46.26.4.71-.12,1l-5.57,3.21A1.92,1.92,0,0,1,985.78,228.54Z"/><path class="cls-10" d="M994.46,233.56l-5.62-3.25c-.45-.26-.4-.71.12-1l5.57-3.21a1.92,1.92,0,0,1,1.76-.07l5.63,3.24c.45.26.39.72-.13,1l-5.57,3.21A2,2,0,0,1,994.46,233.56Z"/><path class="cls-10" d="M1003.14,238.57l-5.62-3.25c-.45-.26-.4-.71.12-1l5.57-3.22a2,2,0,0,1,1.79-.1l5.62,3.24c.45.26.39.72-.13,1l-5.57,3.22A2,2,0,0,1,1003.14,238.57Z"/><path class="cls-10" d="M1011.82,243.58l-5.62-3.24c-.45-.27-.4-.72.13-1l5.57-3.22a2,2,0,0,1,1.76-.07l5.62,3.25c.45.26.39.71-.13,1l-5.57,3.22A2,2,0,0,1,1011.82,243.58Z"/><path class="cls-10" d="M1020.5,248.59l-5.62-3.24c-.45-.26-.39-.72.13-1l5.57-3.22a2,2,0,0,1,1.76-.07l5.62,3.25c.45.26.39.71-.13,1l-5.57,3.22A2,2,0,0,1,1020.5,248.59Z"/><path class="cls-10" d="M1029.18,253.61l-5.62-3.25c-.45-.26-.39-.72.13-1l5.57-3.21a2,2,0,0,1,1.76-.08l5.62,3.25c.45.26.4.72-.13,1l-5.57,3.21A2,2,0,0,1,1029.18,253.61Z"/><path class="cls-10" d="M1044.62,262.52l-12.27-7.09c-.45-.26-.39-.71.13-1l5.57-3.22a2,2,0,0,1,1.76-.07l12.26,7.08c.46.26.4.72-.12,1l-5.57,3.21A2,2,0,0,1,1044.62,262.52Z"/><path class="cls-10" d="M1061.52,252.76l-10.35-6c-.46-.26-.4-.72.12-1l5.57-3.21a1.92,1.92,0,0,1,1.76-.07l10.36,6c.45.26.39.72-.13,1l-5.57,3.21A1.92,1.92,0,0,1,1061.52,252.76Z"/><path class="cls-10" d="M974.94,212.53l-5.63-3.25c-.45-.26-.39-.71.13-1l5.57-3.21a2,2,0,0,1,1.76-.07l5.62,3.24c.45.26.4.72-.12,1l-5.57,3.21A1.92,1.92,0,0,1,974.94,212.53Z"/><path class="cls-10" d="M966,207.39l-5.62-3.25c-.45-.26-.4-.71.12-1l5.57-3.22a2,2,0,0,1,1.76-.07l5.63,3.24c.45.27.39.72-.13,1l-5.57,3.22A2,2,0,0,1,966,207.39Z"/><path class="cls-10" d="M957.14,202.25,951.52,199c-.45-.26-.4-.72.13-1l5.57-3.21a1.92,1.92,0,0,1,1.76-.08L964.6,198c.45.26.39.71-.13,1l-5.57,3.22A2,2,0,0,1,957.14,202.25Z"/><path class="cls-10" d="M948.24,197.12l-5.62-3.25c-.45-.26-.39-.71.13-1l5.57-3.21a1.92,1.92,0,0,1,1.76-.07l5.62,3.24c.45.26.4.72-.13,1L950,197A2,2,0,0,1,948.24,197.12Z"/><path class="cls-10" d="M983.62,217.54,978,214.29c-.46-.26-.4-.71.12-1l5.57-3.22a2,2,0,0,1,1.76-.07l5.62,3.24c.46.26.4.72-.12,1l-5.57,3.22A2,2,0,0,1,983.62,217.54Z"/><path class="cls-10" d="M992.3,222.55l-5.62-3.24c-.45-.26-.4-.72.12-1l5.57-3.22a2,2,0,0,1,1.76-.07l5.63,3.25c.45.26.39.71-.13,1l-5.57,3.22A2,2,0,0,1,992.3,222.55Z"/><path class="cls-10" d="M1001,227.56l-5.62-3.24c-.45-.26-.4-.72.12-1l5.57-3.21a2,2,0,0,1,1.77-.08l5.62,3.25c.45.26.39.71-.13,1l-5.57,3.22A2,2,0,0,1,1001,227.56Z"/><path class="cls-10" d="M1009.66,232.58l-5.62-3.25c-.45-.26-.4-.72.13-1l5.57-3.21a2,2,0,0,1,1.76-.08l5.62,3.25c.45.26.39.72-.13,1l-5.57,3.21A2,2,0,0,1,1009.66,232.58Z"/><path class="cls-10" d="M1018.34,237.59l-5.62-3.25c-.45-.26-.39-.71.13-1l5.57-3.22a2,2,0,0,1,1.76-.07l5.62,3.24c.45.26.39.72-.13,1l-5.57,3.22A2,2,0,0,1,1018.34,237.59Z"/><path class="cls-10" d="M1027,242.6l-5.62-3.25c-.45-.26-.39-.71.13-1l5.57-3.22a2,2,0,0,1,1.76-.07l5.62,3.24c.45.27.4.72-.13,1l-5.57,3.22A2,2,0,0,1,1027,242.6Z"/><path class="cls-10" d="M1035.71,247.61l-5.63-3.24c-.45-.26-.39-.72.13-1l5.57-3.22a2,2,0,0,1,1.76-.07l5.62,3.25c.45.26.4.71-.12,1l-5.57,3.22A2,2,0,0,1,1035.71,247.61Z"/><path class="cls-10" d="M1044.39,252.62l-5.63-3.24c-.45-.26-.39-.72.13-1l5.57-3.21a2,2,0,0,1,1.76-.08l5.62,3.25c.46.26.4.71-.12,1l-5.57,3.21A1.92,1.92,0,0,1,1044.39,252.62Z"/><path class="cls-10" d="M1053.07,257.64l-5.62-3.25c-.46-.26-.4-.71.12-1l5.57-3.21a2,2,0,0,1,1.76-.07l5.63,3.24c.45.26.39.72-.13,1l-5.57,3.21A2,2,0,0,1,1053.07,257.64Z"/><path class="cls-10" d="M970.36,200.13l-5.62-3.25c-.45-.26-.39-.71.13-1l5.57-3.22a2,2,0,0,1,1.76-.07l5.62,3.24c.45.26.4.72-.12,1l-5.57,3.22A2,2,0,0,1,970.36,200.13Z"/><path class="cls-10" d="M961.73,195.14l-5.63-3.24c-.45-.26-.39-.72.13-1l5.57-3.22a2,2,0,0,1,1.76-.07l5.62,3.25c.45.26.4.71-.12,1l-5.57,3.22A2,2,0,0,1,961.73,195.14Z"/><path class="cls-10" d="M953.09,190.16l-5.62-3.25c-.45-.26-.4-.72.12-1l5.57-3.21a2,2,0,0,1,1.76-.08l5.63,3.25c.45.26.39.72-.13,1l-5.57,3.21A2,2,0,0,1,953.09,190.16Z"/><path class="cls-10" d="M944.45,185.17l-5.62-3.25c-.45-.26-.4-.71.12-1l5.57-3.22a2,2,0,0,1,1.77-.07l5.62,3.24c.45.26.39.72-.13,1l-5.57,3.22A2,2,0,0,1,944.45,185.17Z"/><path class="cls-10" d="M953.33,180l-5.62-3.25c-.45-.26-.39-.71.13-1l1.84-1.07a2,2,0,0,1,1.76-.07l5.62,3.25c.45.26.4.71-.13,1L955.09,180A2,2,0,0,1,953.33,180Z"/><path class="cls-10" d="M964.61,186.55,959,183.3c-.45-.26-.39-.71.13-1l1.84-1.07a2,2,0,0,1,1.76-.07l5.62,3.25c.46.26.4.71-.12,1l-1.84,1.07A2,2,0,0,1,964.61,186.55Z"/><path class="cls-10" d="M973.21,191.51l-5.62-3.24c-.46-.26-.4-.72.12-1l1.84-1.06a2,2,0,0,1,1.76-.07l5.63,3.24c.45.26.39.72-.13,1L975,191.44A1.92,1.92,0,0,1,973.21,191.51Z"/><path class="cls-10" d="M981.81,196.48l-5.62-3.24c-.45-.27-.4-.72.12-1l1.85-1.06a1.92,1.92,0,0,1,1.76-.08l5.62,3.25c.45.26.39.71-.13,1l-1.84,1.07A2,2,0,0,1,981.81,196.48Z"/><path class="cls-10" d="M990.41,201.45l-5.62-3.25c-.45-.26-.39-.71.13-1l1.84-1.07a2,2,0,0,1,1.76-.07l5.62,3.24c.45.27.4.72-.13,1l-1.84,1.06A1.92,1.92,0,0,1,990.41,201.45Z"/><path class="cls-10" d="M1038.44,229.17l-5.63-3.24c-.45-.26-.39-.72.13-1l1.84-1.06a2,2,0,0,1,1.76-.07l5.63,3.24c.45.26.39.72-.13,1l-1.84,1.06A1.92,1.92,0,0,1,1038.44,229.17Z"/><path class="cls-10" d="M1047,234.14l-5.62-3.24c-.45-.27-.4-.72.12-1l1.84-1.06a2,2,0,0,1,1.77-.08l5.62,3.25c.45.26.39.71-.13,1l-1.84,1.07A2,2,0,0,1,1047,234.14Z"/><path class="cls-10" d="M1055.64,239.11l-5.62-3.25c-.45-.26-.4-.71.13-1l1.84-1.07a2,2,0,0,1,1.76-.07l5.62,3.24c.45.27.39.72-.13,1l-1.84,1A1.92,1.92,0,0,1,1055.64,239.11Z"/><path class="cls-10" d="M1064.24,244.07l-5.62-3.24c-.45-.26-.39-.72.13-1l1.84-1.06a1.92,1.92,0,0,1,1.76-.07l5.62,3.24c.45.26.4.72-.12,1L1066,244A2,2,0,0,1,1064.24,244.07Z"/><path class="cls-10" d="M979.05,205.14l-5.63-3.24c-.45-.26-.39-.72.13-1l5.57-3.22a2,2,0,0,1,1.76-.07l5.62,3.25c.45.26.4.71-.12,1l-5.57,3.22A2,2,0,0,1,979.05,205.14Z"/><path class="cls-10" d="M987.73,210.15l-5.62-3.24c-.46-.26-.4-.72.12-1l5.57-3.21a2,2,0,0,1,1.76-.08l5.62,3.25c.46.26.4.71-.12,1l-5.57,3.21A2,2,0,0,1,987.73,210.15Z"/><path class="cls-10" d="M996.41,215.17l-5.62-3.25c-.45-.26-.4-.71.12-1l5.57-3.21a1.92,1.92,0,0,1,1.76-.07l5.63,3.24c.45.26.39.72-.13,1l-5.57,3.21A2,2,0,0,1,996.41,215.17Z"/><path class="cls-10" d="M1005.09,220.18l-5.62-3.25c-.45-.26-.4-.71.12-1l5.57-3.22a2,2,0,0,1,1.77-.07l5.62,3.24c.45.26.39.72-.13,1l-5.57,3.22A2,2,0,0,1,1005.09,220.18Z"/><path class="cls-10" d="M1013.77,225.19l-5.62-3.24c-.45-.27-.4-.72.13-1l5.57-3.22a2,2,0,0,1,1.76-.07l5.62,3.25c.45.26.39.71-.13,1l-5.57,3.22A2,2,0,0,1,1013.77,225.19Z"/><path class="cls-10" d="M1022.45,230.2l-5.62-3.24c-.45-.26-.39-.72.13-1l5.57-3.22a2,2,0,0,1,1.76-.07l5.62,3.25c.45.26.39.71-.13,1l-5.57,3.22A2,2,0,0,1,1022.45,230.2Z"/><path class="cls-10" d="M1031.13,235.22l-5.62-3.25c-.45-.26-.39-.72.13-1l5.57-3.21a2,2,0,0,1,1.76-.08l5.62,3.25c.45.26.4.72-.13,1l-5.57,3.21A2,2,0,0,1,1031.13,235.22Z"/><path class="cls-10" d="M1039.82,240.23l-5.63-3.25c-.45-.26-.39-.71.13-1l5.57-3.22a2,2,0,0,1,1.76-.07l5.62,3.24c.45.26.4.72-.12,1l-5.57,3.21A1.92,1.92,0,0,1,1039.82,240.23Z"/><path class="cls-10" d="M1048.5,245.24l-5.62-3.25c-.46-.26-.4-.71.12-1l5.57-3.22a2,2,0,0,1,1.76-.07l5.62,3.24c.46.26.4.72-.12,1l-5.57,3.22A2,2,0,0,1,1048.5,245.24Z"/><path class="cls-10" d="M929.41,205.76l-16.55-9.56c-.45-.26-.4-.71.12-1l5.57-3.22a2,2,0,0,1,1.76-.07l16.56,9.56c.45.26.4.71-.13,1l-5.57,3.22A2,2,0,0,1,929.41,205.76Z"/><path class="cls-10" d="M1036.07,267.34l-16.56-9.56c-.45-.26-.4-.72.13-1l5.57-3.21a1.92,1.92,0,0,1,1.76-.08l16.55,9.56c.45.26.4.72-.12,1l-5.57,3.21A2,2,0,0,1,1036.07,267.34Z"/><path class="cls-10" d="M1001.35,258.36l-5.62-3.24c-.46-.26-.4-.72.12-1l6.64-3.83a2,2,0,0,1,1.76-.07l5.62,3.24c.45.26.4.72-.13,1l-6.63,3.83A2,2,0,0,1,1001.35,258.36Z"/><path class="cls-10" d="M938.3,222l-9-5.2c-.45-.26-.39-.71.13-1l6.63-3.83a2,2,0,0,1,1.77-.08l9,5.19c.45.27.39.72-.13,1l-6.64,3.83A2,2,0,0,1,938.3,222Z"/><path class="cls-10" d="M993,253.53l-9-5.19c-.45-.26-.39-.71.13-1l6.63-3.83a2,2,0,0,1,1.77-.08l9,5.19c.45.26.39.72-.13,1l-6.64,3.83A1.92,1.92,0,0,1,993,253.53Z"/><path class="cls-10" d="M950.83,229.2l-9-5.19c-.45-.26-.4-.72.12-1l6.64-3.83a1.92,1.92,0,0,1,1.76-.07l9,5.19c.45.26.4.71-.12,1l-6.64,3.83A2,2,0,0,1,950.83,229.2Z"/><path class="cls-10" d="M950.42,219.12l39.09,22.57a.53.53,0,0,1,.32.68.51.51,0,0,1-.32.32l-6.77,3.91a1.93,1.93,0,0,1-1.75,0L941.9,224Z"/><path class="cls-10" d="M1025.61,267.45l6.26,3.62c.37.21.33.58-.1.83l-2.72,1.57a1.65,1.65,0,0,1-1.44.06l-6.26-3.62c-.37-.21-.32-.59.1-.83l2.72-1.57A1.59,1.59,0,0,1,1025.61,267.45Z"/><path class="cls-10" d="M1016.86,262.4l6.26,3.61c.37.22.32.59-.1.84l-2.72,1.56a1.59,1.59,0,0,1-1.44.06l-6.26-3.61c-.37-.22-.33-.59.1-.84l2.71-1.56A1.61,1.61,0,0,1,1016.86,262.4Z"/><path class="cls-10" d="M1008.18,257.39l6.26,3.61c.37.21.32.59-.11.83l-2.71,1.57a1.59,1.59,0,0,1-1.44.06l-6.27-3.61c-.37-.22-.32-.59.11-.84l2.71-1.56A1.61,1.61,0,0,1,1008.18,257.39Z"/><path class="cls-10" d="M1021.65,259.63l6.26,3.61c.37.22.33.59-.1.84l-2.71,1.57a1.64,1.64,0,0,1-1.45.06l-6.26-3.62c-.37-.21-.32-.59.1-.83l2.72-1.57A1.59,1.59,0,0,1,1021.65,259.63Z"/><polygon class="cls-9" points="1004.2 108.31 990.08 100.16 990.68 97.12 1004.8 105.27 1004.2 108.31"/><polygon class="cls-1" points="1002.67 115.37 988.55 107.22 989.15 104.18 1003.27 112.33 1002.67 115.37"/><polygon class="cls-9" points="1071.97 213.37 1057.85 205.21 1058.45 202.17 1072.57 210.32 1071.97 213.37"/><polygon class="cls-9" points="999.61 129.5 985.49 121.35 986.09 118.31 1000.21 126.46 999.61 129.5"/><polygon class="cls-9" points="1059.78 169.24 1007.54 139.08 1008.22 135.69 1060.45 165.84 1059.78 169.24"/><polygon class="cls-9" points="1041.07 174.97 1004.61 153.92 1005.28 150.52 1041.74 171.57 1041.07 174.97"/><polygon class="cls-1" points="1037.62 164.71 1006.08 146.5 1006.75 143.1 1038.29 161.32 1037.62 164.71"/><path class="cls-17" d="M1030.93,135.58a2,2,0,0,1-2.66,1l-.18-.1a2.48,2.48,0,0,1-1-3.1,2,2,0,0,1,2.66-1l.18.1A2.48,2.48,0,0,1,1030.93,135.58Z"/><path class="cls-1" d="M1037.72,139.5a2,2,0,0,1-2.66,1l-.18-.1a2.45,2.45,0,0,1-1-3.1,2,2,0,0,1,2.66-1l.17.09A2.47,2.47,0,0,1,1037.72,139.5Z"/><path class="cls-9" d="M1044.51,143.42a2,2,0,0,1-2.66,1l-.17-.09a2.46,2.46,0,0,1-1-3.09,2,2,0,0,1,2.65-1l.19.1A2.47,2.47,0,0,1,1044.51,143.42Z"/><path class="cls-17" d="M1051.31,147.34a2,2,0,0,1-2.65,1l-.19-.1a2.48,2.48,0,0,1-1-3.1,2,2,0,0,1,2.65-1l.19.1A2.48,2.48,0,0,1,1051.31,147.34Z"/><polygon class="cls-17" points="1058.31 176.66 1042.54 167.55 1043.21 164.16 1058.98 173.26 1058.31 176.66"/><path class="cls-1" d="M950.51,268.83l-41.15-23.76c-1-.58-.88-1.59.28-2.26l21.7-12.53a4.31,4.31,0,0,1,3.92-.16l41.16,23.76c1,.58.88,1.59-.28,2.26l-21.7,12.53A4.39,4.39,0,0,1,950.51,268.83Z"/><polygon class="cls-18" points="982.73 291.27 871.25 226.98 903.73 208.22 1015.22 272.51 982.73 291.27"/><path class="cls-1" d="M982.73,276.47a1.73,1.73,0,0,1-.86-.23L870.39,212a1.71,1.71,0,0,1,0-3l32.49-18.76a1.69,1.69,0,0,1,1.71,0l111.48,64.29a1.73,1.73,0,0,1,.86,1.49,1.71,1.71,0,0,1-.86,1.48l-32.49,18.76A1.78,1.78,0,0,1,982.73,276.47Zm-108.05-66,108,62.3,29.1-16.77-108-62.31Z"/><path class="cls-7" d="M923.25,223.66a1.37,1.37,0,0,1-1.37-1.37h0V178.76a1.38,1.38,0,0,1,2.75,0v43.52a1.38,1.38,0,0,1-1.38,1.38Z"/><path class="cls-19" d="M916.44,173.83v29.4h0a3.4,3.4,0,0,0,2,2.78,10.61,10.61,0,0,0,9.63,0,3.4,3.4,0,0,0,2-2.78v-29.4Z"/><path class="cls-7" d="M916.44,178.67v10a17.7,17.7,0,0,0,13.63,0v-10A17.61,17.61,0,0,0,916.44,178.67Z"/><path class="cls-20" d="M934.29,132.86H912.22V179h0c0,1.63,1.07,3.26,3.23,4.5a17.24,17.24,0,0,0,15.61,0c2.15-1.24,3.23-2.87,3.23-4.5h0Z"/><path class="cls-9" d="M921.34,198.76c0,1.35-1,1.9-2.12,1.22a4.68,4.68,0,0,1-2.12-3.67c0-1.35.95-1.9,2.12-1.22A4.68,4.68,0,0,1,921.34,198.76Z"/><path class="cls-7" d="M966.06,248.4a1.38,1.38,0,0,1-1.38-1.38h0V203.51a1.38,1.38,0,0,1,2.76,0V247a1.38,1.38,0,0,1-1.36,1.4Z"/><path class="cls-21" d="M959.25,198.57V228h0a3.4,3.4,0,0,0,2,2.79,10.7,10.7,0,0,0,9.64,0,3.4,3.4,0,0,0,2-2.79V198.6Z"/><path class="cls-7" d="M959.25,203.41v10a17.58,17.58,0,0,0,13.62,0v-10A17.67,17.67,0,0,0,959.25,203.41Z"/><path class="cls-22" d="M977.1,157.6H955v46.11h0c0,1.63,1.08,3.26,3.24,4.51a17.24,17.24,0,0,0,15.61,0c2.15-1.25,3.23-2.88,3.23-4.51h0Z"/><path class="cls-9" d="M964.15,223.5c0,1.36-.95,1.9-2.12,1.23a4.69,4.69,0,0,1-2.12-3.67c0-1.36,1-1.9,2.12-1.23A4.69,4.69,0,0,1,964.15,223.5Z"/><path class="cls-10" d="M880.94,99.48l29.31-16.86s-1.1,16.83-1.1,16.86-16.84,5.22-16.84,5.22Z"/><path class="cls-23" d="M1037.92,196.52c0-11.83-8.3-26.22-18.55-32.14A18.47,18.47,0,0,0,1013,162c-3-15.53-13.76-32-26.64-39.45a26,26,0,0,0-10.91-3.69C973.7,100,960.61,78.65,944.72,69.47c-8.3-4.79-15.84-5.36-21.39-2.42h0l-.27.16-.42.24L905.39,77.67l5.74,4.53c-5.16,2.25-8.41,8-8.41,16.58,0,15.76,11.06,34.92,24.71,42.8l84.24,60.15,2.6,17.53,18.2-10.72h0l.11-.06h0C1035.9,206.47,1037.92,202.35,1037.92,196.52Z"/><path class="cls-10" d="M903.57,91.84l39.66-23.17c-7.7-4-14.66-4.35-19.87-1.59h0l-.27.16-.42.24L905.39,77.67l5.74,4.53C907.53,83.78,904.85,87.08,903.57,91.84Z"/><path class="cls-10" d="M976.81,160l28.94-17c-5-8.59-11.8-16.09-19.36-20.45a32.51,32.51,0,0,0-3-1.53l-36.8,21.53Z"/><path class="cls-9" d="M913.54,79.56,926.44,87l23.61-13.9a46.59,46.59,0,0,0-5.3-3.6,33.43,33.43,0,0,0-8.26-3.5Z"/><path class="cls-9" d="M1002.56,138l-23.1,13.61,8,9,21-12.38A68.4,68.4,0,0,0,1002.56,138Z"/><path class="cls-24" d="M1001.23,175.07a18.27,18.27,0,0,0-6.34-2.35c-3-15.53-13.76-32-26.65-39.46a26.31,26.31,0,0,0-10.9-3.69c-1.76-18.82-14.84-40.21-30.73-49.38-17.09-9.87-31-1.87-31,17.86,0,.67,0,1.35,0,2-12.5-5.8-22.26.73-22.26,15.53,0,15.76,11.06,34.92,24.71,42.8l103.07,59.51c10.24,5.91,18.55,1.12,18.55-10.71S1011.47,181,1001.23,175.07Z"/><path class="cls-1" d="M895.71,100.08c0-.68-.05-1.36-.05-2V98c-6.9-2.69-12.83-1.52-16.56,2.79C883.15,97.43,889,97,895.71,100.08Z"/><path class="cls-1" d="M1002.74,173.6a18.27,18.27,0,0,0-6.34-2.35c-3-15.53-13.76-32-26.65-39.46a26,26,0,0,0-10.9-3.69c-1.76-18.82-14.84-40.21-30.74-49.38-10.64-6.15-20-5.36-25.6.88,5.67-4.85,14.36-5,24.1.59,15.89,9.17,29,30.56,30.73,49.38a26.31,26.31,0,0,1,10.9,3.69c12.89,7.44,23.69,23.93,26.65,39.46a18.27,18.27,0,0,1,6.34,2.35c10.24,5.91,18.55,20.3,18.55,32.14,0,4.27-1.09,7.6-3,9.87,2.78-2.14,4.47-6,4.47-11.34C1021.29,193.9,1013,179.51,1002.74,173.6Z"/><path class="cls-25" d="M893.53,104.78l7.75,3.59-.39-8.53V98.05c0-7.61,2.3-13.13,6.47-15.54s10.11-1.64,16.71,2.16c14.18,8.19,26.55,28.13,28.16,45.38l.41,4.35,4.35.34a20.82,20.82,0,0,1,8.71,3c11.27,6.5,21.42,21.62,24.15,35.94l.68,3.58,3.6.57a13.54,13.54,0,0,1,4.56,1.71c8.65,5,16,17.66,16,27.66,0,3.73-1,6.48-2.84,7.52s-4.7.57-7.94-1.3l-103.07-59.5c-12-6.93-22.12-24.47-22.12-38.32,0-5.43,1.6-9.57,4.4-11.35a7.42,7.42,0,0,1,4.1-1.1A15.37,15.37,0,0,1,893.53,104.78Z"/><polygon class="cls-10" points="944.97 169.37 947.69 168.01 945.01 165.98 944.97 169.37"/><polygon class="cls-10" points="936.81 132.64 939.45 131.31 939.49 132.69 936.81 132.64"/><polygon class="cls-10" points="952.73 160.79 955.48 159.4 950.18 154.36 952.73 160.79"/><path class="cls-10" d="M946.9,167.92,934,160.34a2.77,2.77,0,0,1-1.18-2.17v-14.9l15.23,9v14.9C948.08,168,947.55,168.3,946.9,167.92Z"/><path class="cls-10" d="M939.42,131.33l-13.91,8.94c-.59.38-.11,1.8.79,2.32L940.5,151l14.2,8.36c.89.53,1.37-.32.79-1.39L941.68,132.7C941.09,131.57,940,130.94,939.42,131.33Z"/><path class="cls-9" d="M944.13,169.31l-12.87-7.58a2.77,2.77,0,0,1-1.18-2.17v-14.9l15.23,9v14.9C945.32,169.35,944.79,169.69,944.13,169.31Z"/><path class="cls-9" d="M936.66,132.72l-13.91,8.94c-.59.38-.11,1.8.79,2.32l14.2,8.37,14.2,8.36c.89.53,1.37-.32.79-1.39l-13.81-25.27C938.33,133,937.26,132.33,936.66,132.72Z"/></svg>