<?xml version="1.0" encoding="utf-8"?>
<!DOCTYPE svg PUBLIC "-//W3C//DTD SVG 20010904//EN" "http://www.w3.org/TR/2001/REC-SVG-20010904/DTD/svg10.dtd">
<svg version="1.0" xmlns="http://www.w3.org/2000/svg" width="2169px" height="542px" viewBox="0 0 2169 542" preserveAspectRatio="xMidYMid meet">
 <g fill="#000000">
  <path d="M40.5 541 c-0.4 -0.6 0.6 -3.6 2 -6.8 4.3 -9.1 5.5 -13.1 4.4 -13.8 -0.6 -0.3 -1.8 0.1 -2.8 1 -3 2.7 -3.3 1.8 -0.9 -2.5 3.8 -6.9 9.8 -7.6 9.8 -1.1 0 2.4 0.1 2.4 2.3 -0.9 2.4 -3.7 5.4 -4.4 7 -1.8 1.5 2.4 0.1 4.9 -2.8 4.9 -3.7 0 -6.8 4.1 -10.6 13.8 -2.7 7 -3.5 8.2 -5.5 8.2 -1.2 0 -2.6 -0.5 -2.9 -1z"/>
  <path d="M60.7 541.3 c-0.4 -0.3 -0.7 -2.5 -0.7 -4.7 0 -8.6 9 -19.2 18.4 -21.7 2.3 -0.6 4.6 -1.5 5.3 -2.1 0.7 -0.5 1.9 -0.8 2.7 -0.6 1.2 0.2 0.6 2.3 -2.9 10.3 -5.5 12.4 -5.9 16 -1.3 11.8 3 -2.7 3.3 -0.6 0.4 3.7 -2.2 3.4 -3.2 4.1 -5.4 3.8 -2 -0.2 -2.9 -1.1 -3.6 -3.4 l-0.9 -3.1 -3 3.4 c-2.8 3.1 -7.2 4.4 -9 2.6z m11.1 -8.6 c2.7 -2.7 6.2 -10 6.2 -12.8 0 -1.6 -2.6 -1 -5.4 1.2 -4.9 3.9 -8.8 14.9 -5.3 14.9 0.7 0 2.7 -1.5 4.5 -3.3z"/>
  <path d="M89 540 c0 -1 1.6 -6.3 3.5 -11.6 1.9 -5.3 3.5 -9.8 3.5 -10 0 -0.2 -0.9 -0.4 -2 -0.4 -3.1 0 -2.3 -2.7 1 -3.3 1.9 -0.4 3.7 -1.9 5.2 -4.2 2.1 -3.2 6.6 -5.1 5.5 -2.2 -2 5.4 -1.9 5.7 1.2 5.7 2.4 0 3.1 0.4 3.1 2 0 1.7 -0.7 2 -3.9 2 l-3.9 0 -3.2 9 c-1.8 5 -3.1 9.3 -2.8 9.5 0.2 0.2 2.1 -0.7 4.2 -2.1 4.4 -3 5.5 -2.6 3.1 1 -3.8 5.7 -14.5 9.2 -14.5 4.6z"/>
  <path d="M110.4 539.5 c-4.4 -6.7 3.7 -24 12.3 -26.1 3.4 -0.9 7.3 2 7.3 5.4 0 4 -0.8 4.7 -8.3 7.2 -7.2 2.3 -8.3 3.5 -7.3 7.4 0.9 3.5 3 3.8 7.2 1 5.4 -3.7 6.1 -2.5 1.4 2.9 -3.4 3.9 -4.8 4.7 -7.6 4.7 -2.5 0 -3.8 -0.6 -5 -2.5z m12.9 -17.2 c1.3 -0.8 0.8 -3.3 -0.9 -4 -1.5 -0.6 -6.4 3.2 -6.4 5 0 0.8 5.5 0.1 7.3 -1z"/>
  <path d="M132.4 540.7 c-0.2 -0.7 1.1 -4.8 3.1 -9.1 3.4 -7.6 4.4 -11.6 2.6 -11.6 -0.5 0 -1.4 0.7 -2.1 1.5 -2.4 2.9 -3 1.4 -1 -2.5 2.7 -5.2 6.6 -7.3 8.6 -4.5 0.8 1 1.4 2.8 1.5 3.9 0 1.7 0.4 1.4 1.6 -1.1 2.8 -5.5 7.3 -5.6 7.3 -0.2 0 2.6 -0.4 2.9 -3 2.9 -3.7 0 -6.8 4.3 -10.6 14.7 -2.3 6.3 -3 7.3 -5.1 7.3 -1.3 0 -2.6 -0.6 -2.9 -1.3z"/>
  <path d="M153.4 540.7 c-0.2 -0.7 1.1 -4.8 3.1 -9.1 3.9 -8.5 4.3 -11.7 1.9 -13.7 -1.5 -1.2 -1.4 -1.5 0.6 -3.1 1.2 -1 2.8 -1.8 3.6 -1.8 1.6 0 3.4 3.1 3.4 6.1 0 1.9 0.5 1.7 4.5 -2 4.6 -4.2 7.2 -5 9.3 -2.9 2.1 2.1 1.3 6.6 -2.4 13.9 -3.3 6.6 -3.9 10.6 -1 6.6 2.3 -3 3.9 -2 2 1.2 -2 3.4 -6.3 6.1 -9.8 6.1 -3.8 0 -3.4 -2.6 1.9 -12.3 5 -9.3 5.4 -10.7 2.5 -10 -4.3 1.1 -8.8 6.7 -11.5 14.6 -2.4 6.7 -3.1 7.7 -5.2 7.7 -1.3 0 -2.6 -0.6 -2.9 -1.3z"/>
  <path d="M185 540.1 c0 -1.1 1.6 -6.1 3.5 -11.2 2 -5 3.4 -9.4 3.2 -9.6 -0.2 -0.1 -1.2 0.6 -2.2 1.7 -2.1 2.3 -3.5 2.6 -3.5 0.7 0 -2 6.2 -7.5 9.2 -8.2 4.5 -1.1 4.5 1.6 0.2 12.3 -2.2 5.3 -4.1 10.1 -4.3 10.7 -0.2 0.5 0.7 0 2.1 -1.2 3.5 -3.3 5.5 -3 3.3 0.5 -2.5 4 -5.6 6.2 -8.7 6.2 -2.1 0 -2.8 -0.5 -2.8 -1.9z"/>
  <path d="M202 540.5 c0 -0.7 1.6 -5.8 3.5 -11.1 1.9 -5.3 3.5 -10 3.5 -10.5 0 -0.5 -0.9 -0.9 -2 -0.9 -1.1 0 -2 -0.7 -2 -1.5 0 -0.9 0.9 -1.5 2.3 -1.5 2.8 0 3.8 -0.7 6.6 -4.7 1.2 -1.8 2.9 -3.3 3.7 -3.3 1.7 0 1.8 0.9 0.4 4.4 -0.9 2.4 -0.7 2.6 1.9 2.6 3.3 0 4.2 0.7 3.4 2.6 -0.3 0.8 -2 1.4 -4.2 1.4 l-3.6 0 -3.2 9.2 c-1.8 5 -3.1 9.3 -3 9.5 0.2 0.2 2.1 -0.8 4.2 -2.2 2 -1.4 4.2 -2.4 4.7 -2.3 1.5 0.5 -3.9 6.6 -7.3 8.3 -3.7 2 -8.9 2 -8.9 0z"/>
  <path d="M224.2 540.8 c-0.7 -0.7 -1.2 -3.6 -1.2 -6.5 0 -6.6 3.3 -13.6 8.5 -18.1 6.1 -5.4 11.9 -3.7 11.3 3.3 l-0.3 4 -7.2 2.3 c-7.3 2.4 -7.9 2.9 -7.4 7.7 0.3 3.8 4.4 4 7.7 0.4 0.9 -1 2.3 -1.9 3.1 -1.9 1.9 0 -1.2 5.4 -4.6 8.1 -2.7 2.1 -8.1 2.5 -9.9 0.7z m11.1 -17.8 c1.1 0 1.7 -0.8 1.7 -2.5 0 -3.8 -4 -3.4 -6.4 0.7 l-1.9 3.1 2.4 -0.6 c1.3 -0.4 3.2 -0.7 4.2 -0.7z"/>
  <path d="M1 540.1 c0 -0.5 1.4 -1.2 3 -1.6 1.7 -0.4 3.7 -1.7 4.5 -2.9 1.8 -2.7 10.5 -26.1 10.5 -28.1 0 -0.8 -1.1 -1.7 -2.5 -2.1 -1.4 -0.4 -2.4 -1.1 -2.2 -1.8 0.2 -0.7 5.3 -1.2 15.2 -1.4 l14.8 -0.3 -0.7 4.2 c-0.4 2.3 -0.9 4.6 -1.2 5.1 -1 1.7 -2.4 0.7 -2.4 -1.7 0 -2.9 -2.6 -4.5 -7.3 -4.5 -4.6 0 -7 2.3 -9.5 9.3 l-2.1 5.7 4.8 0 c3.8 0 5.2 -0.5 7.1 -2.5 2.4 -2.6 4 -3.2 4 -1.5 0 2.7 -4.3 12 -5.6 12 -0.8 0 -1.4 -0.6 -1.3 -1.2 0.4 -3.3 -0.2 -3.8 -5 -3.8 l-5 0 -2 5.5 c-2.9 7.7 -2.7 9.2 0.9 10 6.1 1.3 2.7 2.5 -7.5 2.5 -5.8 0 -10.5 -0.4 -10.5 -0.9z"/>
  <path d="M237.9 505.8 c2.4 -4.4 3.5 -5.4 6 -5.6 1.7 -0.2 3.1 0.1 3.1 0.5 0 1.4 -9.4 10.3 -10.9 10.3 -0.8 0 -0.2 -1.8 1.8 -5.2z"/>
  <path d="M197.4 504.6 c-1.2 -3.1 0 -5.1 3.1 -5.1 2.7 0 3 0.3 3 3 0 2.5 -0.4 3 -2.8 3.3 -1.7 0.2 -2.9 -0.2 -3.3 -1.2z"/>
  <path d="M41.4 488.3 c-1.2 -0.2 -3 -1.3 -4 -2.4 -2.7 -3 -0.9 -6.8 4.4 -9.4 3.4 -1.6 4.2 -2.5 4.2 -4.7 0 -1.6 0.9 -3.3 2.2 -4.2 1.2 -0.9 1.7 -1.6 1 -1.6 -2.1 0 -4.1 -5.9 -3.1 -9.3 2 -7.1 7.3 -9.7 17.7 -9 6 0.5 7.2 0.9 7 2.2 -0.2 0.9 -1.5 1.7 -3.1 1.9 -2.2 0.3 -2.7 0.8 -2.7 3.1 0 4.4 -4 9.3 -9 11.2 -4 1.5 -6.8 4.9 -4.1 4.9 0.6 0 3.5 0.9 6.6 2.1 7 2.6 8.2 5.5 3.9 10 -4.3 4.4 -13.4 6.7 -21 5.2z m13.8 -4.3 c3.3 -1 5.6 -3.4 4 -4.3 -0.4 -0.3 -3.1 -1.2 -6 -2.2 -4.9 -1.6 -5.5 -1.6 -7.7 -0.1 -4.5 3 -2.4 7.5 3.5 7.6 1.4 0 4.1 -0.5 6.2 -1z m1.8 -23.2 c2.4 -3.9 2.7 -10.8 0.6 -10.8 -2.2 0 -4.4 2.7 -5.7 7 -2.1 7.1 1.5 9.7 5.1 3.8z"/>
  <path d="M69.6 475.4 c-2.2 -2.2 -2 -6.1 0.8 -11.9 3.2 -6.8 11.7 -14.5 15.9 -14.5 1.1 0 3.4 -0.7 5.3 -1.6 1.9 -0.9 3.7 -1.4 4 -1.1 0.3 0.3 -1.6 5.3 -4.1 11.2 -3.6 8.1 -4.4 11 -3.5 11.9 0.8 0.8 1.5 0.7 2.4 -0.6 0.7 -1 1.8 -1.8 2.5 -1.8 1.6 0 -1 4.8 -4.2 7.8 -3.4 3.2 -6.7 1.6 -6.7 -3 l0 -3.1 -3.8 4.1 c-4.2 4.5 -6.2 5.1 -8.6 2.6z m11.1 -8.6 c1.2 -1.2 3.1 -4.8 4.2 -7.8 2.5 -6.5 2.4 -6 0.7 -6 -2.3 0 -7.5 4.9 -9.6 9.1 -4.3 8.3 -1.4 11.3 4.7 4.7z"/>
  <path d="M97.3 476.3 c-0.7 -0.2 -1.3 -1 -1.3 -1.6 0 -0.7 3 -9.2 6.7 -18.9 6.4 -17 6.6 -17.8 4.9 -19.7 -2.1 -2.3 -1.4 -2.8 4.4 -3.2 3.6 -0.3 4.4 -0.1 4.2 1.1 -0.2 0.8 -3.2 9.1 -6.8 18.3 -3.5 9.2 -6.4 17.3 -6.4 17.9 0 0.6 1 0.2 2.3 -1 3.5 -3.3 5.2 -2.8 3 0.9 -2.6 4.5 -7.9 7.5 -11 6.2z"/>
  <path d="M114.3 475.4 c-0.3 -0.8 1.3 -6.2 3.5 -12 2.2 -5.7 3.8 -10.4 3.4 -10.4 -0.3 0 -1.6 1 -2.9 2.2 -3.2 3 -4 1.6 -1.3 -2.3 3 -4.1 8.7 -6.6 10.7 -4.7 1.1 1.2 0.7 2.9 -2.7 11.3 -2.2 5.4 -4 10.3 -4 10.8 0 0.6 1.1 0 2.5 -1.3 1.4 -1.3 2.8 -2.1 3.1 -1.7 1.1 1 -2.5 5.6 -5.9 7.7 -3.9 2.4 -5.6 2.5 -6.4 0.4z"/>
  <path d="M132.1 475.6 c-1 -1.2 1.1 -8.6 6.4 -21.8 0.5 -1.4 0.2 -1.8 -1.4 -1.8 -1.2 0 -2.1 -0.6 -2.1 -1.5 0 -0.9 0.9 -1.5 2.5 -1.5 1.8 0 3.2 -1.1 5.1 -4 3.1 -4.7 7 -5.7 5.4 -1.4 -1.5 3.9 -1.3 4.4 2.1 4.4 2.4 0 3 0.4 2.7 1.8 -0.2 1.2 -1.4 1.8 -4 2 -3.3 0.3 -3.8 0.7 -5.2 4.5 -0.9 2.3 -2.4 6.6 -3.5 9.5 -1 2.8 -1.6 5.2 -1.2 5.2 0.3 0 2.4 -1.2 4.4 -2.6 4.3 -2.9 5.5 -2.7 3.5 0.5 -3 5 -12.6 9.3 -14.7 6.7z"/>
  <path d="M154.1 475.1 c-5.9 -5.9 2 -25.3 11.2 -27.6 3.8 -1 7.7 1.7 7.7 5.3 0 4.1 -0.9 4.7 -8.7 7.3 -7 2.2 -7.3 2.4 -7.3 5.5 0 5.8 3.7 6.5 9.3 1.6 0.9 -0.8 2 -1.3 2.3 -0.9 1.6 1.6 -5.6 9.2 -9.8 10.2 -1.9 0.5 -3.2 0.1 -4.7 -1.4z m12.3 -19.1 c1.2 -1.2 0 -4 -1.8 -4 -1.6 0 -5.6 3.8 -5.6 5.3 0 1 6 -0.1 7.4 -1.3z"/>
  <path d="M1 474.5 c0 -0.8 0.9 -1.5 1.9 -1.5 3.9 0 6.8 -4.3 11.5 -17.2 2.5 -7.1 4.6 -13.5 4.6 -14.3 0 -0.8 -1.1 -1.7 -2.5 -2.1 -6.1 -1.5 -1.4 -2.4 12.6 -2.4 l15.1 0 -0.7 3.7 c-0.8 4.4 -1.3 5.3 -2.6 5.3 -0.5 0 -0.9 -1.1 -0.9 -2.5 0 -1.8 -0.7 -2.8 -2.6 -3.5 -6.9 -2.7 -11 -0.4 -13.9 7.8 l-2.2 6.2 4.2 0 c3.2 0 5.2 -0.7 7.3 -2.5 1.7 -1.4 3.4 -2.5 4 -2.5 1.2 0 -3.2 12.3 -4.6 12.8 -0.6 0.2 -1.2 -0.7 -1.4 -2 -0.3 -2 -0.9 -2.3 -5.4 -2.6 l-5.1 -0.3 -2.6 6.8 c-2.4 6.3 -2.4 6.9 -0.9 8.1 2.6 2 9.9 0.7 15.6 -2.9 2.7 -1.6 5.3 -2.8 5.8 -2.7 0.5 0.2 -0.5 2.5 -2.1 5.1 l-3.1 4.7 -16 0 c-13.6 0 -16 -0.2 -16 -1.5z"/>
  <path d="M165.3 443.6 c0.3 -0.8 1.7 -3.3 3.2 -5.5 2 -3.3 3.1 -4.1 5.5 -4.1 1.7 0 3 0.4 3 0.9 0 1.1 -10.1 10.1 -11.3 10.1 -0.5 0 -0.7 -0.6 -0.4 -1.4z"/>
  <path d="M126.3 438.4 c-0.9 -2.4 1 -4.9 3.8 -4.9 2 0 2.4 0.5 2.4 3 0 2.5 -0.4 3 -2.8 3.3 -1.8 0.2 -2.9 -0.2 -3.4 -1.4z"/>
  <path d="M32.7 430 c2.4 -3.4 3.3 -4 6.6 -4 2 0 3.7 0.2 3.7 0.4 0 1 -9.9 7.6 -11.4 7.6 -1.4 0 -1.2 -0.7 1.1 -4z"/>
  <path d="M40.1 409.7 c-0.8 -1 -0.1 -3.9 2.9 -11.6 2.2 -5.6 4 -10.5 4 -10.8 0 -0.4 -1.1 0.4 -2.4 1.6 -3.8 3.5 -5.3 2.1 -2 -1.8 2.9 -3.5 8.8 -6.6 10.4 -5.6 1.6 1 1.2 3.1 -3 13.1 -2.2 5.3 -4 9.9 -4 10.2 0 0.3 1.1 -0.5 2.5 -1.8 1.4 -1.3 2.8 -2 3.2 -1.7 1.1 1.2 -1.9 5.7 -5.3 7.7 -3.7 2.4 -4.8 2.5 -6.3 0.7z"/>
  <path d="M58.4 408.7 l-2.7 -2.3 6.7 -17.3 c6.4 -16.5 6.6 -17.4 5 -19.2 -0.9 -1.1 -1.5 -2.1 -1.3 -2.3 0.9 -0.8 9.9 -1.3 9.9 -0.5 0 0.6 -1.1 3.8 -6.6 18.4 -0.6 1.7 -0.3 1.6 2.2 -0.6 6.2 -5.7 11 -4.2 10.8 3.4 -0.1 5.5 -3.6 11.9 -9.4 17.1 -6.7 6.1 -10.4 6.9 -14.6 3.3z m12.6 -6.6 c4.1 -4.3 6.7 -11.6 4.8 -13.8 -0.8 -1 -1.5 -1 -3.7 0.1 -3.8 2 -5.7 4.5 -7.7 10.4 -1.7 4.6 -1.7 5.4 -0.4 6.2 2.4 1.5 3.1 1.2 7 -2.9z"/>
  <path d="M87.4 410.2 c-1.6 -1 -3.4 -4.8 -3.4 -7 0 -8.8 8.7 -21.5 14.8 -21.5 4.5 0 6.4 1.9 6 6.2 -0.3 3.5 -0.5 3.7 -7.8 6.2 -8 2.8 -9.3 4.5 -7 8.8 1.4 2.8 3.2 2.6 6.9 -0.5 4.5 -3.7 5.6 -2.5 2.2 2.2 -3.9 5.2 -8.8 7.6 -11.7 5.6z m8.5 -18.8 c2.2 -0.5 3.1 -1.2 3.1 -2.6 0 -4 -4.7 -3.1 -7.1 1.4 -1.1 2 -0.7 2.1 4 1.2z"/>
  <path d="M108.1 409.6 c-0.9 -1.1 -0.6 -2.6 1.5 -7.2 4.4 -10 5.4 -13.3 4.2 -14 -0.6 -0.4 -1.6 0 -2.3 0.9 -2.5 3.4 -3.6 1.7 -1.5 -2.1 3.8 -6.8 8.5 -7.7 9.7 -1.9 l0.6 3 1.4 -2.6 c0.7 -1.5 2.3 -3.2 3.5 -3.8 1.8 -1 2.4 -0.8 3.5 0.7 2 2.7 1.2 4.9 -1.8 5.2 -4 0.5 -7 4.4 -10.9 14 -3.5 8.7 -5.5 10.7 -7.9 7.8z"/>
  <path d="M129.2 409.7 c-1 -1.1 -0.4 -3.7 2.8 -12.6 3.8 -10.6 3.8 -11.1 1.9 -11.1 -2.7 0 -1.9 -2.4 1 -2.8 1.2 -0.2 3.3 -2.1 4.8 -4.3 3 -4.6 6.9 -5.6 5.3 -1.3 -1.7 4.3 -1.3 5.4 2.1 5.4 4.4 0 3.2 2.4 -1.5 3 -3.8 0.5 -3.8 0.5 -7.1 9.8 -1.8 5 -3 9.2 -2.6 9.2 0.3 0 2.4 -1.2 4.4 -2.6 4.3 -2.9 5.5 -2.7 3.5 0.5 -3.1 5.1 -12.5 9.4 -14.6 6.8z"/>
  <path d="M150.7 409.2 c-2.5 -2.8 -2.2 -10.7 0.7 -16.7 4 -8.6 10.7 -13 15.3 -10 2 1.3 2.4 2.3 2.1 5.3 -0.3 3.6 -0.5 3.8 -7.3 6.1 -3.8 1.3 -7.2 2.6 -7.4 2.8 -1.1 0.8 -0.3 6.6 1 7.4 2 1.3 2.4 1.2 5.8 -1.7 1.7 -1.4 3.5 -2.4 4.1 -2.2 1.6 0.5 -2.7 6.7 -6.2 8.8 -4.1 2.5 -6 2.5 -8.1 0.2z m9.2 -17.8 c2.5 -0.5 3.1 -1.1 2.9 -2.8 -0.5 -3.2 -3.3 -3.1 -5.8 0.3 -2.3 3.3 -2.1 3.5 2.9 2.5z"/>
  <path d="M1 408.5 c0 -0.8 0.9 -1.5 1.9 -1.5 4 0 6.9 -4.3 11.5 -17.4 2.5 -7.1 4.6 -13.5 4.6 -14.2 0 -0.8 -1.1 -1.6 -2.5 -2 -5.4 -1.3 -2 -2.4 7.5 -2.4 6 0 10 0.4 10 1 0 0.6 -0.9 1 -1.9 1 -4 0 -7 4.3 -11.6 16.9 -2.5 6.9 -4.5 13.3 -4.5 14.3 0 4.5 8.6 2.9 14 -2.7 3.1 -3.2 6 -4.6 6 -2.7 0 0.4 -1.4 3.1 -3 6 l-3 5.2 -14.5 0 c-12.2 0 -14.5 -0.2 -14.5 -1.5z"/>
  <path d="M163.1 375.3 c1.3 -2.1 2.8 -4.6 3.3 -5.5 1.1 -1.9 6.6 -2.5 6.6 -0.9 0 1.4 -9.3 10 -10.8 10.1 -1 0 -0.7 -1.1 0.9 -3.7z"/>
  <path d="M51.5 372 c-1.4 -4.3 4.4 -6.7 6.8 -2.9 1.6 2.6 0.1 4.9 -3.2 4.9 -2.1 0 -3.2 -0.6 -3.6 -2z"/>
  <path d="M303 335.5 c0 -0.2 1.8 -3.4 4 -7 4.4 -7.2 4.8 -8.5 2.4 -8.5 -3.2 0 -12.5 -5.3 -16.9 -9.6 -2.7 -2.6 -6 -7.3 -7.8 -11.2 -2.9 -6.1 -3.2 -7.6 -3.2 -16.3 0 -9 0.2 -9.9 3.8 -17.1 4.2 -8.7 9.2 -13.6 17.7 -17.7 4.9 -2.3 6.7 -2.6 16.5 -2.6 9.8 0 11.6 0.3 16.5 2.6 5.5 2.6 14 9.3 14 10.9 0 0.5 -2.6 2.9 -5.9 5.4 l-5.8 4.5 -2.9 -3.1 c-10.7 -11.4 -29.8 -7.9 -36.5 6.7 -2.5 5.4 -2.5 15.7 0 21 3.6 7.8 12.4 13.5 20.6 13.5 5.1 0 11.7 -2.8 15.5 -6.5 l3.5 -3.5 5.8 4.6 c5.5 4.3 5.8 4.7 4.4 6.7 -2.4 3.7 -11.9 9.7 -18 11.4 -5.6 1.6 -5.8 1.8 -10 9 l-4.2 7.3 -6.7 0 c-3.8 0 -6.8 -0.2 -6.8 -0.5z"/>
  <path d="M482 320.1 c-4.7 -1.5 -10.5 -4.9 -13.5 -8.1 l-3 -3.1 5.3 -5 5.2 -5 4.2 3.5 c9.1 7.9 20.8 6.6 20.8 -2.2 0 -4.3 -2.1 -6.2 -12.8 -11.6 -15.5 -7.8 -19.4 -12.3 -19.4 -22.6 0 -13.1 8.8 -20.9 23.8 -21 5.9 0 8.1 0.5 13 3 3.3 1.6 7.3 4.3 8.9 6 l3 3.1 -5.5 4.8 -5.5 4.9 -3.8 -3.5 c-6.4 -5.7 -11.6 -6.8 -16.1 -3.2 -5.8 4.6 -2.2 10.5 9.7 15.8 15.1 6.8 20.1 12.7 20.1 23.6 -0.1 9.9 -6 17.8 -15.5 20.5 -3.9 1.2 -15.2 1.2 -18.9 0.1z"/>
  <path d="M1 283 l0 -36 21 0 21 0 0 6.5 0 6.5 -13.5 0 -13.5 0 0 8 0 8 11.5 0 11.5 0 0 6.5 0 6.5 -11.5 0 -11.5 0 0 15 0 15 -7.5 0 -7.5 0 0 -36z"/>
  <path d="M55 282.9 l0 -36.1 16.8 0.4 c16.2 0.3 16.8 0.4 21.4 3.1 6.7 3.9 9.8 9.5 9.8 17.6 0 7.8 -1.7 11.8 -6.7 16.2 l-4 3.4 10.8 15 c5.9 8.3 10.8 15.3 10.8 15.8 0.1 0.4 -3.9 0.7 -8.7 0.7 l-8.9 0 -9.4 -14.5 c-9.3 -14.4 -9.4 -14.5 -13.1 -14.5 l-3.8 0 0 14.5 0 14.5 -7.5 0 -7.5 0 0 -36.1z m28.4 -7 c5 -2.3 5.8 -11.2 1.3 -14.4 -1.4 -0.9 -4.5 -1.5 -8.4 -1.5 l-6.3 0 0 8.5 0 8.5 5.5 0 c3 0 6.5 -0.5 7.9 -1.1z"/>
  <path d="M117.5 317.3 c0.3 -1 6.2 -16.4 13 -34.3 6.8 -17.9 12.6 -33.3 13 -34.3 0.7 -1.6 1.9 -1.7 10.8 -1.5 l10 0.3 12.8 34 c7.1 18.7 13.2 34.8 13.5 35.8 0.5 1.6 -0.1 1.8 -7.7 1.5 l-8.2 -0.3 -3.2 -9 -3.3 -9 -13.9 -0.3 -14 -0.3 -3.5 9.3 -3.5 9.3 -8.3 0.3 c-7.6 0.3 -8.2 0.1 -7.5 -1.5z m45.5 -30 c0 -1.5 -8.4 -24.3 -9 -24.3 -0.4 0 -7.8 19.8 -8.8 23.7 -0.3 1 2 1.3 8.7 1.3 5 0 9.1 -0.3 9.1 -0.7z"/>
  <path d="M202 283 l0 -36.1 9.7 0.3 9.6 0.3 15.6 25 15.6 24.9 0.3 -25.2 0.2 -25.2 7.5 0 7.5 0 0 36 0 36 -9.8 0 -9.9 0 -15.6 -25.2 -15.7 -25.3 0 25.3 0 25.2 -7.5 0 -7.5 0 0 -36z"/>
  <path d="M353 318.3 c0 -0.5 6 -16.5 13.3 -35.8 l13.3 -35 10 -0.3 10.1 -0.3 11.8 31.3 c6.5 17.2 12.6 33.4 13.6 36.1 l1.9 4.7 -8.3 0 -8.3 0 -3.3 -9.5 -3.4 -9.6 -14 0.3 -14 0.3 -3.5 9.3 -3.5 9.2 -7.8 0 c-4.4 0 -7.9 -0.3 -7.9 -0.7z m46 -30.8 c0 -1.1 -8.3 -23.1 -9 -23.8 -0.6 -0.7 -9 20.7 -9 23.2 0 0.7 2.9 1.1 9 1.1 5 0 9 -0.2 9 -0.5z"/>
  <path d="M437 283 l0 -36 7.5 0 7.5 0 0 36 0 36 -7.5 0 -7.5 0 0 -36z"/>
  <path d="M531 283 l0 -36 21.5 0 21.5 0 0 6.5 0 6.5 -13.5 0 -13.5 0 0 8 0 8 11.5 0 11.6 0 -0.3 6.3 -0.3 6.2 -11.2 0.3 -11.3 0.3 0 8.4 0 8.5 13.5 0 13.5 0 0 6.5 0 6.5 -21.5 0 -21.5 0 0 -36z"/>
  <path d="M1424.4 260.1 c-4.9 -1.3 -13.4 -6.3 -16.1 -9.6 -1.5 -1.6 -3.8 -5.5 -5.2 -8.5 -2.3 -5 -2.6 -6.7 -2.6 -17.5 0 -11.6 0.1 -12.3 3.3 -18.7 3.7 -7.5 7.2 -11 15.2 -14.7 5 -2.4 6.6 -2.6 18 -2.6 14.1 0 19.1 1.2 20.9 5.1 1.5 3.4 1.4 7.6 -0.3 10 -1.3 1.7 -2.7 1.9 -14.4 1.9 -11.6 0 -13.4 0.2 -15.9 2.1 -4.5 3.3 -6.4 8.2 -6.4 16.9 0 9.9 2 14.2 8.1 17.3 4.2 2.2 5.3 2.3 15.7 1.7 10.8 -0.6 11.2 -0.5 12.7 1.7 3.3 4.7 1.3 12 -3.8 13.8 -3.8 1.4 -24.9 2.2 -29.2 1.1z"/>
  <path d="M1493.5 259.7 c-17.4 -5.8 -24.2 -17.1 -23.3 -38.1 0.5 -11.6 2.4 -17 8.3 -23.4 6 -6.7 12.9 -9.5 24.9 -10 23.5 -1 35.6 8.1 35.6 27 0 13.2 -3.3 14.9 -34.2 17.9 -13.5 1.2 -14.5 1.7 -10.8 5.7 5.2 5.6 12.9 7 25.8 4.8 11.2 -1.9 10.7 -1.9 12.6 0 1.8 1.8 2.1 8.5 0.6 11.4 -1.7 3.1 -10.3 5.2 -23.5 5.6 -8.3 0.3 -13.2 0 -16 -0.9z m11.7 -41.7 c13.6 -1.4 15.2 -2.1 14.4 -6.2 -0.9 -4.4 -3 -6.4 -8.1 -7.7 -5.7 -1.4 -13.4 0.1 -16.4 3.3 -1.2 1.3 -2.8 4.4 -3.6 7 -1.7 5.4 -2.6 5.2 13.7 3.6z"/>
  <path d="M1600.9 259.7 c-6.2 -2.3 -9.7 -5.5 -12.6 -11.5 l-2.8 -5.7 -0.3 -32.7 -0.3 -32.8 2.5 -2.5 c2.1 -2.1 3.4 -2.5 8.3 -2.5 8.8 0 10.3 1.5 10.3 10.1 l0 6.9 11.1 0 c14.2 0 14.9 0.4 14.9 8 0 8.2 -1.3 9 -15.3 9 l-10.8 0 0.3 16.5 c0.3 15.6 0.4 16.6 2.6 18.7 2 2.1 3.2 2.3 11.5 2.3 5.1 0 9.8 0.4 10.5 0.8 1.3 0.9 1.7 10.4 0.4 12.3 -1.7 2.6 -6.1 3.7 -16.1 4.1 -7.4 0.2 -11.7 -0.1 -14.2 -1z"/>
  <path d="M1872.6 260 c-7.1 -1.3 -10.2 -2.8 -11.5 -5.6 -3 -6.6 0.4 -13.1 6.2 -12 8.4 1.7 21.9 2.8 26.1 2.2 4.5 -0.7 8.6 -3.4 8.6 -5.6 0 -2.6 -4.5 -4.9 -14.5 -7.4 -14.3 -3.6 -19.7 -6 -24 -10.7 -4.1 -4.6 -4.9 -7.2 -4.3 -14.4 0.6 -7.1 4.2 -11.9 11.7 -15.3 6.9 -3.2 20.3 -4.1 32.7 -2.2 10.3 1.5 12.4 3.2 12.4 9.9 0 7 -1.1 7.6 -11.2 6 -10.2 -1.6 -20.6 -1.6 -23.6 0 -1.4 0.7 -2.2 2.1 -2.2 3.7 0 2.9 1 3.3 15.2 6.9 5.5 1.5 12.2 3.7 14.8 5 12.8 6.5 15.8 21.1 6.4 31.5 -5.7 6.2 -11.8 8.3 -25.9 8.6 -6.6 0.2 -14.2 -0.1 -16.9 -0.6z"/>
  <path d="M2009.5 259.7 c-17.4 -5.8 -24.2 -17.1 -23.3 -38.1 0.7 -15.6 5.9 -24.6 17.6 -30.3 5.4 -2.6 6.5 -2.8 18.7 -2.8 11.7 0 13.5 0.3 17.8 2.4 9.7 4.8 13.8 11 14.5 21.8 1 15.5 -2.1 17.3 -34 20.4 -13.5 1.2 -14.5 1.7 -10.8 5.7 5.2 5.6 12.9 7 25.8 4.8 11.2 -1.9 10.7 -1.9 12.6 0 1.8 1.8 2.1 8.5 0.6 11.4 -1.7 3.1 -10.3 5.2 -23.5 5.6 -8.3 0.3 -13.2 0 -16 -0.9z m11.7 -41.7 c13.6 -1.4 15.2 -2.1 14.4 -6.2 -0.9 -4.4 -3 -6.4 -8.1 -7.7 -3.2 -0.8 -5.8 -0.8 -9.2 -0.1 -6.8 1.6 -9.7 4.6 -11.4 11.7 -0.8 3.9 -1.3 3.8 14.3 2.3z"/>
  <path d="M2137.9 259.7 c-6.2 -2.3 -9.7 -5.5 -12.6 -11.5 l-2.8 -5.7 -0.3 -32.7 -0.3 -32.8 2.5 -2.5 c2.1 -2.1 3.4 -2.5 8.3 -2.5 8.8 0 10.3 1.5 10.3 10.1 l0 6.9 11.1 0 c14.2 0 14.9 0.4 14.9 8 0 8.2 -1.3 9 -15.3 9 l-10.8 0 0.3 16.5 c0.3 15.6 0.4 16.6 2.6 18.7 2 2.1 3.2 2.3 11.5 2.3 5.1 0 9.8 0.4 10.5 0.8 1.3 0.9 1.7 10.4 0.4 12.3 -1.7 2.6 -6.1 3.7 -16.1 4.1 -7.4 0.2 -11.7 -0.1 -14.2 -1z"/>
  <path d="M1106.6 258.4 c-1.4 -1.3 -1.6 -6.4 -1.6 -40.3 0 -54.7 -2.3 -51.4 37.9 -51.9 30.6 -0.4 30.1 -0.5 30.1 8.3 0 9.1 0.3 8.9 -24.3 9.5 -11.9 0.3 -21.9 0.9 -22.4 1.3 -0.4 0.5 -0.8 5 -0.8 10 l0 9.2 19.4 0.3 c22.8 0.3 23.1 0.4 23.1 8.7 0 8.4 -0.2 8.5 -23.3 8.5 l-19.7 0 0 18 c0 20.8 0.4 20 -10.4 20 -4.5 0 -6.9 -0.5 -8 -1.6z"/>
  <path d="M1183.6 257.8 c-1.4 -1.9 -1.6 -6.2 -1.6 -27.3 0 -13.7 0.5 -26.8 1 -29 1.1 -4.8 6.2 -9.9 11.7 -11.5 2.1 -0.6 9.2 -1.4 15.8 -1.7 14.5 -0.7 15.5 -0.2 15.5 8.1 0 7.8 -1.1 8.8 -11.5 9.6 -6.9 0.5 -9.1 1.1 -10.2 2.5 -1 1.5 -1.3 7.2 -1.3 25 0 27.5 0.4 26.5 -10.8 26.5 -6.2 0 -7.3 -0.3 -8.6 -2.2z"/>
  <path d="M1249.5 259.1 c-10.4 -2.7 -15.5 -9.5 -15.5 -20.8 0.1 -10.1 5.4 -17.9 13.8 -20.3 2 -0.5 10.3 -1 18.5 -1 12.6 0 14.7 -0.2 14.7 -1.5 0 -3.2 -3.2 -7.7 -6.5 -9.1 -4.2 -1.7 -16 -1.8 -25.7 -0.2 -6.9 1.1 -7.2 1.1 -9 -1.1 -3.3 -4.1 -1.8 -11.9 2.7 -13.9 4.2 -2 18.6 -3.5 28.3 -3 14.8 0.7 23.2 5.4 27.8 15.3 2.2 4.7 2.4 6.2 2.4 24 0 17.8 -0.1 19.4 -2.2 23.5 -4 7.7 -6.3 8.5 -27.8 8.7 -10.2 0.1 -19.8 -0.2 -21.5 -0.6z m29.4 -15 c0.9 -0.6 1.6 -3.3 1.9 -7.1 l0.5 -6.2 -12.3 0.4 c-11.4 0.3 -12.3 0.5 -14.1 2.7 -2.5 3 -2.4 6.6 0.1 9.1 1.7 1.7 3.3 2 12.3 2 5.6 0 10.8 -0.4 11.6 -0.9z"/>
  <path d="M1317.6 258.4 c-2.3 -2.2 -2.3 -43.6 -0.1 -51.1 2.2 -7.5 6.5 -12.6 13.2 -15.9 5.6 -2.8 6.4 -2.9 20.3 -2.9 13.9 0 14.7 0.1 20.3 2.9 6.7 3.3 11 8.4 13.2 15.9 2.2 7.5 2.2 48.9 -0.1 51.1 -1.8 1.8 -13.8 2.2 -16.4 0.6 -1.2 -0.8 -1.6 -4.9 -2 -23.3 -0.4 -19.4 -0.7 -22.7 -2.3 -25.1 -4.9 -7.4 -20.5 -7.4 -25.4 0 -1.6 2.4 -1.9 5.7 -2.3 25.1 -0.4 18.4 -0.8 22.5 -2 23.3 -2.6 1.6 -14.6 1.2 -16.4 -0.6z"/>
  <path d="M1643.6 257.8 c-1.4 -1.9 -1.6 -6.2 -1.6 -27.1 0 -28.2 0.6 -32.3 5.6 -36.6 4.5 -4 8.8 -5.1 22.9 -5.8 14.5 -0.7 15.5 -0.2 15.5 8.1 0 7.8 -1.1 8.8 -11.5 9.6 -6.9 0.5 -9.1 1.1 -10.2 2.5 -1 1.5 -1.3 7.2 -1.3 25 0 27.5 0.4 26.5 -10.8 26.5 -6.2 0 -7.3 -0.3 -8.6 -2.2z"/>
  <path d="M1709.5 259.1 c-10.4 -2.7 -15.5 -9.5 -15.5 -20.8 0.1 -10.1 5.4 -17.9 13.8 -20.3 2 -0.5 10.3 -1 18.5 -1 12.6 0 14.7 -0.2 14.7 -1.5 0 -3.2 -3.2 -7.7 -6.5 -9.1 -4.2 -1.7 -16 -1.8 -25.7 -0.2 -6.9 1.1 -7.2 1.1 -9 -1.1 -3.3 -4.1 -1.8 -11.9 2.7 -13.9 4.2 -2 18.6 -3.5 28.3 -3 14.8 0.7 23.2 5.4 27.8 15.3 2.2 4.7 2.4 6.2 2.4 24 0 17.8 -0.1 19.4 -2.2 23.5 -4 7.7 -6.3 8.5 -27.8 8.7 -10.2 0.1 -19.8 -0.2 -21.5 -0.6z m29.4 -15 c0.9 -0.6 1.6 -3.3 1.9 -7.1 l0.5 -6.2 -12.3 0.4 c-11.4 0.3 -12.3 0.5 -14.1 2.7 -2.5 3 -2.4 6.6 0.1 9.1 1.7 1.7 3.3 2 12.3 2 5.6 0 10.8 -0.4 11.6 -0.9z"/>
  <path d="M1777.6 258.4 c-2.3 -2.2 -2.3 -43.6 -0.1 -51.1 2.2 -7.5 6.5 -12.6 13.2 -15.9 5.6 -2.8 6.4 -2.9 20.3 -2.9 13.9 0 14.7 0.1 20.3 2.9 6.7 3.3 11 8.4 13.2 15.9 2.2 7.5 2.2 48.9 -0.1 51.1 -1.8 1.8 -13.8 2.2 -16.4 0.6 -1.2 -0.8 -1.6 -4.9 -2 -23.3 -0.4 -19.4 -0.7 -22.7 -2.3 -25.1 -4.9 -7.4 -20.5 -7.4 -25.4 0 -1.6 2.4 -1.9 5.7 -2.3 25.1 -0.4 18.4 -0.8 22.5 -2 23.3 -2.6 1.6 -14.6 1.2 -16.4 -0.6z"/>
  <path d="M1934.6 257.8 c-2.3 -3.3 -2.4 -73.5 -0.1 -82.3 2.1 -7.9 5.6 -12.2 12.4 -15.3 4.7 -2.2 7.1 -2.6 14.6 -2.7 17.8 0 22.5 2 22.5 9.9 0 6.9 -1.7 8 -11.1 7.2 -10.7 -1 -15.6 0.4 -17.5 4.9 -0.8 1.9 -1.4 4.8 -1.4 6.5 l0 3 11.1 0 c14.2 0 14.9 0.4 14.9 8 0 8.2 -1.3 9 -15.2 9 l-10.8 0 0 25.3 c0 30 0.5 28.7 -10.8 28.7 -6.2 0 -7.3 -0.3 -8.6 -2.2z"/>
  <path d="M2069.6 257.8 c-1.4 -1.9 -1.6 -6.2 -1.6 -27.3 0 -13.7 0.5 -26.8 1 -29 1.1 -4.8 6.2 -9.9 11.7 -11.5 2.1 -0.6 9.2 -1.4 15.8 -1.7 14.5 -0.7 15.5 -0.2 15.5 8.1 0 7.8 -1.1 8.8 -11.5 9.6 -6.9 0.5 -9.1 1.1 -10.2 2.5 -1 1.5 -1.3 7.2 -1.3 25 0 27.5 0.4 26.5 -10.8 26.5 -6.2 0 -7.3 -0.3 -8.6 -2.2z"/>
  <path d="M477.4 230.6 c-2.8 -1.3 -8 -4.9 -11.7 -7.9 l-6.5 -5.6 -9.4 0 c-7 0.1 -10.7 -0.5 -14.7 -2 -13.4 -5 -21.5 -14.9 -24.1 -29.1 -3.1 -16.9 5.2 -33.5 20.5 -41.1 16 -7.8 37.7 -3.1 47.6 10.4 6 8.1 7.3 12.2 7.3 23.7 0.1 9.3 -0.2 11.1 -2.5 16.1 -1.5 3.1 -4.4 7.6 -6.5 9.9 l-3.9 4.3 4.8 4.3 c5.3 4.7 11.1 6.9 16.4 6.1 l3.3 -0.6 0 6.4 c0 7.3 -0.2 7.5 -9.3 7.5 -4.4 0 -7.7 -0.7 -11.3 -2.4z m-18.3 -29.9 c11.2 -6 15.8 -21.3 9.7 -33.1 -4 -7.9 -14.6 -13.5 -23 -12.2 -11.3 1.8 -18.5 9.8 -19.5 21.6 -1 10.6 4.5 20.4 13.7 24.4 5.4 2.4 13.9 2 19.1 -0.7z"/>
  <path d="M210.5 217 c-9.7 -1.4 -16.5 -6.5 -20.7 -15.5 -2.2 -4.8 -2.3 -6.3 -2.6 -31.7 l-0.3 -26.8 7.5 0 7.6 0 0 24.3 c0 21.6 0.2 24.6 1.9 28.4 2.3 5 6.2 7.3 12.6 7.3 5.8 0 10 -2.1 12.2 -6.3 1.6 -2.8 1.8 -6.6 2.1 -28.4 l0.3 -25.3 7.5 0 7.5 0 -0.3 26.8 c-0.3 25.6 -0.4 26.9 -2.7 31.9 -5.2 11.7 -17.5 17.4 -32.6 15.3z"/>
  <path d="M522.3 216.9 c-6.3 -0.8 -13.3 -4.7 -16.7 -9.2 -5.4 -7.1 -5.9 -10.1 -6.4 -38.4 l-0.4 -26.3 7.6 0 7.6 0 0 22 c0 25 0.8 30.5 5.1 34.6 4 3.8 12.8 4.5 17.7 1.4 5.7 -3.6 6.2 -6.1 6.2 -33.5 l0 -24.5 7.5 0 7.5 0 0 25.3 c0 29.1 -0.6 32.7 -7 39.9 -6.4 7.3 -16.6 10.4 -28.7 8.7z"/>
  <path d="M1 178.9 l0 -36.1 15.8 0.4 c15.2 0.3 15.9 0.4 21 3.3 12.5 6.8 14.7 23.1 4.5 33.2 l-4.4 4.4 2.3 3.2 c1.2 1.8 5.9 8.5 10.5 14.9 4.6 6.4 8.3 11.9 8.3 12.2 0 0.3 -3.9 0.6 -8.7 0.6 l-8.8 0 -9.5 -14.3 c-8.7 -13 -9.8 -14.2 -12.7 -14.5 l-3.3 -0.3 0 14.5 0 14.6 -7.5 0 -7.5 0 0 -36.1z m29.5 -8.4 c2.5 -2.4 3.2 -6.5 1.9 -10 -1 -2.5 -5.9 -4.5 -11.4 -4.5 l-5 0 0 8.5 0 8.5 6 0 c5.1 0 6.5 -0.4 8.5 -2.5z"/>
  <path d="M68 179 l0 -36 21.5 0 21.5 0 0 6.5 0 6.5 -14 0 -14 0 0 8 0 8 12 0 12 0 0 6.5 0 6.5 -12 0 -12.1 0 0.3 8.8 0.3 8.7 13.8 0.3 13.7 0.3 0 5.9 0 6 -21.5 0 -21.5 0 0 -36z"/>
  <path d="M127 178.9 l0 -36.1 16.8 0.4 c15.7 0.3 17.1 0.5 21.7 2.9 12.8 6.5 15.4 23.5 5.1 33.4 -5.1 5 -9.9 6.5 -20.5 6.5 l-8.1 0 0 14.5 0 14.5 -7.5 0 -7.5 0 0 -36.1z m31.5 -8.4 c3.1 -3 3.3 -8.3 0.6 -11.6 -1.6 -2 -3 -2.4 -9.5 -2.7 l-7.6 -0.4 0 8.6 0 8.6 7 0 c6.2 0 7.4 -0.3 9.5 -2.5z"/>
  <path d="M263 179.1 l0 -36.1 13.3 0 c14.6 0 19.6 1 24.5 4.7 5.2 3.9 7.2 7.9 7.2 14.6 0 6.1 -0.9 8.7 -4.4 12.6 -1.7 2 -1.8 2.5 -0.6 2.9 2.9 1 8 7.3 9 11.3 2.4 8.9 -1.9 18.7 -10.2 23.1 -3.9 2.1 -5.9 2.3 -21.5 2.6 l-17.3 0.4 0 -36.1z m30.6 21.4 c2.8 -1.8 4.1 -7.7 2.5 -11.1 -1.4 -3.1 -6.7 -5.4 -12.6 -5.4 l-4.5 0 0 9.6 0 9.7 6.2 -0.7 c3.4 -0.3 7.2 -1.3 8.4 -2.1z m-3.1 -32 c5.3 -5.2 1.3 -12.5 -7 -12.5 l-4.5 0 0 7.5 0 7.5 4.5 0 c3.5 0 5.2 -0.6 7 -2.5z"/>
  <path d="M327 179 l0 -36 7.5 0 7.5 0 0 29.5 0 29.5 13.5 0 13.5 0 0 6.5 0 6.5 -21 0 -21 0 0 -36z"/>
  <path d="M382 179 l0 -36 7.5 0 7.5 0 0 36 0 36 -7.5 0 -7.5 0 0 -36z"/>
  <path d="M576 179 l0 -36 21 0 21 0 0 6.5 0 6.5 -13.5 0 -13.5 0 0 8 0 8 11.5 0 11.5 0 0 6.5 0 6.5 -11.5 0 -11.5 0 0 9 0 9 13.5 0 13.5 0 0 6 0 6 -21 0 -21 0 0 -36z"/>
  <path d="M83.6 135.8 c0.4 -0.7 3 -3.9 5.7 -7 l4.9 -5.8 7.4 0 c4.1 0 7.4 0.4 7.4 0.8 0 0.4 -2.8 3.6 -6.3 7 l-6.3 6.2 -6.7 0 c-5.2 0 -6.6 -0.3 -6.1 -1.2z"/>
 </g>
 <g fill="#3f3f3f">
  <path d="M212 539.7 c0 -0.2 1.5 -1.6 3.3 -3.3 l3.2 -2.9 -2.9 3.3 c-2.8 3 -3.6 3.7 -3.6 2.9z"/>
  <path d="M109.3 534.5 c0 -2.2 0.2 -3 0.4 -1.7 0.2 1.2 0.2 3 0 4 -0.3 0.9 -0.5 -0.1 -0.4 -2.3z"/>
  <path d="M65.4 535.6 c-0.3 -0.8 -0.4 -2.3 -0.1 -3.3 0.3 -1.2 0.5 -0.9 0.6 0.9 0 1.4 0.7 2.9 1.4 3.1 0.9 0.4 0.9 0.6 -0.1 0.6 -0.7 0.1 -1.5 -0.5 -1.8 -1.3z"/>
  <path d="M165.4 524.3 c1.1 -1.3 1.4 -2.3 0.8 -2.3 -0.7 0 -1.1 -1.4 -1.1 -3.2 0.2 -3.3 0.2 -3.3 0.6 -0.4 l0.5 2.9 4.1 -3.9 4.2 -3.9 -3.8 4.1 c-2 2.2 -3.5 4.3 -3.2 4.6 0.3 0.2 -0.5 1.3 -1.7 2.4 l-2.3 1.9 1.9 -2.2z"/>
  <path d="M19.3 524 c0.2 -1 1.8 -1.5 4.8 -1.6 4.4 -0.1 4.4 -0.1 0.4 0.3 -2.2 0.3 -4.4 1 -4.8 1.6 -0.6 0.8 -0.7 0.7 -0.4 -0.3z"/>
  <path d="M52 518.5 c0 -2.8 -0.5 -3.8 -2.2 -4.5 -1.6 -0.6 -1.8 -0.9 -0.7 -0.9 0.9 -0.1 2.1 0.5 2.6 1.2 1.4 1.7 2.2 6.6 1.2 7.3 -0.5 0.3 -0.9 -1.1 -0.9 -3.1z"/>
  <path d="M117.9 519.8 c2.5 -2.9 4.5 -3.5 5.6 -1.8 0.3 0.6 -0.1 0.7 -1 0.4 -1 -0.4 -2.7 0.3 -4.3 1.7 l-2.7 2.4 2.4 -2.7z"/>
  <path d="M23.3 520.3 c1.5 -0.2 3.7 -0.2 5 0 1.2 0.2 0 0.4 -2.8 0.4 -2.7 0 -3.8 -0.2 -2.2 -0.4z"/>
  <path d="M144 518.5 c0 -1.4 0.2 -2.5 0.4 -2.5 0.2 0 0.6 1.1 0.8 2.5 0.3 1.4 0.1 2.5 -0.3 2.5 -0.5 0 -0.9 -1.1 -0.9 -2.5z"/>
  <path d="M101.4 518.8 c0.3 -1.4 8.6 -3 8.6 -1.6 0 0.4 -1.8 0.8 -3.9 0.8 -2.2 0 -4.2 0.5 -4.4 1 -0.3 0.6 -0.4 0.5 -0.3 -0.2z"/>
  <path d="M209 519 c0 -0.5 -0.9 -1 -2 -1 -1.3 0 -2 -0.6 -1.9 -1.7 0 -1.1 0.3 -1.3 0.6 -0.5 0.2 0.6 1.3 1.2 2.4 1.2 1 0 1.9 0.7 1.9 1.5 0 0.8 -0.2 1.5 -0.5 1.5 -0.3 0 -0.5 -0.4 -0.5 -1z"/>
  <path d="M217.8 517.3 c1.2 -0.2 3 -0.2 4 0 0.9 0.3 -0.1 0.5 -2.3 0.4 -2.2 0 -3 -0.2 -1.7 -0.4z"/>
  <path d="M103 514.2 c0 -0.4 1.6 -0.6 3.5 -0.4 1.9 0.2 3.5 0.6 3.5 0.8 0 0.2 -1.6 0.4 -3.5 0.4 -1.9 0 -3.5 -0.4 -3.5 -0.8z"/>
  <path d="M40.1 510.3 c0 -1.2 0.2 -1.4 0.6 -0.4 0.5 1.1 0.7 1.1 1.5 0 0.8 -1.2 0.9 -1.2 0.6 0 -0.6 2.2 -2.8 2.5 -2.7 0.4z"/>
  <path d="M240 507.5 c1.9 -1.9 3.6 -3.5 3.9 -3.5 0.3 0 -1 1.6 -2.9 3.5 -1.9 1.9 -3.6 3.5 -3.9 3.5 -0.3 0 1 -1.6 2.9 -3.5z"/>
  <path d="M14.2 503.8 c0.4 -1 4.3 -1.3 15.1 -1.3 l14.7 -0.1 -14.5 0.3 c-9.1 0.2 -14.4 0.7 -14 1.3 0.3 0.6 0.1 1 -0.5 1 -0.7 0 -1 -0.6 -0.8 -1.2z"/>
  <path d="M43 483.5 c-0.6 -0.8 -1 -2 -0.7 -2.7 0.4 -0.8 0.6 -0.7 0.6 0.4 0.1 0.9 0.9 2.2 1.9 2.7 0.9 0.6 1.2 1.1 0.6 1.1 -0.6 0 -1.7 -0.7 -2.4 -1.5z"/>
  <path d="M16.4 475.3 c10.6 -0.3 16.5 -0.8 17.5 -1.6 1.4 -1.1 1.4 -1 0.2 0.6 -1.2 1.5 -3.1 1.7 -17.5 1.5 l-16.1 -0.2 15.9 -0.3z"/>
  <path d="M68.2 471 c0 -1.9 0.2 -2.7 0.5 -1.7 0.2 0.9 0.2 2.5 0 3.5 -0.3 0.9 -0.5 0.1 -0.5 -1.8z"/>
  <path d="M79.6 469.2 c-0.3 -0.5 0.4 -1.8 1.7 -2.8 2.1 -1.9 2.1 -1.9 0.7 0 -0.8 1.1 -1.3 2.1 -1.2 2.3 0.2 0.3 0.1 0.7 -0.1 0.9 -0.3 0.3 -0.8 0.1 -1.1 -0.4z"/>
  <path d="M19.3 458 c0.4 -1.7 9.4 -2.7 10.8 -1.3 0.4 0.4 -1.5 0.6 -4.3 0.4 -3.4 -0.2 -5.4 0.1 -6 1 -0.8 1.1 -0.9 1.1 -0.5 -0.1z"/>
  <path d="M79.7 456 c1.8 -1.9 3.4 -3.2 3.6 -2.9 0.2 0.2 -1.2 1.7 -3.2 3.3 l-3.6 3 3.2 -3.4z"/>
  <path d="M64.2 454.8 c-0.2 -3.6 0 -3.8 2.8 -3.8 4.9 0 3.4 -1.9 -1.7 -2.3 l-4.8 -0.3 5.3 -0.2 c4.6 -0.2 5.3 0 5 1.6 -0.2 1 -1.4 1.8 -3 2 -2.2 0.3 -2.8 0.9 -3.1 3.5 -0.4 3.1 -0.4 3.1 -0.5 -0.5z"/>
  <path d="M172.1 453.5 c0 -1.7 -0.7 -3.8 -1.3 -4.5 -0.7 -0.8 -0.5 -0.8 0.5 0.1 1.3 1.1 1.7 2.6 1.4 4.5 l-0.4 2.9 -0.2 -3z"/>
  <path d="M144.3 453 c0.2 -0.9 1.8 -1.6 4 -1.8 4.4 -0.4 5 -2.2 0.7 -2.2 -2.2 0 -3 -0.5 -2.9 -1.7 0 -1.1 0.3 -1.3 0.6 -0.5 0.2 0.6 1.8 1.2 3.5 1.2 2.3 0 2.9 0.4 2.6 1.8 -0.2 1.1 -1.4 1.8 -3.8 2 -1.9 0.2 -3.9 0.9 -4.3 1.5 -0.6 0.8 -0.7 0.7 -0.4 -0.3z"/>
  <path d="M91.4 447.5 c3.3 -1.7 4.6 -1.9 4.6 -0.5 0 0.5 -0.6 0.7 -1.4 0.4 -0.8 -0.3 -1.7 -0.1 -2.1 0.5 -0.3 0.6 -1.4 1.1 -2.3 1.1 -1.1 0 -0.6 -0.6 1.2 -1.5z"/>
  <path d="M173.1 438.4 c1.9 -2.2 3.6 -3.9 3.9 -3.7 0.2 0.2 -1.3 2 -3.5 4.1 l-3.9 3.7 3.5 -4.1z"/>
  <path d="M107.7 436.4 c-1.6 -2.2 -1.6 -2.5 -0.2 -3 0.9 -0.4 1.9 -0.4 2.2 0 0.4 0.3 -0.2 0.6 -1.2 0.6 -1.7 0 -1.7 0.1 0 2 1 1.1 1.6 2.2 1.4 2.4 -0.2 0.2 -1.2 -0.7 -2.2 -2z"/>
  <path d="M67.1 405.8 c0.2 -0.2 1.8 -1.4 3.4 -2.8 l3 -2.5 -2.4 2.8 c-1.4 1.5 -2.9 2.7 -3.4 2.7 -0.6 0 -0.8 -0.1 -0.6 -0.2z"/>
  <path d="M30 401.5 c1.9 -1.9 3.6 -3.5 3.9 -3.5 0.3 0 -1 1.6 -2.9 3.5 -1.9 1.9 -3.6 3.5 -3.9 3.5 -0.3 0 1 -1.6 2.9 -3.5z"/>
  <path d="M119 387.1 c0 -1.7 0.2 -3.1 0.4 -3.1 0.8 0 1.3 5.1 0.5 5.6 -0.5 0.3 -0.9 -0.9 -0.9 -2.5z"/>
  <path d="M153 388.7 c0 -0.2 1.5 -1.6 3.3 -3.3 l3.2 -2.9 -2.9 3.3 c-2.8 3 -3.6 3.7 -3.6 2.9z"/>
  <path d="M51.1 370.9 c-0.1 -2.2 2.4 -4.2 4.6 -3.6 1.4 0.4 1.3 0.5 -0.5 0.6 -1.3 0.1 -2.6 1 -3.2 2.4 -0.6 1.5 -0.9 1.7 -0.9 0.6z"/>
  <path d="M168.3 368.3 c0.9 -0.2 2.5 -0.2 3.5 0 0.9 0.3 0.1 0.5 -1.8 0.5 -1.9 0 -2.7 -0.2 -1.7 -0.5z"/>
  <path d="M303 335.1 c0 -0.6 0.5 -1.3 1.2 -1.7 0.7 -0.4 0.8 -0.3 0.4 0.4 -0.4 0.8 1.5 1.2 6.1 1.5 l6.8 0.3 -7.2 0.2 c-4.1 0.1 -7.3 -0.2 -7.3 -0.7z"/>
  <path d="M15.2 303.8 l-0.2 -15.8 11.5 0 11.4 0 0.4 -6.2 0.3 -6.3 0.2 6.8 0.2 6.7 -11.5 0 -11.4 0 -0.4 15.3 -0.3 15.2 -0.2 -15.7z"/>
  <path d="M216.4 293.5 c0 -14.3 0.2 -20 0.3 -12.7 0.2 7.3 0.2 19 0 26 -0.1 7 -0.3 1 -0.3 -13.3z"/>
  <path d="M573 313 l0 -5.9 -13.2 -0.3 -13.3 -0.3 -0.3 -9.2 -0.3 -9.3 11.5 0 11.5 0 0.4 -6.2 0.4 -6.3 -0.1 6.5 -0.1 6.5 -11.2 0.3 -11.3 0.3 0 8.4 0 8.5 13.5 0 13.5 0 0 6.5 c0 3.6 -0.2 6.5 -0.5 6.5 -0.3 0 -0.5 -2.7 -0.5 -6z"/>
  <path d="M466 309.4 c0 -0.6 2.1 -3 4.8 -5.4 l4.7 -4.5 -4.5 5 c-2.5 2.7 -4.6 5.2 -4.7 5.4 -0.2 0.2 -0.3 0 -0.3 -0.5z"/>
  <path d="M302.9 300.3 l-3.4 -3.8 3.8 3.4 c2 1.9 3.7 3.6 3.7 3.8 0 0.8 -0.8 0 -4.1 -3.4z"/>
  <path d="M333 302.7 c0 -0.2 1.5 -1.6 3.3 -3.3 l3.2 -2.9 -2.9 3.3 c-2.8 3 -3.6 3.7 -3.6 2.9z"/>
  <path d="M281.3 283 c0 -3.6 0.2 -5 0.4 -3.2 0.2 1.7 0.2 4.7 0 6.5 -0.2 1.7 -0.4 0.3 -0.4 -3.3z"/>
  <path d="M296.3 282.5 c0 -2.7 0.2 -3.8 0.4 -2.2 0.2 1.5 0.2 3.7 0 5 -0.2 1.2 -0.4 0 -0.4 -2.8z"/>
  <path d="M72.3 277.3 c1.5 -0.2 3.9 -0.2 5.5 0 1.5 0.2 0.2 0.4 -2.8 0.4 -3 0 -4.3 -0.2 -2.7 -0.4z"/>
  <path d="M15.2 267.8 l-0.2 -8.8 13.5 0 13.4 0 0.4 -6.2 0.3 -6.3 0.2 6.8 0.2 6.7 -13.5 0 -13.4 0 -0.4 8.3 -0.3 8.2 -0.2 -8.7z"/>
  <path d="M546.2 267.8 l-0.2 -8.8 13.5 0 13.4 0 0.4 -6.2 0.3 -6.3 0.2 6.8 0.2 6.7 -13.5 0 -13.4 0 -0.4 8.3 -0.3 8.2 -0.2 -8.7z"/>
  <path d="M334.9 265.3 l-3.4 -3.8 3.6 3.3 c1.9 1.8 3.9 2.9 4.4 2.5 0.4 -0.5 0.5 -0.2 0.1 0.5 -1 1.6 -0.7 1.7 -4.7 -2.5z"/>
  <path d="M503.4 263.8 l-2.9 -3.3 3 2.7 c3 2.7 3.2 2.7 5 1 1.9 -1.7 1.9 -1.7 0.1 0.6 -1.1 1.2 -2 2.2 -2.1 2.2 -0.1 0 -1.4 -1.5 -3.1 -3.2z"/>
  <path d="M514.5 259.2 c1.8 -2.2 1.8 -2.3 -1.1 -5.5 l-2.9 -3.2 3.5 3.2 3.5 3.3 -2.5 2.2 -2.4 2.3 1.9 -2.3z"/>
  <path d="M72.8 259.3 c1.8 -0.2 4.5 -0.2 6 0 1.5 0.2 0 0.4 -3.3 0.4 -3.3 0 -4.5 -0.2 -2.7 -0.4z"/>
  <path d="M289 258.7 c0 -0.2 1.5 -1.6 3.3 -3.3 l3.2 -2.9 -2.9 3.3 c-2.8 3 -3.6 3.7 -3.6 2.9z"/>
  <path d="M1478.9 251.3 l-3.4 -3.8 3.8 3.4 c3.4 3.3 4.2 4.1 3.4 4.1 -0.2 0 -1.9 -1.7 -3.8 -3.7z"/>
  <path d="M1994.9 251.3 l-3.4 -3.8 3.8 3.4 c2 1.9 3.7 3.6 3.7 3.8 0 0.8 -0.8 0 -4.1 -3.4z"/>
  <path d="M1458.3 250.5 c0 -2.2 0.2 -3 0.4 -1.7 0.2 1.2 0.2 3 0 4 -0.3 0.9 -0.5 -0.1 -0.4 -2.3z"/>
  <path d="M1261 245.4 c8.4 -0.8 17.8 -0.8 17.3 -0.1 -0.2 0.4 -5 0.6 -10.6 0.5 -5.6 -0.1 -8.6 -0.3 -6.7 -0.4z"/>
  <path d="M1722.8 245.3 c2.9 -0.2 7.4 -0.2 10 0 2.6 0.2 0.2 0.3 -5.3 0.3 -5.5 0 -7.6 -0.1 -4.7 -0.3z"/>
  <path d="M1234.3 238.5 c0 -3.8 0.2 -5.3 0.4 -3.2 0.2 2 0.2 5.2 0 7 -0.2 1.7 -0.4 0.1 -0.4 -3.8z"/>
  <path d="M1694.3 238.5 c0 -3.8 0.2 -5.3 0.4 -3.2 0.2 2 0.2 5.2 0 7 -0.2 1.7 -0.4 0.1 -0.4 -3.8z"/>
  <path d="M1623.8 243.3 c1.2 -0.2 3 -0.2 4 0 0.9 0.3 -0.1 0.5 -2.3 0.4 -2.2 0 -3 -0.2 -1.7 -0.4z"/>
  <path d="M2160.8 243.3 c1.2 -0.2 3 -0.2 4 0 0.9 0.3 -0.1 0.5 -2.3 0.4 -2.2 0 -3 -0.2 -1.7 -0.4z"/>
  <path d="M1515.3 231.3 c0.9 -0.2 2.5 -0.2 3.5 0 0.9 0.3 0.1 0.5 -1.8 0.5 -1.9 0 -2.7 -0.2 -1.7 -0.5z"/>
  <path d="M1420.2 228 c0 -1.9 0.2 -2.7 0.5 -1.7 0.2 0.9 0.2 2.5 0 3.5 -0.3 0.9 -0.5 0.1 -0.5 -1.8z"/>
  <path d="M1914.4 224.8 l-2.9 -3.3 3.3 2.9 c3 2.8 3.7 3.6 2.9 3.6 -0.2 0 -1.6 -1.5 -3.3 -3.2z"/>
  <path d="M1420.2 221 c0 -1.9 0.2 -2.7 0.5 -1.7 0.2 0.9 0.2 2.5 0 3.5 -0.3 0.9 -0.5 0.1 -0.5 -1.8z"/>
  <path d="M462.4 219.8 l-2.9 -3.3 3.3 2.9 c3 2.8 3.7 3.6 2.9 3.6 -0.2 0 -1.6 -1.5 -3.3 -3.2z"/>
  <path d="M1164.8 220.4 c1.8 -1.2 2.2 -2.6 2.4 -7.2 l0.2 -5.7 0.3 5.4 c0.4 5.3 -1.3 9.1 -4.1 9.1 -0.6 0 0 -0.7 1.2 -1.6z"/>
  <path d="M476 212.5 c-1.8 -1.9 -3.2 -3.6 -2.9 -3.8 0.2 -0.2 1.9 1.4 3.8 3.5 4.2 4.8 3.6 5 -0.9 0.3z"/>
  <path d="M68.2 179.3 l-0.2 -36.3 21.5 0 21.5 0 0 6.5 0 6.5 -14.2 -0.2 -14.3 -0.2 13.8 -0.3 13.7 -0.4 0 -5.4 0 -5.5 -20.5 0 -20.5 0 -0.3 35.8 -0.2 35.7 -0.3 -36.2z"/>
  <path d="M127.2 179.3 l-0.2 -36.3 15.8 0.2 15.7 0.2 -15.2 0.3 -15.3 0.4 -0.3 35.7 -0.2 35.7 -0.3 -36.2z"/>
  <path d="M263.2 179.3 l-0.2 -36.3 14.3 0.2 14.2 0.2 -13.7 0.3 -13.8 0.4 -0.3 35.7 -0.2 35.7 -0.3 -36.2z"/>
  <path d="M327.2 179.3 l-0.2 -36.3 7.8 0.2 7.7 0.2 -7.2 0.3 -7.3 0.4 -0.3 35.7 -0.2 35.7 -0.3 -36.2z"/>
  <path d="M396 179.5 l0 -35.4 -7.2 -0.4 -7.3 -0.3 7.8 -0.2 7.7 -0.2 0 36 c0 19.8 -0.2 36 -0.5 36 -0.3 0 -0.5 -16 -0.5 -35.5z"/>
  <path d="M194.9 209.3 l-3.4 -3.8 3.8 3.4 c3.4 3.3 4.2 4.1 3.4 4.1 -0.2 0 -1.9 -1.7 -3.8 -3.7z"/>
  <path d="M237 209.5 c1.9 -1.9 3.6 -3.5 3.9 -3.5 0.3 0 -1 1.6 -2.9 3.5 -1.9 1.9 -3.6 3.5 -3.9 3.5 -0.3 0 1 -1.6 2.9 -3.5z"/>
  <path d="M1239.9 205.3 c-1.2 -1.6 -1.2 -1.6 0.1 -0.6 0.8 0.6 2.9 1.3 4.5 1.6 l3 0.4 -3.1 0.2 c-2 0 -3.7 -0.6 -4.5 -1.6z"/>
  <path d="M1699.9 205.3 c-1.2 -1.6 -1.2 -1.6 0.1 -0.6 0.8 0.6 2.9 1.3 4.5 1.6 l3 0.4 -3.1 0.2 c-2 0 -3.7 -0.6 -4.5 -1.6z"/>
  <path d="M1213.3 205.3 c1.5 -0.2 3.9 -0.2 5.5 0 1.5 0.2 0.2 0.4 -2.8 0.4 -3 0 -4.3 -0.2 -2.7 -0.4z"/>
  <path d="M1449.8 205.3 c1.2 -0.2 3 -0.2 4 0 0.9 0.3 -0.1 0.5 -2.3 0.4 -2.2 0 -3 -0.2 -1.7 -0.4z"/>
  <path d="M1673.3 205.3 c1.5 -0.2 3.9 -0.2 5.5 0 1.5 0.2 0.2 0.4 -2.8 0.4 -3 0 -4.3 -0.2 -2.7 -0.4z"/>
  <path d="M1910.5 205.3 c1.7 -0.3 3.7 -1 4.5 -1.6 1.3 -1 1.3 -1 0.1 0.6 -0.8 1 -2.5 1.6 -4.5 1.6 l-3.1 -0.2 3 -0.4z"/>
  <path d="M2099.3 205.3 c1.5 -0.2 3.9 -0.2 5.5 0 1.5 0.2 0.2 0.4 -2.8 0.4 -3 0 -4.3 -0.2 -2.7 -0.4z"/>
  <path d="M1259.7 204.3 c1.8 -0.2 5 -0.2 7 0 2.1 0.2 0.7 0.4 -3.2 0.4 -3.8 0 -5.5 -0.2 -3.8 -0.4z"/>
  <path d="M1437.3 204.3 c1.5 -0.2 3.7 -0.2 5 0 1.2 0.2 0 0.4 -2.8 0.4 -2.7 0 -3.8 -0.2 -2.2 -0.4z"/>
  <path d="M1719.7 204.3 c1.8 -0.2 5 -0.2 7 0 2.1 0.2 0.7 0.4 -3.2 0.4 -3.8 0 -5.5 -0.2 -3.8 -0.4z"/>
  <path d="M214.8 203.3 c1.2 -0.2 3 -0.2 4 0 0.9 0.3 -0.1 0.5 -2.3 0.4 -2.2 0 -3 -0.2 -1.7 -0.4z"/>
  <path d="M446.8 203.3 c1.2 -0.2 3.2 -0.2 4.5 0 1.2 0.2 0.2 0.4 -2.3 0.4 -2.5 0 -3.5 -0.2 -2.2 -0.4z"/>
  <path d="M526.8 203.3 c1.2 -0.2 3 -0.2 4 0 0.9 0.3 -0.1 0.5 -2.3 0.4 -2.2 0 -3 -0.2 -1.7 -0.4z"/>
  <path d="M1894.3 203.3 c0.9 -0.2 2.5 -0.2 3.5 0 0.9 0.3 0.1 0.5 -1.8 0.5 -1.9 0 -2.7 -0.2 -1.7 -0.5z"/>
  <path d="M590.4 194 c0 -5.2 0.1 -7.4 0.3 -4.7 0.2 2.6 0.2 6.8 0 9.5 -0.2 2.6 -0.3 0.4 -0.3 -4.8z"/>
  <path d="M1458.3 198.5 c0 -2.2 0.2 -3 0.4 -1.7 0.2 1.2 0.2 3 0 4 -0.3 0.9 -0.5 -0.1 -0.4 -2.3z"/>
  <path d="M432.4 196.8 l-2.9 -3.3 3.3 2.9 c3 2.8 3.7 3.6 2.9 3.6 -0.2 0 -1.6 -1.5 -3.3 -3.2z"/>
  <path d="M1293.4 196.8 l-2.9 -3.3 3.3 2.9 c3 2.8 3.7 3.6 2.9 3.6 -0.2 0 -1.6 -1.5 -3.3 -3.2z"/>
  <path d="M1753.4 196.8 l-2.9 -3.3 3.3 2.9 c3 2.8 3.7 3.6 2.9 3.6 -0.2 0 -1.6 -1.5 -3.3 -3.2z"/>
  <path d="M187.2 168.3 l-0.2 -25.3 7.8 0.2 7.7 0.2 -7.2 0.3 -7.3 0.4 -0.3 24.7 -0.2 24.7 -0.3 -25.2z"/>
  <path d="M245 168.5 l0 -24.4 -7.2 -0.4 -7.3 -0.3 7.8 -0.2 7.7 -0.2 0 25 c0 13.8 -0.2 25 -0.5 25 -0.3 0 -0.5 -11 -0.5 -24.5z"/>
  <path d="M499.2 167.3 l-0.2 -24.3 7.8 0.2 7.7 0.2 -7.2 0.3 -7.3 0.4 -0.3 23.7 -0.2 23.7 -0.3 -24.2z"/>
  <path d="M543.2 166.8 l-0.2 -23.8 7.8 0.2 7.7 0.2 -7.2 0.3 -7.3 0.4 -0.3 23.2 -0.2 23.2 -0.3 -23.7z"/>
  <path d="M1205.8 188.3 c1.2 -0.2 3 -0.2 4 0 0.9 0.3 -0.1 0.5 -2.3 0.4 -2.2 0 -3 -0.2 -1.7 -0.4z"/>
  <path d="M1665.8 188.3 c1.2 -0.2 3 -0.2 4 0 0.9 0.3 -0.1 0.5 -2.3 0.4 -2.2 0 -3 -0.2 -1.7 -0.4z"/>
  <path d="M2091.8 188.3 c1.2 -0.2 3 -0.2 4 0 0.9 0.3 -0.1 0.5 -2.3 0.4 -2.2 0 -3 -0.2 -1.7 -0.4z"/>
  <path d="M106 179 l0 -5.9 -11.7 -0.4 -11.8 -0.3 12.3 -0.2 12.2 -0.2 0 6.5 c0 3.6 -0.2 6.5 -0.5 6.5 -0.3 0 -0.5 -2.7 -0.5 -6z"/>
  <path d="M1138.3 183.3 c5.3 -0.2 14.1 -0.2 19.5 0 5.3 0.1 0.9 0.3 -9.8 0.3 -10.7 0 -15.1 -0.2 -9.7 -0.3z"/>
  <path d="M425.2 179 c0 -1.9 0.2 -2.7 0.5 -1.7 0.2 0.9 0.2 2.5 0 3.5 -0.3 0.9 -0.5 0.1 -0.5 -1.8z"/>
  <path d="M301 177.3 c0 -0.5 1.2 -2 2.8 -3.4 l2.7 -2.4 -2.5 3 c-1.4 1.7 -2.6 3.2 -2.7 3.4 -0.2 0.2 -0.3 0 -0.3 -0.6z"/>
  <path d="M15.2 164.8 l0.3 -9.3 4.3 -0.1 4.2 -0.1 -4 0.4 -4 0.4 0 8.4 0 8.4 5.8 0.4 5.7 0.3 -6.3 0.2 -6.3 0.2 0.3 -9.2z"/>
  <path d="M144.7 173.3 c1.8 -0.2 5 -0.2 7 0 2.1 0.2 0.7 0.4 -3.2 0.4 -3.8 0 -5.5 -0.2 -3.8 -0.4z"/>
  <path d="M158.3 170.7 c1.2 -1.3 2.4 -2.2 2.6 -2 0.6 0.4 -3 4.3 -4 4.3 -0.5 0 0.2 -1 1.4 -2.3z"/>
  <path d="M590.4 171.7 c-0.3 -0.8 -0.4 -4.7 -0.2 -8.8 l0.3 -7.4 13.8 0 13.7 -0.1 -13.5 0.3 -13.5 0.4 0 7.9 0 7.9 11.8 0.4 11.7 0.3 -11.8 0.2 c-9.1 0.2 -11.9 -0.1 -12.3 -1.1z"/>
  <path d="M278.4 170.7 c-0.3 -0.8 -0.4 -4.5 -0.2 -8.3 l0.3 -6.9 3 -0.1 c2.8 -0.1 2.8 -0.1 0.3 0.3 -2.8 0.4 -2.8 0.5 -2.8 7.8 l0 7.4 4.3 0.4 4.2 0.4 -4.3 0.1 c-2.8 0.1 -4.4 -0.3 -4.8 -1.1z"/>
  <path d="M176.3 164.5 c0 -2.7 0.2 -3.8 0.4 -2.2 0.2 1.5 0.2 3.7 0 5 -0.2 1.2 -0.4 0 -0.4 -2.8z"/>
  <path d="M463.9 161.3 l-3.4 -3.8 3.8 3.4 c2 1.9 3.7 3.6 3.7 3.8 0 0.8 -0.8 0 -4.1 -3.4z"/>
  <path d="M1958.7 157.3 c1.8 -0.2 5 -0.2 7 0 2.1 0.2 0.7 0.4 -3.2 0.4 -3.8 0 -5.5 -0.2 -3.8 -0.4z"/>
  <path d="M144.3 155.3 c1.5 -0.2 3.9 -0.2 5.5 0 1.5 0.2 0.2 0.4 -2.8 0.4 -3 0 -4.3 -0.2 -2.7 -0.4z"/>
  <path d="M475.4 151.8 l-2.9 -3.3 3.3 2.9 c1.7 1.7 3.2 3.1 3.2 3.3 0 0.8 -0.8 0.1 -3.6 -2.9z"/>
  <path d="M7.8 143.3 c3.9 -0.2 10.5 -0.2 14.5 0 3.9 0.1 0.7 0.3 -7.3 0.3 -8 0 -11.2 -0.2 -7.2 -0.3z"/>
  <path d="M586.3 143.3 c5.9 -0.2 15.5 -0.2 21.5 0 5.9 0.1 1 0.3 -10.8 0.3 -11.8 0 -16.7 -0.2 -10.7 -0.3z"/>
  <path d="M443.3 141.3 c0.9 -0.2 2.5 -0.2 3.5 0 0.9 0.3 0.1 0.5 -1.8 0.5 -1.9 0 -2.7 -0.2 -1.7 -0.5z"/>
  <path d="M451.3 141.3 c0.9 -0.2 2.5 -0.2 3.5 0 0.9 0.3 0.1 0.5 -1.8 0.5 -1.9 0 -2.7 -0.2 -1.7 -0.5z"/>
  <path d="M101.9 130.8 l6.4 -6.7 -7.4 -0.4 -7.4 -0.3 7.8 -0.2 c4.2 -0.1 7.7 0.2 7.7 0.6 0 0.4 -3 3.7 -6.7 7.2 l-6.8 6.5 6.4 -6.7z"/>
  <path d="M0 48 l0 -48 62.3 0 c61.3 0 62.1 0.1 58.1 1.9 -2.2 1 -5.1 3.3 -6.5 5 -1.3 1.7 -3.7 4.6 -5.2 6.4 -1.5 1.7 -3.7 5.1 -4.8 7.4 -2 4.1 -2 4.4 -0.3 12.8 0.9 4.8 2.7 10.1 3.8 11.8 4 5.9 4 5.9 1.5 5.6 -1.3 -0.1 -3.8 0.1 -5.5 0.5 -2 0.4 -4 0.2 -6 -0.9 -3.7 -1.9 -4.4 -1.9 -11.8 0.2 l-5.9 1.7 6.2 1.2 c3.5 0.7 7.4 2 8.8 2.9 3.2 2.1 7.1 2.2 11 0.1 l3.3 -1.6 -0.7 3.2 c-0.3 1.8 -1.3 3.8 -2.2 4.5 -0.9 0.7 -1.1 1.3 -0.6 1.3 0.6 0 -1.9 1.8 -5.4 4 -7.6 4.6 -9 7.4 -3.3 6.4 4.4 -0.8 10.3 -3.6 12.1 -5.8 1.9 -2.2 3.4 -2 2.1 0.3 -1.7 3.2 -7.3 6 -15.3 7.5 -8.2 1.6 -12.6 4 -12.4 6.9 0.2 2.1 0.2 2.1 3.6 -0.4 1.9 -1.4 5.2 -2.4 9.3 -2.8 4.5 -0.5 8.7 -1.8 13.8 -4.4 12.1 -6.1 12.9 -5 3.3 4.5 -5.3 5.2 -8.9 7.7 -16.4 11.2 l-9.7 4.6 -43.6 0 -43.6 0 0 -48z"/>
 </g>
 <g fill="#7f7f7f">
  <path d="M69 535.7 c0 -0.2 1.5 -1.6 3.3 -3.3 l3.2 -2.9 -2.9 3.3 c-2.8 3 -3.6 3.7 -3.6 2.9z"/>
  <path d="M220 515 l-3.5 -0.7 3.2 -0.2 c1.7 0 3.5 0.4 3.8 0.9 0.3 0.6 0.5 0.9 0.3 0.9 -0.2 -0.1 -1.9 -0.5 -3.8 -0.9z"/>
  <path d="M103.6 514.2 c-0.2 -0.4 1.1 -0.6 3 -0.4 1.9 0.2 3.4 0.6 3.4 0.8 0 0.8 -5.9 0.4 -6.4 -0.4z"/>
  <path d="M22.3 502.3 c4.3 -0.2 11 -0.2 15 0 4 0.1 0.5 0.3 -7.8 0.3 -8.2 0 -11.5 -0.2 -7.2 -0.3z"/>
  <path d="M44.8 488.3 c1.2 -0.2 3.2 -0.2 4.5 0 1.2 0.2 0.2 0.4 -2.3 0.4 -2.5 0 -3.5 -0.2 -2.2 -0.4z"/>
  <path d="M8.8 475.3 c4.5 -0.2 11.9 -0.2 16.5 0 4.5 0.1 0.8 0.3 -8.3 0.3 -9.1 0 -12.8 -0.2 -8.2 -0.3z"/>
  <path d="M25 457 l-5.5 -0.7 5.2 -0.1 c2.8 -0.1 5.5 0.3 5.8 0.8 0.3 0.6 0.5 0.9 0.3 0.8 -0.2 -0.1 -2.8 -0.4 -5.8 -0.8z"/>
  <path d="M63.3 448.3 c1.5 -0.2 3.9 -0.2 5.5 0 1.5 0.2 0.2 0.4 -2.8 0.4 -3 0 -4.3 -0.2 -2.7 -0.4z"/>
  <path d="M146.6 448.2 c-0.2 -0.4 1.1 -0.6 3 -0.4 1.9 0.2 3.4 0.6 3.4 0.8 0 0.8 -5.9 0.4 -6.4 -0.4z"/>
  <path d="M5.5 409.3 c12.1 -0.7 25.3 -0.7 24.8 0 -0.2 0.4 -7 0.6 -15.1 0.5 -8.1 -0.1 -12.4 -0.3 -9.7 -0.5z"/>
  <path d="M84.2 403 c0 -1.9 0.2 -2.7 0.5 -1.7 0.2 0.9 0.2 2.5 0 3.5 -0.3 0.9 -0.5 0.1 -0.5 -1.8z"/>
  <path d="M28 403.7 c0 -0.2 1.5 -1.6 3.3 -3.3 l3.2 -2.9 -2.9 3.3 c-2.8 3 -3.6 3.7 -3.6 2.9z"/>
  <path d="M303 335.3 c0 -0.5 2.4 -0.7 5.2 -0.5 8.9 0.5 9.7 0.9 2.1 1.1 -4 0 -7.3 -0.2 -7.3 -0.6z"/>
  <path d="M15.5 303.8 l0 -15.3 11.8 0 11.7 -0.1 -11.5 0.3 -11.4 0.4 -0.4 14.9 -0.3 15 0.1 -15.2z"/>
  <path d="M55.5 283 c0 -20.1 0.1 -28.3 0.2 -18.2 0.2 10 0.2 26.4 0 36.5 -0.1 10 -0.2 1.8 -0.2 -18.3z"/>
  <path d="M267.5 283 c0 -20.1 0.1 -28.3 0.2 -18.2 0.2 10 0.2 26.4 0 36.5 -0.1 10 -0.2 1.8 -0.2 -18.3z"/>
  <path d="M437.5 283 c0 -20.1 0.1 -28.3 0.2 -18.2 0.2 10 0.2 26.4 0 36.5 -0.1 10 -0.2 1.8 -0.2 -18.3z"/>
  <path d="M531.5 283 c0 -20.1 0.1 -28.3 0.2 -18.2 0.2 10 0.2 26.4 0 36.5 -0.1 10 -0.2 1.8 -0.2 -18.3z"/>
  <path d="M546.4 297.5 l0.1 -9 11.2 -0.3 11.2 -0.3 0.4 -5.9 0.4 -6 -0.1 6.2 -0.1 6.3 -11.2 0.3 -11.2 0.3 -0.4 8.7 -0.3 8.7 0 -9z"/>
  <path d="M516.2 299 c0 -1.9 0.2 -2.7 0.5 -1.7 0.2 0.9 0.2 2.5 0 3.5 -0.3 0.9 -0.5 0.1 -0.5 -1.8z"/>
  <path d="M296.2 283 c0 -1.9 0.2 -2.7 0.5 -1.7 0.2 0.9 0.2 2.5 0 3.5 -0.3 0.9 -0.5 0.1 -0.5 -1.8z"/>
  <path d="M15.4 267.5 l0.1 -8 13.5 0 13.5 -0.1 -13.2 0.3 -13.2 0.4 -0.4 7.7 -0.3 7.7 0 -8z"/>
  <path d="M546.4 267.5 l0.1 -8 13.5 0 13.5 -0.1 -13.2 0.3 -13.2 0.4 -0.4 7.7 -0.3 7.7 0 -8z"/>
  <path d="M951.4 274.6 c-3.4 -1.5 -4.4 -3.2 -4.4 -7.9 0 -2.9 4.2 -7.5 41.8 -45 45.2 -45.2 44.1 -44.3 49.9 -39.3 l2.8 2.4 0.3 19.3 c0.4 21.7 -0.2 24.3 -5.4 26.5 -3.7 1.5 -5.8 1.1 -9.1 -1.9 -2.1 -1.8 -2.3 -3 -2.3 -10.6 l0 -8.6 -32.8 32.8 c-18 18 -33.3 32.7 -33.9 32.7 -0.6 0 -1.7 0.2 -2.5 0.5 -0.7 0.2 -2.7 -0.2 -4.4 -0.9z"/>
  <path d="M335.4 265.8 l-2.9 -3.3 3.3 2.9 c3 2.8 3.7 3.6 2.9 3.6 -0.2 0 -1.6 -1.5 -3.3 -3.2z"/>
  <path d="M72.3 259.3 c1.5 -0.2 3.9 -0.2 5.5 0 1.5 0.2 0.2 0.4 -2.8 0.4 -3 0 -4.3 -0.2 -2.7 -0.4z"/>
  <path d="M346.4 255.8 l-2.9 -3.3 3.3 2.9 c3 2.8 3.7 3.6 2.9 3.6 -0.2 0 -1.6 -1.5 -3.3 -3.2z"/>
  <path d="M1182.4 230 c0 -14.6 0.2 -20.5 0.3 -13.2 0.2 7.2 0.2 19.2 0 26.5 -0.1 7.2 -0.3 1.3 -0.3 -13.3z"/>
  <path d="M1642.4 230 c0 -14.6 0.2 -20.5 0.3 -13.2 0.2 7.2 0.2 19.2 0 26.5 -0.1 7.2 -0.3 1.3 -0.3 -13.3z"/>
  <path d="M1933.5 218 c0 -21.2 0.1 -29.8 0.2 -19.3 0.2 10.6 0.2 28 0 38.5 -0.1 10.6 -0.2 2 -0.2 -19.2z"/>
  <path d="M2068.4 230 c0 -14.6 0.2 -20.5 0.3 -13.2 0.2 7.2 0.2 19.2 0 26.5 -0.1 7.2 -0.3 1.3 -0.3 -13.3z"/>
  <path d="M1860.3 249.5 c0 -2.2 0.2 -3 0.4 -1.7 0.2 1.2 0.2 3 0 4 -0.3 0.9 -0.5 -0.1 -0.4 -2.3z"/>
  <path d="M1263.3 245.3 c2.6 -0.2 6.7 -0.2 9 0 2.3 0.2 0.2 0.3 -4.8 0.3 -4.9 0 -6.8 -0.1 -4.2 -0.3z"/>
  <path d="M1724.3 245.3 c2.6 -0.2 6.7 -0.2 9 0 2.3 0.2 0.2 0.3 -4.8 0.3 -4.9 0 -6.8 -0.1 -4.2 -0.3z"/>
  <path d="M1920.3 238.5 c0 -2.2 0.2 -3 0.4 -1.7 0.2 1.2 0.2 3 0 4 -0.3 0.9 -0.5 -0.1 -0.4 -2.3z"/>
  <path d="M1585.4 208 c0 -17.3 0.2 -24.4 0.3 -15.7 0.2 8.6 0.2 22.8 0 31.5 -0.1 8.6 -0.3 1.5 -0.3 -15.8z"/>
  <path d="M2122.4 208 c0 -17.3 0.2 -24.4 0.3 -15.7 0.2 8.6 0.2 22.8 0 31.5 -0.1 8.6 -0.3 1.5 -0.3 -15.8z"/>
  <path d="M496.8 225.5 c-0.1 -3.6 0 -6.5 0.5 -6.5 0.4 0 0.7 2.9 0.7 6.5 0 3.6 -0.2 6.5 -0.4 6.5 -0.2 0 -0.6 -2.9 -0.8 -6.5z"/>
  <path d="M15.4 200.5 c0 -8.2 0.2 -11.5 0.3 -7.2 0.2 4.3 0.2 11 0 15 -0.1 4 -0.3 0.5 -0.3 -7.8z"/>
  <path d="M68.5 179 c0 -20.1 0.1 -28.3 0.2 -18.3 0.2 10.1 0.2 26.5 0 36.5 -0.1 10.1 -0.2 1.9 -0.2 -18.2z"/>
  <path d="M110.3 209 c0 -3.6 0.2 -5 0.4 -3.2 0.2 1.7 0.2 4.7 0 6.5 -0.2 1.7 -0.4 0.3 -0.4 -3.3z"/>
  <path d="M263.5 179 c0 -20.1 0.1 -28.3 0.2 -18.3 0.2 10.1 0.2 26.5 0 36.5 -0.1 10.1 -0.2 1.9 -0.2 -18.2z"/>
  <path d="M1611.3 205.3 c3.1 -0.2 8.3 -0.2 11.5 0 3.1 0.2 0.5 0.3 -5.8 0.3 -6.3 0 -8.9 -0.1 -5.7 -0.3z"/>
  <path d="M1959.3 205.3 c3.1 -0.2 8.3 -0.2 11.5 0 3.1 0.2 0.5 0.3 -5.8 0.3 -6.3 0 -8.9 -0.1 -5.7 -0.3z"/>
  <path d="M2148.3 205.3 c3.1 -0.2 8.3 -0.2 11.5 0 3.1 0.2 0.5 0.3 -5.8 0.3 -6.3 0 -8.9 -0.1 -5.7 -0.3z"/>
  <path d="M1261.3 204.3 c1.5 -0.2 3.9 -0.2 5.5 0 1.5 0.2 0.2 0.4 -2.8 0.4 -3 0 -4.3 -0.2 -2.7 -0.4z"/>
  <path d="M1721.3 204.3 c1.5 -0.2 3.9 -0.2 5.5 0 1.5 0.2 0.2 0.4 -2.8 0.4 -3 0 -4.3 -0.2 -2.7 -0.4z"/>
  <path d="M278.4 193.5 c0 -5.5 0.1 -7.6 0.3 -4.7 0.2 2.9 0.2 7.4 0 10 -0.2 2.6 -0.3 0.2 -0.3 -5.3z"/>
  <path d="M1238.3 199.5 c0 -2.2 0.2 -3 0.4 -1.7 0.2 1.2 0.2 3 0 4 -0.3 0.9 -0.5 -0.1 -0.4 -2.3z"/>
  <path d="M1698.3 199.5 c0 -2.2 0.2 -3 0.4 -1.7 0.2 1.2 0.2 3 0 4 -0.3 0.9 -0.5 -0.1 -0.4 -2.3z"/>
  <path d="M312.2 194 c0 -1.9 0.2 -2.7 0.5 -1.7 0.2 0.9 0.2 2.5 0 3.5 -0.3 0.9 -0.5 0.1 -0.5 -1.8z"/>
  <path d="M499.4 167 c0 -13.5 0.2 -19 0.3 -12.2 0.2 6.7 0.2 17.7 0 24.5 -0.1 6.7 -0.3 1.2 -0.3 -12.3z"/>
  <path d="M106.3 178.5 c0 -3.8 0.2 -5.3 0.4 -3.2 0.2 2 0.2 5.2 0 7 -0.2 1.7 -0.4 0.1 -0.4 -3.8z"/>
  <path d="M1139.3 183.3 c5.4 -0.2 13.9 -0.2 19 0 5.1 0.1 0.7 0.3 -9.8 0.3 -10.4 0 -14.6 -0.2 -9.2 -0.3z"/>
  <path d="M410.3 179 c0 -2.5 0.2 -3.5 0.4 -2.2 0.2 1.2 0.2 3.2 0 4.5 -0.2 1.2 -0.4 0.2 -0.4 -2.3z"/>
  <path d="M15.4 172.7 c-0.3 -0.8 -0.3 -4.9 -0.1 -9.3 l0.3 -7.9 0.2 8.7 0.2 8.7 5.3 0.4 5.2 0.3 -5.3 0.2 c-3.6 0.1 -5.4 -0.2 -5.8 -1.1z"/>
  <path d="M144.8 173.3 c1.7 -0.2 4.7 -0.2 6.5 0 1.7 0.2 0.3 0.4 -3.3 0.4 -3.6 0 -5 -0.2 -3.2 -0.4z"/>
  <path d="M1592.8 172.3 c1.7 -0.2 4.7 -0.2 6.5 0 1.7 0.2 0.3 0.4 -3.3 0.4 -3.6 0 -5 -0.2 -3.2 -0.4z"/>
  <path d="M2129.8 172.3 c1.7 -0.2 4.7 -0.2 6.5 0 1.7 0.2 0.3 0.4 -3.3 0.4 -3.6 0 -5 -0.2 -3.2 -0.4z"/>
  <path d="M278.3 163.5 c0 -4.4 0.2 -6.1 0.4 -3.7 0.2 2.3 0.2 5.9 0 8 -0.2 2 -0.4 0.1 -0.4 -4.3z"/>
  <path d="M48.2 165 c0 -1.9 0.2 -2.7 0.5 -1.7 0.2 0.9 0.2 2.5 0 3.5 -0.3 0.9 -0.5 0.1 -0.5 -1.8z"/>
  <path d="M110.3 149.5 c0 -3.8 0.2 -5.3 0.4 -3.2 0.2 2 0.2 5.2 0 7 -0.2 1.7 -0.4 0.1 -0.4 -3.8z"/>
  <path d="M0 48 l0 -48 62.3 0 c61.3 0 62.1 0.1 58.1 1.9 -2.2 1 -5.1 3.3 -6.5 5 -1.3 1.7 -3.7 4.6 -5.2 6.4 -1.5 1.7 -3.7 5.1 -4.8 7.4 -2 4.1 -2 4.4 -0.3 12.8 0.9 4.8 2.7 10.1 3.8 11.8 4 5.8 4 5.8 0.9 5.6 -1.5 -0.2 -3.8 0.1 -5.1 0.5 -1.5 0.5 -3.6 0.2 -5.9 -0.9 -3.1 -1.5 -4.4 -1.6 -8.6 -0.6 -2.7 0.6 -5.4 0.8 -5.9 0.4 -0.7 -0.3 -0.8 -0.1 -0.4 0.5 0.4 0.7 0 1.2 -1.1 1.3 -1 0 1.1 0.7 4.6 1.4 3.5 0.8 7.4 2.1 8.8 3 3.2 2.1 7.1 2.2 11 0.1 l3.3 -1.6 -0.7 3.2 c-0.3 1.8 -1.3 3.8 -2.2 4.5 -0.9 0.7 -1.1 1.3 -0.6 1.3 0.6 0 -1.9 1.8 -5.4 4 -7.6 4.6 -9 7.4 -3.3 6.4 4.4 -0.8 10.3 -3.6 12.1 -5.8 1.9 -2.2 3.4 -2 2.1 0.3 -1.7 3.2 -7.3 6 -15.3 7.5 -8.2 1.6 -12.6 4 -12.4 6.9 0.2 2.1 0.2 2.1 3.6 -0.4 1.9 -1.4 5.2 -2.4 9.3 -2.8 4.5 -0.5 8.7 -1.8 13.8 -4.4 12.1 -6.1 12.9 -5 3.3 4.5 -5.3 5.2 -8.9 7.7 -16.4 11.2 l-9.7 4.6 -43.6 0 -43.6 0 0 -48z"/>
  <path d="M156 93.1 c-3.6 -1.4 -7.1 -3 -7.7 -3.4 -3.3 -2.1 0.8 -15 5.4 -17.3 1.5 -0.7 4.4 -0.7 9.4 -0.1 6.9 1 7.3 0.9 9.1 -1.3 1 -1.3 1.6 -3.1 1.3 -4.1 -0.3 -0.9 -0.1 -2 0.5 -2.4 0.7 -0.4 0.9 -1.8 0.6 -3.1 -0.4 -1.3 -0.2 -2.4 0.4 -2.4 0.5 0 0.7 -1.3 0.4 -3 -0.5 -2.4 -0.3 -3 1 -3 3 0 2.9 -2.9 -0.3 -7.8 -2.3 -3.6 -3.1 -6 -3.1 -9.4 0 -2.4 -0.7 -6.8 -1.6 -9.7 -0.8 -2.9 -1.3 -5.9 -1 -6.7 0.7 -1.9 0.7 -2.4 0 -2.3 -0.4 0 -1 -0.3 -1.3 -0.8 -0.3 -0.4 -2.1 -2.1 -3.9 -3.6 -2.9 -2.3 -3.1 -2.7 -1.3 -2.7 1.1 0 2.5 -0.8 3 -1.9 1.2 -2.1 0.1 -3.8 -3.9 -6.5 -2.3 -1.5 0.9 -1.6 48.8 -1.6 l51.2 0 0 48 0 48 -50.2 -0.1 -50.3 -0.1 -6.5 -2.7z"/>
  <path d="M164.3 41.6 c-2.1 -1.2 -2.1 -1.2 0.8 -3.1 3.7 -2.6 3.7 -3.5 -0.3 -3.6 l-3.3 -0.1 3 -0.9 c3 -0.9 6.5 -0.4 6.5 1 0 0.4 -0.7 1.6 -1.5 2.7 -0.8 1 -1.5 2.7 -1.5 3.7 0 1.9 -0.6 2 -3.7 0.3z"/>
 </g>
 <g fill="#7f7dd0">
  <path d="M923.1 245.9 c-4.8 -1.9 -5 -3.1 -5.1 -25 0 -19.3 0.1 -20.7 2 -22.7 2.7 -2.9 6.3 -3.7 9.6 -2 4 1.9 5.4 5.3 5.4 13.3 l0 6.9 32.3 -32.1 c22.2 -22.2 33.1 -32.4 35.1 -32.9 5.8 -1.4 11.6 4.4 10.2 10.2 -0.5 2 -12.6 14.8 -40.4 42.8 -33.4 33.5 -43.9 43.1 -46.4 42.5 -0.2 0 -1.4 -0.5 -2.7 -1z"/>
  <path d="M0 48 l0 -48 61.8 0 c61.6 0.1 61.7 0.1 58 2 -2 1.1 -4.7 3.3 -6 5 -1.2 1.7 -3.6 4.5 -5.1 6.3 -1.5 1.7 -3.7 5.1 -4.8 7.4 -2 4.1 -2 4.4 -0.3 12.8 0.9 4.8 2.7 10.1 3.8 11.8 4 5.8 4 5.8 0.9 5.6 -1.5 -0.2 -3.8 0.1 -5.1 0.5 -1.5 0.5 -3.6 0.2 -5.9 -0.9 -3.1 -1.5 -4.4 -1.6 -8.6 -0.6 -2.7 0.6 -5.4 0.8 -5.9 0.4 -0.7 -0.3 -0.8 -0.1 -0.4 0.5 0.4 0.7 0 1.2 -1.1 1.3 -1 0 1.1 0.7 4.6 1.4 3.5 0.8 7.4 2.1 8.8 3 2.9 2 7.1 2.2 10 0.6 1.2 -0.6 2.6 -1.1 3.1 -1.1 1.4 0 0.1 5.4 -1.7 6.7 -0.9 0.7 -1.1 1.3 -0.6 1.3 0.6 0 -1.9 1.8 -5.4 4 -7.6 4.6 -9 7.4 -3.3 6.4 4.4 -0.8 10.3 -3.6 12.1 -5.8 1.9 -2.2 3.4 -2 2.1 0.3 -1.7 3.2 -7.3 6 -15.3 7.5 -8.2 1.6 -12.6 4 -12.4 6.9 0.2 2.1 0.2 2.1 3.6 -0.4 1.9 -1.4 5.2 -2.4 9.3 -2.8 4.5 -0.5 8.7 -1.8 13.8 -4.4 12.1 -6.1 12.9 -5 3.3 4.5 -5.3 5.2 -8.9 7.7 -16.4 11.2 l-9.7 4.6 -43.6 0 -43.6 0 0 -48z"/>
 </g>
 <g fill="#00018c">
  <path d="M920.1 243.4 c-2 -2.5 -2.1 -4 -2.1 -22.4 0 -18.4 0.1 -19.9 2.1 -22.4 2.6 -3.3 8.8 -3.7 11.9 -0.6 1.7 1.7 2 3.3 2 10.5 0 4.7 0.3 8.5 0.8 8.5 0.4 0 15.3 -14.6 33.2 -32.5 29 -29 32.8 -32.5 35.7 -32.5 1.7 0 3.9 0.3 4.8 0.6 2.2 0.9 4.3 5.9 3.8 8.8 -0.3 1.4 -17.6 19.4 -41.7 43.5 -39.2 39.1 -41.3 41.1 -44.8 41.1 -2.8 0 -4.2 -0.6 -5.7 -2.6z"/>
  <path d="M1 48 l0 -48 61.3 0 c60 0 61.1 0.1 57.2 1.9 -4.2 1.9 -12.6 12 -16.1 19.4 -1.7 3.5 -1.7 4.2 -0.1 12.4 1.1 5.7 2.6 9.9 4.3 12.5 3.1 4.4 2.9 5.3 -0.8 3.4 -2.1 -1.1 -2.6 -1.1 -2.2 -0.1 0.8 2 -2.4 2.6 -5.4 1.1 -4.7 -2.4 -11.6 -3 -13.5 -1.1 -0.9 0.9 -2.2 1.3 -2.8 0.9 -0.6 -0.3 -1.5 -0.1 -1.9 0.6 -0.6 0.9 -1.3 0.9 -2.8 0.1 -2 -1.1 -4.2 0.2 -2.8 1.6 0.3 0.4 0.6 0.1 0.6 -0.7 0 -0.9 0.4 -0.9 1.3 -0.2 0.6 0.5 3.5 1.3 6.2 1.6 2.8 0.4 7.5 1.9 10.4 3.3 5.3 2.6 5.6 2.6 9.8 1.1 2.4 -0.9 4.3 -1.1 4.3 -0.6 0 1.7 -3.2 7.8 -4 7.8 -0.5 0 -1.5 0.6 -2.2 1.3 -0.7 0.7 -3.1 2.3 -5.4 3.6 -2.2 1.3 -4.1 3 -4.1 3.8 0 2.5 8 1 14 -2.6 l5.2 -3.1 -3.9 3.4 c-2.7 2.5 -5.1 3.7 -8.5 4.1 -7.9 1.1 -12.5 2.6 -14.8 4.8 -2.3 2 -3.2 4.4 -1.3 3.2 0.6 -0.3 0.7 0.1 0.4 0.9 -0.3 0.9 -1 1.4 -1.4 1.1 -0.4 -0.3 -1 0.2 -1.4 1 -0.8 2.2 0.1 1.9 4.3 -1.5 4.1 -3.4 8.8 -5 14.1 -5 2.1 0 6.7 -1.6 11.7 -4.2 4.6 -2.3 8.6 -3.9 8.9 -3.5 0.3 0.3 -2 3.4 -5.2 6.7 -4.6 4.8 -8.2 7.3 -16.6 11.6 l-10.8 5.4 -43 0 -43 0 0 -48z"/>
 </g>
 <g fill="#030279">
  <path d="M920.9 244.1 c-2.4 -1.9 -2.4 -2.1 -2.4 -23.1 0 -21 0 -21.2 2.4 -23.1 3.2 -2.6 8.2 -2.5 10.9 0.4 1.9 2 2.2 3.4 2 10.3 l-0.1 7.9 -0.6 -8.3 c-0.5 -6.8 -1 -8.6 -2.6 -9.8 -2.6 -2 -7.4 -1.1 -9.8 1.8 -1.6 2 -1.8 4 -1.5 21.4 0.3 21.4 0.6 22.4 6.8 23.1 2.9 0.3 5.8 -2.3 44.1 -40.7 37.6 -37.7 40.9 -41.2 40.9 -44.3 0 -4.9 -2.8 -7.1 -7.7 -6.2 -3.3 0.6 -7.7 4.6 -33.4 30.3 -16.3 16.4 -30.9 30.8 -32.5 32.2 -1.6 1.3 12 -12.5 30.1 -30.8 31 -31.1 33.3 -33.2 36.6 -33.2 4.6 0 7.9 3.3 7.9 8.1 0 3.1 -3 6.4 -41.3 44.6 -36.7 36.8 -41.6 41.3 -44.4 41.3 -1.7 0 -4.1 -0.9 -5.4 -1.9z"/>
  <path d="M1 47.5 l0 -47.5 61.2 0 61.2 0 -4.4 2.3 c-4.2 2.1 -6.8 5 -14.1 15.7 -2.8 4.1 -3 5 -2.5 11 0.3 4.1 0.1 5.7 -0.4 4.5 -1.3 -3 -1.2 -10 0.2 -13.2 0.7 -1.5 2.5 -4.1 4 -5.8 1.6 -1.6 2.8 -3.5 2.8 -4 0 -0.6 1.6 -2.7 3.6 -4.8 l3.6 -3.7 -57.1 0 -57.1 0 0 46 0 46 31.3 0.3 31.2 0.2 -31.7 0.3 -31.8 0.2 0 -47.5z"/>
  <path d="M77.6 94.1 c9 -0.5 12.7 -1 14.7 -2.3 1.4 -1 3.2 -1.8 3.9 -1.8 0.7 0 -0.7 1.1 -3.1 2.5 -4 2.3 -5.2 2.5 -16 2.3 l-11.6 -0.2 12.1 -0.5z"/>
  <path d="M98 89.5 c0 -0.2 1.9 -1.4 4.3 -2.6 4.1 -2.1 12.7 -9.5 12.7 -11.1 0 -1 -2.9 0.1 -6.3 2.4 -1.5 1.1 -3.2 1.8 -3.7 1.6 -0.6 -0.2 2.4 -2.1 6.5 -4.2 4.1 -2.2 7.7 -3.8 7.9 -3.5 1 0.9 -10.9 12.6 -15.5 15.2 -4.5 2.7 -5.9 3.2 -5.9 2.2z"/>
  <path d="M64.7 86.3 c0.5 -1.1 0.3 -1.4 -0.6 -0.8 -2.2 1.3 -0.1 -3.6 2.3 -5.7 1.4 -1.2 3.1 -1.6 5.1 -1.2 2.3 0.4 2.6 0.3 1.5 -0.5 -1.5 -1.1 -1.3 -1.2 2.8 -1.5 2.1 -0.1 2.4 3.6 0.2 4.1 -1.3 0.4 -1.3 0.3 0 -0.6 0.8 -0.6 1.1 -1.1 0.5 -1.1 -0.5 0 -2.1 0.9 -3.5 2 -1.5 1.2 -1.8 1.8 -0.7 1.4 3.4 -1.2 1.6 0.4 -3.3 3 -3.9 2.1 -4.8 2.2 -4.3 0.9z m4.6 -7.2 c-0.4 -0.6 -4.3 3 -4.3 4 0 0.5 1 -0.2 2.3 -1.4 1.3 -1.2 2.2 -2.4 2 -2.6z"/>
  <path d="M82.3 86.6 c0 -0.8 0.3 -1.4 0.6 -1.3 0.3 0.1 2.2 -0.8 4.2 -2.1 3.8 -2.3 16.8 -4.4 15.6 -2.5 -0.3 0.5 -2.9 1.1 -5.6 1.2 -5.7 0.2 -10.1 1.5 -10.1 3.1 0 0.5 -0.7 1 -1.5 1 -0.8 0 -1.5 0.5 -1.5 1 0 0.6 -0.4 1 -0.8 1 -0.5 0 -0.9 -0.6 -0.9 -1.4z"/>
  <path d="M85 78.6 c0 -1.2 4.1 -2.6 10.5 -3.6 4.7 -0.7 8.2 -2 11.4 -4.2 3.6 -2.5 4.2 -2.7 2.6 -0.9 -2.9 3.4 -6.4 4.9 -14 6.1 -3.7 0.6 -7.6 1.5 -8.6 2.1 -1.1 0.5 -1.9 0.7 -1.9 0.5z"/>
  <path d="M91.7 73.3 c-1.4 -1.3 -0.6 -2.3 3.5 -4.3 5.4 -2.6 6.1 -1.9 0.9 1.1 -2.2 1.2 -3.8 2.6 -3.5 3.1 0.6 1 0 1.1 -0.9 0.1z"/>
  <path d="M65.7 71 c-0.4 -1.6 0.4 -2.7 3.4 -4.7 3.7 -2.4 5.3 -4.1 2.7 -2.8 -0.7 0.4 -0.4 0 0.6 -0.9 1.7 -1.4 1.7 -1.6 0.3 -2.2 -1.3 -0.5 -1.4 -1 -0.6 -2.6 0.8 -1.6 0.8 -1.9 -0.1 -1.3 -0.8 0.5 -1.1 0.3 -0.8 -0.6 0.3 -0.8 1.2 -1.2 1.9 -1 0.8 0.2 2.4 0.4 3.6 0.4 1.3 -0.1 2.1 0.3 1.8 0.7 -0.3 0.5 0 1.2 0.6 1.6 0.8 0.4 0.9 0.3 0.5 -0.4 -0.4 -0.7 -0.1 -1.2 0.8 -1.2 2 0 2.9 1.7 1.4 2.4 -0.7 0.3 0 0.4 1.5 0.1 4.1 -0.8 11.3 2.6 11.3 5.3 0 1.7 -0.5 2.1 -1.8 1.6 -1.2 -0.4 -1.8 -0.1 -1.6 0.8 0.2 1 -1 1.2 -4.7 1.1 -4.2 -0.2 -4.6 0 -2.5 0.8 3.1 1.3 1.1 2.8 -2.7 2.1 -1.9 -0.4 -2.2 -0.7 -1.1 -1.4 0.9 -0.7 0.8 -0.8 -0.5 -0.4 -1.1 0.3 -3.1 0.9 -4.5 1.3 -1.4 0.3 -3.7 1.2 -5.1 1.9 -3.4 1.8 -3.8 1.8 -4.4 -0.6z"/>
  <path d="M102.4 64.5 c1.1 -0.8 2.2 -1.2 2.5 -0.9 0.6 0.6 -1.9 2.4 -3.4 2.4 -0.5 -0.1 -0.1 -0.7 0.9 -1.5z"/>
  <path d="M57.1 64.5 c0.3 -2.2 -0.2 -2.9 -1.1 -1.5 -0.5 0.8 -1 1 -1 0.5 0 -0.6 1.4 -2.6 3.1 -4.5 1.7 -1.9 2.7 -2.9 2.3 -2.1 -0.4 0.9 -0.3 1.2 0.4 0.7 0.6 -0.4 0.9 -1.3 0.5 -2.1 -0.3 -0.8 0 -1.5 0.6 -1.5 0.5 0 1.9 -1 3.1 -2.2 1.1 -1.2 2.3 -1.8 2.7 -1.5 0.9 0.9 5.4 -3.3 4.7 -4.4 -0.6 -1 4.6 -3.3 5.4 -2.4 0.3 0.3 0 0.5 -0.6 0.5 -0.7 0 -1.1 0.4 -0.9 0.9 0.1 0.4 -0.9 1.8 -2.3 3 -1.4 1.3 -2 2 -1.4 1.7 0.7 -0.3 1.5 0.2 1.8 1.1 0.4 1 0.4 1.4 0 1.1 -0.4 -0.4 -1.6 0.4 -2.6 1.8 -1.1 1.4 -2.8 2.4 -3.7 2.2 -0.9 -0.1 -3.7 2 -6.4 4.7 -2.6 2.8 -4.7 4.6 -4.6 4z m4.5 -4.7 l2.9 -3.3 -3.1 2.8 c-1.7 1.5 -3.4 2.4 -3.9 2 -0.4 -0.5 -0.5 -0.2 -0.1 0.5 0.9 1.6 0.8 1.7 4.2 -2z"/>
  <path d="M105.7 61.4 c-0.4 -0.4 -0.1 -1.4 0.6 -2.2 1 -1.4 0.9 -1.5 -0.8 -0.7 -1.1 0.4 -3.6 0.9 -5.5 1.1 l-3.5 0.3 3.8 -0.9 c2.1 -0.6 4.7 -1.5 5.8 -2 1.4 -0.8 1.9 -0.7 1.8 0.2 -0.1 2.4 -1.5 4.9 -2.2 4.2z"/>
  <path d="M84.5 55 c-0.7 -1.2 2.2 -1.2 5 0 1.7 0.7 1.5 0.9 -1.2 0.9 -1.7 0.1 -3.5 -0.3 -3.8 -0.9z"/>
  <path d="M76.3 53 c0.1 -0.8 0.6 -2.1 1.1 -2.8 0.4 -0.7 0.4 -1.2 -0.1 -1.1 -2.8 0.5 -3.6 -0.2 -1.7 -1.5 2 -1.5 13.6 -1.7 15 -0.3 0.4 0.4 -0.2 0.7 -1.4 0.7 -1.1 0 -2.7 0.7 -3.6 1.5 -0.8 0.8 -2.2 1.2 -3 0.9 -0.9 -0.3 -1.6 -0.1 -1.6 0.6 0 0.7 -0.8 0.9 -2.2 0.5 -1.6 -0.5 -2 -0.4 -1.3 0.3 0.6 0.6 2.1 1.2 3.5 1.4 2 0.3 1.8 0.5 -1.2 0.9 -3 0.4 -3.7 0.2 -3.5 -1.1z"/>
  <path d="M99.5 50.4 c-1.5 -0.8 -3.7 -1.5 -4.9 -1.5 -1.8 -0.1 -1.9 -0.2 -0.2 -0.6 1 -0.3 2.9 0.1 4.2 0.7 1.2 0.7 3.2 1 4.3 0.7 1.2 -0.3 2.1 -0.2 2.1 0.3 0 1.6 -2.8 1.8 -5.5 0.4z"/>
  <path d="M68 49.6 c0 -1.1 3 -3.9 3.6 -3.4 0.2 0.3 -0.5 1.3 -1.6 2.3 -1.1 1 -2 1.5 -2 1.1z"/>
  <path d="M105.9 47.4 c-1.4 -3.8 -0.5 -4 2.1 -0.5 1.8 2.6 1.9 3.1 0.5 3.1 -0.8 0 -2 -1.2 -2.6 -2.6z"/>
  <path d="M103.7 42.3 c-0.4 -0.3 -0.7 -2 -0.6 -3.7 l0.1 -3.1 0.8 3.5 c0.9 3.6 0.8 4.5 -0.3 3.3z"/>
 </g>
 <g fill="#060660">
  <path d="M924.3 245.3 c0.9 -0.2 2.5 -0.2 3.5 0 0.9 0.3 0.1 0.5 -1.8 0.5 -1.9 0 -2.7 -0.2 -1.7 -0.5z"/>
  <path d="M65 85.7 c0 -2.4 4.4 -6.7 7 -6.7 1.1 0 2 -0.4 2 -1 0 -0.5 0.7 -1 1.5 -1 0.8 0 1.5 0.3 1.5 0.8 0 0.9 -6.6 5.2 -8 5.2 -0.6 0 -0.8 0.5 -0.4 1.2 0.4 0.6 0.3 0.8 -0.4 0.4 -0.6 -0.3 -1.5 0.2 -2.1 1.1 -1 1.7 -1 1.7 -1.1 0z"/>
  <path d="M96.8 80.3 c1.2 -0.2 3 -0.2 4 0 0.9 0.3 -0.1 0.5 -2.3 0.4 -2.2 0 -3 -0.2 -1.7 -0.4z"/>
  <path d="M98 74.8 c2.4 -0.6 6.5 -2.3 9 -4 l4.5 -3 -3.2 3.1 c-3.1 2.9 -8.9 5.2 -12.8 5 -1.1 -0.1 0 -0.6 2.5 -1.1z"/>
  <path d="M66 71.1 c0 -0.6 0.7 -1.4 1.5 -1.7 0.8 -0.4 1.2 -1 0.9 -1.5 -0.3 -0.5 -0.1 -0.8 0.4 -0.7 0.6 0.2 1 -0.1 1 -0.6 0 -0.5 0.7 -1.3 1.6 -1.8 0.9 -0.5 1.4 -1.3 1.1 -1.9 -0.4 -0.5 -0.1 -0.9 0.6 -0.9 0.9 0 0.9 -0.3 -0.1 -1.5 -1.8 -2.2 -0.4 -5.3 2.5 -5.1 1.4 0 2.7 0.7 3 1.3 0.2 0.7 1.2 1 2.1 0.6 1.2 -0.4 1.5 -0.3 1 0.5 -0.5 0.8 0 1.3 1.3 1.4 1.2 0 2.7 0.1 3.4 0.2 0.6 0.1 1.4 0.4 1.7 0.8 0.3 0.3 1.4 0.8 2.5 1 3.2 0.5 4.9 3.8 2 3.8 -0.8 0 -1.5 0.4 -1.5 0.9 0 0.5 -0.9 0.7 -2 0.4 -1.1 -0.3 -2 -0.1 -2 0.4 0 0.6 -1.2 0.8 -2.6 0.5 -2.5 -0.4 -2.6 -0.4 -1.3 1.9 1.2 2.3 1.1 2.3 -0.6 0.9 -1.9 -1.6 -9.5 -2.2 -9.5 -0.8 0 0.4 -0.7 0.5 -1.5 0.2 -0.8 -0.4 -1.5 -0.1 -1.5 0.7 0 0.7 -0.3 0.9 -0.7 0.6 -0.3 -0.4 -1.2 -0.2 -2 0.4 -0.9 0.9 -1.3 0.8 -1.3 0z"/>
  <path d="M57.6 61.9 c0.5 -0.9 3.3 -4.3 6.3 -7.5 3 -3.3 5.1 -5.2 4.6 -4.4 -0.8 1.3 -0.6 1.3 0.8 0.1 0.9 -0.7 1.4 -1.8 1 -2.4 -0.3 -0.6 -0.1 -0.7 0.5 -0.3 0.6 0.3 1.5 -0.2 2.1 -1.1 0.6 -1 1.1 -1.3 1.1 -0.8 0 0.6 0.4 0.4 0.9 -0.3 0.6 -1 1.1 -0.9 2.2 0.4 0.8 1 0.9 1.5 0.3 1.1 -0.7 -0.4 -2.3 0.2 -3.5 1.3 -1.3 1.1 -2.1 1.9 -1.7 2 0.4 0 -0.5 1.2 -1.9 2.8 -1.4 1.5 -2.9 2.6 -3.3 2.5 -0.4 -0.1 -3 1.7 -5.6 4 -2.6 2.3 -4.4 3.5 -3.8 2.6z"/>
  <path d="M77.2 50.3 c0.6 -0.7 1.9 -1.3 2.9 -1.3 1.1 0 1.9 -0.4 1.9 -1 0 -0.5 1.4 -1 3.2 -1 l3.2 0 -2.2 2 c-1.1 1.1 -2.8 1.7 -3.6 1.4 -0.9 -0.3 -1.6 -0.2 -1.6 0.4 0 0.5 -1.1 0.9 -2.4 0.8 -1.8 -0.1 -2.2 -0.4 -1.4 -1.3z"/>
  <path d="M117.4 2.1 c0.6 -0.8 -14.9 -1.1 -57.8 -0.9 -32.2 0.2 -58.6 0 -58.6 -0.4 0 -0.5 27.6 -0.8 61.3 -0.7 33.6 0 60.5 0.3 59.7 0.6 -0.8 0.3 -2.3 1 -3.4 1.5 -1.3 0.7 -1.6 0.7 -1.2 -0.1z"/>
 </g>
 <g fill="#c20b16">
  <path d="M949.2 272.7 c-1.4 -1.5 -2.2 -3.6 -2.2 -5.8 0 -3.2 2.9 -6.3 41.3 -44.6 22.6 -22.6 42.2 -41.4 43.3 -41.7 3.5 -1 7.4 1.1 8.9 4.9 1.1 2.5 1.5 7.8 1.5 20.3 0 22.2 -1.1 25.2 -9.3 25.2 -5.8 0 -7.7 -3.1 -7.7 -12.8 0 -4.5 -0.3 -8.2 -0.6 -8.2 -0.4 0 -15.3 14.6 -33.2 32.5 -30.8 30.8 -32.7 32.5 -36.2 32.5 -2.5 0 -4.3 -0.7 -5.8 -2.3z"/>
  <path d="M155 92.6 c-8.6 -3.8 -9.5 -5.5 -6.5 -13.3 2.5 -6.5 4.9 -7.7 14.3 -6.8 6.7 0.6 8.1 0.4 9.6 -1.1 1.1 -1.1 1.5 -2.5 1.2 -4 -0.3 -1.2 -0.1 -2.6 0.5 -2.9 0.6 -0.4 0.8 -1.8 0.5 -3.1 -0.4 -1.4 -0.2 -2.4 0.4 -2.4 0.6 0 0.8 -1 0.4 -2.4 -0.4 -1.8 -0.1 -2.7 1.5 -3.6 2.8 -1.4 2.6 -2.7 -0.9 -8 -2.2 -3.3 -3 -5.7 -3 -9.1 0 -2.5 -0.7 -6.9 -1.6 -9.8 -0.8 -2.9 -1.3 -5.9 -1 -6.7 0.7 -1.9 0.7 -2.4 0 -2.3 -0.4 0 -1 -0.3 -1.3 -0.8 -0.3 -0.4 -2.1 -2.1 -3.9 -3.6 -2.9 -2.3 -3.1 -2.7 -1.3 -2.7 1.1 0 2.5 -0.9 3.1 -2 0.9 -1.7 0.6 -2.5 -2.2 -5 l-3.2 -3 50.7 0 50.7 0 0 48 0 48 -50.2 -0.1 -50.3 -0.1 -7.5 -3.2z"/>
 </g>
 <g fill="#da0010">
  <path d="M951.5 274 c0.3 -0.4 -0.2 -1.3 -1 -2 -0.8 -0.7 -1.5 -2.9 -1.5 -4.9 0 -3.5 2 -5.6 40.5 -44 22.2 -22.3 40.2 -40.7 40 -41 -0.1 -0.3 1.6 -0.6 4 -0.6 2.4 0 4.3 0.2 4.3 0.5 -0.1 0.3 0.4 1.8 1.1 3.4 1.4 3.5 1.2 43.4 -0.3 44.3 -0.5 0.3 -0.6 0.1 -0.2 -0.5 0.4 -0.7 0.1 -1.2 -0.9 -1.2 -1 0 -1.5 0.6 -1.2 1.3 0.7 1.7 -3.8 1 -7 -1.1 -2.1 -1.3 -2.3 -2.2 -2.3 -9.7 0 -10.6 -1.2 -12 -6.5 -7.2 -2.5 2.3 -3.5 3.9 -3 4.7 0.5 0.8 0.4 1.1 -0.3 0.6 -1.5 -0.9 -6.4 3.5 -5.7 5.2 0.3 0.7 0 1 -0.6 0.7 -1.4 -0.9 -10.1 7.7 -9.4 9.3 0.3 0.7 0 1 -0.6 0.6 -1.4 -0.8 -6.1 3.7 -5.4 5.4 0.3 0.7 0 1 -0.6 0.7 -1.3 -0.9 -10.1 7.6 -9.5 9.2 0.3 0.7 -0.1 1 -0.7 0.7 -1.8 -0.6 -6.1 4.1 -5.2 5.7 0.5 0.8 0.4 1 -0.4 0.5 -1.5 -1 -10.3 7.4 -9.6 9.2 0.3 0.8 0 1 -0.6 0.6 -1.3 -0.8 -8.1 5.6 -7.5 7.1 0.2 0.6 -0.4 1.1 -1.3 1.2 -0.9 0.1 -3.3 0.6 -5.3 1.1 -2.1 0.5 -3.6 0.6 -3.3 0.2z"/>
  <path d="M1041.4 206 c0 -10.2 0.2 -14.3 0.3 -9.2 0.2 5 0.2 13.4 0 18.5 -0.1 5 -0.3 0.9 -0.3 -9.3z"/>
  <path d="M160.3 93.5 c0.1 -0.5 -1 -1 -2.5 -1 -1.5 0.1 -2.6 -0.4 -2.5 -1 0.1 -0.5 -1 -1 -2.5 -1 -1.5 0.1 -2.6 -0.2 -2.6 -0.5 0.1 -0.3 -0.1 -1.2 -0.5 -2 -0.8 -2.2 -1.4 -8.9 -0.7 -8.7 0.4 0.1 1.8 -1.1 3.2 -2.7 2.4 -2.9 2.8 -2.9 11.4 -2.9 4.9 0.1 9.5 -0.4 10.2 -0.9 0.6 -0.6 1.2 -2.5 1.2 -4.4 0 -1.8 0.5 -3.6 1 -3.9 0.6 -0.4 1 -1.4 0.9 -2.3 -0.4 -4.8 0.2 -8.2 1.5 -8.2 1.6 0 3.1 -3.4 2.1 -5 -0.4 -0.6 -1.1 -0.7 -1.7 -0.4 -0.7 0.4 -0.8 0.2 -0.4 -0.5 0.4 -0.6 -0.2 -2.8 -1.3 -4.7 -1.2 -1.9 -2.1 -5.2 -2.1 -7.2 0 -5.3 -1.1 -8.7 -2.1 -7 -0.6 0.8 -0.7 0.1 -0.3 -1.8 0.3 -1.7 0.1 -4.1 -0.5 -5.2 -0.7 -1.4 -0.8 -2.3 -0.1 -2.7 1.4 -0.9 1.2 -4.5 -0.2 -5 -0.7 -0.3 -2.3 -0.6 -3.5 -0.8 -1.2 -0.2 -2.6 -0.7 -3 -1.2 -0.5 -0.4 -0.2 -0.5 0.6 0 1.1 0.6 1.3 0.3 0.9 -1.3 -0.4 -1.3 -0.2 -2 0.6 -1.9 0.7 0.1 1.1 -1.2 1 -3.5 l-0.1 -3.8 46.3 0 46.4 0 0 46 0 46 -50.4 0.2 c-33.2 0.2 -50.4 0 -50.3 -0.7z"/>
 </g>
 <g fill="#fffffd">
  <path d="M65 85.4 c0 -2.3 3.4 -5.4 6.8 -6.4 5.6 -1.5 6 -1.2 2 1.5 -2 1.4 -4 2.5 -4.4 2.5 -0.4 0 -1.6 0.7 -2.6 1.7 -1 0.9 -1.8 1.2 -1.8 0.7z"/>
  <path d="M66 71.4 c0 -0.2 1.8 -2.3 4 -4.6 2.3 -2.3 3.9 -4.7 3.6 -5.4 -0.3 -0.7 0 -1.5 0.7 -1.8 0.7 -0.2 0.4 -0.5 -0.5 -0.5 -2 -0.1 -2.2 -0.9 -0.9 -3 0.7 -1.1 1.5 -1 4.7 0.5 2.2 1 6.6 2.8 9.8 3.9 3.3 1.1 6.1 2.5 6.3 3.2 0.5 1.3 -11.3 4.3 -16.4 4.1 -1.7 -0.1 -5 0.8 -7.2 1.9 -2.3 1.1 -4.1 1.9 -4.1 1.7z"/>
  <path d="M57.8 61.5 c1.9 -3.6 16.4 -16.5 18.5 -16.5 0.7 0 0 1 -1.4 2.3 -1.5 1.2 -3.5 3.4 -4.4 5 -1 1.5 -2.3 2.7 -3 2.7 -0.7 0 -3.4 1.9 -6 4.2 -2.6 2.3 -4.3 3.4 -3.7 2.3z"/>
  <path d="M77.1 50.5 c1.4 -1.4 11 -3.4 9.8 -2.1 -0.4 0.4 -3.1 1.4 -6 2.1 -4.5 1.2 -5 1.2 -3.8 0z"/>
 </g>
</svg>