<svg xmlns="http://www.w3.org/2000/svg" viewBox="0 0 162.9 157.97"><defs><style>.cls-1{fill:#0153cc;opacity:0.2;}.cls-2{fill:#231f20;}.cls-3{fill:#fff;}.cls-4{fill:#97e4ff;}.cls-5{fill:#3bd2f4;}.cls-6{fill:#f43b51;}</style></defs><title>illustration-reception</title><g id="Calque_2" data-name="Calque 2"><circle class="cls-1" cx="81.31" cy="77.79" r="74.27"/><path class="cls-2" d="M89.47,102.7v34.14a.67.67,0,0,1-.79.68q-9.14-1.94-18.33-4.8a.69.69,0,0,1-.47-.67V102.7a.67.67,0,0,1,.65-.69H88.81A.68.68,0,0,1,89.47,102.7Z"/><path class="cls-3" d="M87.17,107.62V132.7a.92.92,0,0,1-1.09.94q-6.6-1.41-13.25-3.46a1,1,0,0,1-.66-.92V107.62a.94.94,0,0,1,.91-1H86.26A.94.94,0,0,1,87.17,107.62Z"/><path class="cls-2" d="M48.09,41h0C36.45,41,22.2,52.1,22.2,65.8V104H74V65.8C74,52.1,62.38,41,48.09,41Z"/><path class="cls-3" d="M49.09,44h0A23.62,23.62,0,0,1,72.7,67.66V104a0,0,0,0,1,0,0H25.47a0,0,0,0,1,0,0V67.66A23.62,23.62,0,0,1,49.09,44Z"/><rect class="cls-4" x="21.41" y="54.39" width="59.9" height="40.51"/><path class="cls-2" d="M82.61,97.48H20.12a1.29,1.29,0,0,1-1.29-1.29V53.1a1.29,1.29,0,0,1,1.29-1.29H82.61A1.29,1.29,0,0,1,83.9,53.1V96.19A1.29,1.29,0,0,1,82.61,97.48ZM21.41,94.9h59.9V54.39H21.41Z"/><path class="cls-5" d="M51.36,82.4a1.31,1.31,0,0,1-.86-.33l-31.24-28a1.29,1.29,0,0,1-.35-1.42,1.31,1.31,0,0,1,1.21-.83H82.61a1.29,1.29,0,0,1,.86,2.25l-31.24,28A1.31,1.31,0,0,1,51.36,82.4Zm-27.86-28,27.86,25,27.87-25Z"/><path class="cls-2" d="M51.36,82.4a1.31,1.31,0,0,1-.86-.33l-31.24-28a1.29,1.29,0,0,1-.35-1.42,1.31,1.31,0,0,1,1.21-.83H82.61a1.29,1.29,0,0,1,.86,2.25l-31.24,28A1.31,1.31,0,0,1,51.36,82.4Zm-27.86-28,27.86,25,27.87-25Z"/><path class="cls-2" d="M20.12,97.48a1.29,1.29,0,0,1-.9-2.22L42.35,72.91a1.29,1.29,0,0,1,1.8,1.86L21,97.12A1.3,1.3,0,0,1,20.12,97.48Z"/><path class="cls-2" d="M82.61,97.48a1.29,1.29,0,0,1-.9-.36L58.58,74.77a1.29,1.29,0,0,1,1.79-1.86L83.5,95.26a1.29,1.29,0,0,1-.89,2.22Z"/><path class="cls-3" d="M113.86,41H48.08A25.89,25.89,0,0,1,74,66.87V104h65.77V66.87A25.89,25.89,0,0,0,113.86,41Z"/><path class="cls-3" d="M113.54,42.87H65.4c-3.24,0-2.32,0-.45,1.39,2,1.52,12.48,6.91,13.1,22.56V101l59.21.45V67.27C137.26,53.79,126.64,42.87,113.54,42.87Z"/><path class="cls-3" d="M96.18,83.54a7.73,7.73,0,1,0-6.07,6.07A7.74,7.74,0,0,0,96.18,83.54Z"/><path class="cls-3" d="M95,83.3a6.51,6.51,0,1,0-5.1,5.11A6.51,6.51,0,0,0,95,83.3Z"/><path class="cls-3" d="M92.78,82.7a4.24,4.24,0,1,0-3.52,3.51A4.25,4.25,0,0,0,92.78,82.7Z"/><rect class="cls-3" x="86.97" y="23.36" width="3" height="58.67" rx="1.35"/><rect class="cls-3" x="88.1" y="24.19" width="0.75" height="57" rx="0.37"/><polygon class="cls-3" points="89.63 44.6 113.01 34.41 89.63 24.22 89.63 44.6"/><path class="cls-3" d="M96.18,83.54a7.73,7.73,0,1,0-6.07,6.07A7.74,7.74,0,0,0,96.18,83.54Z"/><path class="cls-3" d="M95,83.3a6.51,6.51,0,1,0-5.1,5.11A6.51,6.51,0,0,0,95,83.3Z"/><path class="cls-3" d="M92.78,82.7a4.24,4.24,0,1,0-3.52,3.51A4.25,4.25,0,0,0,92.78,82.7Z"/><rect class="cls-3" x="86.97" y="23.36" width="3" height="58.67" rx="1.35"/><rect class="cls-3" x="88.1" y="24.19" width="0.75" height="57" rx="0.37"/><polygon class="cls-3" points="89.63 44.6 113.01 34.41 89.63 24.22 89.63 44.6"/><path class="cls-3" d="M96.18,83.54a7.73,7.73,0,1,0-6.07,6.07A7.74,7.74,0,0,0,96.18,83.54Z"/><path class="cls-3" d="M95,83.3a6.51,6.51,0,1,0-5.1,5.11A6.51,6.51,0,0,0,95,83.3Z"/><path class="cls-3" d="M92.78,82.7a4.24,4.24,0,1,0-3.52,3.51A4.25,4.25,0,0,0,92.78,82.7Z"/><rect class="cls-3" x="86.97" y="23.36" width="3" height="58.67" rx="1.35"/><rect class="cls-3" x="88.1" y="24.19" width="0.75" height="57" rx="0.37"/><polygon class="cls-3" points="89.63 44.6 113.01 34.41 89.63 24.22 89.63 44.6"/><path class="cls-2" d="M113.86,41H48.08A25.89,25.89,0,0,1,74,66.87V104h65.77V66.87A25.89,25.89,0,0,0,113.86,41Z"/><path class="cls-3" d="M113.54,42.87H65.4c-3.24,0-2.32,0-.45,1.39,2,1.52,12.48,6.91,13.1,22.56V101l59.21.45V67.27C137.26,53.79,126.64,42.87,113.54,42.87Z"/><path class="cls-3" d="M96.18,83.54a7.73,7.73,0,1,0-6.07,6.07A7.74,7.74,0,0,0,96.18,83.54Z"/><path class="cls-3" d="M95,83.3a6.51,6.51,0,1,0-5.1,5.11A6.51,6.51,0,0,0,95,83.3Z"/><path class="cls-3" d="M92.78,82.7a4.24,4.24,0,1,0-3.52,3.51A4.25,4.25,0,0,0,92.78,82.7Z"/><rect class="cls-3" x="86.97" y="23.36" width="3" height="58.67" rx="1.35"/><rect class="cls-3" x="88.1" y="24.19" width="0.75" height="57" rx="0.37"/><polygon class="cls-3" points="89.63 44.6 113.01 34.41 89.63 24.22 89.63 44.6"/><path class="cls-2" d="M96.18,83.54a7.73,7.73,0,1,0-6.07,6.07A7.74,7.74,0,0,0,96.18,83.54Z"/><path class="cls-3" d="M95,83.3a6.51,6.51,0,1,0-5.1,5.11A6.51,6.51,0,0,0,95,83.3Z"/><path class="cls-2" d="M92.78,82.7a4.24,4.24,0,1,0-3.52,3.51A4.25,4.25,0,0,0,92.78,82.7Z"/><rect class="cls-2" x="86.97" y="23.36" width="3" height="58.67" rx="1.35"/><rect class="cls-3" x="88.1" y="24.19" width="0.75" height="57" rx="0.37"/><polygon class="cls-6" points="89.63 44.6 113.01 34.41 89.63 24.22 89.63 44.6"/><rect class="cls-2" x="9.52" y="100.96" width="64.44" height="3.08"/></g></svg>