<svg width="143" height="89" viewBox="0 0 143 89" fill="none" xmlns="http://www.w3.org/2000/svg">
<path d="M1.648 35.3584H3.92V27.3904L6.416 31.5184H8.016L10.512 27.3904V35.3584H12.784V24.1584H9.92L7.216 28.7664L4.512 24.1584H1.648V35.3584ZM16.0699 35.3584H18.3419V24.1584H16.0699V35.3584ZM21.6324 35.3584H23.9044V27.3104L28.9124 35.3584H31.8244V24.1584H29.5524V32.1744L24.5444 24.1584H21.6324V35.3584ZM35.1168 35.3584H37.3888V24.1584H35.1168V35.3584ZM39.6713 33.8064C40.1513 34.3984 40.7433 34.8624 41.4153 35.1824C42.0873 35.5184 42.8873 35.6784 43.8313 35.6784C44.3433 35.6784 44.8233 35.6144 45.2713 35.4544C45.7193 35.2944 46.1033 35.0704 46.4393 34.7824C46.7593 34.4944 47.0312 34.1424 47.2233 33.7264C47.4153 33.3104 47.5273 32.8464 47.5433 32.3184C47.5433 31.3904 47.2713 30.6704 46.7433 30.1744C46.1993 29.6944 45.6233 29.2944 44.9833 28.9904C44.3433 28.6864 43.7513 28.3984 43.2233 28.1424C42.6793 27.8864 42.4233 27.5024 42.4233 26.9904C42.4233 26.6704 42.5353 26.3824 42.7753 26.1584C42.9993 25.9344 43.3193 25.8224 43.7193 25.8224C44.1353 25.8224 44.5353 25.9504 44.9033 26.2064C45.2713 26.4624 45.6233 26.7984 45.9593 27.2144L47.6233 25.7264C47.1433 25.1664 46.5833 24.7184 45.9273 24.3664C45.2713 24.0144 44.5353 23.8384 43.7033 23.8384C43.1593 23.8384 42.6793 23.9344 42.2473 24.0944C41.7993 24.2704 41.4313 24.5104 41.1113 24.7984C40.7913 25.0864 40.5513 25.4384 40.3753 25.8384C40.1993 26.2384 40.1193 26.6544 40.1193 27.0864C40.1193 28.0144 40.3753 28.7184 40.9193 29.1984C41.4473 29.6784 42.0393 30.0784 42.6793 30.3824C43.3193 30.6864 43.8953 30.9744 44.4393 31.2304C44.9673 31.4864 45.2393 31.8704 45.2393 32.3664C45.2393 32.7824 45.1113 33.1024 44.8553 33.3264C44.5993 33.5504 44.2473 33.6624 43.7993 33.6624C43.3353 33.6624 42.8873 33.5504 42.4553 33.2944C42.0233 33.0544 41.6393 32.7184 41.3193 32.2864L39.6713 33.8064ZM48.8554 26.2224H52.3114V35.3584H54.5834V26.2224H58.0394V24.1584H48.8554V26.2224ZM62.4509 23.1984H64.5309L62.7229 21.0384H60.3869L62.4509 23.1984ZM60.1949 35.3584H66.7229V33.4224H62.4669V30.6224H66.0829V28.6864H62.4669V26.0944H66.7229V24.1584H60.1949V35.3584ZM69.523 35.3584H71.795V30.8304H72.963L75.939 35.3584H78.659L75.139 30.3984C75.699 30.1424 76.131 29.7584 76.451 29.2624C76.771 28.7664 76.931 28.1744 76.931 27.5024C76.931 26.4784 76.563 25.6624 75.859 25.0544C75.139 24.4624 74.163 24.1584 72.947 24.1584H69.523V35.3584ZM73.075 26.0944C73.555 26.0944 73.923 26.2224 74.195 26.4624C74.451 26.7184 74.595 27.0544 74.595 27.4704C74.595 27.9344 74.451 28.2864 74.195 28.5264C73.923 28.7824 73.555 28.8944 73.075 28.8944H71.795V26.0944H73.075ZM80.2261 35.3584H86.7541V33.4224H82.4981V30.6224H86.1141V28.6864H82.4981V26.0944H86.7541V24.1584H80.2261V35.3584ZM1.648 52.3584H6.048C6.928 52.3584 7.744 52.2144 8.48 51.9104C9.216 51.6224 9.84 51.2064 10.352 50.6944C10.864 50.1824 11.28 49.5904 11.568 48.9184C11.856 48.2464 12 47.5264 12 46.7584C12 46.0064 11.856 45.2864 11.568 44.6144C11.28 43.9424 10.864 43.3344 10.352 42.8224C9.84 42.3104 9.216 41.9104 8.48 41.6064C7.744 41.3184 6.928 41.1584 6.048 41.1584H1.648V52.3584ZM6.08 43.2224C6.592 43.2224 7.072 43.3184 7.52 43.4944C7.952 43.6864 8.32 43.9264 8.64 44.2464C8.96 44.5664 9.2 44.9344 9.392 45.3664C9.568 45.7984 9.664 46.2624 9.664 46.7584C9.664 47.2544 9.568 47.7184 9.392 48.1504C9.2 48.5824 8.96 48.9504 8.64 49.2704C8.32 49.5904 7.952 49.8464 7.52 50.0224C7.072 50.2144 6.592 50.2944 6.08 50.2944H3.92V43.2224H6.08ZM14.3511 52.3584H20.8791V50.4224H16.6231V47.6224H20.2391V45.6864H16.6231V43.0944H20.8791V41.1584H14.3511V52.3584ZM27.9918 52.3584H34.5198V50.2944H30.2638V41.1584H27.9918V52.3584ZM35.7556 52.3584H38.1716L39.2436 49.4464H43.7236L44.7956 52.3584H47.2116L42.9716 41.1584H39.9956L35.7556 52.3584ZM39.9476 47.5104L41.4836 43.3024L43.0196 47.5104H39.9476ZM58.4056 50.5504C57.8776 50.5504 57.3976 50.4544 56.9496 50.2624C56.5016 50.0704 56.1176 49.7984 55.7976 49.4624C55.4776 49.1264 55.2376 48.7264 55.0616 48.2624C54.8696 47.7984 54.7896 47.3024 54.7896 46.7584C54.7896 46.2304 54.8696 45.7344 55.0616 45.2704C55.2376 44.8064 55.4776 44.4064 55.7976 44.0704C56.1176 43.7344 56.5016 43.4624 56.9496 43.2704C57.3976 43.0784 57.8776 42.9664 58.4056 42.9664C59.0456 42.9664 59.6056 43.1104 60.1016 43.3984C60.5976 43.6864 61.0136 44.0544 61.3336 44.5024L63.1256 43.1104C62.6136 42.4384 61.9416 41.8944 61.1416 41.4784C60.3256 41.0624 59.4136 40.8384 58.4056 40.8384C57.5256 40.8384 56.7256 40.9984 55.9896 41.3184C55.2536 41.6384 54.6136 42.0704 54.1016 42.5984C53.5736 43.1424 53.1736 43.7664 52.8856 44.4864C52.5976 45.2064 52.4536 45.9584 52.4536 46.7584C52.4536 47.5584 52.5976 48.3264 52.8856 49.0464C53.1736 49.7664 53.5736 50.3904 54.1016 50.9184C54.6136 51.4624 55.2536 51.8784 55.9896 52.1984C56.7256 52.5184 57.5256 52.6784 58.4056 52.6784C59.4136 52.6784 60.3256 52.4704 61.1416 52.0544C61.9416 51.6384 62.6136 51.0944 63.1256 50.3904L61.3336 49.0144C61.0136 49.4784 60.5976 49.8464 60.1016 50.1344C59.6056 50.4224 59.0456 50.5504 58.4056 50.5504ZM71.7374 48.1664C71.7374 48.9184 71.5294 49.5104 71.1294 49.9264C70.7134 50.3424 70.1694 50.5504 69.4814 50.5504C68.7774 50.5504 68.2174 50.3424 67.8174 49.9264C67.4014 49.5104 67.2094 48.9184 67.2094 48.1664V41.1584H64.9374V47.9744C64.9374 49.4464 65.3374 50.5984 66.1534 51.4304C66.9534 52.2624 68.0574 52.6784 69.4654 52.6784C70.8574 52.6784 71.9614 52.2624 72.7774 51.4304C73.5934 50.5984 74.0094 49.4464 74.0094 47.9744V41.1584H71.7374V48.1664ZM76.9918 52.3584H83.5198V50.2944H79.2638V41.1584H76.9918V52.3584ZM83.2148 43.2224H86.6708V52.3584H88.9428V43.2224H92.3988V41.1584H83.2148V43.2224ZM101.159 48.1664C101.159 48.9184 100.951 49.5104 100.551 49.9264C100.135 50.3424 99.5913 50.5504 98.9033 50.5504C98.1993 50.5504 97.6393 50.3424 97.2393 49.9264C96.8233 49.5104 96.6313 48.9184 96.6313 48.1664V41.1584H94.3593V47.9744C94.3593 49.4464 94.7593 50.5984 95.5753 51.4304C96.3753 52.2624 97.4793 52.6784 98.8873 52.6784C100.279 52.6784 101.383 52.2624 102.199 51.4304C103.015 50.5984 103.431 49.4464 103.431 47.9744V41.1584H101.159V48.1664ZM106.414 52.3584H108.686V47.8304H109.854L112.83 52.3584H115.55L112.03 47.3984C112.59 47.1424 113.022 46.7584 113.342 46.2624C113.662 45.7664 113.822 45.1744 113.822 44.5024C113.822 43.4784 113.454 42.6624 112.75 42.0544C112.03 41.4624 111.054 41.1584 109.838 41.1584H106.414V52.3584ZM109.966 43.0944C110.446 43.0944 110.814 43.2224 111.086 43.4624C111.342 43.7184 111.486 44.0544 111.486 44.4704C111.486 44.9344 111.342 45.2864 111.086 45.5264C110.814 45.7824 110.446 45.8944 109.966 45.8944H108.686V43.0944H109.966ZM117.117 52.3584H123.645V50.4224H119.389V47.6224H123.005V45.6864H119.389V43.0944H123.645V41.1584H117.117V52.3584Z" fill="black"/>
<path d="M16.4304 13.1805C16.5902 13.0251 16.75 12.8698 16.8953 12.7002C17.1858 12.3754 17.4764 12.0787 17.796 11.8103C17.8977 11.7256 17.9994 11.6408 18.1011 11.5843C18.1301 11.5561 18.1301 11.4996 18.1592 11.4713C18.0284 11.5278 17.9413 11.6267 17.796 11.6832C17.7669 11.6832 17.7379 11.655 17.7669 11.6267C17.8686 11.5561 17.9703 11.4855 18.0575 11.4148H18.043C18.0139 11.4148 18.0139 11.3866 18.0139 11.3583C17.6507 11.3018 17.3892 11.542 17.1568 11.7538C17.0987 11.7821 17.0406 11.7256 17.026 11.7256C16.6193 11.8527 16.3287 12.2059 15.922 12.3612V12.3047C15.7622 12.3612 15.6024 12.4601 15.428 12.4884C15.1811 12.5449 14.9632 12.5166 14.7598 12.5166C14.4256 12.5449 14.0915 12.6155 13.7719 12.6861C13.7574 12.6861 13.7574 12.6861 13.7429 12.7002C13.5685 12.7426 13.3942 12.8133 13.2344 12.898L13.2199 12.9121C13.2053 12.9263 13.1908 12.9404 13.1763 12.9545C13.1182 13.011 13.0601 13.0816 12.9874 13.1099C12.8131 13.1946 12.6824 13.3359 12.5371 13.463C12.5226 13.4771 12.508 13.4771 12.4935 13.4771C12.3482 13.6184 12.203 13.7597 12.0577 13.8868C12.0577 13.8727 12.0141 13.8727 11.9851 13.8727C11.9851 13.8585 11.9996 13.8585 11.9996 13.8444C12.0286 13.802 12.0432 13.7738 12.0722 13.7314C12.1013 13.689 12.1303 13.6467 12.1594 13.6043C12.203 13.5478 12.232 13.4913 12.2756 13.4489C12.2901 13.4348 12.2901 13.4206 12.2756 13.4206C12.2611 13.4065 12.2465 13.4065 12.232 13.4065C12.3628 13.2794 12.5371 13.1664 12.6969 13.0675C12.6824 13.0675 12.6533 13.0534 12.6678 13.0393C12.6824 13.011 12.6969 12.9969 12.7114 12.9686C12.7114 12.9545 12.7114 12.9545 12.7259 12.9404C12.7259 12.9263 12.7114 12.9263 12.7114 12.9121C12.6678 12.9404 12.6243 12.9686 12.5807 12.9969C12.508 13.0534 12.4645 13.1664 12.3628 13.1664C12.3628 13.1664 12.3337 13.1664 12.3192 13.1664C12.3047 13.1664 12.2901 13.1664 12.2901 13.1523C12.2901 13.1523 12.2901 13.1523 12.2901 13.1381C12.2901 13.124 12.3047 13.124 12.3047 13.1099C12.3047 13.0958 12.3192 13.0958 12.3192 13.0816C12.3192 13.0816 12.3192 13.0675 12.3337 13.0675C12.3337 13.0534 12.3482 13.0393 12.3482 13.0393C12.3482 13.0251 12.3628 13.0251 12.3628 13.011C12.3773 12.9969 12.3918 12.9686 12.3918 12.9545C12.3918 12.9404 12.4063 12.9404 12.4063 12.9263C12.4209 12.9121 12.4209 12.898 12.4354 12.8839C12.4499 12.8556 12.4354 12.8415 12.4209 12.8415C12.4645 12.7709 12.5371 12.7285 12.6097 12.6861H12.5952C12.6969 12.6296 12.8131 12.5731 12.9148 12.5166C12.9293 12.5025 12.9439 12.4884 12.9584 12.4742C12.7986 12.5307 12.6678 12.6014 12.5226 12.6861C12.5226 12.6861 12.4935 12.7002 12.479 12.7144C12.479 12.7144 12.4499 12.7285 12.4063 12.6861V12.672C12.4354 12.6155 12.5226 12.5872 12.5661 12.5449C12.5952 12.5449 12.6243 12.5449 12.6243 12.5731C13.4959 11.9233 14.6871 12.0646 15.7041 11.7397C15.7912 11.6832 15.8639 11.6267 15.951 11.5843C16.0818 11.5278 16.198 11.4007 16.3578 11.316C16.5757 11.1606 16.7355 10.9628 16.8227 10.7086C16.8227 10.6803 16.7936 10.6521 16.7936 10.6521C16.4304 11.0193 16.0382 11.3018 15.6024 11.5137C15.0213 11.8103 14.4111 11.7538 13.801 11.8386C13.83 11.7821 13.8881 11.7821 13.9317 11.7821C13.9317 11.6973 13.9898 11.6691 14.0479 11.6267H14.1351C14.1642 11.6267 14.1642 11.5702 14.1932 11.5702C14.2513 11.5702 14.3385 11.542 14.3094 11.542C14.2223 11.429 14.0625 11.6267 13.9317 11.542C13.9898 11.4855 13.9608 11.4148 14.0189 11.3866H14.1351C14.1351 11.3301 14.1932 11.2736 14.1932 11.2736C14.6 11.0334 14.9777 10.8498 15.3554 10.6379C15.2682 10.6379 15.2246 10.7227 15.1375 10.6662C15.1956 10.6662 15.1375 10.5814 15.1956 10.5814C15.5007 10.4967 15.7476 10.3413 16.0382 10.2283C15.922 10.2283 15.8493 10.3131 15.7331 10.2283C15.7912 10.2 15.8203 10.1435 15.8929 10.1435V10.0588C15.8929 10.0305 15.922 10.0305 15.951 10.0305C15.922 10.0305 15.8929 10.0023 15.8929 10.0023C15.922 9.94579 16.0091 9.97404 16.0527 9.91754C16.0237 9.91754 15.9655 9.91754 15.9655 9.88929C16.0527 9.77629 16.1835 9.76216 16.3287 9.73391C16.2997 9.67741 16.2125 9.73391 16.2125 9.67741C16.2125 9.64916 16.2416 9.64916 16.2706 9.64916H16.2125C16.1544 9.6209 16.1835 9.5644 16.1835 9.53615C16.3433 9.35252 16.3433 9.11239 16.4304 8.90051C16.4014 8.90051 16.3723 8.90051 16.3723 8.87226C16.0963 9.16889 15.675 9.26777 15.2682 9.38077H15.0794C14.9486 9.43727 14.7452 9.43727 14.6145 9.35252C14.4983 9.29602 14.4547 9.22539 14.3385 9.14064C14.1206 9.01351 13.9027 8.90051 13.6702 8.81576C13.002 8.60387 12.2901 8.49087 11.5928 8.51912C11.8979 8.36374 12.232 8.34962 12.5371 8.25074C13.002 8.12361 13.4233 7.9541 13.9172 7.98236C13.83 7.9541 13.7283 7.98236 13.6412 7.98236C13.2635 7.9541 12.8857 8.06711 12.479 8.13774C12.203 8.19424 11.956 8.29312 11.6945 8.34962C11.5347 8.40612 11.4475 8.5615 11.2587 8.53325V8.505C11.5347 8.18011 11.8688 7.86935 12.2901 7.85523C12.7841 7.77047 13.2344 7.85523 13.7283 7.91173C14.0915 7.93998 14.3966 8.02473 14.7598 8.09536C14.8905 8.09536 14.9196 8.30724 15.0358 8.33549C15.1956 8.39199 15.3699 8.33549 15.5297 8.44849C15.5297 8.39199 15.5007 8.33549 15.5297 8.29311C15.6459 8.18011 15.7767 8.32137 15.8929 8.26486C16.1108 8.13773 15.7041 7.8976 15.5878 7.69985C15.5878 7.6716 15.6169 7.64335 15.6169 7.64335C15.8348 7.82698 15.9946 8.03886 16.2706 8.18011C16.4014 8.23661 16.7355 8.30724 16.6774 8.15186C16.5466 7.85523 16.2706 7.61509 16.0382 7.36084V7.23371C15.9801 7.23371 15.9801 7.20546 15.951 7.17721V7.0642C15.8348 7.0077 15.8639 6.90882 15.8203 6.82407C15.7331 6.69694 15.7912 6.49919 15.7331 6.34381C15.675 6.18843 15.6459 6.04717 15.6169 5.89179C15.5297 5.43978 15.428 5.05839 15.3699 4.6205C15.3118 4.11199 15.675 3.7306 15.922 3.27859C16.1108 2.9537 16.3287 2.64295 16.6774 2.44519C16.7645 2.12031 16.9825 1.85192 17.2004 1.61179C17.4183 1.37166 17.7815 1.18803 18.0284 1.07502C18.4061 0.905519 18.7403 0.806641 18.7403 0.806641H0V14.7767H13.3216C13.8446 14.4094 14.353 14.2399 15.0794 13.9009C15.399 13.7738 16.1835 13.4348 16.4304 13.1805ZM12.2756 11.2736C12.2175 11.2736 12.1158 11.3018 12.1449 11.2453C12.1739 11.1182 12.3628 11.1182 12.479 11.0617C12.5371 11.0334 12.6097 10.9769 12.6678 11.0052C12.7259 11.0899 12.7986 11.0617 12.8567 11.1182C12.6678 11.2736 12.4645 11.203 12.2756 11.2736ZM8.10625 10.7086C8.10625 10.7086 8.0772 10.6803 8.0772 10.6521C8.44038 10.2 8.70187 9.79041 8.94884 9.31015C9.31202 9.12652 9.60257 8.85813 9.86406 8.57562C10.3289 8.09536 10.8083 7.68572 11.3894 7.41734C11.6073 7.33259 11.8834 7.36084 12.0867 7.44559C11.9996 7.55859 11.8688 7.53034 11.7526 7.60097C11.7236 7.60097 11.6945 7.60097 11.6655 7.57272C11.6945 7.54447 11.6945 7.51622 11.6945 7.48797C11.4185 7.7846 11.0408 7.91173 10.8374 8.25074C10.6921 8.505 10.5759 8.84401 10.2272 8.92876C10.111 8.95701 10.2563 8.84401 10.1982 8.87226C9.35561 9.38077 8.75998 9.98817 8.10625 10.7086ZM10.358 8.95701C10.3289 9.01351 10.2999 9.01351 10.2708 9.07001C10.2418 9.12651 10.2127 9.15477 10.1546 9.18302C10.1256 9.18302 10.0965 9.18302 10.0965 9.15477C10.1256 9.04176 10.2127 8.94288 10.3144 8.91463C10.358 8.90051 10.358 8.92876 10.358 8.95701ZM11.6219 12.9121C11.6073 12.9404 11.5783 12.9686 11.5492 12.9969C11.5783 12.9969 11.6073 13.0251 11.5783 13.0393C11.5202 13.0958 11.4475 13.1523 11.3749 13.1805C11.3749 13.1805 11.3458 13.1805 11.3313 13.1805C11.3023 13.2088 11.2587 13.237 11.2296 13.2794C11.2006 13.3076 11.0408 13.2935 11.0844 13.2511C11.157 13.1946 11.2151 13.124 11.2877 13.0675C11.3313 13.0393 11.3749 12.9969 11.404 12.9545C11.4185 12.9263 11.433 12.9121 11.4621 12.898C11.5057 12.8698 11.6509 12.8556 11.6219 12.9121ZM11.1279 12.7002C11.0117 12.7709 10.91 12.8415 10.8083 12.9121C10.6921 12.9828 10.5614 13.0251 10.4452 13.0816C10.4306 13.0675 10.4161 13.0675 10.4016 13.0675C10.2999 13.124 10.2127 13.1946 10.1256 13.2794C10.111 13.2935 10.0965 13.3076 10.082 13.3218L10.0384 13.3641C10.0239 13.3783 9.99481 13.4065 9.98028 13.4206C9.96575 13.4348 9.96575 13.4489 9.9367 13.463C9.92217 13.4771 9.87859 13.4771 9.87859 13.4489C9.86406 13.463 9.84953 13.463 9.83501 13.4771C9.82048 13.4913 9.80595 13.4913 9.79143 13.5054H9.7769H9.76237C9.73332 13.5336 9.68973 13.5619 9.66068 13.5901C9.60257 13.6467 9.54446 13.689 9.50088 13.7597C9.50088 13.7597 9.50088 13.7597 9.50088 13.7738C9.50088 13.7738 9.50088 13.7738 9.48635 13.7879C9.48635 13.7879 9.48635 13.802 9.47182 13.802C9.47182 13.8162 9.4573 13.8162 9.4573 13.8303C9.4573 13.8303 9.44277 13.8444 9.42824 13.8444L9.41372 13.8303C9.41372 13.8303 9.41371 13.8162 9.39919 13.8162C9.38466 13.802 9.38466 13.7879 9.37013 13.7738V13.7597C9.39919 13.7314 9.42824 13.7032 9.4573 13.6608C9.47182 13.6467 9.47182 13.6325 9.48635 13.6325C9.50088 13.6184 9.51541 13.5901 9.52993 13.576C9.52993 13.5619 9.54446 13.5619 9.54446 13.5478C9.57351 13.5054 9.60257 13.4771 9.63163 13.4348L9.64615 13.4206C9.66068 13.4065 9.67521 13.3783 9.68973 13.3641C9.70426 13.35 9.70426 13.3359 9.71879 13.3076C9.71879 13.3076 9.71879 13.3076 9.71879 13.2935C9.73332 13.2653 9.73332 13.2511 9.74784 13.237V13.2229C9.74784 13.2088 9.74784 13.2088 9.76237 13.1946C9.76237 13.1805 9.76237 13.1664 9.7769 13.1523V13.1381C9.80595 13.0816 9.84953 13.0393 9.89312 12.9969H9.87859C9.83501 13.0251 9.80595 13.0534 9.7769 13.0816C9.74784 13.1099 9.68973 13.0675 9.73332 13.0393C9.76237 13.0251 9.7769 12.9969 9.79143 12.9828C9.83501 12.9404 9.87859 12.8839 9.9367 12.8415C9.96575 12.8132 9.99481 12.7991 10.0239 12.785L10.0384 12.7709C10.0529 12.7426 10.082 12.7285 10.0965 12.7002C10.358 12.4601 10.7938 12.4601 11.1279 12.3047C11.2587 12.2482 11.433 12.333 11.5638 12.3047C11.6509 12.3047 11.7236 12.3047 11.8107 12.3612C11.5783 12.4036 11.3604 12.559 11.1279 12.7002ZM11.6945 10.8639C11.6655 10.8357 11.7817 10.8639 11.8107 10.8074H11.5928C11.5638 10.8074 11.5638 10.7792 11.5638 10.7509C11.433 10.7792 11.2587 10.8357 11.1279 10.8639C10.9391 10.9204 10.7648 11.0476 10.5468 11.1041C10.2418 11.2171 9.99481 11.4572 9.68973 11.5561C9.66068 11.5561 9.66068 11.5278 9.66068 11.4996C9.68973 11.4148 9.79143 11.3866 9.84953 11.316C9.84953 11.2877 9.84953 11.2595 9.82048 11.2595C10.0384 10.9628 10.3435 10.8074 10.605 10.5814V10.4826C10.6921 10.3696 10.8229 10.3272 10.881 10.1859C10.91 10.1012 11.0262 10.0023 11.157 9.94579C11.1279 9.91754 11.0698 9.91754 11.0698 9.86104C10.9536 9.86104 10.8519 9.91754 10.7357 9.83279C10.7938 9.79041 10.8519 9.76216 10.91 9.73391C10.881 9.73391 10.8664 9.71978 10.8519 9.69153C10.8229 9.63503 10.91 9.57853 10.9827 9.5644C11.0989 9.53615 11.2296 9.53615 11.3168 9.4514C11.1279 9.42315 10.91 9.5079 10.7066 9.3949C10.8374 9.04176 11.0698 8.75925 11.3749 8.60387C11.404 8.60387 11.4621 8.60387 11.4621 8.63213C11.4621 8.75925 11.3749 8.87226 11.2442 8.90051C11.4621 8.95701 11.68 8.95701 11.8979 9.05589C11.8688 9.11239 11.8107 9.08414 11.7817 9.08414C11.9124 9.16889 12.0867 9.11239 12.2175 9.21127C12.1303 9.29602 12.0577 9.21127 11.9705 9.21127C12.8131 9.4514 13.7138 9.63503 14.4111 10.1577C13.801 10.4543 13.1908 10.5814 12.5371 10.7227C12.4499 10.7227 12.4063 10.7227 12.3192 10.6944C12.3192 10.7227 12.3192 10.7792 12.2901 10.7792C12.1739 10.7792 12.1013 10.7792 12.0141 10.8357C11.9415 10.9204 11.7817 10.9487 11.6945 10.8639Z" fill="#000091"/>
<path d="M38.9858 0.805908H23.7629C23.7629 0.805908 23.7915 0.805908 23.9061 0.875969C24.035 0.946029 24.1925 1.0301 24.2927 1.07214C24.4932 1.17022 24.6794 1.29633 24.8083 1.4925C24.8656 1.57657 24.9372 1.73071 24.8942 1.8428C24.8369 1.96891 24.8083 2.1931 24.6794 2.23514C24.5219 2.31921 24.3071 2.31921 24.1066 2.29119C23.992 2.29119 23.8918 2.26316 23.7772 2.23514C24.1782 2.38927 24.5505 2.58544 24.8226 2.93574C24.8513 2.99179 24.9515 3.01982 25.0661 3.01982C25.0947 3.01982 25.0947 3.07587 25.0947 3.10389C25.0374 3.15994 24.9801 3.18796 25.0088 3.25802H25.0947C25.2236 3.20197 25.2093 2.93575 25.3954 3.01982C25.5243 3.10389 25.5816 3.28605 25.51 3.41216C25.3954 3.52425 25.2952 3.59431 25.1806 3.67839C25.152 3.73443 25.152 3.80449 25.1806 3.86054C25.2666 3.97264 25.2952 4.07072 25.3095 4.18282C25.3954 4.36498 25.4241 4.57516 25.4957 4.77133C25.6102 5.16367 25.7105 5.556 25.6819 5.94834C25.6819 6.15852 25.5673 6.34068 25.6532 6.55086C25.7105 6.76104 25.8394 6.91518 25.9539 7.11135C26.0685 7.26548 26.1688 7.37758 26.2547 7.53171C26.4122 7.79794 26.7129 8.06417 26.5841 8.35842C26.4981 8.54058 26.2117 8.51255 26.0112 8.62465C25.8537 8.75076 25.9826 8.97495 26.0685 9.10106C26.1974 9.33927 25.911 9.4934 25.7105 9.57747C25.7678 9.66154 25.868 9.63352 25.8967 9.68957C25.9253 9.81568 26.0542 9.89975 25.9826 10.0399C25.868 10.194 25.553 10.2781 25.7105 10.5163C25.8251 10.6984 25.7535 10.9086 25.6819 11.1048C25.5959 11.343 25.3811 11.4551 25.1949 11.4971C25.0374 11.5532 24.8369 11.5532 24.6794 11.5252C24.6221 11.4971 24.5648 11.4691 24.5219 11.4691C24.0636 11.4131 23.6197 11.2869 23.1614 11.2869C23.0325 11.315 22.8893 11.343 22.7891 11.385C22.6602 11.4691 22.5599 11.5672 22.4597 11.6653C22.4454 11.6933 22.4167 11.7073 22.4024 11.7353C22.3881 11.7493 22.3738 11.7634 22.3738 11.7774C22.3595 11.7914 22.3595 11.7914 22.3451 11.8054C22.2592 11.9035 22.2019 12.0016 22.1303 12.1137C22.1303 12.1277 22.116 12.1277 22.116 12.1277C22.116 12.1417 22.1017 12.1557 22.0874 12.1697C22.0014 12.3238 21.9298 12.492 21.8869 12.6601C21.7007 13.2627 21.7866 13.7671 21.9155 13.8932C21.9442 13.9212 22.7891 14.1874 23.3905 14.4537C23.677 14.5798 23.8631 14.6639 24.035 14.776H39.0001L38.9858 0.805908Z" fill="#E1000F"/>
<path d="M25.0086 6.03951C25.1404 6.06705 25.3218 6.06705 25.3218 6.12213C25.2558 6.32865 24.8932 6.38373 24.6954 6.59025H24.5964C24.4975 6.64533 24.5305 6.76924 24.4481 6.76924C24.3492 6.74171 24.2668 6.76924 24.1678 6.79678C24.2997 6.90693 24.4481 6.97577 24.6294 6.94823C24.6624 6.94823 24.7283 7.00331 24.7283 7.05838C24.7283 7.05838 24.7613 7.05838 24.7943 7.03085C24.8272 7.03085 24.8602 7.03085 24.8602 7.05838V7.16853C24.7613 7.27868 24.6129 7.2236 24.4811 7.25114C24.7283 7.30621 24.9756 7.30621 25.2064 7.25114C25.3877 7.19607 25.2064 6.93447 25.3383 6.81055C25.2723 6.81055 25.3383 6.72794 25.2723 6.72794C25.3383 6.67286 25.4042 6.60402 25.4537 6.57649C25.5196 6.57649 25.602 6.54895 25.635 6.49387C25.635 6.4388 25.5031 6.41126 25.5361 6.36996C25.7174 6.25981 25.8823 6.10836 25.8163 5.9569C25.7834 5.87429 25.5361 5.87429 25.3877 5.81922C25.2394 5.76415 25.0415 5.81922 24.8602 5.84676C24.7118 5.84676 24.547 5.92937 24.3986 5.9569C24.1843 6.01198 23.9865 6.10836 23.8052 6.2185C24.0195 6.13589 24.2338 6.10836 24.4811 6.06705C24.6624 6.03951 24.8108 6.01198 25.0086 6.03951Z" fill="#808080"/>
<path d="M37.2071 84.1845C37.5278 84.1845 37.8048 84.4282 37.659 84.9872L36.1868 85.3743C36.42 84.6862 36.8573 84.1845 37.2071 84.1845ZM38.0234 86.5354H37.7319C37.3675 86.9654 36.9593 87.3094 36.5658 87.3094C36.1576 87.3094 35.9536 87.0657 35.9536 86.5354C35.9536 86.3203 35.9827 86.091 36.0265 85.8903L38.417 85.1162C38.8834 84.0268 38.3149 83.5538 37.659 83.5538C36.5221 83.5538 35.2394 85.5033 35.2394 87.0371C35.2394 87.7681 35.5892 88.1695 36.1431 88.1695C36.799 88.1695 37.4695 87.5531 38.0234 86.5354ZM37.6444 83.0377L39 81.8193V81.6473H38.0963L37.2946 83.0521L37.6444 83.0377ZM32.5573 84.2132H33.3445L32.0909 87.5961C31.9743 87.8828 32.1346 88.1695 32.4407 88.1695C33.3299 88.1695 34.3939 87.4241 34.8021 86.3633H34.5834C34.2628 86.8077 33.5631 87.2951 33.0384 87.3954L34.1899 84.2132H35.3705L35.5163 83.7258H34.3648L34.8021 82.5073H34.3502L33.5339 83.7258L32.5573 83.8548V84.2132ZM31.7411 84.0411C31.8431 83.7258 31.6245 83.5538 31.4641 83.5538C30.7791 83.5538 29.9482 84.1702 29.6275 85.0159H29.8462C30.0648 84.7005 30.4438 84.3565 30.8082 84.2992L29.4818 87.6821C29.3652 87.9975 29.5984 88.1695 29.7733 88.1695C30.4292 88.1695 31.2018 87.5531 31.5224 86.7074H31.3038C31.0852 87.0227 30.7062 87.3668 30.3418 87.4241L31.7411 84.0411ZM31.8723 82.6937C32.1638 82.6937 32.4116 82.45 32.4116 82.1633C32.4116 81.8766 32.1638 81.6329 31.8723 81.6329C31.5662 81.6329 31.3329 81.8766 31.3329 82.1633C31.3329 82.4643 31.5662 82.6937 31.8723 82.6937ZM25.4733 84.4998C25.6774 84.4998 25.794 84.8152 25.4733 85.5176L24.5405 87.5531C24.3656 87.9401 24.555 88.1838 24.934 88.1838C25.1672 88.1838 25.2693 88.1265 25.3713 87.8828L26.2896 85.5033C26.7123 84.9872 27.4994 84.4425 27.8492 84.4425C28.097 84.4425 28.0679 84.6432 27.9076 84.9586L26.4937 87.6104C26.3625 87.8685 26.5374 88.1838 26.8435 88.1838C27.5286 88.1838 28.3594 87.5674 28.6801 86.7217H28.4323C28.2137 87.0371 27.8347 87.3811 27.4703 87.4384L28.6801 85.0302C28.8404 84.7292 28.9133 84.4425 28.9133 84.2132C28.9133 83.8261 28.6947 83.5681 28.272 83.5681C27.6743 83.5681 27.1642 84.2275 26.4354 85.0446V84.4138C26.4354 83.9695 26.2896 83.5681 25.8815 83.5681C25.4005 83.5681 24.9632 84.3135 24.6133 85.0302H24.832C25.0798 84.6862 25.2984 84.4998 25.4733 84.4998ZM24.5259 84.5859C24.6862 84.0268 24.5988 83.5538 24.1761 83.5538C23.6367 83.5538 23.4618 83.9121 22.9371 85.0302V84.3995C22.9371 83.9551 22.7913 83.5538 22.3832 83.5538C21.9022 83.5538 21.4649 84.2992 21.1151 85.0159H21.3337C21.5669 84.6862 21.7856 84.4855 21.9605 84.4855C22.1646 84.4855 22.2812 84.8009 21.9605 85.5033L21.0276 87.5388C20.8527 87.9258 21.0422 88.1695 21.4212 88.1695C21.6544 88.1695 21.7564 88.1122 21.8585 87.8685L22.7476 85.4889C23.01 85.1736 23.2432 84.9012 23.5347 84.6002L24.5259 84.5859ZM19.4388 84.1845C19.7595 84.1845 20.0364 84.4282 19.8907 84.9872L18.4185 85.3743C18.6663 84.6862 19.089 84.1845 19.4388 84.1845ZM20.2551 86.5354H19.9636C19.5992 86.9654 19.191 87.3094 18.7975 87.3094C18.3893 87.3094 18.1853 87.0657 18.1853 86.5354C18.1853 86.3203 18.2144 86.091 18.2582 85.8903L20.6486 85.1162C21.1151 84.0268 20.5612 83.5538 19.8907 83.5538C18.7537 83.5538 17.471 85.5033 17.471 87.0371C17.471 87.7681 17.8209 88.1695 18.3748 88.1695C19.0307 88.1695 19.7012 87.5531 20.2551 86.5354ZM14.789 84.2132H15.5761L14.3226 87.5961C14.206 87.8828 14.3663 88.1695 14.6724 88.1695C15.5616 88.1695 16.6402 87.4241 17.0338 86.3633H16.8151C16.4944 86.8077 15.7948 87.2951 15.27 87.3954L16.4216 84.2132H17.6022L17.748 83.7258H16.5965L17.0338 82.5073H16.5819L15.7656 83.7258L14.789 83.8548V84.2132ZM10.6057 86.8507C10.6057 85.8043 11.7863 84.3852 12.4568 84.3852C12.6026 84.3852 12.7484 84.3995 12.865 84.4425L12.1799 86.2487C11.7863 86.7217 11.1741 87.2951 10.8826 87.2951C10.7077 87.2951 10.6057 87.1661 10.6057 86.8507ZM14.2351 83.3531L13.8707 83.3244L13.4626 83.7258H13.3897C11.6552 83.7258 9.78941 85.8473 9.78941 87.5244C9.78941 87.9115 10.0081 88.1695 10.4308 88.1695C10.9409 88.1695 11.4365 87.4528 12.005 86.693L11.9758 86.9654C11.903 87.7395 12.1507 88.1695 12.5589 88.1695C13.0399 88.1695 13.4772 87.4241 13.8124 86.7074H13.5938C13.3606 87.0371 13.1419 87.2377 12.967 87.2377C12.7921 87.2377 12.6609 86.9081 12.967 86.22L14.2351 83.3531ZM10.5182 84.5859C10.6786 84.0268 10.5911 83.5538 10.1684 83.5538C9.62908 83.5538 9.45416 83.9121 8.92942 85.0302V84.3995C8.92942 83.9551 8.78366 83.5538 8.36095 83.5538C7.87994 83.5538 7.44265 84.2992 7.1074 85.0159H7.32605C7.55926 84.6862 7.7779 84.4855 7.95282 84.4855C8.15688 84.4855 8.27349 84.8009 7.95282 85.5033L7.00537 87.5531C6.83046 87.9401 7.01995 88.1838 7.39893 88.1838C7.63214 88.1838 7.73418 88.1265 7.83621 87.8828L8.75451 85.4889C9.01688 85.1736 9.2501 84.9012 9.54162 84.6002L10.5182 84.5859ZM4.41082 88.0118L4.49827 87.7538C3.34676 87.5388 3.201 87.5388 3.66743 86.306L4.10472 85.1449H5.02301C5.59148 85.1449 5.60606 85.3886 5.5186 86.005H5.85385L6.61181 83.9551H6.27656C5.98504 84.4425 5.7664 84.8152 5.13962 84.8152H4.22133L4.8481 83.1381C5.06674 82.536 5.16878 82.4213 5.95589 82.4213H6.15995C6.96164 82.4213 7.06367 82.6364 7.06367 83.4678H7.38435L7.64672 82.0773H3.201L3.11354 82.3353C4.03184 82.5217 4.11929 82.6077 3.69659 83.7831L2.74914 86.3203C2.31185 87.4814 2.13694 87.5818 1.07288 87.7681L1 88.0261L4.41082 88.0118Z" fill="black"/>
<path d="M26.4645 74.3083C26.7852 74.3083 27.0621 74.5519 26.9164 75.111L25.4442 75.498C25.6774 74.81 26.1147 74.3083 26.4645 74.3083ZM27.2808 76.6591H26.9893C26.6248 77.0892 26.2167 77.4332 25.8232 77.4332C25.415 77.4332 25.211 77.1895 25.211 76.6591C25.211 76.4441 25.2401 76.2147 25.2838 76.0141L27.6743 75.24C28.1408 74.1506 27.5723 73.6775 26.9164 73.6775C25.7794 73.6775 24.4967 75.627 24.4967 77.1608C24.4967 77.8919 24.8466 78.2933 25.4005 78.2933C26.0564 78.3076 26.7269 77.6769 27.2808 76.6591ZM26.9018 73.1615L28.2574 71.943V71.771H27.3537L26.552 73.1758L26.9018 73.1615ZM21.8147 74.3369H22.6018L21.3483 77.7199C21.2317 78.0066 21.392 78.2933 21.6981 78.2933C22.5873 78.2933 23.6513 77.5479 24.0594 76.4871H23.8408C23.5201 76.9315 22.8205 77.4189 22.2957 77.5192L23.4473 74.3369H24.6279L24.7737 73.8495H23.6222L24.0594 72.6311H23.6076L22.7913 73.8495L21.8147 73.9929V74.3369ZM20.9985 74.1792C21.1005 73.8639 20.8819 73.6919 20.7069 73.6919C20.0219 73.6919 19.191 74.3083 18.8703 75.154H19.089C19.3076 74.8386 19.6866 74.4946 20.051 74.4373L18.7246 77.8202C18.608 78.1356 18.8412 78.3076 19.0161 78.3076C19.672 78.3076 20.4446 77.6912 20.7652 76.8455H20.5466C20.328 77.1608 19.949 77.5049 19.5846 77.5622L20.9985 74.1792ZM21.1296 72.8318C21.4212 72.8318 21.669 72.5881 21.669 72.3014C21.669 72.0147 21.4212 71.771 21.1296 71.771C20.8235 71.771 20.5903 72.0147 20.5903 72.3014C20.5903 72.5881 20.8235 72.8318 21.1296 72.8318ZM16.9026 77.5622L19.089 71.857L19.0161 71.7567L17.5002 71.9287V72.1007L17.7917 72.3157C18.0541 72.5164 17.9666 72.7028 17.7334 73.3478L16.0717 77.7055C15.926 77.9636 16.1155 78.2789 16.4216 78.2789C17.1066 78.2789 17.85 77.6625 18.1707 76.8168H17.952C17.7188 77.1465 17.2524 77.4905 16.9026 77.5622ZM12.4423 76.9745C12.4423 75.9281 13.6229 74.5089 14.2934 74.5089C14.4392 74.5089 14.5704 74.5233 14.7016 74.5663L14.0019 76.3724C13.6084 76.8455 12.9962 77.4189 12.7046 77.4189C12.5443 77.4332 12.4423 77.2898 12.4423 76.9745ZM16.0717 73.4912L15.7073 73.4625L15.2992 73.8639H15.2263C13.4917 73.8639 11.626 75.9854 11.626 77.6625C11.626 78.0496 11.8446 78.3076 12.2674 78.3076C12.7775 78.3076 13.2731 77.5909 13.8416 76.8311L13.8124 77.1035C13.7395 77.8776 13.9873 78.3076 14.3955 78.3076C14.8765 78.3076 15.3138 77.5622 15.649 76.8455H15.4304C15.1972 77.1752 14.9785 77.3758 14.8036 77.3758C14.6287 77.3758 14.4975 77.0462 14.8036 76.3724L16.0717 73.4912ZM7.63214 79.1247C7.63214 78.6803 8.06943 78.3936 8.6962 78.1499C8.90027 78.2503 9.22094 78.3649 9.62907 78.4939C10.285 78.709 10.5328 78.795 10.5328 78.9813C10.5328 79.397 9.93517 79.7124 8.84196 79.7124C8.0257 79.7267 7.63214 79.5547 7.63214 79.1247ZM9.42501 76.3868C9.13348 76.3868 9.03145 76.1431 9.03145 75.8707C9.03145 75.025 9.43958 74.0072 10.0955 74.0072C10.387 74.0072 10.4891 74.2509 10.4891 74.5233C10.4891 75.3547 10.0664 76.3868 9.42501 76.3868ZM11.2908 78.709C11.2908 78.1643 10.7952 77.9636 9.99348 77.7342C9.3084 77.5335 8.98772 77.4762 8.98772 77.2468C8.98772 77.0748 9.13348 76.8598 9.42501 76.7021C10.5619 76.6448 11.2762 75.6414 11.2762 74.7526C11.2762 74.5949 11.247 74.4516 11.2033 74.3226H11.9758L12.1216 73.8352H10.8097C10.6348 73.7205 10.4162 73.6632 10.1684 73.6632C8.97315 73.6632 8.20061 74.6953 8.20061 75.6127C8.20061 76.2004 8.55044 76.6018 9.10433 76.6735C8.55044 76.9315 8.22976 77.2038 8.22976 77.5479C8.22976 77.7485 8.30264 77.8919 8.47756 78.0209C7.19486 78.3936 6.67012 78.8666 6.67012 79.4114C6.67012 79.9991 7.45723 80.2428 8.3901 80.2428C9.96432 80.2571 11.2908 79.4114 11.2908 78.709ZM5.34369 75.2687C5.91216 75.2687 5.92673 75.5124 5.83928 76.1287H6.17453L6.93249 74.0789H6.59724C6.30571 74.5663 6.08707 74.939 5.4603 74.939H4.19217L4.81895 73.2618C5.03759 72.6598 5.1542 72.5451 5.92673 72.5451H6.48063C7.28231 72.5451 7.38435 72.7601 7.38435 73.5915H7.70502L7.96739 72.2011H3.201L3.11354 72.4591C4.03184 72.6454 4.11929 72.7314 3.69659 73.9069L2.74914 76.4441C2.31185 77.6052 2.13694 77.7055 1.07288 77.8919L1 78.1499H6.30571L7.25316 76.6735H6.88876C6.27656 77.2755 5.64979 77.8059 4.46912 77.8059C3.05524 77.8059 3.18642 77.7342 3.65286 76.4441L4.09014 75.283L5.34369 75.2687ZM6.02877 71.771L7.38435 70.7963V70.6243H6.48063L5.67894 71.771H6.02877Z" fill="black"/>
<path d="M26.2896 64.446C26.6103 64.446 26.8872 64.6897 26.7415 65.2488L25.2693 65.6358C25.5025 64.9334 25.9398 64.446 26.2896 64.446ZM27.1059 66.7969H26.8143C26.4499 67.2269 26.0418 67.571 25.6483 67.571C25.2401 67.571 25.0361 67.3273 25.0361 66.7969C25.0361 66.5819 25.0652 66.3525 25.1089 66.1518L27.4994 65.3778C27.9659 64.2883 27.3974 63.8153 26.7415 63.8153C25.6045 63.8153 24.3218 65.7648 24.3218 67.2986C24.3218 68.0297 24.6716 68.431 25.2255 68.431C25.8815 68.431 26.552 67.8146 27.1059 66.7969ZM26.7269 63.2993L28.0825 62.0808V61.9088H27.1787L26.3771 63.3136L26.7269 63.2993ZM21.6398 64.4604H22.4415L21.188 67.8433C21.0713 68.13 21.2317 68.4167 21.5378 68.4167C22.4269 68.4167 23.5056 67.6713 23.8991 66.6105H23.6805C23.3598 67.0549 22.6601 67.5423 22.1354 67.6426L23.2869 64.4604H24.4676L24.6133 63.973H23.4618L23.8991 62.7545H23.4473L22.631 63.973L21.6544 64.102L21.6398 64.4604ZM21.2317 64.8474C21.392 64.2883 21.3046 63.8153 20.8819 63.8153C20.3425 63.8153 20.1676 64.1737 19.6429 65.2918V64.661C19.6429 64.2167 19.4971 63.8153 19.089 63.8153C18.608 63.8153 18.1707 64.5607 17.8209 65.2774H18.0395C18.2727 64.9477 18.4914 64.747 18.6663 64.747C18.8703 64.747 18.987 65.0624 18.6663 65.7648L17.7334 67.8003C17.5585 68.1873 17.748 68.431 18.127 68.431C18.3602 68.431 18.4622 68.3737 18.5642 68.13L19.4825 65.7505C19.7449 65.4351 19.9781 65.1627 20.2697 64.8617L21.2317 64.8474ZM16.1446 64.446C16.4653 64.446 16.7422 64.6897 16.5965 65.2488L15.1243 65.6358C15.3575 64.9334 15.7948 64.446 16.1446 64.446ZM16.9609 66.7969H16.6693C16.3049 67.2269 15.8968 67.571 15.5033 67.571C15.0951 67.571 14.8911 67.3273 14.8911 66.7969C14.8911 66.5819 14.9202 66.3525 14.9639 66.1518L17.3544 65.3778C17.8209 64.2883 17.267 63.8153 16.5965 63.8153C15.4595 63.8153 14.1768 65.7648 14.1768 67.2986C14.1768 68.0297 14.5267 68.431 15.0805 68.431C15.7365 68.431 16.407 67.8146 16.9609 66.7969ZM11.3928 67.743C11.1596 67.743 10.8243 67.528 10.8243 67.3416C10.8243 67.2843 10.9264 67.0119 11.0575 66.6822L11.4365 65.6788C11.8446 65.1914 12.486 64.661 12.8504 64.661C13.069 64.661 13.2294 64.8044 13.2294 65.1054C13.2148 66.0515 12.3402 67.743 11.3928 67.743ZM14.0456 64.747C14.0456 64.059 13.8707 63.801 13.3751 63.801C12.7629 63.801 12.1945 64.446 11.6114 65.2201L12.8358 61.9805L12.7629 61.8801L11.247 62.0521V62.2242L11.5385 62.4392C11.8009 62.6399 11.7135 62.8405 11.4802 63.4713L10.1538 66.8972C10.0372 67.1839 9.90602 67.528 9.90602 67.614C9.90602 68.0153 10.4599 68.4024 10.9701 68.4024C12.1216 68.431 14.0456 66.3525 14.0456 64.747ZM9.57077 64.3027C9.65823 63.9873 9.45416 63.8153 9.27925 63.8153C8.59417 63.8153 7.76333 64.4317 7.44265 65.2774H7.6613C7.87994 64.9621 8.25892 64.618 8.62332 64.5607L7.29689 67.9437C7.18028 68.259 7.4135 68.431 7.58841 68.431C8.24434 68.431 9.01688 67.8146 9.33755 66.9689H9.11891C8.90027 67.2843 8.52129 67.6283 8.15688 67.6856L9.57077 64.3027ZM9.71653 62.9552C10.0081 62.9552 10.2558 62.7115 10.2558 62.4248C10.2558 62.1381 10.0081 61.8945 9.71653 61.8945C9.41043 61.8945 9.17721 62.1381 9.17721 62.4248C9.17721 62.7115 9.41043 62.9552 9.71653 62.9552ZM6.34944 62.3102H3.201L3.11354 62.5682C4.03184 62.7545 4.11929 62.8405 3.69659 64.016L2.74914 66.5532C2.31185 67.7143 2.13694 67.8146 1.07288 68.001L1 68.259H5.78097L6.81588 66.4385H6.45148C5.85385 67.0836 5.16878 67.9007 4.10472 67.9007C3.30303 67.9007 3.18642 67.7573 3.63828 66.5389L4.58573 64.0016C5.02301 62.8405 5.19793 62.7402 6.26199 62.5539L6.34944 62.3102Z" fill="black"/>
</svg>