<?xml version="1.0" encoding="UTF-8"?>
<svg width="23px" height="34px" viewBox="0 0 23 34" version="1.1" xmlns="http://www.w3.org/2000/svg" xmlns:xlink="http://www.w3.org/1999/xlink">
    <!-- Generator: Sketch 60 (88103) - https://sketch.com -->
    <title>Icones/FranceTransfert/Cercle/Ajout/Actif/Curseur</title>
    <desc>Created with Sketch.</desc>
    <defs>
        <filter x="-15.2%" y="-15.2%" width="130.4%" height="130.4%" filterUnits="objectBoundingBox" id="filter-1">
            <feOffset dx="0" dy="0" in="SourceAlpha" result="shadowOffsetOuter1"></feOffset>
            <feGaussianBlur stdDeviation="0.5" in="shadowOffsetOuter1" result="shadowBlurOuter1"></feGaussianBlur>
            <feColorMatrix values="0 0 0 0 0   0 0 0 0 0   0 0 0 0 0  0 0 0 0.5 0" type="matrix" in="shadowBlurOuter1" result="shadowMatrixOuter1"></feColorMatrix>
            <feMerge>
                <feMergeNode in="shadowMatrixOuter1"></feMergeNode>
                <feMergeNode in="SourceGraphic"></feMergeNode>
            </feMerge>
        </filter>
        <path d="M8.66666667,5.33333333 L5.33333333,5.33333333 L5.33333333,8.66666667 C5.33333333,9.03333333 5.03333333,9.33333333 4.66666667,9.33333333 C4.3,9.33333333 4,9.03333333 4,8.66666667 L4,5.33333333 L0.666666667,5.33333333 C0.3,5.33333333 0,5.03333333 0,4.66666667 C0,4.3 0.3,4 0.666666667,4 L4,4 L4,0.666666667 C4,0.3 4.3,0 4.66666667,0 C5.03333333,0 5.33333333,0.3 5.33333333,0.666666667 L5.33333333,4 L8.66666667,4 C9.03333333,4 9.33333333,4.3 9.33333333,4.66666667 C9.33333333,5.03333333 9.03333333,5.33333333 8.66666667,5.33333333 Z" id="path-2"></path>
        <filter x="-53.3%" y="-34.8%" width="206.7%" height="169.6%" filterUnits="objectBoundingBox" id="filter-4">
            <feOffset dx="0" dy="1" in="SourceAlpha" result="shadowOffsetOuter1"></feOffset>
            <feGaussianBlur stdDeviation="1.5" in="shadowOffsetOuter1" result="shadowBlurOuter1"></feGaussianBlur>
            <feColorMatrix values="0 0 0 0 0   0 0 0 0 0   0 0 0 0 0  0 0 0 0.2 0" type="matrix" in="shadowBlurOuter1" result="shadowMatrixOuter1"></feColorMatrix>
            <feMerge>
                <feMergeNode in="shadowMatrixOuter1"></feMergeNode>
                <feMergeNode in="SourceGraphic"></feMergeNode>
            </feMerge>
        </filter>
        <polygon id="path-5" points="1.085 0.3845 1.085 1.3845 0.9834 1.3845 0.9834 0.3845 1.085 0.3845"></polygon>
        <polygon id="path-7" points="1.3407 1 0.3407 1 0.3407 0.3387 1.3407 0.3387"></polygon>
        <polygon id="path-9" points="1.085 0.1179 1.085 1.1179 0.1685 1.1179 0.1685 0.1179 1.085 0.1179"></polygon>
        <polygon id="path-11" points="1.085 0.5607 1.085 1 0.1683 1 0.1683 0.5607 1.085 0.5607"></polygon>
        <polygon id="path-13" points="7.04225 21 0 21 0 0.502 7.04225 0.502 14.0845 0.502 14.0845 21 7.04225 21"></polygon>
    </defs>
    <g id="Icones/FranceTransfert/Cercle/Ajout/Actif/Curseur" stroke="none" stroke-width="1" fill="none" fill-rule="evenodd">
        <g id="Icones/FranceTransfert/Cercle/Ajout/Inactif" filter="url(#filter-1)">
            <circle id="Oval" stroke="#0269CC" stroke-width="2" cx="11.5" cy="11.5" r="11.5"></circle>
            <g id="Icones/FranceTransfert/Ajout" transform="translate(4.000000, 4.000000)">
                <g id="Colors/Icones" transform="translate(3.333333, 3.333333)">
                    <mask id="mask-3" fill="white">
                        <use xlink:href="#path-2"></use>
                    </mask>
                    <use id="Mask" fill="#000000" fill-rule="nonzero" xlink:href="#path-2"></use>
                    <g id="Colors/FranceTransfert/Primaire/Bleu-2" mask="url(#mask-3)" fill="#0269CC">
                        <g transform="translate(-3.333333, -3.333333)" id="Colors/France-transfert/Secondaire/Bleu-2">
                            <rect x="0" y="0" width="16" height="16"></rect>
                        </g>
                    </g>
                </g>
            </g>
        </g>
        <g id="CURSOR-TYPE" filter="url(#filter-4)" transform="translate(7.000000, 11.000000)">
            <path d="M10.0266,12.0881 C10.0276,12.0861 10.0296,12.0831 10.0306,12.0811 L10.0526,12.1631 L10.0266,12.0881 Z M11.5216,17.5601 C11.5216,17.4561 11.5546,17.3551 11.6136,17.2701 L12.4616,16.0761 C12.8156,15.5771 13.0036,14.9881 13.0036,14.3731 L13.0036,9.4971 C13.0036,7.4221 12.7826,7.0801 12.0276,7.0161 L12.0276,8.4971 C12.0276,8.7741 11.8046,8.9971 11.5276,8.9971 C11.2516,8.9971 11.0276,8.7741 11.0276,8.4971 L11.0276,6.5721 C10.9696,6.3961 10.7396,5.9191 9.9696,5.9291 L9.9696,8.4971 C9.9696,8.7741 9.7456,8.9971 9.4696,8.9971 C9.1926,8.9971 8.9696,8.7741 8.9696,8.4971 L8.9696,5.5941 C8.8756,5.4281 8.5986,5.0421 8.0846,4.9971 L8.0846,8.4971 C8.0846,8.7741 7.8606,8.9971 7.5846,8.9971 C7.3076,8.9971 7.0846,8.7741 7.0846,8.4971 L7.0846,5.0731 C7.0836,5.0611 7.0776,5.0511 7.0776,5.0391 L7.0776,2.9971 C7.0776,2.4391 6.6906,2.0111 6.1776,2.0001 C5.6306,2.0121 5.1136,2.4871 5.1136,2.9971 L5.1136,10.1541 C5.1136,10.3661 4.9806,10.5541 4.7816,10.6251 C4.5856,10.6971 4.3606,10.6341 4.2266,10.4721 L2.6996,8.6101 C2.5236,8.4341 2.2596,8.3191 1.9876,8.3191 L1.9866,8.3191 C1.7146,8.3191 1.4506,8.4341 1.2426,8.6441 C0.9146,8.9771 0.9266,9.5351 1.2686,9.8881 L2.6486,11.8641 C3.2676,12.7531 3.7656,13.7241 4.1276,14.7481 C4.4566,15.7521 5.2266,17.2211 5.8456,17.2211 C6.1206,17.2211 6.3446,17.4441 6.3456,17.7201 L6.3466,18.4971 L11.5216,18.4971 L11.5216,17.8311 L11.5216,17.5601 Z" id="Fill-1" fill="#FFFFFF"></path>
            <g id="Group-5" transform="translate(13.000000, 8.497600)">
                <mask id="mask-6" fill="white">
                    <use xlink:href="#path-5"></use>
                </mask>
                <g id="Clip-4"></g>
                <path d="M0.9834,0.3845 C0.9884,0.4975 0.9924,0.6115 0.9944,0.7335 C0.9924,0.6135 0.9894,0.4945 0.9834,0.3845" id="Fill-3" fill="#FFFFFF" mask="url(#mask-6)"></path>
            </g>
            <g id="Group-8" transform="translate(4.000000, 20.497600)">
                <mask id="mask-8" fill="white">
                    <use xlink:href="#path-7"></use>
                </mask>
                <g id="Clip-7"></g>
                <path d="M0.3407,0.3387 C0.5027,0.5777 0.7317,0.7687 1.0007,0.8817 C0.7317,0.7687 0.5027,0.5777 0.3407,0.3387" id="Fill-6" fill="#FFFFFF" mask="url(#mask-8)"></path>
            </g>
            <g id="Group-11" transform="translate(13.000000, 18.497600)">
                <mask id="mask-10" fill="white">
                    <use xlink:href="#path-9"></use>
                </mask>
                <g id="Clip-10"></g>
                <path d="M0.1685,0.1179 C0.3475,0.1939 0.5095,0.3039 0.6455,0.4389 C0.5095,0.3039 0.3475,0.1939 0.1685,0.1179" id="Fill-9" fill="#FFFFFF" mask="url(#mask-10)"></path>
            </g>
            <path d="M5.0008,18.6155 C4.7318,18.7295 4.5028,18.9195 4.3408,19.1585 C4.5028,18.9195 4.7318,18.7295 5.0008,18.6155" id="Fill-12" fill="#FFFFFF"></path>
            <path d="M12.5845,19.4976 L12.0005,19.4976 L5.8485,19.4976 L5.5845,19.4976 C5.3085,19.4976 5.0845,19.7216 5.0845,19.9976 C5.0845,20.2736 5.3085,20.4976 5.5845,20.4976 L12.5845,20.4976 C12.8605,20.4976 13.0845,20.2736 13.0845,19.9976 C13.0845,19.7216 12.8605,19.4976 12.5845,19.4976" id="Fill-14" fill="#FFFFFF"></path>
            <g id="Group-18" transform="translate(13.000000, 20.497600)">
                <mask id="mask-12" fill="white">
                    <use xlink:href="#path-11"></use>
                </mask>
                <g id="Clip-17"></g>
                <path d="M0.6453,0.5607 C0.5093,0.6967 0.3483,0.8067 0.1683,0.8817 C0.3483,0.8067 0.5093,0.6967 0.6453,0.5607" id="Fill-16" fill="#FFFFFF" mask="url(#mask-12)"></path>
            </g>
            <g transform="translate(0.000000, 0.497600)">
                <mask id="mask-14" fill="white">
                    <use xlink:href="#path-13"></use>
                </mask>
                <g id="Clip-20"></g>
                <path d="M12.5845,20 L5.5845,20 C5.3085,20 5.0845,19.776 5.0845,19.5 C5.0845,19.224 5.3085,19 5.5845,19 L5.8485,19 L12.0005,19 L12.5845,19 C12.8605,19 13.0845,19.224 13.0845,19.5 C13.0845,19.776 12.8605,20 12.5845,20 L12.5845,20 Z M6.3475,18 L6.3455,17.222 C6.3445,16.946 6.1205,16.723 5.8455,16.723 C5.2275,16.723 4.4565,15.254 4.1275,14.251 C3.7655,13.226 3.2685,12.255 2.6485,11.367 L1.2695,9.391 C0.9265,9.038 0.9145,8.479 1.2425,8.147 C1.4505,7.937 1.7145,7.821 1.9865,7.821 L1.9875,7.821 C2.2595,7.821 2.5235,7.937 2.6995,8.113 L4.2275,9.974 C4.3605,10.137 4.5855,10.2 4.7815,10.127 C4.9805,10.056 5.1135,9.868 5.1135,9.657 L5.1135,2.5 C5.1135,1.989 5.6305,1.514 6.1775,1.502 C6.6905,1.513 7.0775,1.942 7.0775,2.5 L7.0775,4.542 C7.0775,4.554 7.0835,4.564 7.0845,4.575 L7.0845,8 C7.0845,8.276 7.3085,8.5 7.5845,8.5 C7.8605,8.5 8.0845,8.276 8.0845,8 L8.0845,4.499 C8.5985,4.545 8.8755,4.93 8.9695,5.097 L8.9695,8 C8.9695,8.276 9.1925,8.5 9.4695,8.5 C9.7455,8.5 9.9695,8.276 9.9695,8 L9.9695,5.431 C10.7395,5.422 10.9695,5.899 11.0275,6.074 L11.0275,8 C11.0275,8.276 11.2515,8.5 11.5275,8.5 C11.8045,8.5 12.0275,8.276 12.0275,8 L12.0275,6.519 C12.7825,6.583 13.0035,6.925 13.0035,9 L13.0035,13.875 C13.0035,14.491 12.8155,15.08 12.4615,15.579 L11.6135,16.773 C11.5545,16.858 11.5225,16.959 11.5225,17.062 L11.5225,17.333 L11.5225,18 L6.3475,18 Z M13.6455,18.439 C13.5095,18.304 13.3475,18.194 13.1685,18.118 C12.9895,18.042 12.7915,18 12.5845,18 L12.5225,18 L12.5225,17.333 L12.5225,17.222 L13.2775,16.158 C13.7525,15.488 14.0035,14.699 14.0035,13.875 L14.0035,9 C14.0035,8.901 13.9965,8.827 13.9945,8.734 C13.9925,8.612 13.9885,8.498 13.9835,8.384 C13.8845,6.044 13.2095,5.579 11.8745,5.511 C11.5935,4.958 10.9355,4.335 9.7355,4.44 C9.5025,4.1 9.0315,3.642 8.2875,3.533 C8.2255,3.505 8.1575,3.488 8.0845,3.488 L8.0775,3.488 L8.0775,2.5 C8.0775,1.401 7.2525,0.524 6.1775,0.502 C5.0595,0.525 4.1135,1.44 4.1135,2.5 L4.1135,8.261 L3.4415,7.444 C3.0465,7.042 2.5295,6.821 1.9875,6.821 L1.9865,6.821 C1.4455,6.821 0.9285,7.042 0.5315,7.444 C-0.1765,8.161 -0.1675,9.346 0.4995,10.024 L1.8285,11.937 C2.3965,12.753 2.8525,13.644 3.1805,14.573 C3.3335,15.04 4.0895,17.162 5.3465,17.631 L5.3475,18.024 C5.2265,18.043 5.1095,18.072 5.0005,18.118 C4.7315,18.232 4.5025,18.422 4.3405,18.661 C4.1785,18.901 4.0845,19.189 4.0845,19.5 C4.0845,19.811 4.1785,20.099 4.3405,20.339 C4.5025,20.578 4.7315,20.768 5.0005,20.882 C5.1805,20.958 5.3775,21 5.5845,21 L12.5845,21 C12.7915,21 12.9895,20.958 13.1685,20.882 C13.3475,20.806 13.5095,20.696 13.6455,20.561 C13.9165,20.289 14.0845,19.914 14.0845,19.5 C14.0845,19.086 13.9165,18.711 13.6455,18.439 L13.6455,18.439 Z" id="Fill-19" fill="#000000" mask="url(#mask-14)"></path>
                <path d="M12.5845,20 L5.5845,20 C5.3085,20 5.0845,19.776 5.0845,19.5 C5.0845,19.224 5.3085,19 5.5845,19 L5.8485,19 L12.0005,19 L12.5845,19 C12.8605,19 13.0845,19.224 13.0845,19.5 C13.0845,19.776 12.8605,20 12.5845,20 L12.5845,20 Z" id="Path" fill="#FFFFFF"></path>
            </g>
        </g>
    </g>
</svg>