<?xml version="1.0" encoding="UTF-8"?>
<svg width="24px" height="24px" viewBox="0 0 24 24" version="1.1" xmlns="http://www.w3.org/2000/svg" xmlns:xlink="http://www.w3.org/1999/xlink">
    <!-- Generator: Sketch 60 (88103) - https://sketch.com -->
    <title>Icones/FranceTransfert/Utilisateur/Insatisfait</title>
    <desc>Created with Sketch.</desc>
    <defs>
        <path d="M7.63999577,14.858358 C9.0173692,13.7478442 10.9826223,13.7478442 12.3599958,14.858358 C12.785255,15.2118203 13.4165335,15.1536173 13.7699958,14.728358 C14.123458,14.3030988 14.065255,13.6718203 13.6399958,13.318358 C11.5322726,11.5588473 8.46771897,11.5588473 6.35999577,13.318358 C6.08490127,13.547008 5.95268678,13.9050505 6.01315621,14.2576143 C6.07362565,14.6101781 6.31759227,14.9037004 6.65315621,15.0276143 C6.98872015,15.1515281 7.36490127,15.087008 7.63999577,14.858358 L7.63999577,14.858358 Z M7,9 C7.55228475,9 8,8.55228475 8,8 C8,7.44771525 7.55228475,7 7,7 C6.44771525,7 6,7.44771525 6,8 C6,8.55228475 6.44771525,9 7,9 Z M13,7 C12.4477153,7 12,7.44771525 12,8 C12,8.55228475 12.4477153,9 13,9 C13.5522847,9 14,8.55228475 14,8 C14,7.44771525 13.5522847,7 13,7 Z M10,0 C4.4771525,0 0,4.4771525 0,10 C0,15.5228475 4.4771525,20 10,20 C15.5228475,20 20,15.5228475 20,10 C20,7.3478351 18.9464316,4.80429597 17.0710678,2.92893219 C15.195704,1.0535684 12.6521649,0 10,0 Z M10,18 C5.581722,18 2,14.418278 2,10 C2,5.581722 5.581722,2 10,2 C14.418278,2 18,5.581722 18,10 C18,12.1217319 17.1571453,14.1565632 15.6568542,15.6568542 C14.1565632,17.1571453 12.1217319,18 10,18 Z" id="path-1"></path>
    </defs>
    <g id="Icones/FranceTransfert/Utilisateur/Insatisfait" stroke="none" stroke-width="1" fill="none" fill-rule="evenodd">
        <g id="Colors/Icones" transform="translate(2.000000, 2.000000)">
            <mask id="mask-2" fill="white">
                <use xlink:href="#path-1"></use>
            </mask>
            <use id="Mask" fill="#40a02b" fill-rule="nonzero" xlink:href="#path-1"></use>
            <g id="Colors/FranceTransfert/Neutres/Gris-medium-1" mask="url(#mask-2)" fill="#40a02b">
                <g transform="translate(-2.000000, -2.000000)" id="Colors/France-transfert/Neutres/Gris-medium-1">
                    <rect x="0" y="0" width="24" height="24"></rect>
                </g>
            </g>
        </g>
    </g>
</svg>