<svg xmlns="http://www.w3.org/2000/svg" xmlns:xlink="http://www.w3.org/1999/xlink" viewBox="0 0 202.87 229.11"><defs><style>.cls-1{fill:none;}.cls-2{fill:url(#Dégradé_sans_nom_9);}.cls-3{fill:url(#Dégradé_sans_nom_9-2);}.cls-4{fill:url(#Dégradé_sans_nom_20);}.cls-5{fill:url(#Dégradé_sans_nom_9-3);}.cls-6{fill:url(#Dégradé_sans_nom_9-4);}.cls-7{fill:url(#Dégradé_sans_nom_9-5);}.cls-8{fill:url(#Dégradé_sans_nom_9-6);}.cls-9{fill:url(#Dégradé_sans_nom_20-2);}.cls-10{fill:#878787;}.cls-11{fill:url(#Dégradé_sans_nom_9-7);}.cls-12{fill:url(#Dégradé_sans_nom_9-8);}.cls-13{fill:url(#Dégradé_sans_nom_9-9);}.cls-14{fill:url(#Dégradé_sans_nom_19);}.cls-15{fill:url(#Dégradé_sans_nom_20-3);}.cls-16{fill:url(#Dégradé_sans_nom_20-4);}.cls-17{fill:url(#Dégradé_sans_nom_20-5);}.cls-18{fill:url(#Dégradé_sans_nom_20-6);}.cls-19{fill:url(#Dégradé_sans_nom_20-7);}.cls-20{fill:url(#Dégradé_sans_nom_20-8);}.cls-21{fill:url(#Dégradé_sans_nom_20-9);}.cls-22{fill:url(#Dégradé_sans_nom_20-10);}.cls-23{fill:url(#Dégradé_sans_nom_9-10);}.cls-24{fill:url(#Dégradé_sans_nom_20-11);}.cls-25{fill:url(#Dégradé_sans_nom_20-12);}.cls-26{fill:url(#Dégradé_sans_nom_20-13);}.cls-27{fill:url(#Dégradé_sans_nom_20-14);}.cls-28{fill:url(#Dégradé_sans_nom_20-15);}.cls-29{fill:url(#Dégradé_sans_nom_20-16);}.cls-30{fill:url(#Dégradé_sans_nom_20-17);}.cls-31{fill:url(#Dégradé_sans_nom_20-18);}.cls-32{fill:url(#Dégradé_sans_nom_20-19);}.cls-33{fill:url(#Dégradé_sans_nom_20-20);}.cls-34{fill:url(#Dégradé_sans_nom_20-21);}.cls-35{fill:url(#Dégradé_sans_nom_20-22);}.cls-36{fill:url(#Dégradé_sans_nom_20-23);}.cls-37{fill:url(#Dégradé_sans_nom_20-24);}.cls-38{fill:url(#Dégradé_sans_nom_20-25);}.cls-39{fill:url(#Dégradé_sans_nom_20-26);}.cls-40{stroke-linecap:round;stroke-linejoin:round;stroke-width:4.44px;fill:url(#Dégradé_sans_nom_14);stroke:url(#Dégradé_sans_nom_14-2);}.cls-41{clip-path:url(#clip-path);}.cls-42{fill:#fff;}.cls-43{fill:gray;}</style><linearGradient id="Dégradé_sans_nom_9" x1="140.52" y1="110.3" x2="147.49" y2="110.3" gradientTransform="translate(134.38 -70.84) rotate(49.51)" gradientUnits="userSpaceOnUse"><stop offset="0.23" stop-color="#0153cc"/><stop offset="1" stop-color="#0153cc"/></linearGradient><linearGradient id="Dégradé_sans_nom_9-2" x1="91.35" y1="62.09" x2="105.62" y2="62.09" gradientTransform="matrix(1, 0, 0, 1, 0, 0)" xlink:href="#Dégradé_sans_nom_9"/><linearGradient id="Dégradé_sans_nom_20" x1="91.55" y1="116.66" x2="226.63" y2="-25.79" gradientTransform="translate(100.87 -78.67) rotate(49.51)" gradientUnits="userSpaceOnUse"><stop offset="0" stop-color="#0153cc"/><stop offset="0.03" stop-color="#134fbf"/><stop offset="0.14" stop-color="#4b4197"/><stop offset="0.25" stop-color="#7b3675"/><stop offset="0.35" stop-color="#a32d59"/><stop offset="0.46" stop-color="#c12543"/><stop offset="0.56" stop-color="#d72034"/><stop offset="0.66" stop-color="#e51d2a"/><stop offset="0.75" stop-color="#e91c27"/></linearGradient><linearGradient id="Dégradé_sans_nom_9-3" x1="90.07" y1="85.64" x2="99.7" y2="85.64" gradientTransform="translate(98.4 -42.13) rotate(49.51)" xlink:href="#Dégradé_sans_nom_9"/><linearGradient id="Dégradé_sans_nom_9-4" x1="123.57" y1="131.19" x2="137.84" y2="131.19" gradientTransform="matrix(1, 0, 0, 1, 0, 0)" xlink:href="#Dégradé_sans_nom_9"/><linearGradient id="Dégradé_sans_nom_9-5" x1="120.75" y1="157.12" x2="132.98" y2="157.12" gradientTransform="matrix(1, 0, 0, 1, 0, 0)" xlink:href="#Dégradé_sans_nom_9"/><linearGradient id="Dégradé_sans_nom_9-6" x1="136.65" y1="143.58" x2="148.31" y2="143.58" gradientTransform="matrix(1, 0, 0, 1, 0, 0)" xlink:href="#Dégradé_sans_nom_9"/><linearGradient id="Dégradé_sans_nom_20-2" x1="119.42" y1="143.09" x2="254.49" y2="0.63" gradientTransform="translate(134.19 -81.95) rotate(49.51)" xlink:href="#Dégradé_sans_nom_20"/><linearGradient id="Dégradé_sans_nom_9-7" x1="111.93" y1="82.41" x2="115.03" y2="82.41" gradientTransform="matrix(1, 0, 0, 1, 0, 0)" xlink:href="#Dégradé_sans_nom_9"/><linearGradient id="Dégradé_sans_nom_9-8" x1="118.3" y1="96.85" x2="127.75" y2="96.85" gradientTransform="matrix(1, 0, 0, 1, 0, 0)" xlink:href="#Dégradé_sans_nom_9"/><linearGradient id="Dégradé_sans_nom_9-9" x1="124.71" y1="109.64" x2="136.7" y2="109.64" gradientTransform="matrix(1, 0, 0, 1, 0, 0)" xlink:href="#Dégradé_sans_nom_9"/><linearGradient id="Dégradé_sans_nom_19" x1="33.79" y1="121.96" x2="155.71" y2="121.96" gradientUnits="userSpaceOnUse"><stop offset="0.23" stop-color="#134b9a"/><stop offset="0.46" stop-color="#0f4da4"/><stop offset="0.85" stop-color="#0551c0"/><stop offset="1" stop-color="#0153cc"/></linearGradient><linearGradient id="Dégradé_sans_nom_20-3" x1="122.14" y1="145.67" x2="257.22" y2="3.21" gradientTransform="matrix(1, 0, 0, 1, 0, 0)" xlink:href="#Dégradé_sans_nom_20"/><linearGradient id="Dégradé_sans_nom_20-4" x1="114.82" y1="138.73" x2="249.9" y2="-3.73" gradientTransform="matrix(1, 0, 0, 1, 0, 0)" xlink:href="#Dégradé_sans_nom_20"/><linearGradient id="Dégradé_sans_nom_20-5" x1="57.68" y1="84.55" x2="192.76" y2="-57.91" gradientTransform="matrix(0.65, 0.76, -0.76, 0.65, 57.4, -82.14)" xlink:href="#Dégradé_sans_nom_20"/><linearGradient id="Dégradé_sans_nom_20-6" x1="78.66" y1="104.44" x2="213.73" y2="-38.02" gradientTransform="translate(71.37 -112.43) rotate(49.51)" xlink:href="#Dégradé_sans_nom_20"/><linearGradient id="Dégradé_sans_nom_20-7" x1="80.01" y1="105.72" x2="215.09" y2="-36.73" gradientTransform="matrix(1, 0, 0, 1, 0, 0)" xlink:href="#Dégradé_sans_nom_20"/><linearGradient id="Dégradé_sans_nom_20-8" x1="69.91" y1="96.14" x2="204.98" y2="-46.32" gradientTransform="translate(78.03 -68.52) rotate(49.51)" xlink:href="#Dégradé_sans_nom_20"/><linearGradient id="Dégradé_sans_nom_20-9" x1="103.09" y1="127.6" x2="238.16" y2="-14.86" gradientTransform="translate(106.31 -100.96) rotate(49.51)" xlink:href="#Dégradé_sans_nom_20"/><linearGradient id="Dégradé_sans_nom_20-10" x1="106.27" y1="130.62" x2="241.35" y2="-11.84" gradientTransform="matrix(1, 0, 0, 1, 0, 0)" xlink:href="#Dégradé_sans_nom_20"/><linearGradient id="Dégradé_sans_nom_9-10" x1="132.84" y1="122.98" x2="155.17" y2="122.98" gradientTransform="matrix(1, 0, 0, 1, 0, 0)" xlink:href="#Dégradé_sans_nom_9"/><linearGradient id="Dégradé_sans_nom_20-11" x1="134.84" y1="157.71" x2="269.91" y2="15.25" gradientTransform="matrix(1, 0, 0, 1, 0, 0)" xlink:href="#Dégradé_sans_nom_20"/><linearGradient id="Dégradé_sans_nom_20-12" x1="132.03" y1="155.05" x2="267.11" y2="12.59" gradientTransform="translate(150.48 -80.41) rotate(49.51)" xlink:href="#Dégradé_sans_nom_20"/><linearGradient id="Dégradé_sans_nom_20-13" x1="126.01" y1="149.34" x2="261.09" y2="6.88" gradientTransform="translate(125.96 -123.07) rotate(49.51)" xlink:href="#Dégradé_sans_nom_20"/><linearGradient id="Dégradé_sans_nom_20-14" x1="71.26" y1="97.43" x2="206.34" y2="-45.03" gradientTransform="translate(69.83 -93.27) rotate(49.51)" xlink:href="#Dégradé_sans_nom_20"/><linearGradient id="Dégradé_sans_nom_20-15" x1="104.5" y1="128.94" x2="239.57" y2="-13.52" gradientTransform="translate(96.04 -131.06) rotate(49.51)" xlink:href="#Dégradé_sans_nom_20"/><linearGradient id="Dégradé_sans_nom_20-16" x1="79.6" y1="105.33" x2="214.67" y2="-37.13" gradientTransform="translate(90.67 -67.03) rotate(49.51)" xlink:href="#Dégradé_sans_nom_20"/><linearGradient id="Dégradé_sans_nom_20-17" x1="75.98" y1="101.89" x2="211.05" y2="-40.56" gradientTransform="matrix(1, 0, 0, 1, 0, 0)" xlink:href="#Dégradé_sans_nom_20"/><linearGradient id="Dégradé_sans_nom_20-18" x1="63.43" y1="90" x2="198.51" y2="-52.46" gradientTransform="translate(67.74 -74.14) rotate(49.51)" xlink:href="#Dégradé_sans_nom_20"/><linearGradient id="Dégradé_sans_nom_20-19" x1="86.9" y1="112.25" x2="221.97" y2="-30.21" gradientTransform="matrix(1, 0, 0, 1, 0, 0)" xlink:href="#Dégradé_sans_nom_20"/><linearGradient id="Dégradé_sans_nom_20-20" x1="107.94" y1="132.21" x2="243.02" y2="-10.25" gradientTransform="matrix(1, 0, 0, 1, 0, 0)" xlink:href="#Dégradé_sans_nom_20"/><linearGradient id="Dégradé_sans_nom_20-21" x1="136.63" y1="159.41" x2="271.71" y2="16.95" gradientTransform="matrix(1, 0, 0, 1, 0, 0)" xlink:href="#Dégradé_sans_nom_20"/><linearGradient id="Dégradé_sans_nom_20-22" x1="119.38" y1="143.05" x2="254.46" y2="0.59" gradientTransform="matrix(1, 0, 0, 1, 0, 0)" xlink:href="#Dégradé_sans_nom_20"/><linearGradient id="Dégradé_sans_nom_20-23" x1="104.42" y1="128.86" x2="239.49" y2="-13.6" gradientTransform="translate(101.01 -118.35) rotate(49.51)" xlink:href="#Dégradé_sans_nom_20"/><linearGradient id="Dégradé_sans_nom_20-24" x1="126.9" y1="150.18" x2="261.98" y2="7.72" gradientTransform="matrix(1, 0, 0, 1, 0, 0)" xlink:href="#Dégradé_sans_nom_20"/><linearGradient id="Dégradé_sans_nom_20-25" x1="125.06" y1="148.44" x2="260.14" y2="5.98" gradientTransform="matrix(0.65, 0.76, -0.76, 0.65, 130.66, -108.36)" xlink:href="#Dégradé_sans_nom_20"/><linearGradient id="Dégradé_sans_nom_20-26" x1="117.45" y1="141.22" x2="252.53" y2="-1.24" gradientTransform="translate(117.74 -117.02) rotate(49.51)" xlink:href="#Dégradé_sans_nom_20"/><linearGradient id="Dégradé_sans_nom_14" x1="21.49" y1="159.37" x2="160.79" y2="87.04" gradientUnits="userSpaceOnUse"><stop offset="0" stop-color="#0153cc"/><stop offset="0.45" stop-color="#6b3a80"/><stop offset="0.99" stop-color="#e91c27"/></linearGradient><linearGradient id="Dégradé_sans_nom_14-2" x1="0.86" y1="123.32" x2="183.35" y2="123.32" xlink:href="#Dégradé_sans_nom_14"/><clipPath id="clip-path"><path class="cls-1" d="M90.16,189.5,37,158.78a7,7,0,0,1-3.48-6V91.32a7,7,0,0,1,3.48-6L90.16,54.57a7,7,0,0,1,7,0l53.21,30.72a7,7,0,0,1,3.48,6v61.44a7,7,0,0,1-3.48,6L97.11,189.5A7,7,0,0,1,90.16,189.5Z"/></clipPath></defs><title>Symbole-FranceTransfert-v2</title><g id="Calque_1" data-name="Calque 1"><rect class="cls-2" x="142.01" y="107.42" width="4" height="5.76" transform="translate(-33.39 148.19) rotate(-49.51)"/><polygon class="cls-3" points="99.05 69.17 105.61 61.47 98.49 55.39 97.83 55.01 91.35 62.6 99.05 69.17"/><rect class="cls-4" x="130.27" y="64.57" width="10.96" height="10.96" transform="translate(-5.67 127.8) rotate(-49.51)"/><rect class="cls-5" x="91.47" y="82.23" width="6.83" height="6.83" transform="translate(-31.86 102.19) rotate(-49.51)"/><polygon class="cls-6" points="128.35 126.16 123.57 131.75 128.35 135.83 131.27 138.32 137.84 130.63 130.14 124.06 128.35 126.16"/><polygon class="cls-7" points="126.22 151.19 120.75 157.6 126.22 162.27 127.34 163.23 132.97 156.63 126.38 151 126.22 151.19"/><polygon class="cls-8" points="136.66 144.06 143.25 149.69 148.31 143.76 143.46 139.62 144.03 138.95 142.29 137.46 136.66 144.06"/><rect class="cls-9" x="152.35" y="100.93" width="7.23" height="7.23" transform="translate(-24.81 155.27) rotate(-49.51)"/><rect class="cls-10" x="100.5" y="90.91" width="9.75" height="9.75" transform="translate(-35.89 113.72) rotate(-49.51)"/><polygon class="cls-11" points="115.03 82.1 113.54 80.83 112.93 81.54 111.93 82.71 113.42 83.98 115.03 82.1"/><polygon class="cls-12" points="125.81 98.74 127.75 96.47 122.65 92.12 121.64 93.3 118.3 97.22 123.39 101.57 125.81 98.74"/><polygon class="cls-13" points="124.71 110.11 131.18 115.63 135.6 110.46 136.71 109.16 135.6 108.22 130.23 103.64 124.71 110.11"/><path class="cls-14" d="M144,139l4.69-5.49,5.07-5.93,1.92-2.06-1.92-1.74-8.5,10-12.45-10.63,9.68-11.34-2-1.72L137,107l3.52-4.12,1.32-1.54,5.53,4.72,6.43-7.53v-.59l-1.59-1.35-4.31,5L141.29,96l-2.89,3.38-7.69-6.57,6.57-7.69v0l-7-5.93-5.5-4.69,1.32-1.55-2.09-1.35L115,82.1l2.37,2L120,86.35l-5.53,6.48L108,87.3l3.92-4.59-2.41-2-1.76,2.06-6.59-5.63,1.13-1.33.63-.74-2-1.66,9-10.56.44-.52-1.9-1.09-1.23-.72-8.81-5.08,7.13,6.08-6.57,7.7-7.7-6.57L97.83,55l-.57-.33a7,7,0,0,0-6.94,0L37.26,85.32a6.91,6.91,0,0,0-3.47,6v61.27a6.93,6.93,0,0,0,3.47,6l53.06,30.64a7,7,0,0,0,6.94,0l53.06-30.64a6.93,6.93,0,0,0,3.47-6v-4.15l-5.48-4.68-5.06,5.93-6.6-5.63,5.64-6.6ZM95.37,70.8l3.83,3.26-3.27,3.83-3.82-3.27Zm-.11,19.66L90.07,86l4.43-5.19,5.2,4.43Zm10.65,12.19L98.5,96.32l6.33-7.41,7.41,6.33Zm29.69,5.57,1.1.94-1.1,1.3-4.42,5.17-6.47-5.52,5.52-6.47Zm-9.22-32.08,6.6,5.63-5.64,6.6-6.59-5.63ZM121.64,93.3l1-1.18,5.1,4.36-1.94,2.26-2.41,2.83-5.1-4.35Zm5.7,69.93-1.12-1-5.47-4.67,5.47-6.41.16-.19,6.6,5.64Zm3.93-24.91-2.92-2.49-4.78-4.08,4.78-5.59,1.79-2.1,7.7,6.57Z"/><rect class="cls-10" x="145.97" y="83.72" width="3.86" height="3.86" transform="translate(-13.27 142.5) rotate(-49.51)"/><polygon class="cls-10" points="139.82 117.48 136.65 121.2 139.82 123.91 140.48 124.47 143.74 120.64 139.92 117.38 139.82 117.48"/><polygon class="cls-15" points="151.42 109.92 151.23 110.14 148.63 113.18 147.27 114.77 152.13 118.92 153.48 117.33 154.44 116.21 156.27 114.06 151.42 109.92"/><polygon class="cls-16" points="156.74 90.46 153.28 94.5 154.36 95.43 155.95 96.78 157.33 97.96 160.78 93.91 156.74 90.46"/><rect class="cls-10" x="71.32" y="104.76" width="19.44" height="19.44" transform="translate(-32.66 32.35) rotate(-18.86)"/><rect class="cls-17" x="111.52" y="14.92" width="12.51" height="12.51" transform="translate(25.19 96.99) rotate(-49.51)"/><rect class="cls-18" x="152.24" y="15.82" width="10.72" height="10.72" transform="translate(39.16 127.28) rotate(-49.51)"/><polygon class="cls-19" points="112.18 72.53 108.94 69.76 108.43 70.36 104.3 75.19 109.73 79.83 114.38 74.4 112.18 72.53"/><rect class="cls-20" x="109.09" y="46.14" width="8.45" height="8.45" transform="translate(1.44 103.83) rotate(-49.51)"/><rect class="cls-21" x="156.38" y="58.55" width="12.51" height="12.51" transform="translate(7.74 146.4) rotate(-49.51)"/><polygon class="cls-22" points="145.03 78.83 142.88 81.35 135.75 89.7 146.62 98.98 151.77 92.95 155.9 88.12 145.03 78.83"/><polygon class="cls-23" points="153.04 120.44 142.52 111.71 132.84 123.04 145.05 134.24 153.85 123.7 155.17 122.22 153.04 120.44"/><polygon class="cls-24" points="152.25 131.16 152.06 131.38 145.29 139.31 152.06 145.08 153.44 146.27 160.41 138.12 152.25 131.16"/><rect class="cls-25" x="157.08" y="117.62" width="10.72" height="10.72" transform="translate(-36.56 166.65) rotate(-49.51)"/><rect class="cls-26" x="191.97" y="70.59" width="8.93" height="8.93" transform="translate(11.8 175.71) rotate(-49.51)"/><rect class="cls-27" x="132.43" y="25.46" width="7.25" height="7.25" transform="translate(25.59 113.67) rotate(-49.51)"/><rect class="cls-28" x="185.16" y="33.63" width="9.97" height="9.97" transform="translate(37.31 158.14) rotate(-49.51)"/><rect class="cls-29" x="112" y="58.78" width="12.05" height="12.05" transform="translate(-7.9 112.48) rotate(-49.51)"/><polygon class="cls-30" points="132.83 43.01 128.06 38.93 127.3 39.82 121.23 46.93 129.23 53.76 136.06 45.76 132.83 43.01"/><rect class="cls-31" x="111.16" y="33.28" width="6.22" height="6.22" transform="translate(12.4 99.66) rotate(-49.51)"/><polygon class="cls-32" points="147.4 41.63 146.05 43.2 141.6 48.42 148.39 54.22 151.61 50.45 154.19 47.43 147.4 41.63"/><polygon class="cls-33" points="163.65 78.08 157.02 72.42 150.19 80.42 158.19 87.25 163.65 80.85 165.02 79.25 163.65 78.08"/><polygon class="cls-34" points="191.82 105.83 185.18 100.17 178.35 108.17 186.35 115 191.82 108.6 193.18 107 191.82 105.83"/><polygon class="cls-35" points="169.03 83.66 167.4 85.57 163.06 90.66 167.4 94.37 170.06 96.64 176.03 89.64 169.03 83.66"/><rect class="cls-36" x="176.46" y="47.98" width="4.77" height="4.77" transform="translate(24.41 153.67) rotate(-49.51)"/><polygon class="cls-37" points="166.67 103.5 166.56 103.63 162.63 108.22 166.56 111.57 167.36 112.26 171.4 107.53 166.67 103.5"/><rect class="cls-38" x="178.89" y="83.56" width="7.89" height="7.89" transform="translate(-2.44 169.73) rotate(-49.51)"/><rect class="cls-39" x="182.48" y="65.88" width="6.58" height="6.58" transform="translate(12.54 165.53) rotate(-49.51)"/><path class="cls-40" d="M181.13,122l0,46.59a9.36,9.36,0,0,1-4.67,8.09l-79.69,46a9.41,9.41,0,0,1-9.34,0h0L7.76,176.8a9.38,9.38,0,0,1-4.68-8.1l0-91.91A9.35,9.35,0,0,1,7.81,68.7l79.68-46,1.78,3.08-79.69,46a5.81,5.81,0,0,0-2.89,5L6.64,168.7a5.82,5.82,0,0,0,2.9,5l79.62,45.91a5.79,5.79,0,0,0,5.78,0l79.69-46a5.81,5.81,0,0,0,2.89-5l.06-46.59Z"/><g class="cls-41"><path class="cls-42" d="M92.91,190.72,14.34,177.11c1.51-3,5.28-2.66,8.11-4,.95-.38,2.08.19,3,0a2.79,2.79,0,0,1,1.7.38c-2.08,1.14-4,2.47-5.85,3.61a31.38,31.38,0,0,0,9.43,0c1.51-.38,3-1.52,4.53-2.28a12.61,12.61,0,0,0-3.59,1.71c-.18,0-.75.19-.75-.19.19-.38.75-.57,1.13-.95.19,0,.38,0,.38.19,6-4.75,14.33-3.61,21.31-6.09l1.7-1.14c.94-.38,1.7-1.33,2.83-1.9a8.27,8.27,0,0,0,3.2-4.37.67.67,0,0,0-.18-.38A29,29,0,0,1,53,168c-4,2.09-8.3,1.71-12.45,2.29.19-.38.57-.38.94-.38,0-.58.38-.77.76-1.15h.56c.19,0,.19-.38.38-.38.38,0,.94-.19.75-.19-.56-.76-1.69.57-2.64,0,.38-.38.19-.95.57-1.14h.75a1.33,1.33,0,0,1,.38-.76c2.83-1.71,5.47-3,8.11-4.56-.57,0-.94.57-1.51.19.38,0,0-.57.38-.57,2.07-.57,3.77-1.72,5.85-2.48-.76,0-1.32.57-2.08,0,.38-.19.57-.57,1.13-.57v-.57c0-.19.19-.19.38-.19a.66.66,0,0,1-.38-.19c.19-.38.76-.19,1.14-.57-.19,0-.57,0-.57-.19a3.74,3.74,0,0,1,2.45-1.14c-.19-.38-.75,0-.75-.38,0-.19.19-.19.37-.19h-.37c-.38-.19-.19-.57-.19-.76,1.13-1.33,1.13-3,1.7-4.56-.19,0-.38,0-.38-.2-1.89,2.1-4.91,2.86-7.74,3.62h-.94a3.79,3.79,0,0,1-3.2-.19,12.72,12.72,0,0,1-1.89-1.52A22.14,22.14,0,0,0,39.8,149a42,42,0,0,0-14.52-2.09c2.08-1.14,4.36-1.24,6.6-1.9,3.21-.95,6.23-2.09,9.62-1.9a6.24,6.24,0,0,0-1.88,0c-2.64-.19-5.29.57-8.11,1.14-1.89.38-3.59,1.14-5.47,1.52-1.14.38-1.7,1.52-3,1.33v-.57c1.88-2.28,4.15-4.56,7.17-4.75,3.39-.57,6.6,0,10,.38a47.51,47.51,0,0,1,7.17,1.33c.94,0,1.13,1.52,1.88,1.71,1.14.38,2.27,0,3.4.76,0-.38-.19-.76,0-1.14.75-.76,1.7.19,2.45-.19,1.51-1-1.32-2.66-2.07-4a.66.66,0,0,1,.19-.38c1.5,1.33,2.64,2.85,4.52,3.8,1,.38,3.21.95,2.83-.19-.94-2.09-2.83-3.8-4.34-5.71v-.76c-.37,0-.37-.19-.56-.38v-.76c-.76-.38-.57-1.14-.95-1.71-.56-.95-.18-2.28-.56-3.42a20,20,0,0,1-.76-3.24c-.56-3.23-1.32-6.08-1.69-9.12-.38-3.62,2.07-6.47,3.77-9.7a16.2,16.2,0,0,1,5.28-6.09c.57-2.28,2.07-4.18,3.58-6.09,1.7-2.09,4.34-3,6.61-4.18,5.57-3.9,18.8-6.56,27.93-5.85A42.3,42.3,0,0,1,115.42,92a14,14,0,0,1,4.73,4.1c.38.57.95,1.71.57,2.47-.38,1-.57,2.48-1.51,2.86a7,7,0,0,1-4,.38,9.3,9.3,0,0,1-2.26-.38c2.82,1.14,5.46,2.47,7.35,5.13.19.38.94.57,1.7.57.19,0,.19.38.19.57-.38.38-.76.58-.57,1.15h.57c.94-.39.75-2.29,2.07-1.72a2.18,2.18,0,0,1,.76,2.86,20.06,20.06,0,0,1-2.27,1.9,1.62,1.62,0,0,0,0,1.33,5.85,5.85,0,0,1,.95,2.28c.56,1.33.75,2.85,1.32,4.19a27.31,27.31,0,0,1,1.32,8.55c0,1.53-.76,2.86-.19,4.38a15.93,15.93,0,0,0,2.07,4,28,28,0,0,1,2.08,3.05c1.13,1.9,3.2,3.8,2.26,6.08-.57,1.33-2.64,1.14-4,1.9-1.13,1-.19,2.47.38,3.43.94,1.71-1.14,2.85-2.46,3.42.38.57,1.14.38,1.32.76.19.95,1.14,1.52.57,2.47-.75,1.14-3,1.71-1.89,3.43.76,1.33.27,2.81-.18,4.18a4.64,4.64,0,0,1-3.4,2.85,7.63,7.63,0,0,1-3.58.19,2.7,2.7,0,0,0-1.14-.38c-3.2-.38-6.41-1.33-9.61-1.33a10.6,10.6,0,0,0-2.64.76,18.54,18.54,0,0,0-6.61,9.89s-5.53,9.64-6.49,13.42"/><path class="cls-43" d="M119.21,127.85a12.32,12.32,0,0,0-3.21,0,26.47,26.47,0,0,0-4.15,1.14,13.17,13.17,0,0,1,3.59-1.9,15.53,15.53,0,0,1,2.82-.76c1.14-.19,2.27-.57,3.21-.19s2.45.38,2.64,1c.38,1.14-.56,2.28-1.69,3-.19.38.56.57.56,1a1.34,1.34,0,0,1-1.13.57c-.38.19-.75.76-1.13,1.14.38,0,0,.57.38.57-.76.95.37,2.85-.76,3.23a8.4,8.4,0,0,1-4.34,0c.76-.19,1.7.19,2.26-.57v-.76c0-.19-.18-.19-.37-.19a.59.59,0,0,1-.38.19.84.84,0,0,0-.56-.76,3.21,3.21,0,0,1-2.83-1.14,2.62,2.62,0,0,1,1.69-.19c.57,0,.38-1,1-1.33h.56c1.13-1.52,3.4-1.9,3.78-3.43C121.1,128,120,128,119.21,127.85Z"/></g></g></svg>